<?xml version="1.0" encoding="utf-8"?>
<!-- Generator: Adobe Illustrator 16.0.0, SVG Export Plug-In . SVG Version: 6.00 Build 0)  -->
<!DOCTYPE svg PUBLIC "-//W3C//DTD SVG 1.1//EN" "http://www.w3.org/Graphics/SVG/1.1/DTD/svg11.dtd">
<svg version="1.1" id="Calque_1" xmlns="http://www.w3.org/2000/svg" xmlns:xlink="http://www.w3.org/1999/xlink" x="0px" y="0px"
	 width="1150px" height="500px" viewBox="0 0 1150 500" enable-background="new 0 0 1150 500" xml:space="preserve">
<rect x="441" y="80" display="none" fill="#303CB5" width="600" height="340"/>
<polygon fill="none" stroke="#000000" stroke-miterlimit="10" points="302,368 281,182 601,44 842,438 567,474 "/>
<path fill="none" stroke="#000000" stroke-miterlimit="10" d="M330,106l29-20c0,0,19-4,19-16s30-14,30-14s36,29,45,25s18-39,31-37
	s95,32.491,115,30.959S680,53,682,81s107,119,117,129s94,137,94,161S709.125,489.954,699,474s-158-47-182-47s-73,16-107,12
	S282,142,330,106z"/>
</svg>
