<?xml version="1.0" standalone="no"?>
<!DOCTYPE svg PUBLIC "-//W3C//DTD SVG 20010904//EN"
 "http://www.w3.org/TR/2001/REC-SVG-20010904/DTD/svg10.dtd">
<svg version="1.0" xmlns="http://www.w3.org/2000/svg"
 width="500.000000pt" height="500.000000pt" viewBox="0 0 500.000000 500.000000"
 preserveAspectRatio="xMidYMid meet">
<metadata>
Created by potrace 1.11, written by Peter Selinger 2001-2013
</metadata>
<g transform="translate(0.000000,500.000000) scale(0.100000,-0.100000)"
fill="#000000" stroke="none">
<path d="M2151 4048 c-30 -68 -36 -76 -94 -110 -288 -170 -686 -580 -836 -863
-64 -120 13 -259 143 -259 79 0 110 24 196 152 74 111 198 268 247 314 l25 23
-14 -35 c-8 -19 -243 -567 -522 -1217 -278 -650 -506 -1184 -506 -1187 0 -3
163 -6 363 -6 l364 0 35 88 c20 48 77 189 128 315 l92 227 733 0 733 0 11 -32
c6 -17 10 -33 8 -34 -2 -2 -82 -11 -178 -19 -463 -42 -679 -122 -900 -332
-138 -131 -252 -301 -340 -508 -55 -131 -59 -169 -25 -240 61 -123 220 -151
316 -55 19 19 44 58 54 85 59 157 190 364 279 440 154 133 290 177 632 210
142 13 256 27 307 38 6 1 27 -38 48 -88 l36 -90 363 -3 c344 -2 362 -1 357 16
-3 10 -67 159 -141 332 -74 173 -135 319 -135 325 0 5 16 52 35 103 19 51 76
228 125 393 150 497 197 589 335 655 160 75 165 283 10 360 -70 34 -119 30
-218 -19 -137 -68 -248 -191 -333 -372 -42 -88 -124 -323 -170 -487 -10 -38
-21 -68 -24 -68 -3 0 -199 453 -435 1008 l-430 1007 -321 3 -321 2 -32 -72z
m582 -1333 c126 -311 231 -574 234 -585 5 -20 1 -20 -466 -20 -324 0 -471 3
-471 11 0 17 462 1159 469 1159 3 0 109 -255 234 -565z"/>
</g>
</svg>
