<?xml version="1.0" standalone="no"?>
<!DOCTYPE svg PUBLIC "-//W3C//DTD SVG 1.1//EN" "http://www.w3.org/Graphics/SVG/1.1/DTD/svg11.dtd" >
<svg xmlns="http://www.w3.org/2000/svg">
<metadata>
Created by FontPrep 20130207 at Tue May 20 17:24:55 2014
 By Adrien
Copyright (c) 2014 by Rene' Bieder. All rights reserved.
</metadata>
<defs>
<font id="0e15bc800a9496efaf80db8335497f8c" horiz-adv-x='1024' >
  <font-face 
    font-family="Campton-ThinItalic"
    font-weight="250"
    font-style="italic"
    font-stretch="normal"
    units-per-em="2048"
    panose-1="0 0 3 0 0 0 0 0 0 0"
    ascent="1638"
    descent="-410"
    x-height="922"
    cap-height="1393"
    bbox="-184 -532 3023 1944"
    underline-thickness="102"
    underline-position="-102"
    slope="-10"
    unicode-range="U+0020-FB02"
  />
<missing-glyph horiz-adv-x="1781" 
d="M348 143h977l-977 977v-977zM1434 1249h-985l985 -985v985zM1577 1393v-1393h-1372v1393h1372z" />
    <glyph glyph-name="fi" unicode="fi" horiz-adv-x="1208" 
d="M755 1546q118 0 300 -67l-19 -37q-172 63 -280 63q-108 -1 -186 -71q-77 -70 -97 -187l-57 -325h669l-161 -922h-43l153 881h-624l-156 -881h-43l156 881h-283l8 41h281l57 325q23 135 115 217t210 82z" />
    <glyph glyph-name="fl" unicode="fl" horiz-adv-x="1185" 
d="M1157 1454l-258 -1454h-43l258 1454h43zM764 1546q70 0 162 -24l-19 -37q-86 20 -151 20q-106 0 -185 -72q-78 -73 -98 -190l-57 -321h362l-8 -41h-360l-156 -881h-43l156 881h-283l8 41h281l57 325q23 135 115 217t219 82z" />
    <glyph glyph-name=".notdef" horiz-adv-x="1781" 
d="M348 143h977l-977 977v-977zM1434 1249h-985l985 -985v985zM1577 1393v-1393h-1372v1393h1372z" />
    <glyph glyph-name=".null" horiz-adv-x="0" 
 />
    <glyph glyph-name="nonmarkingreturn" horiz-adv-x="681" 
 />
    <glyph glyph-name="space" unicode=" " horiz-adv-x="573" 
 />
    <glyph glyph-name="exclam" unicode="!" horiz-adv-x="503" 
d="M176 -16q-20 0 -34 13q-13 13 -13 33t13 34q14 14 34 14t34 -13t13 -33q0 -20 -13 -35q-14 -13 -34 -13zM250 328h-45l188 1065h45z" />
    <glyph glyph-name="quotedbl" unicode="&#x22;" horiz-adv-x="624" 
d="M631 1393l-94 -531h-43l94 531h43zM336 1393l-94 -531h-43l94 531h43z" />
    <glyph glyph-name="numbersign" unicode="#" horiz-adv-x="1454" 
d="M598 905l-201 -409h521l200 409h-520zM961 496h282l-4 -33h-295l-225 -463h-43l225 463h-520l-225 -463h-43l225 463h-236l4 33h248l201 409h-262l4 33h274l224 457h43l-224 -457h521l223 457h43l-223 -457h256l-4 -33h-269z" />
    <glyph glyph-name="dollar" unicode="$" horiz-adv-x="1337" 
d="M825 1423q227 0 342 -101t113 -271h-45q-5 159 -109 245t-311 86t-343 -103t-136 -261q0 -94 77 -161t220 -93l239 -47q146 -27 224 -104t78 -189q0 -197 -164 -326t-414 -129h-31l-45 -258h-43l45 260q-207 18 -310 135t-95 328h45q-4 -208 106 -316t336 -108
q225 0 374 115q148 115 148 289q0 102 -70 170q-71 68 -202 92l-246 49q-154 29 -236 105t-83 186q0 168 137 280t352 125l49 277h43l-49 -275h4z" />
    <glyph glyph-name="percent" unicode="%" horiz-adv-x="2304" 
d="M1671 14q154 0 272 113t117 270q0 123 -75 203q-76 80 -195 80q-154 0 -272 -113t-117 -272q-1 -121 75 -201t195 -80zM1796 723q135 0 221 -90t86 -227q0 -180 -131 -308t-309 -129q-135 0 -220 90t-85 228q0 180 131 308t307 128zM598 715q154 1 270 113t117 270
q0 122 -76 202t-194 80q-154 0 -272 -114t-117 -271q0 -121 76 -201t196 -79zM737 0h-49l909 1393h50zM723 1423q135 0 220 -90t85 -227q0 -180 -131 -308t-307 -128q-137 0 -222 90t-85 227q0 180 132 308t308 128z" />
    <glyph glyph-name="ampersand" unicode="&#x26;" horiz-adv-x="1507" 
d="M543 18q262 0 493 234l-250 250q-133 133 -219 231q-173 -53 -283 -161t-110 -250t98 -223t271 -81zM532 -23q-186 -1 -294 91t-109 250q0 158 124 278q124 119 288 168q-119 150 -119 274q0 164 123 275t289 111t252 -87q86 -86 75 -245h-41q6 141 -69 216
q-77 74 -223 74t-254 -98t-108 -239t136 -290q57 -65 93 -101l372 -371l326 350h47l-344 -377l258 -256h-66l-225 225q-242 -248 -531 -248z" />
    <glyph glyph-name="quotesingle" unicode="'" horiz-adv-x="329" 
d="M346 1393l-94 -531h-43l94 531h43z" />
    <glyph glyph-name="parenleft" unicode="(" horiz-adv-x="729" 
d="M713 1481l18 -35q-215 -150 -341 -348t-173 -471q-49 -248 9 -462t216 -362l-30 -30q-168 145 -230 375q-61 230 -10 485q95 553 541 848z" />
    <glyph glyph-name="parenright" unicode=")" horiz-adv-x="729" 
d="M344 1450l31 31q168 -145 229 -375t10 -485q-94 -553 -540 -848l-19 34q215 150 341 349t173 471q49 248 -9 462t-216 361z" />
    <glyph glyph-name="asterisk" unicode="*" horiz-adv-x="808" 
d="M829 1200l9 -35l-275 -71l187 -187l-27 -26l-186 186l-72 -272l-35 8l72 276l-275 -71l-10 34l272 72l-180 180l27 27l182 -182l72 276l35 -10l-72 -275z" />
    <glyph glyph-name="plus" unicode="+" horiz-adv-x="1398" 
d="M752 625l-76 -432h-47l76 432h-431l9 43h430l75 432h48l-76 -432h430l-8 -43h-430z" />
    <glyph glyph-name="comma" unicode="," horiz-adv-x="364" 
d="M116 78q20 0 34 -13t14 -33t-35 -85l-149 -275h-37l163 318q-37 6 -36 41q0 19 13 33t33 14z" />
    <glyph glyph-name="hyphen" unicode="-" horiz-adv-x="1134" 
d="M913 596l-8 -43h-643l8 43h643z" />
    <glyph glyph-name="period" unicode="." horiz-adv-x="299" 
d="M74 -16q-20 0 -34 13q-13 13 -13 33t13 34q14 14 34 14t34 -13t13 -33q0 -20 -13 -35q-14 -13 -34 -13z" />
    <glyph glyph-name="slash" unicode="/" horiz-adv-x="819" 
d="M-12 -328h-45l888 1823h46z" />
    <glyph glyph-name="zero" unicode="0" horiz-adv-x="1462" 
d="M651 10q299 0 486 241q186 241 186 603q0 244 -112 386t-318 142q-299 0 -485 -240t-187 -603q-1 -245 111 -387t319 -142zM901 1423q225 -1 347 -153t122 -410q0 -385 -202 -638t-525 -253q-225 0 -347 153t-122 410q0 385 202 638t525 253z" />
    <glyph glyph-name="one" unicode="1" horiz-adv-x="1015" 
d="M870 41l-8 -41h-862l8 41h430l228 1298l-426 -157l8 47l450 164h21l-238 -1352h389z" />
    <glyph glyph-name="two" unicode="2" horiz-adv-x="1140" 
d="M696 1382q-164 0 -294 -91t-175 -240h-43q44 168 188 270t328 102t287 -97q105 -97 105 -256t-98 -285t-365 -343l-490 -401h809l-8 -41h-897l6 27l547 444q129 103 198 165q182 162 225 280q26 69 25 151q0 141 -92 228t-256 87z" />
    <glyph glyph-name="three" unicode="3" horiz-adv-x="1155" 
d="M1020 410q0 -190 -148 -312t-366 -121q-219 -1 -338 91t-105 239h46q-8 -131 97 -210t301 -79t332 108t136 277q0 129 -89 206t-243 77h-121l6 41h121q176 -1 292 105t116 270q0 127 -89 204q-89 76 -247 76t-274 -76t-156 -206h-47q41 147 171 235t308 88t278 -85
q101 -85 101 -229q0 -143 -84 -251t-223 -151q105 -33 165 -111t60 -186z" />
    <glyph glyph-name="four" unicode="4" horiz-adv-x="1323" 
d="M1155 332h-254l-59 -332h-43l59 332h-780l6 26l633 1035h47l-621 -1020h721l86 487h43l-86 -487h256z" />
    <glyph glyph-name="five" unicode="5" horiz-adv-x="1187" 
d="M1047 475q1 141 -97 225t-272 84l-359 -2l9 43h360q188 0 296 -93t108 -251q0 -211 -167 -361t-393 -151q-226 1 -342 105q-115 104 -118 288h47q4 -166 108 -259t309 -93t358 138t153 327zM319 782h-43l109 611h789l-7 -41h-747z" />
    <glyph glyph-name="six" unicode="6" horiz-adv-x="1253" 
d="M551 10q219 0 375 144t155 358q0 162 -104 260t-275 98q-215 0 -362 -129l-25 -26q-143 -143 -143 -342q0 -163 104 -263t275 -100zM709 911q188 1 304 -107t115 -284q0 -238 -171 -394t-414 -157q-188 0 -303 110q-115 111 -115 299t160 363l610 652h63l-512 -539
q130 57 263 57z" />
    <glyph glyph-name="seven" unicode="7" horiz-adv-x="1026" 
d="M1153 1393l-4 -29l-948 -1364h-58l944 1352h-874l6 41h934z" />
    <glyph glyph-name="eight" unicode="8" horiz-adv-x="1265" 
d="M562 10q204 0 352 117t149 297q0 133 -109 214t-313 81q-205 0 -351 -110t-147 -285q0 -142 107 -228q108 -86 312 -86zM326 1014q0 -123 94 -193q94 -69 270 -69t304 94t128 254q0 123 -94 204q-94 80 -263 80t-304 -108t-135 -262zM1110 428q0 -199 -164 -329
t-414 -130q-202 -1 -318 95t-116 254t113 271q113 112 301 148q-109 31 -169 101t-60 172q0 172 149 293q150 121 356 120q168 0 274 -90t105 -229q0 -138 -94 -236t-250 -133q135 -29 211 -111t76 -196z" />
    <glyph glyph-name="nine" unicode="9" horiz-adv-x="1253" 
d="M1171 1020q0 164 -104 263t-274 99q-219 0 -375 -143t-156 -358q0 -162 104 -260t275 -99q216 0 363 129l24 27q143 143 143 342zM801 1423q188 1 303 -109t115 -298t-160 -365l-610 -651h-64l512 539q-129 -57 -262 -58q-188 0 -304 108t-116 283q0 238 171 394t415 157
z" />
    <glyph glyph-name="colon" unicode=":" horiz-adv-x="299" 
d="M80 -16q-20 0 -34 13q-13 13 -13 33t13 34q14 14 34 14t34 -13t13 -33q0 -20 -13 -35q-14 -13 -34 -13zM236 848q-20 0 -34 13t-14 33t14 34t34 14t33 -13t13 -33t-12 -34q-14 -14 -34 -14z" />
    <glyph glyph-name="semicolon" unicode=";" horiz-adv-x="323" 
d="M31 31q0 19 13 33q14 14 34 14t34 -13t13 -33q0 -20 -35 -85l-149 -275h-37l164 318q-37 6 -37 41zM236 848q-20 0 -34 13t-14 33t14 34t34 14t33 -13t13 -33t-12 -34q-14 -14 -34 -14z" />
    <glyph glyph-name="less" unicode="&#x3c;" horiz-adv-x="1112" 
d="M82 637l940 430l-8 -51l-887 -408l743 -401l-8 -47l-788 430z" />
    <glyph glyph-name="equal" unicode="=" horiz-adv-x="1480" 
d="M1233 457h-987l8 43h987zM1303 846h-988l7 43h987z" />
    <glyph glyph-name="greater" unicode="&#x3e;" horiz-adv-x="1112" 
d="M1073 590l-940 -430l8 51l887 407l-743 402l8 47l788 -430z" />
    <glyph glyph-name="question" unicode="?" 
d="M473 78q19 0 33 -13t14 -33t-13 -34t-33 -14t-35 13q-13 13 -13 33t13 35q14 13 34 13zM758 1423q158 0 260 -102t102 -256q0 -197 -154 -339t-374 -142l-41 -234h-41l41 275h47q197 0 337 129t140 303q0 139 -93 232q-92 93 -232 93t-256 -76t-166 -196h-45
q55 141 186 227t289 86z" />
    <glyph glyph-name="at" unicode="@" horiz-adv-x="1937" 
d="M907 115q190 0 334 164q0 45 10 110l47 264q-88 152 -261 152t-296 -114t-123 -285q0 -129 81 -210t208 -81zM1110 1280q299 0 499 -197t199 -481q0 -210 -106 -362t-285 -152q-156 0 -174 148q-147 -162 -346 -162q-141 0 -232 90t-92 235q1 191 139 319t319 128
t276 -137l18 98h43l-74 -418q-23 -127 5 -193t124 -67q147 0 243 135q95 135 95 328q0 270 -188 458t-469 187q-227 0 -438 -115q-211 -114 -345 -316t-135 -433q0 -279 186 -465t470 -186q283 0 532 182l23 -37q-261 -189 -563 -189t-500 195t-197 489q-1 250 141 464
t365 334t467 120z" />
    <glyph glyph-name="A" unicode="A" horiz-adv-x="1517" 
d="M1147 541l-234 807l-516 -807h750zM1159 500h-788l-320 -500h-53l899 1403h47l408 -1403h-47z" />
    <glyph glyph-name="B" unicode="B" horiz-adv-x="1452" 
d="M690 41q233 -1 384 107t151 278q0 129 -109 200t-311 70h-483l-115 -655h483zM752 737q233 1 371 97t139 262q0 116 -92 186t-248 70h-486l-106 -615h422zM1274 432q0 -190 -166 -311t-426 -121h-528l245 1393h529q176 0 279 -80t103 -216q0 -137 -87 -235
q-88 -98 -256 -139q307 -55 307 -291z" />
    <glyph glyph-name="C" unicode="C" horiz-adv-x="1656" 
d="M1028 1378q-283 0 -515 -200q-233 -200 -283 -482.5t112 -482t444 -199.5q225 0 408.5 118t265.5 306h49q-88 -207 -286.5 -337t-442.5 -130q-301 0 -475 212t-120.5 513t302 513t549.5 212q244 0 395.5 -130t167.5 -337h-49q-16 188 -156.5 306t-365.5 118z" />
    <glyph glyph-name="D" unicode="D" horiz-adv-x="1556" 
d="M608 41q346 0 576 220q229 220 229 556q0 242 -155 388t-418 147h-404l-229 -1311h401zM846 1393q284 0 450 -156t166 -414q0 -356 -245 -590q-246 -233 -617 -233h-446l245 1393h447z" />
    <glyph glyph-name="E" unicode="E" horiz-adv-x="1366" 
d="M436 1352l-110 -635h798l-8 -41h-799l-110 -635h880l-8 -41h-925l245 1393h926l-8 -41h-881z" />
    <glyph glyph-name="F" unicode="F" horiz-adv-x="1304" 
d="M436 1352l-117 -666h779l-6 -41h-779l-114 -645h-45l245 1393h906l-9 -41h-860z" />
    <glyph glyph-name="G" unicode="G" horiz-adv-x="1693" 
d="M1030 1378q-283 0 -516 -200q-234 -200 -284 -483.5t109 -482t431 -198.5t469 182.5t256 458.5h-608l6 41h655v-6l-123 -690h-45l72 412q-102 -201 -281.5 -321t-398.5 -120q-299 0 -470 211t-118 513t303 514t551 212q231 0 388 -131t173 -336h-45q-14 186 -162.5 305
t-361.5 119z" />
    <glyph glyph-name="H" unicode="H" horiz-adv-x="1554" 
d="M1483 1393l-246 -1393h-45l119 678h-994l-118 -678h-45l245 1393h45l-118 -676h993l119 676h45z" />
    <glyph glyph-name="I" unicode="I" horiz-adv-x="516" 
d="M199 0h-45l245 1393h45z" />
    <glyph glyph-name="J" unicode="J" horiz-adv-x="1267" 
d="M506 10q182 0 318 127t175 346l162 910h45l-162 -910q-42 -237 -194 -375t-350 -138t-305 104q-106 104 -111 278h45q6 -158 101 -250q94 -92 276 -92z" />
    <glyph glyph-name="K" unicode="K" horiz-adv-x="1468" 
d="M672 743l604 -743h-62l-579 711l-365 -310l-71 -401h-45l245 1393h45l-163 -926l1091 926h64z" />
    <glyph glyph-name="L" unicode="L" horiz-adv-x="1222" 
d="M1026 41l-8 -41h-864l245 1393h45l-237 -1352h819z" />
    <glyph glyph-name="M" unicode="M" horiz-adv-x="1740" 
d="M1669 1393l-246 -1393h-45l234 1311l-742 -983h-49l-393 985l-229 -1313h-45l245 1393h50l403 -1016l766 1016h51z" />
    <glyph glyph-name="N" unicode="N" horiz-adv-x="1601" 
d="M1530 1393l-246 -1393h-53l-797 1333l-235 -1333h-45l245 1393h52l798 -1334l236 1334h45z" />
    <glyph glyph-name="O" unicode="O" horiz-adv-x="1744" 
d="M793 14q207 0 394 106t302 288t115 387q0 247 -161 415t-409 168q-207 0 -394 -105t-302 -287t-115 -388q0 -248 161 -416t409 -168zM1040 1421q266 0 438 -178t173 -442q0 -219 -123 -412t-323 -305t-419 -113q-266 1 -438 179t-172 442q0 219 123 412t323 305t418 112z
" />
    <glyph glyph-name="P" unicode="P" horiz-adv-x="1368" 
d="M698 553q238 0 393 129t154 332q0 154 -108 246q-109 92 -297 92h-404l-139 -799h401zM846 1393q207 -1 328 -103t120 -270q0 -224 -171 -366t-433 -142h-401l-90 -512h-45l245 1393h447z" />
    <glyph glyph-name="Q" unicode="Q" horiz-adv-x="1744" 
d="M223 598q0 -248 161 -416t409 -168q207 0 394 106t302 288t115 387q0 247 -161 415t-409 168q-207 0 -394 -105t-302 -287t-115 -388zM1651 813q-1 -252 -145 -456t-369 -306l299 -379l-37 -32l-307 391q-147 -59 -306 -60q-266 1 -438 179t-172 442q0 219 123 412
q123 194 323 306t418 111q266 0 438 -178t173 -430z" />
    <glyph glyph-name="R" unicode="R" horiz-adv-x="1423" 
d="M725 594q242 0 393.5 118.5t151.5 319.5q0 150 -110.5 235t-301.5 85h-422l-133 -758h422zM1317 1038q0 -207 -148.5 -337t-392.5 -146l402 -555h-60l-397 553h-424l-98 -553h-45l245 1393h467q209 0 330 -94.5t121 -260.5z" />
    <glyph glyph-name="S" unicode="S" horiz-adv-x="1337" 
d="M822 1423q230 0 345 -101t113 -271h-45q-4 158 -108.5 244.5t-311.5 86.5t-343 -103t-136 -261q0 -94 76.5 -160.5t220.5 -93.5l239 -47q145 -27 223.5 -103.5t78.5 -189.5q0 -197 -164 -326t-411 -129t-368.5 119t-113.5 346h45q-4 -207 106.5 -315.5t335.5 -108.5
t373.5 115t148.5 289q0 102 -70.5 169.5t-201.5 92.5l-246 49q-154 29 -236.5 104.5t-82.5 186.5q0 176 151.5 291.5t381.5 115.5z" />
    <glyph glyph-name="T" unicode="T" horiz-adv-x="1273" 
d="M1368 1352h-553l-237 -1352h-46l238 1352h-553l8 41h1151z" />
    <glyph glyph-name="U" unicode="U" horiz-adv-x="1579" 
d="M700 -31q-252 0 -382 171t-85 425l146 828h45l-145 -828q-43 -235 75 -395t349 -160q232 0 407 160q174 160 217 395l146 828h45l-146 -828q-45 -256 -232 -426q-188 -170 -440 -170z" />
    <glyph glyph-name="V" unicode="V" horiz-adv-x="1476" 
d="M1575 1393l-901 -1403h-47l-406 1403h49l389 -1344l863 1344h53z" />
    <glyph glyph-name="W" unicode="W" horiz-adv-x="2158" 
d="M2212 1393l-737 -1403h-43l-207 1337l-682 -1337h-43l-242 1403h45l227 -1336l682 1336h45l207 -1334l699 1334h49z" />
    <glyph glyph-name="X" unicode="X" horiz-adv-x="1335" 
d="M739 694l447 -694h-56l-423 659l-658 -659h-65l696 694l-420 699h57l396 -664l626 664h68z" />
    <glyph glyph-name="Y" unicode="Y" horiz-adv-x="1310" 
d="M680 526l-92 -526h-45l92 526l-438 867h51l414 -820l708 820h55z" />
    <glyph glyph-name="Z" unicode="Z" horiz-adv-x="1341" 
d="M1333 1358l-1190 -1317h959l-8 -41h-1024l6 35l1196 1317h-944l8 41h1003z" />
    <glyph glyph-name="bracketleft" unicode="[" horiz-adv-x="698" 
d="M164 -184h268l-6 -41h-311l303 1720h311l-8 -41h-268z" />
    <glyph glyph-name="backslash" unicode="\" horiz-adv-x="819" 
d="M147 1495l570 -1823h-45l-570 1823h45z" />
    <glyph glyph-name="bracketright" unicode="]" horiz-adv-x="698" 
d="M596 1454h-268l6 41h311l-303 -1720h-311l8 41h268z" />
    <glyph glyph-name="asciicircum" unicode="^" horiz-adv-x="765" 
d="M745 922h-45l-180 430l-332 -430h-45l365 471h41z" />
    <glyph glyph-name="underscore" unicode="_" horiz-adv-x="1390" 
d="M-25 -324h1164l-9 -38h-1163z" />
    <glyph glyph-name="grave" unicode="`" 
d="M684 1167h-49l-180 279h51z" />
    <glyph glyph-name="a" unicode="a" horiz-adv-x="1280" 
d="M563 10q246 0 426 213l84 473q-104 213 -350 213q-207 -1 -370 -155t-163 -359q0 -165 104 -275t269 -110zM143 389q1 225 179 393t412 168t351 -184l29 156h43l-164 -922h-43l27 154q-184 -184 -420 -185q-180 0 -297 121t-117 299z" />
    <glyph glyph-name="b" unicode="b" horiz-adv-x="1277" 
d="M543 12q207 0 369 155t163 359q0 164 -105 275t-270 110q-242 0 -426 -211l-84 -475q109 -213 353 -213zM709 952q180 0 296 -121t115 -299q0 -225 -178 -393t-410 -168t-354 185l-26 -156h-43l256 1454h43l-121 -686q184 184 422 184z" />
    <glyph glyph-name="c" unicode="c" horiz-adv-x="1185" 
d="M705 909q-190 0 -333 -130q-142 -130 -176 -318t63 -318.5t288 -130.5q137 0 247.5 71t159.5 187h47q-55 -135 -181 -217t-281 -82q-209 0 -317.5 141.5t-72 348.5t195.5 348t368 141q156 0 251 -81t105 -218h-47q-10 117 -95 187.5t-222 70.5z" />
    <glyph glyph-name="d" unicode="d" horiz-adv-x="1280" 
d="M563 12q244 0 428 213l84 473q-109 213 -352 213q-207 0 -370 -154.5t-163 -359.5q0 -162 105.5 -273.5t267.5 -111.5zM143 391q0 225 178.5 393t412 168t353.5 -184l121 686h43l-258 -1454h-43l29 156q-188 -184 -422 -185q-180 0 -297 121t-117 299z" />
    <glyph glyph-name="e" unicode="e" horiz-adv-x="1220" 
d="M696 909q-174 0 -315 -122t-182 -302h827q23 184 -66.5 304t-263.5 120zM705 950q201 0 299 -141t63 -356q0 -6 -2 -9h-872q-27 -180 71 -306t277 -126q125 0 229 53.5t158 143.5h49q-59 -109 -178 -173.5t-264 -64.5q-203 0 -311.5 142.5t-74 347.5t194.5 347t361 142z
" />
    <glyph glyph-name="f" unicode="f" horiz-adv-x="733" 
d="M756 1505q-106 0 -185 -72q-78 -73 -98 -190l-57 -321h383l-8 -41h-381l-156 -881h-43l156 881h-283l8 41h281l57 325q23 135 115 217t219 82q70 0 162 -24l-19 -37q-85 20 -151 20z" />
    <glyph glyph-name="g" unicode="g" horiz-adv-x="1280" 
d="M543 10q123 0 241 56t207 157l82 473q-51 100 -149 156t-222 57q-210 1 -362 -155t-152 -365q0 -163 98 -271t257 -108zM476 -510q-186 0 -289 82t-113 217h47q10 -117 102 -187t258 -71q166 0 296 112t163 296l39 217q-190 -186 -442 -187q-176 0 -285 118t-109 296
q0 229 168 398t409 169t365 -184l29 156h43l-174 -983q-35 -203 -178 -326t-329 -123z" />
    <glyph glyph-name="h" unicode="h" horiz-adv-x="1171" 
d="M719 952q170 0 257 -105t54 -290l-98 -557h-43l98 557q31 166 -47 260t-215 94t-256 -56t-195 -153l-122 -702h-43l256 1454h43l-121 -682q79 84 193 132t239 48z" />
    <glyph glyph-name="i" unicode="i" horiz-adv-x="505" 
d="M354 922l-161 -922h-43l161 922h43zM399 1241q-20 0 -33 13q-14 14 -14 34t14 34t33 13q19 0 33 -13q14 -14 14 -34t-13 -34q-14 -13 -34 -13z" />
    <glyph glyph-name="j" unicode="j" horiz-adv-x="520" 
d="M383 922l-166 -942q-33 -184 -111 -262t-229 -78l6 41q129 1 197 69t94 230l166 942h43zM416 1241q-20 0 -34 13q-13 14 -13 34t13 34q14 14 34 13q20 0 34 -13q14 -14 13 -34q0 -20 -13 -34q-14 -13 -34 -13z" />
    <glyph glyph-name="k" unicode="k" horiz-adv-x="1130" 
d="M510 532l446 -532h-57l-424 506l-266 -203l-53 -303h-43l256 1454h43l-193 -1089l733 557h66z" />
    <glyph glyph-name="l" unicode="l" horiz-adv-x="452" 
d="M424 1454l-258 -1454h-43l258 1454h43z" />
    <glyph glyph-name="m" unicode="m" horiz-adv-x="1839" 
d="M1415 952q164 0 240 -104t43 -291l-99 -557h-43l99 557q31 168 -36 261t-202 93t-247 -60t-185 -167q0 -70 -10 -127l-98 -557h-43l98 557q31 168 -37 261t-199 93q-264 0 -420 -206l-124 -705h-43l163 922h43l-26 -146q160 176 401 176q119 0 194 -56t95 -161
q168 217 436 217z" />
    <glyph glyph-name="n" unicode="n" horiz-adv-x="1171" 
d="M719 952q170 0 257 -105.5t54 -289.5l-98 -557h-43l98 557q31 166 -47 260t-215 94t-255 -55t-194 -151l-124 -705h-43l163 922h43l-26 -148q80 84 193.5 131t236.5 47z" />
    <glyph glyph-name="o" unicode="o" horiz-adv-x="1288" 
d="M563 10q207 0 369 155t162 359q0 162 -104 274t-267 111q-207 -1 -370 -155t-163 -359q0 -165 104 -275t269 -110zM729 950q180 0 296 -121t116 -299q0 -225 -178 -393t-406 -168q-180 0 -297 121t-117 299q1 225 179 393t407 168z" />
    <glyph glyph-name="p" unicode="p" horiz-adv-x="1269" 
d="M543 10q207 0 369 155t163 359q0 162 -105 274t-268 111q-244 0 -428 -213l-84 -473q109 -213 353 -213zM709 950q180 0 297 -121t116 -299q0 -225 -178 -393t-412 -168t-354 185l-121 -686h-43l258 1454h43l-28 -156q189 184 422 184z" />
    <glyph glyph-name="q" unicode="q" horiz-adv-x="1280" 
d="M563 10q244 0 428 215l84 471q-109 213 -352 213q-207 -1 -370 -155t-163 -359q0 -165 104 -275t269 -110zM143 389q1 225 179 393t412 168t353 -184l27 156h43l-256 -1454h-43l121 688q-182 -186 -422 -187q-180 0 -297 121t-117 299z" />
    <glyph glyph-name="r" unicode="r" horiz-adv-x="671" 
d="M315 922l-36 -211q80 111 195.5 176t234.5 65l-7 -41q-121 0 -240.5 -78.5t-199.5 -209.5l-110 -623h-43l163 922h43z" />
    <glyph glyph-name="s" unicode="s" horiz-adv-x="1116" 
d="M512 10q162 0 261 67.5t99 182.5q0 147 -180 178l-213 35q-119 20 -178 66.5t-59 134.5q0 125 110.5 201.5t280.5 76.5t267 -76.5t85 -201.5h-41q6 113 -73.5 175t-238.5 62t-253 -62.5t-94 -166.5q0 -70 47 -108.5t155 -59.5l195 -33q106 -18 169.5 -64t63.5 -151
q0 -137 -113.5 -217t-290.5 -80t-281.5 78t-112.5 211h45q10 -115 99 -181.5t251 -66.5z" />
    <glyph glyph-name="t" unicode="t" horiz-adv-x="845" 
d="M502 10q68 0 160 21l2 -37q-98 -25 -170 -25q-127 0 -186.5 93.5t-33.5 246.5l101 572h-287l6 41h287l61 348h43l-61 -348h356l-6 -41h-356l-101 -572q-25 -135 25.5 -217t159.5 -82z" />
    <glyph glyph-name="u" unicode="u" horiz-adv-x="1196" 
d="M453 -31q-170 -1 -256 105t-56 291l99 557h43l-99 -557q-29 -167 49 -261q77 -94 215 -94t256 56t193 151l123 705h43l-162 -922h-43l27 147q-80 -84 -195 -131t-237 -47z" />
    <glyph glyph-name="v" unicode="v" horiz-adv-x="1161" 
d="M1137 922l-615 -922h-51l-291 922h47l277 -871l583 871h50z" />
    <glyph glyph-name="w" unicode="w" horiz-adv-x="1570" 
d="M1550 922l-512 -922h-47l-137 850l-434 -850h-47l-189 922h45l174 -856l441 856h43l137 -861l479 861h47z" />
    <glyph glyph-name="x" unicode="x" horiz-adv-x="1060" 
d="M565 459l324 -459h-53l-306 426l-458 -426h-62l496 461l-313 461h51l295 -428l450 428h62z" />
    <glyph glyph-name="y" unicode="y" horiz-adv-x="1148" 
d="M1155 922l-946 -1454h-55l307 471l-311 983h49l295 -932l606 932h55z" />
    <glyph glyph-name="z" unicode="z" horiz-adv-x="1001" 
d="M954 887l-845 -846h696l-8 -41h-756l6 35l844 846h-666l8 41h728z" />
    <glyph glyph-name="braceleft" unicode="{" horiz-adv-x="733" 
d="M496 1186l-41 -223q-45 -264 -201 -320q72 -29 92 -105t-4 -214l-39 -224q-23 -135 27 -217t157 -82l-6 -41q-127 0 -187 94t-34 246l39 224q29 162 -13 230t-171 69l8 41q129 0 195 68t94 231l41 223q27 154 119 247q93 93 221 93l-9 -41q-104 0 -184 -88t-104 -211z
" />
    <glyph glyph-name="bar" unicode="|" horiz-adv-x="516" 
d="M463 1495l-322 -1823h-45l322 1823h45z" />
    <glyph glyph-name="braceright" unicode="}" horiz-adv-x="733" 
d="M301 100l41 224q45 264 201 319q-72 29 -92 106t4 214l39 223q22 135 -28 217t-157 82l6 41q127 0 187 -93t35 -247l-39 -223q-29 -162 13 -231t171 -68l-8 -41q-129 0 -195 -69t-94 -230l-41 -224q-27 -154 -120 -246t-220 -94l8 41q104 0 186 88q80 88 103 211z" />
    <glyph glyph-name="asciitilde" unicode="~" horiz-adv-x="966" 
d="M817 791h41q0 -63 -30 -105t-72 -54q-94 -29 -170 23l-148 105q-39 28 -86 28t-84 -32t-37 -94h-41q0 84 52 128q89 76 221 7l147 -105q39 -28 87 -28t84 33t36 94z" />
    <glyph glyph-name="exclamdown" unicode="&#xa1;" horiz-adv-x="501" 
d="M256 610h45l-188 -1065h-45zM330 954q20 0 34 -13t13 -33q0 -20 -13 -34q-14 -14 -34 -14t-34 13q-13 13 -13 33t13 35q14 13 34 13z" />
    <glyph glyph-name="cent" unicode="&#xa2;" horiz-adv-x="1187" 
d="M705 909q-191 0 -333 -130t-176 -318q-34 -189 63 -319t288 -130q137 0 248 71t159 187h47q-55 -135 -181 -217t-281 -82h-9l-45 -260h-43l47 262q-186 19 -280 157t-59 331t178 331t334 156l49 279h43l-49 -277h8q156 0 251 -81t105 -218h-47q-10 117 -95 187t-222 71z
" />
    <glyph glyph-name="sterling" unicode="&#xa3;" horiz-adv-x="1320" 
d="M890 1423q198 0 302 -105t90 -284h-45q10 160 -83 254t-271 94t-311 -112q-132 -113 -164 -297l-60 -338h557l-8 -41h-555l-98 -553h858l-8 -41h-1082l8 41h179l98 553h-180l8 41h178l59 338q34 203 182 327t346 123z" />
    <glyph glyph-name="yen" unicode="&#xa5;" horiz-adv-x="1310" 
d="M672 479h403l-8 -43h-403l-29 -172h401l-8 -43h-401l-39 -221h-45l39 221h-389l8 43h389l28 172h-387l9 43h387l8 47l-438 867h51l414 -820l708 820h55l-745 -867z" />
    <glyph glyph-name="brokenbar" unicode="&#xa6;" horiz-adv-x="518" 
d="M141 -328h-45l144 807h45zM322 688h-46l142 807h45z" />
    <glyph glyph-name="section" unicode="&#xa7;" horiz-adv-x="1103" 
d="M160 606q0 -62 45 -116t153 -109l160 -82q123 -63 125 -66q125 6 213 71t88 177q0 63 -46 118q-47 55 -153 110l-159 84q-18 10 -38 20q-20 9 -46 23q-25 14 -37 20q-127 -4 -216 -70t-89 -180zM291 1081q-1 150 115 241t287 91t263 -82t86 -225h-41q4 125 -77 196
q-82 70 -232 70t-253 -77t-103 -210q0 -74 61 -129t203 -127l172 -88q109 -57 163 -116t54 -140q0 -119 -87 -193t-204 -93q115 -84 115 -191q0 -150 -115 -240t-286 -92q-171 0 -264 82t-87 226h41q-4 -125 78 -196t233 -71t254 76t103 209q0 78 -54 128t-212 130l-172 88
q-217 109 -217 256q0 121 88 196t205 93q-117 82 -117 188z" />
    <glyph glyph-name="dieresis" unicode="&#xa8;" 
d="M825 1278q23 0 37 -14t14 -37t-14 -37t-37 -14t-37 14t-14 37t14 37t37 14zM485 1278q23 0 37 -14t14 -37t-14 -37t-37 -14q-49 0 -51 51q0 23 14 37t37 14z" />
    <glyph glyph-name="copyright" unicode="&#xa9;" horiz-adv-x="1798" 
d="M924 1063q-132 0 -236 -108q-104 -107 -104 -259t104 -260t236 -106q132 0 220 66q89 66 118 167h43q-31 -119 -133 -195t-250 -75q-146 0 -263 119q-117 118 -117 284t117 285t263 119t249 -76q102 -76 134 -195h-43q-29 102 -118 168t-220 66zM938 8q287 0 496 200
q208 200 208 488t-208 489q-209 199 -496 199t-495 -200q-207 -200 -207 -488t208 -488t494 -200zM940 1423q307 0 526 -209q220 -209 220 -518t-220 -518t-526 -209q-307 0 -526 209t-219 518t219 518t526 209z" />
    <glyph glyph-name="ordfeminine" unicode="&#xaa;" horiz-adv-x="724" 
d="M389 801q160 0 281 106l30 176h-274q-115 0 -169 -43t-54 -107t50 -98t136 -34zM552 1405q104 0 160 -79t33 -206l-59 -340h-39l15 80q-129 -100 -285 -100q-98 0 -157 44q-58 44 -58 125t68 136q69 55 202 55h275q20 113 -27 182q-47 68 -135 68t-156 -36t-90 -93h-43
q25 74 108 119q84 45 188 45z" />
    <glyph glyph-name="guillemotleft" unicode="&#xab;" horiz-adv-x="827" 
d="M733 811l-301 -299l197 -291h-51l-199 295l301 295h53zM446 811l-301 -299l197 -291h-51l-199 295l301 295h53z" />
    <glyph glyph-name="registered" unicode="&#xae;" horiz-adv-x="1110" 
d="M526 963h160q53 1 92 33t39 84t-39 85t-92 33h-160v-235zM526 930v-189h-34v490h194q70 0 119 -43t49 -109q0 -65 -48 -107t-120 -42h-2l180 -189h-47l-178 189h-113zM657 578q168 0 291 118t123 287q0 170 -123 288t-291 118q-169 0 -291 -118t-122 -288
q0 -169 122 -287t291 -118zM657 1423q185 0 319 -127t134 -313t-133 -313t-319 -127t-320 127q-133 127 -133 313t133 313t319 127z" />
    <glyph glyph-name="macron" unicode="&#xaf;" 
d="M930 1245l-8 -37h-566l9 37h565z" />
    <glyph glyph-name="degree" unicode="&#xb0;" horiz-adv-x="1028" 
d="M627 821q119 0 201 81t83 199q0 117 -83 199q-84 82 -202 82t-201 -82t-83 -200t83 -198q83 -81 202 -81zM627 1423q139 0 234 -93t95 -229q0 -135 -95 -229t-234 -94t-235 93q-95 93 -95 229t95 230q96 93 235 93z" />
    <glyph glyph-name="plusminus" unicode="&#xb1;" horiz-adv-x="1398" 
d="M1098 156l-8 -43h-906l9 43h905zM1188 666h-428l-66 -369h-47l66 369h-430l8 43h430l65 370h48l-66 -370h428z" />
    <glyph glyph-name="twosuperior" unicode="&#xb2;" horiz-adv-x="722" 
d="M684 1232q0 60 -46 102t-130 42t-146 -45t-83 -121h-43q25 94 98 150q74 55 177 55t159 -51t57 -133q0 -82 -52 -149t-192 -179l-252 -203h422l-6 -38h-502l5 24l301 242q92 74 132 109q101 91 101 195z" />
    <glyph glyph-name="threesuperior" unicode="&#xb3;" horiz-adv-x="745" 
d="M407 649q-123 0 -189 50t-60 132h45q-4 -67 50 -105q53 -38 155 -38t173 52t71 126t-49 112q-48 38 -130 38h-67l8 37h67q90 0 151 52q60 51 60 123t-47 110t-130 38t-141 -38t-81 -103h-43q25 82 97 131q73 49 173 49t156 -47t57 -123q-1 -76 -41 -131t-112 -80
q114 -39 114 -147t-82 -173t-205 -65z" />
    <glyph glyph-name="acute" unicode="&#xb4;" 
d="M893 1446l-229 -279h-50l228 279h51z" />
    <glyph glyph-name="paragraph" unicode="&#xb6;" horiz-adv-x="1456" 
d="M797 1352h-217q-182 0 -306 -112t-124 -288t124 -288t306 -111h217v799zM1251 1393v-1721h-45v1680h-364v-1680h-45v840h-217q-203 0 -340 123q-138 123 -138 317t138 318q138 123 340 123h671z" />
    <glyph glyph-name="periodcentered" unicode="&#xb7;" horiz-adv-x="299" 
d="M160 481q-20 -1 -34 13t-13 34q0 20 13 34q14 14 34 13q20 0 34 -13q14 -14 13 -34q1 -20 -13 -34t-34 -13z" />
    <glyph glyph-name="cedilla" unicode="&#xb8;" 
d="M408 -449h-48l148 273h49z" />
    <glyph glyph-name="onesuperior" unicode="&#xb9;" horiz-adv-x="589" 
d="M584 700l-9 -38h-487l8 38h232l114 650l-229 -78l6 41l254 86h23l-125 -699h213z" />
    <glyph glyph-name="ordmasculine" unicode="&#xba;" horiz-adv-x="796" 
d="M484 788q118 0 222 100t103 218q0 118 -68 189q-69 71 -187 71t-219 -98t-101 -218t65 -191q67 -71 185 -71zM188 1030q0 152 118 264t256 111q138 0 214 -80q78 -80 78 -199q0 -152 -120 -264t-256 -112t-213 80t-77 200z" />
    <glyph glyph-name="guillemotright" unicode="&#xbb;" horiz-adv-x="827" 
d="M401 221l301 299l-196 291h51l199 -295l-301 -295h-54zM115 221l301 299l-197 291h51l199 -295l-301 -295h-53z" />
    <glyph glyph-name="onequarter" unicode="&#xbc;" horiz-adv-x="1693" 
d="M1544 170h-137l-29 -170h-41l29 170h-432l6 29l342 538h45l-330 -526h377l43 250h41l-43 -250h137zM1311 1393l-910 -1393h-49l910 1393h49zM88 659l8 39h232l114 650l-229 -78l6 41l254 86h23l-125 -699h213l-9 -39h-487z" />
    <glyph glyph-name="onehalf" unicode="&#xbd;" horiz-adv-x="1705" 
d="M1378 715q-84 0 -145 -45t-84 -121h-43q25 94 98 149q74 56 177 56t159 -52t57 -133q0 -83 -52 -149t-191 -178l-252 -203h422l-6 -39h-502l4 25l301 241q92 74 132 110q103 93 101 187q0 68 -46 110t-130 42zM1311 1393l-910 -1393h-49l910 1393h49zM88 659l8 39h232
l114 650l-229 -78l6 41l254 86h23l-125 -699h213l-9 -39h-487z" />
    <glyph glyph-name="threequarters" unicode="&#xbe;" horiz-adv-x="1697" 
d="M1544 170h-137l-29 -170h-41l29 170h-432l6 29l342 538h45l-330 -526h377l43 250h41l-43 -250h137zM1315 1393l-909 -1393h-50l910 1393h49zM694 894q0 -108 -82 -174q-82 -65 -205 -65q-123 1 -189 51t-60 132h45q-4 -66 50 -105q53 -39 155 -39t173 52t71 126t-49 112
q-48 38 -130 38h-67l8 37h67q90 0 151 52q60 51 60 123t-47 110t-130 38t-141 -38t-81 -103h-43q25 82 97 131q73 49 173 49t156 -47t57 -123q0 -76 -41 -131t-112 -80q114 -38 114 -146z" />
    <glyph glyph-name="questiondown" unicode="&#xbf;" 
d="M470 -315q-158 0 -259 102q-102 102 -102 256q0 197 153 339q154 142 375 142l41 234h41l-41 -275h-47q-197 0 -337 -129t-140 -303q0 -139 93 -232t233 -93t256 76t165 196h45q-54 -141 -186 -227t-290 -86zM756 1030q-20 0 -34 13q-13 13 -13 33t13 34q14 14 34 14
t34 -13t13 -33q0 -20 -13 -35q-14 -13 -34 -13z" />
    <glyph glyph-name="Agrave" unicode="&#xc0;" horiz-adv-x="1517" 
d="M1147 541l-234 807l-516 -807h750zM1159 500h-788l-320 -500h-53l899 1403h47l408 -1403h-47zM909 1556l-180 279h51l178 -279h-49z" />
    <glyph glyph-name="Aacute" unicode="&#xc1;" horiz-adv-x="1517" 
d="M1147 541l-234 807l-516 -807h750zM1159 500h-788l-320 -500h-53l899 1403h47l408 -1403h-47zM969 1556h-49l227 279h51z" />
    <glyph glyph-name="Acircumflex" unicode="&#xc2;" horiz-adv-x="1517" 
d="M1147 541l-234 807l-516 -807h750zM1159 500h-788l-320 -500h-53l899 1403h47l408 -1403h-47zM721 1565h-64l314 278h73l207 -278h-53l-192 250z" />
    <glyph glyph-name="Atilde" unicode="&#xc3;" horiz-adv-x="1517" 
d="M1147 541l-234 807l-516 -807h750zM1159 500h-788l-320 -500h-53l899 1403h47l408 -1403h-47zM700 1653h-38q0 73 43 109t101 33t105 -38l76 -53q70 -51 131 -31t62 103h39q0 -110 -84 -140t-166 33l-78 55q-59 47 -125 28t-66 -99z" />
    <glyph glyph-name="Adieresis" unicode="&#xc4;" horiz-adv-x="1517" 
d="M1147 541l-234 807l-516 -807h750zM1159 500h-788l-320 -500h-53l899 1403h47l408 -1403h-47zM1130 1606q-20 0 -35 14t-16 37t15 37t36 14t36 -14t16 -37t-16 -37t-36 -14zM791 1606q-20 0 -36 14q-15 14 -16 37t15 37t36 14t36 -14t16 -37t-16 -37t-35 -14z" />
    <glyph glyph-name="Aring" unicode="&#xc5;" horiz-adv-x="1517" 
d="M1147 541l-234 807l-516 -807h750zM1159 500h-788l-320 -500h-53l899 1403h47l408 -1403h-47zM961 1907q-57 0 -99 -41q-42 -42 -41 -100q0 -58 40 -98q39 -40 99 -40t100 40t40 98t-41 100t-98 41zM961 1591q-76 0 -127 50t-52 126q0 76 52 126q52 51 127 51
q77 0 127 -50t50 -127q0 -76 -50 -126q-51 -50 -127 -50z" />
    <glyph glyph-name="AE" unicode="&#xc6;" horiz-adv-x="2340" 
d="M1266 541l139 788l-823 -788h684zM1452 1352l-111 -635h799l-8 -41h-799l-110 -635h880l-8 -41h-926l88 500h-718l-523 -500h-59l1450 1393h934l-8 -41h-881z" />
    <glyph glyph-name="Ccedilla" unicode="&#xc7;" horiz-adv-x="1656" 
d="M705 -176h49l-150 -273h-47zM1028 1378q-283 0 -515 -200q-233 -200 -283 -482.5t112 -482t444 -199.5q225 0 408.5 118t265.5 306h49q-88 -207 -286.5 -337t-442.5 -130q-301 0 -475 212t-120.5 513t302 513t549.5 212q244 0 395.5 -130t167.5 -337h-49
q-16 188 -156.5 306t-365.5 118z" />
    <glyph glyph-name="Egrave" unicode="&#xc8;" horiz-adv-x="1366" 
d="M436 1352l-110 -635h798l-8 -41h-799l-110 -635h880l-8 -41h-925l245 1393h926l-8 -41h-881zM852 1556l-180 279h51l178 -279h-49z" />
    <glyph glyph-name="Eacute" unicode="&#xc9;" horiz-adv-x="1366" 
d="M436 1352l-110 -635h798l-8 -41h-799l-110 -635h880l-8 -41h-925l245 1393h926l-8 -41h-881zM911 1556h-49l228 279h51z" />
    <glyph glyph-name="Ecircumflex" unicode="&#xca;" horiz-adv-x="1366" 
d="M436 1352l-110 -635h798l-8 -41h-799l-110 -635h880l-8 -41h-925l245 1393h926l-8 -41h-881zM664 1565h-64l313 278h74l207 -278h-53l-193 250z" />
    <glyph glyph-name="Edieresis" unicode="&#xcb;" horiz-adv-x="1366" 
d="M436 1352l-110 -635h798l-8 -41h-799l-110 -635h880l-8 -41h-925l245 1393h926l-8 -41h-881zM1073.5 1606q-20.5 0 -36 14t-15.5 36.5t15.5 37t36 14.5t35.5 -14.5t15 -37t-15 -36.5t-35.5 -14zM733.5 1606q-20.5 0 -36 14t-15.5 36.5t15.5 37t36 14.5t35.5 -14.5t15 -37
t-15 -36.5t-35.5 -14z" />
    <glyph glyph-name="Igrave" unicode="&#xcc;" horiz-adv-x="516" 
d="M199 0h-45l245 1393h45zM461 1556h-49l-181 279h52z" />
    <glyph glyph-name="Iacute" unicode="&#xcd;" horiz-adv-x="516" 
d="M199 0h-45l245 1393h45zM700 1835l-229 -279h-49l227 279h51z" />
    <glyph glyph-name="Icircumflex" unicode="&#xce;" horiz-adv-x="516" 
d="M199 0h-45l245 1393h45zM508 1815l-285 -250h-63l313 278h74l207 -278h-54z" />
    <glyph glyph-name="Idieresis" unicode="&#xcf;" horiz-adv-x="516" 
d="M199 0h-45l245 1393h45zM633 1708q23 0 37 -14t14 -37t-14 -37t-37 -14t-37 14t-14 37t14 37t37 14zM293 1708q23 0 37 -14t14 -37t-14 -37t-37 -14t-37 14t-14 37t14 37t37 14z" />
    <glyph glyph-name="Eth" unicode="&#xd0;" horiz-adv-x="1558" 
d="M608 41q346 0 576 220q229 220 229 556q0 242 -155 388t-418 147h-404l-110 -635h407l-8 -41h-408l-110 -635h401zM846 1393q284 0 450 -156t166 -414q0 -356 -245 -590q-246 -233 -617 -233h-446l118 676h-196l8 41h197l118 676h447z" />
    <glyph glyph-name="Ntilde" unicode="&#xd1;" horiz-adv-x="1601" 
d="M1530 1393l-246 -1393h-53l-797 1333l-235 -1333h-45l245 1393h52l798 -1334l236 1334h45zM766 1653h-39q0 72 43 108.5t101.5 33.5t105.5 -38l76 -53q70 -51 131 -30.5t61 102.5h39q0 -111 -84 -140.5t-166 33.5l-78 55q-59 47 -124.5 28t-65.5 -99z" />
    <glyph glyph-name="Ograve" unicode="&#xd2;" horiz-adv-x="1744" 
d="M793 14q207 0 394 106t302 288t115 387q0 247 -161 415t-409 168q-207 0 -394 -105t-302 -287t-115 -388q0 -248 161 -416t409 -168zM1040 1421q266 0 438 -178t173 -442q0 -219 -123 -412t-323 -305t-419 -113q-266 1 -438 179t-172 442q0 219 123 412t323 305t418 112z
M1092 1556h-50l-180 279h51z" />
    <glyph glyph-name="Oacute" unicode="&#xd3;" horiz-adv-x="1744" 
d="M793 14q207 0 394 106t302 288t115 387q0 247 -161 415t-409 168q-207 0 -394 -105t-302 -287t-115 -388q0 -248 161 -416t409 -168zM1040 1421q266 0 438 -178t173 -442q0 -219 -123 -412t-323 -305t-419 -113q-266 1 -438 179t-172 442q0 219 123 412t323 305t418 112z
M1331 1835l-229 -279h-49l227 279h51z" />
    <glyph glyph-name="Ocircumflex" unicode="&#xd4;" horiz-adv-x="1744" 
d="M793 14q207 0 394 106t302 288t115 387q0 247 -161 415t-409 168q-207 0 -394 -105t-302 -287t-115 -388q0 -248 161 -416t409 -168zM1040 1421q266 0 438 -178t173 -442q0 -219 -123 -412t-323 -305t-419 -113q-266 1 -438 179t-172 442q0 219 123 412t323 305t418 112z
M1139 1815l-285 -250h-63l313 278h74l206 -278h-53z" />
    <glyph glyph-name="Otilde" unicode="&#xd5;" horiz-adv-x="1744" 
d="M793 14q207 0 394 106t302 288t115 387q0 247 -161 415t-409 168q-207 0 -394 -105t-302 -287t-115 -388q0 -248 161 -416t409 -168zM1040 1421q266 0 438 -178t173 -442q0 -219 -123 -412t-323 -305t-419 -113q-266 1 -438 179t-172 442q0 219 123 412t323 305t418 112z
M1313 1776h39q0 -111 -84 -141t-166 34l-78 55q-59 47 -125 28t-65 -99h-39q0 73 43 109t101 33t105 -38l76 -53q72 -50 132 -30t61 102z" />
    <glyph glyph-name="Odieresis" unicode="&#xd6;" horiz-adv-x="1757" 
d="M793 14q207 0 394 106t302 288t115 387q0 247 -161 415t-409 168q-207 0 -394 -105t-302 -287t-115 -388q0 -248 161 -416t409 -168zM1040 1421q266 0 438 -178t173 -442q0 -219 -123 -412t-323 -305t-419 -113q-266 1 -438 179t-172 442q0 219 123 412t323 305t418 112z
M1294 1708q20 0 36 -14t16 -37t-16 -37t-36 -14t-36 14q-15 14 -15 37t15 37q16 14 36 14zM954 1708q20 0 36 -14t16 -37t-16 -37t-36 -14t-35 14t-16 37t15 37t36 14z" />
    <glyph glyph-name="multiply" unicode="&#xd7;" horiz-adv-x="1331" 
d="M983 297l-37 -31l-287 348l-409 -348l-33 37l410 348l-279 342l37 31l279 -342l409 348l33 -37l-410 -348z" />
    <glyph glyph-name="Oslash" unicode="&#xd8;" horiz-adv-x="1757" 
d="M793 14q207 0 394 106t302 288t115 387q0 252 -164 419l-1053 -1036q160 -164 406 -164zM223 586q0 -217 137 -377l1049 1034q-156 135 -369 135t-400 -105t-302 -287t-115 -400zM1651 801q0 -219 -123 -412t-323 -305t-419 -113q-260 0 -432 172l-157 -153l-31 28
l160 156q-150 176 -150 406t123 424t323 306t429 112t393 -146l158 156l30 -29l-157 -156q176 -180 176 -446z" />
    <glyph glyph-name="Ugrave" unicode="&#xd9;" horiz-adv-x="1579" 
d="M700 -31q-252 0 -382 171t-85 425l146 828h45l-145 -828q-43 -235 75 -395t349 -160q232 0 407 160q174 160 217 395l146 828h45l-146 -828q-45 -256 -232 -426q-188 -170 -440 -170zM967 1556h-49l-181 279h51z" />
    <glyph glyph-name="Uacute" unicode="&#xda;" horiz-adv-x="1579" 
d="M700 -31q-252 0 -382 171t-85 425l146 828h45l-145 -828q-43 -235 75 -395t349 -160q232 0 407 160q174 160 217 395l146 828h45l-146 -828q-45 -256 -232 -426q-188 -170 -440 -170zM1206 1835l-229 -279h-49l227 279h51z" />
    <glyph glyph-name="Ucircumflex" unicode="&#xdb;" horiz-adv-x="1579" 
d="M700 -31q-252 0 -382 171t-85 425l146 828h45l-145 -828q-43 -235 75 -395t349 -160q232 0 407 160q174 160 217 395l146 828h45l-146 -828q-45 -256 -232 -426q-188 -170 -440 -170zM1014 1815l-285 -250h-63l313 278h74l207 -278h-54z" />
    <glyph glyph-name="Udieresis" unicode="&#xdc;" horiz-adv-x="1579" 
d="M700 -31q-252 0 -382 171t-85 425l146 828h45l-145 -828q-43 -235 75 -395t349 -160q232 0 407 160q174 160 217 395l146 828h45l-146 -828q-45 -256 -232 -426q-188 -170 -440 -170zM1139 1708q19 0 35 -14t16 -37t-15 -37t-35 -14t-37 14q-15 14 -16 37q0 23 16 37
t36 14zM799 1708q19 0 35 -14t16 -37t-15 -37t-35 -14t-37 14q-15 14 -15 37t15 37q16 14 36 14z" />
    <glyph glyph-name="Yacute" unicode="&#xdd;" horiz-adv-x="1310" 
d="M680 526l-92 -526h-45l92 526l-438 867h51l414 -820l708 820h55zM819 1556h-49l227 279h52z" />
    <glyph glyph-name="Thorn" unicode="&#xde;" horiz-adv-x="1366" 
d="M653 307q238 0 394 129t155 332q0 154 -109 246q-110 92 -298 92h-402l-141 -799h401zM803 1147q205 -1 325 -103t121 -270q0 -223 -170 -365t-432 -143h-401l-47 -266h-45l245 1393h45l-43 -246h402z" />
    <glyph glyph-name="germandbls" unicode="&#xdf;" horiz-adv-x="1206" 
d="M647 346q178 0 288 -83t109 -234q0 -193 -150 -331t-405 -138q-178 0 -339 82l8 45q154 -86 344 -86q233 0 365 127q132 128 132 280t-99 224t-259 73h-137l4 23l565 553h-782l-156 -881h-43l223 1268q23 126 113 202t217 76l-6 -41q-106 -1 -183 -65t-98 -172l-61 -346
h848l-6 -33l-555 -543h63z" />
    <glyph glyph-name="agrave" unicode="&#xe0;" horiz-adv-x="1280" 
d="M563 10q246 0 426 213l84 473q-104 213 -350 213q-207 -1 -370 -155t-163 -359q0 -165 104 -275t269 -110zM143 389q1 225 179 393t412 168t351 -184l29 156h43l-164 -922h-43l27 154q-184 -184 -420 -185q-180 0 -297 121t-117 299zM727 1126l-180 279h51l178 -279h-49z
" />
    <glyph glyph-name="aacute" unicode="&#xe1;" horiz-adv-x="1280" 
d="M563 10q246 0 426 213l84 473q-104 213 -350 213q-207 -1 -370 -155t-163 -359q0 -165 104 -275t269 -110zM143 389q1 225 179 393t412 168t351 -184l29 156h43l-164 -922h-43l27 154q-184 -184 -420 -185q-180 0 -297 121t-117 299zM784 1124h-49l228 279h51z" />
    <glyph glyph-name="acircumflex" unicode="&#xe2;" horiz-adv-x="1280" 
d="M563 10q246 0 426 213l84 473q-104 213 -350 213q-207 -1 -370 -155t-163 -359q0 -165 104 -275t269 -110zM143 389q1 225 179 393t412 168t351 -184l29 156h43l-164 -922h-43l27 154q-184 -184 -420 -185q-180 0 -297 121t-117 299zM573 1114h-63l313 279h74l207 -279
h-53l-193 250z" />
    <glyph glyph-name="atilde" unicode="&#xe3;" horiz-adv-x="1280" 
d="M563 10q246 0 426 213l84 473q-104 213 -350 213q-207 -1 -370 -155t-163 -359q0 -165 104 -275t269 -110zM143 389q1 225 179 393t412 168t351 -184l29 156h43l-164 -922h-43l27 154q-184 -184 -420 -185q-180 0 -297 121t-117 299zM567 1223h-39q0 73 43 109t101 33
t106 -38l76 -53q72 -51 132 -31t61 103h38q1 -110 -83 -140t-166 33l-78 55q-59 47 -125 28t-66 -99z" />
    <glyph glyph-name="adieresis" unicode="&#xe4;" horiz-adv-x="1280" 
d="M563 10q246 0 426 213l84 473q-104 213 -350 213q-207 -1 -370 -155t-163 -359q0 -165 104 -275t269 -110zM143 389q1 225 179 393t412 168t351 -184l29 156h43l-164 -922h-43l27 154q-184 -184 -420 -185q-180 0 -297 121t-117 299zM948 1217q-23 0 -37 14t-14 37t14 37
t37 14t37 -14t14 -37t-14 -37t-37 -14zM608 1217q-23 0 -37 14t-14 37t14 37t37 14t37 -14t14 -37t-14 -37t-37 -14z" />
    <glyph glyph-name="aring" unicode="&#xe5;" horiz-adv-x="1280" 
d="M563 10q246 0 426 213l84 473q-104 213 -350 213q-207 -1 -370 -155t-163 -359q0 -165 104 -275t269 -110zM143 389q1 225 179 393t412 168t351 -184l29 156h43l-164 -922h-43l27 154q-184 -184 -420 -185q-180 0 -297 121t-117 299zM778 1436q-57 0 -98 -41t-41 -99
t41 -99q41 -40 98 -40t99 40q41 40 41 98t-41 100q-42 41 -99 41zM778 1120q-76 0 -127 50t-51 126t51 126t127 50t127 -50t51 -126t-51 -126t-127 -50z" />
    <glyph glyph-name="ae" unicode="&#xe6;" horiz-adv-x="1990" 
d="M432 14q285 0 492 224q-31 102 -13 206h-454q-156 0 -237 -59t-81 -158.5t80 -156t213 -56.5zM1465 909q-169 0 -304 -108.5t-186 -272.5l-6 -43h821q23 184 -66.5 304t-258.5 120zM1470 950q199 0 297.5 -141t63.5 -356q0 -6 -2 -9h-873q-27 -180 71.5 -306t277.5 -126
q125 0 229 53.5t158 143.5h49q-59 -109 -178 -173.5t-256.5 -64.5t-231.5 61.5t-137 166.5q-223 -229 -518 -230q-150 0 -238 66.5t-88 184.5t95.5 191.5t275.5 73.5h453q4 16 12 45q18 170 -54.5 266.5t-240.5 96.5q-125 0 -218 -53.5t-130 -143.5h-49q45 109 152.5 173.5
t258 64.5t235.5 -76t95 -213q76 137 207.5 221t283.5 84z" />
    <glyph glyph-name="ccedilla" unicode="&#xe7;" horiz-adv-x="1185" 
d="M446 -176h50l-150 -273h-47zM705 909q-190 0 -333 -130q-142 -130 -176 -318t63 -318.5t288 -130.5q137 0 247.5 71t159.5 187h47q-55 -135 -181 -217t-281 -82q-209 0 -317.5 141.5t-72 348.5t195.5 348t368 141q156 0 251 -81t105 -218h-47q-10 117 -95 187.5
t-222 70.5z" />
    <glyph glyph-name="egrave" unicode="&#xe8;" horiz-adv-x="1220" 
d="M696 909q-174 0 -315 -122t-182 -302h827q23 184 -66.5 304t-263.5 120zM705 950q201 0 299 -141t63 -356q0 -6 -2 -9h-872q-27 -180 71 -306t277 -126q125 0 229 53.5t158 143.5h49q-59 -109 -178 -173.5t-264 -64.5q-203 0 -311.5 142.5t-74 347.5t194.5 347t361 142z
M700 1126l-180 279h51l179 -279h-50z" />
    <glyph glyph-name="eacute" unicode="&#xe9;" horiz-adv-x="1220" 
d="M696 909q-174 0 -315 -122t-182 -302h827q23 184 -66.5 304t-263.5 120zM705 950q201 0 299 -141t63 -356q0 -6 -2 -9h-872q-27 -180 71 -306t277 -126q125 0 229 53.5t158 143.5h49q-59 -109 -178 -173.5t-264 -64.5q-203 0 -311.5 142.5t-74 347.5t194.5 347t361 142z
M758 1124h-49l227 279h51z" />
    <glyph glyph-name="ecircumflex" unicode="&#xea;" horiz-adv-x="1220" 
d="M696 909q-174 0 -315 -122t-182 -302h827q23 184 -66.5 304t-263.5 120zM705 950q201 0 299 -141t63 -356q0 -6 -2 -9h-872q-27 -180 71 -306t277 -126q125 0 229 53.5t158 143.5h49q-59 -109 -178 -173.5t-264 -64.5q-203 0 -311.5 142.5t-74 347.5t194.5 347t361 142z
M547 1114h-64l314 279h73l207 -279h-53l-193 250z" />
    <glyph glyph-name="edieresis" unicode="&#xeb;" horiz-adv-x="1220" 
d="M696 909q-174 0 -315 -122t-182 -302h827q23 184 -66.5 304t-263.5 120zM705 950q201 0 299 -141t63 -356q0 -6 -2 -9h-872q-27 -180 71 -306t277 -126q125 0 229 53.5t158 143.5h49q-59 -109 -178 -173.5t-264 -64.5q-203 0 -311.5 142.5t-74 347.5t194.5 347t361 142z
M921.5 1217q-20.5 0 -36 14t-15.5 36.5t15.5 37t36 14.5t36 -14.5t15.5 -37t-15.5 -36.5t-36 -14zM581.5 1217q-20.5 0 -36 14t-15.5 36.5t15.5 37t36 14.5t36 -14.5t15.5 -37t-15.5 -36.5t-36 -14z" />
    <glyph glyph-name="igrave" unicode="&#xec;" horiz-adv-x="452" 
d="M330 922l-164 -922h-43l164 922h43zM348 1126h-49l-180 279h51z" />
    <glyph glyph-name="iacute" unicode="&#xed;" horiz-adv-x="452" 
d="M330 922l-164 -922h-43l164 922h43zM586 1403l-230 -279h-49l228 279h51z" />
    <glyph glyph-name="icircumflex" unicode="&#xee;" horiz-adv-x="452" 
d="M330 922l-164 -922h-43l164 922h43zM430 1364l-285 -250h-63l313 279h74l207 -279h-53z" />
    <glyph glyph-name="idieresis" unicode="&#xef;" horiz-adv-x="452" 
d="M330 922l-164 -922h-43l164 922h43zM520 1319q20 0 36 -14t15 -37q0 -23 -15 -37q-16 -14 -36 -14t-36 14q-15 14 -15 37t15 37q16 14 36 14zM180 1319q20 0 36 -14t15 -37q0 -23 -15 -37q-16 -14 -36 -14t-36 14q-15 14 -15 37t15 37q16 14 36 14z" />
    <glyph glyph-name="eth" unicode="&#xf0;" horiz-adv-x="1284" 
d="M563 10q203 0 370 163t167 382q0 154 -106 254t-294 100q-188 -1 -350 -155t-162 -359q0 -165 106 -275t269 -110zM1149 631q0 -293 -177 -477t-411 -185q-186 0 -302 120t-116 298q1 225 179 394t405 169q135 0 238 -67q102 -68 145 -185q-23 334 -264 549l-389 -137
l-6 39l360 127q-115 88 -262 127l61 20q143 -49 246 -131l158 56l6 -39l-133 -47q121 -109 191 -280t71 -351z" />
    <glyph glyph-name="ntilde" unicode="&#xf1;" horiz-adv-x="1171" 
d="M719 952q170 0 257 -105.5t54 -289.5l-98 -557h-43l98 557q31 166 -47 260t-215 94t-255 -55t-194 -151l-124 -705h-43l163 922h43l-26 -148q80 84 193.5 131t236.5 47zM473 1223h-39q0 72 43 108.5t101.5 33.5t105.5 -38l76 -53q72 -51 132 -30.5t60 102.5h39
q0 -111 -84 -140.5t-166 33.5l-77 55q-59 47 -125 28t-66 -99z" />
    <glyph glyph-name="ograve" unicode="&#xf2;" horiz-adv-x="1288" 
d="M563 10q207 0 369 155t162 359q0 162 -104 274t-267 111q-207 -1 -370 -155t-163 -359q0 -165 104 -275t269 -110zM729 950q180 0 296 -121t116 -299q0 -225 -178 -393t-406 -168q-180 0 -297 121t-117 299q1 225 179 393t407 168zM764 1126h-49l-180 279h51z" />
    <glyph glyph-name="oacute" unicode="&#xf3;" horiz-adv-x="1288" 
d="M563 10q207 0 369 155t162 359q0 162 -104 274t-267 111q-207 -1 -370 -155t-163 -359q0 -165 104 -275t269 -110zM729 950q180 0 296 -121t116 -299q0 -225 -178 -393t-406 -168q-180 0 -297 121t-117 299q1 225 179 393t407 168zM1001 1403l-229 -279h-49l227 279h51z
" />
    <glyph glyph-name="ocircumflex" unicode="&#xf4;" horiz-adv-x="1288" 
d="M563 10q207 0 369 155t162 359q0 162 -104 274t-267 111q-207 -1 -370 -155t-163 -359q0 -165 104 -275t269 -110zM729 950q180 0 296 -121t116 -299q0 -225 -178 -393t-406 -168q-180 0 -297 121t-117 299q1 225 179 393t407 168zM846 1364l-285 -250h-63l313 279h74
l207 -279h-54z" />
    <glyph glyph-name="otilde" unicode="&#xf5;" horiz-adv-x="1288" 
d="M563 10q207 0 369 155t162 359q0 162 -104 274t-267 111q-207 -1 -370 -155t-163 -359q0 -165 104 -275t269 -110zM729 950q180 0 296 -121t116 -299q0 -225 -178 -393t-406 -168q-180 0 -297 121t-117 299q1 225 179 393t407 168zM1034 1346h39q0 -111 -84 -141t-166 34
l-78 55q-59 47 -125 28t-65 -99h-39q0 73 43 109t101 33t106 -38l76 -53q72 -50 132 -30t60 102z" />
    <glyph glyph-name="odieresis" unicode="&#xf6;" horiz-adv-x="1288" 
d="M563 10q207 0 369 155t162 359q0 162 -104 274t-267 111q-207 -1 -370 -155t-163 -359q0 -165 104 -275t269 -110zM729 950q180 0 296 -121t116 -299q0 -225 -178 -393t-406 -168q-180 0 -297 121t-117 299q1 225 179 393t407 168zM956 1319q23 0 37 -14q15 -14 15 -37
t-14 -37t-38 -14q-49 0 -51 51q0 23 14 37t37 14zM616 1319q23 0 37 -14q15 -14 15 -37t-14 -37t-38 -14q-49 0 -51 51q0 23 14 37t37 14z" />
    <glyph glyph-name="divide" unicode="&#xf7;" horiz-adv-x="1396" 
d="M664 227q-20 -1 -34 13t-14 34t14 34t34 14t33 -14t13 -34t-12 -34q-14 -14 -34 -13zM283 668h905l-8 -43h-906zM793 969q-20 0 -34 13q-13 14 -13 34t12 34q14 14 34 13q20 0 34 -13q14 -14 14 -34t-14 -34t-33 -13z" />
    <glyph glyph-name="oslash" unicode="&#xf8;" horiz-adv-x="1288" 
d="M563 10q207 0 369 155t162 359q0 166 -107 277l-690 -682q104 -109 266 -109zM190 395q0 -143 80 -245l688 677q-98 82 -235 82q-207 -1 -370 -155t-163 -359zM1141 530q0 -225 -178 -393t-406 -168q-174 0 -295 117l-119 -117l-26 29l119 119q-92 115 -93 272
q1 225 179 393t407 168q154 0 262 -90l105 103l26 -29l-102 -100q121 -121 121 -304z" />
    <glyph glyph-name="ugrave" unicode="&#xf9;" horiz-adv-x="1171" 
d="M453 -31q-170 -1 -256 105t-56 291l99 557h43l-99 -557q-29 -167 49 -261q77 -94 215 -94t256 56t193 151l123 705h43l-162 -922h-43l27 147q-80 -84 -195 -131t-237 -47zM647 1126l-180 279h51l178 -279h-49z" />
    <glyph glyph-name="uacute" unicode="&#xfa;" horiz-adv-x="1196" 
d="M453 -31q-170 -1 -256 105t-56 291l99 557h43l-99 -557q-29 -167 49 -261q77 -94 215 -94t256 56t193 151l123 705h43l-162 -922h-43l27 147q-80 -84 -195 -131t-237 -47zM688 1124h-49l227 279h52z" />
    <glyph glyph-name="ucircumflex" unicode="&#xfb;" horiz-adv-x="1171" 
d="M453 -31q-170 -1 -256 105t-56 291l99 557h43l-99 -557q-29 -167 49 -261q77 -94 215 -94t256 56t193 151l123 705h43l-162 -922h-43l27 147q-80 -84 -195 -131t-237 -47zM422 1114h-64l314 279h73l207 -279h-53l-192 250z" />
    <glyph glyph-name="udieresis" unicode="&#xfc;" horiz-adv-x="1171" 
d="M453 -31q-170 -1 -256 105t-56 291l99 557h43l-99 -557q-29 -167 49 -261q77 -94 215 -94t256 56t193 151l123 705h43l-162 -922h-43l27 147q-80 -84 -195 -131t-237 -47zM848 1217q-20 0 -36 14q-15 14 -15 37t15 37q16 14 36 14t36 -14t15 -37q1 -23 -15 -37t-36 -14z
M508 1217q-20 0 -36 14q-15 14 -15 37t15 37q16 14 36 14t36 -14t15 -37q1 -23 -15 -37t-36 -14z" />
    <glyph glyph-name="yacute" unicode="&#xfd;" horiz-adv-x="1148" 
d="M1155 922l-946 -1454h-55l307 471l-311 983h49l295 -932l606 932h55zM657 1124h-49l228 279h51z" />
    <glyph glyph-name="thorn" unicode="&#xfe;" horiz-adv-x="1269" 
d="M543 10q207 0 369 155t163 359q0 162 -105 274t-268 111q-244 0 -428 -215l-84 -471q109 -213 353 -213zM709 950q180 0 297 -121t116 -299q0 -225 -178 -393t-412 -168t-354 185l-121 -686h-43l340 1925h43l-110 -629q182 186 422 186z" />
    <glyph glyph-name="ydieresis" unicode="&#xff;" horiz-adv-x="1148" 
d="M1155 922l-946 -1454h-55l307 471l-311 983h49l295 -932l606 932h55zM821 1217q-23 0 -37 14t-14 37t14 37t37 14t37 -14t14 -37t-14 -37t-37 -14zM481 1217q-23 0 -37 14t-14 37t14 37t37 14t37 -14t14 -37t-14 -37t-37 -14z" />
    <glyph glyph-name="Amacron" unicode="&#x100;" horiz-adv-x="1517" 
d="M1147 541l-234 807l-516 -807h750zM1159 500h-788l-320 -500h-53l899 1403h47l408 -1403h-47zM1227 1597h-565l8 37h565z" />
    <glyph glyph-name="amacron" unicode="&#x101;" horiz-adv-x="1280" 
d="M563 10q246 0 426 213l84 473q-104 213 -350 213q-207 -1 -370 -155t-163 -359q0 -165 104 -275t269 -110zM143 389q1 225 179 393t412 168t351 -184l29 156h43l-164 -922h-43l27 154q-184 -184 -420 -185q-180 0 -297 121t-117 299zM1092 1167h-566l9 37h565z" />
    <glyph glyph-name="Abreve" unicode="&#x102;" horiz-adv-x="1517" 
d="M1147 541l-234 807l-516 -807h750zM1159 500h-788l-320 -500h-53l899 1403h47l408 -1403h-47zM954 1579q-106 0 -176 68t-49 186h41q-16 -103 42 -159t143 -56t165 57t97 158h45q-20 -121 -111 -187t-197 -67z" />
    <glyph glyph-name="abreve" unicode="&#x103;" horiz-adv-x="1282" 
d="M563 10q246 0 426 213l84 473q-104 213 -350 213q-207 -1 -370 -155t-163 -359q0 -165 104 -275t269 -110zM143 389q1 225 179 393t412 168t351 -184l29 156h43l-164 -922h-43l27 154q-184 -184 -420 -185q-180 0 -297 121t-117 299zM784 1108q-106 0 -176 68t-49 186h41
q-16 -102 42 -158t143 -57q85 0 165 57t97 158h45q-20 -122 -111 -188t-197 -66z" />
    <glyph glyph-name="Aogonek" unicode="&#x104;" horiz-adv-x="1517" 
d="M1147 541l-234 807l-516 -807h750zM1335 -420q-104 0 -169 54t-64 143q0 141 196 246l-139 477h-788l-320 -500h-53l899 1403h47l408 -1403q-150 -67 -188 -143q-17 -35 -17 -76q0 -72 53 -114t141 -42q25 0 58 4l4 -43q-29 -6 -68 -6z" />
    <glyph glyph-name="aogonek" unicode="&#x105;" horiz-adv-x="1280" 
d="M563 10q246 0 426 213l84 473q-104 213 -350 213q-207 -1 -370 -155t-163 -359q0 -165 104 -275t269 -110zM983 -375q25 0 57 4l4 -43q-29 -6 -67 -6q-104 0 -169 54t-65 143q0 145 213 254l21 123q-184 -184 -420 -185q-180 0 -297 121t-117 299q1 225 179 393t412 168
t351 -184l29 156h43l-164 -922q-149 -66 -187 -143q-18 -35 -18 -91t54 -99q54 -42 141 -42z" />
    <glyph glyph-name="Cacute" unicode="&#x106;" horiz-adv-x="1656" 
d="M1028 1378q-283 0 -515 -200q-233 -200 -283 -482.5t112 -482t444 -199.5q225 0 408.5 118t265.5 306h49q-88 -207 -286.5 -337t-442.5 -130q-301 0 -475 212t-120.5 513t302 513t549.5 212q244 0 395.5 -130t167.5 -337h-49q-16 188 -156.5 306t-365.5 118zM1083 1556
h-49l228 279h51z" />
    <glyph glyph-name="cacute" unicode="&#x107;" horiz-adv-x="1185" 
d="M705 909q-190 0 -333 -130q-142 -130 -176 -318t63 -318.5t288 -130.5q137 0 247.5 71t159.5 187h47q-55 -135 -181 -217t-281 -82q-209 0 -317.5 141.5t-72 348.5t195.5 348t368 141q156 0 251 -81t105 -218h-47q-10 117 -95 187.5t-222 70.5zM772 1124h-49l227 279h51z
" />
    <glyph glyph-name="Cdotaccent" unicode="&#x10a;" horiz-adv-x="1656" 
d="M1028 1378q-283 0 -515 -200q-233 -200 -283 -482.5t112 -482t444 -199.5q225 0 408.5 118t265.5 306h49q-88 -207 -286.5 -337t-442.5 -130q-301 0 -475 212t-120.5 513t302 513t549.5 212q244 0 395.5 -130t167.5 -337h-49q-16 188 -156.5 306t-365.5 118zM1095.5 1606
q-22.5 0 -37 14t-14.5 36.5t14.5 37t37 14.5t37 -14.5t14.5 -37t-14.5 -36.5t-37 -14z" />
    <glyph glyph-name="cdotaccent" unicode="&#x10b;" horiz-adv-x="1185" 
d="M705 909q-190 0 -333 -130q-142 -130 -176 -318t63 -318.5t288 -130.5q137 0 247.5 71t159.5 187h47q-55 -135 -181 -217t-281 -82q-209 0 -317.5 141.5t-72 348.5t195.5 348t368 141q156 0 251 -81t105 -218h-47q-10 117 -95 187.5t-222 70.5zM765.5 1217
q-20.5 0 -35.5 14t-15 36.5t15 37t35.5 14.5t36 -14.5t15.5 -37t-15.5 -36.5t-36 -14z" />
    <glyph glyph-name="Ccaron" unicode="&#x10c;" horiz-adv-x="1656" 
d="M1028 1378q-283 0 -515 -200q-233 -200 -283 -482.5t112 -482t444 -199.5q225 0 408.5 118t265.5 306h49q-88 -207 -286.5 -337t-442.5 -130q-301 0 -475 212t-120.5 513t302 513t549.5 212q244 0 395.5 -130t167.5 -337h-49q-16 188 -156.5 306t-365.5 118zM1096 1565
l-211 278h53l195 -250l282 250h62l-310 -278h-71z" />
    <glyph glyph-name="ccaron" unicode="&#x10d;" horiz-adv-x="1185" 
d="M713 950q156 0 251 -81t105 -218h-47q-10 117 -95 187.5t-222 70.5q-190 0 -333 -130q-142 -130 -176 -318t63 -318.5t288 -130.5q137 0 247.5 71t159.5 187h47q-55 -135 -181 -217t-281 -82q-209 0 -317.5 141.5t-72 348.5t195.5 348t368 141zM727 1114l-211 279h53
l195 -250l283 250h61l-309 -279h-72z" />
    <glyph glyph-name="Dcaron" unicode="&#x10e;" horiz-adv-x="1556" 
d="M608 41q346 0 576 220q229 220 229 556q0 242 -155 388t-418 147h-404l-229 -1311h401zM846 1393q284 0 450 -156t166 -414q0 -356 -245 -590q-246 -233 -617 -233h-446l245 1393h447zM883 1565l-211 278h53l195 -250l282 250h62l-310 -278h-71z" />
    <glyph glyph-name="dcaron" unicode="&#x10f;" horiz-adv-x="1280" 
d="M563 12q244 0 428 213l84 473q-109 213 -352 213q-207 0 -370 -154.5t-163 -359.5q0 -162 105.5 -273.5t267.5 -111.5zM1526 1454l-96 -348h-39l90 348h45zM143 391q0 225 178.5 393t412 168t353.5 -184l121 686h43l-258 -1454h-43l29 156q-188 -184 -422 -185
q-180 0 -297 121t-117 299z" />
    <glyph glyph-name="Dcroat" unicode="&#x110;" horiz-adv-x="1558" 
d="M608 41q346 0 576 220q229 220 229 556q0 242 -155 388t-418 147h-404l-110 -635h407l-8 -41h-408l-110 -635h401zM846 1393q284 0 450 -156t166 -414q0 -356 -245 -590q-246 -233 -617 -233h-446l118 676h-196l8 41h197l118 676h447z" />
    <glyph glyph-name="dcroat" unicode="&#x111;" horiz-adv-x="1280" 
d="M563 12q244 0 428 213l84 473q-109 213 -352 213q-207 0 -370 -154.5t-163 -359.5q0 -162 105.5 -273.5t267.5 -111.5zM143 391q0 225 178.5 393t412 168t353.5 -184l80 455h-387l6 39h388l34 192h43l-34 -192h157l-6 -39h-158l-217 -1223h-43l29 156
q-188 -184 -422 -185q-180 0 -297 121t-117 299z" />
    <glyph glyph-name="Emacron" unicode="&#x112;" horiz-adv-x="1366" 
d="M436 1352l-110 -635h798l-8 -41h-799l-110 -635h880l-8 -41h-925l245 1393h926l-8 -41h-881zM1169 1597h-565l8 37h566z" />
    <glyph glyph-name="emacron" unicode="&#x113;" horiz-adv-x="1220" 
d="M696 909q-174 0 -315 -122t-182 -302h827q23 184 -66.5 304t-263.5 120zM705 950q201 0 299 -141t63 -356q0 -6 -2 -9h-872q-27 -180 71 -306t277 -126q125 0 229 53.5t158 143.5h49q-59 -109 -178 -173.5t-264 -64.5q-203 0 -311.5 142.5t-74 347.5t194.5 347t361 142z
M1065 1167h-565l8 37h565z" />
    <glyph glyph-name="Edotaccent" unicode="&#x116;" horiz-adv-x="1325" 
d="M436 1352l-110 -635h798l-8 -41h-799l-110 -635h880l-8 -41h-925l245 1393h926l-8 -41h-881zM862.5 1606q-22.5 0 -37 14t-14.5 36.5t14.5 37t37 14.5t36.5 -14.5t14 -37t-14 -36.5t-36.5 -14z" />
    <glyph glyph-name="edotaccent" unicode="&#x117;" horiz-adv-x="1226" 
d="M696 909q-174 0 -315 -122t-182 -302h827q23 184 -66.5 304t-263.5 120zM705 950q201 0 299 -141t63 -356q0 -6 -2 -9h-872q-27 -180 71 -306t277 -126q125 0 229 53.5t158 143.5h49q-59 -109 -178 -173.5t-264 -64.5q-203 0 -311.5 142.5t-74 347.5t194.5 347t361 142z
M798.5 1217q-20.5 0 -35.5 14t-15 36.5t15 37t35.5 14.5t36 -14.5t15.5 -37t-15.5 -36.5t-36 -14z" />
    <glyph glyph-name="Eogonek" unicode="&#x118;" horiz-adv-x="1366" 
d="M874 -219q0 -72 53.5 -114t141.5 -42q25 0 57 4l4 -43q-29 -6 -67 -6q-104 0 -169 54.5t-65 142.5q0 129 156 223h-831l245 1393h926l-8 -41h-881l-110 -635h798l-8 -41h-799l-110 -635h880l-8 -41q-147 -66 -187 -144q-18 -34 -18 -75z" />
    <glyph glyph-name="eogonek" unicode="&#x119;" horiz-adv-x="1218" 
d="M690 909q-174 0 -315 -122t-182 -302h827q23 184 -66.5 304t-263.5 120zM698 950q201 0 299.5 -141t63.5 -356q0 -6 -2 -9h-873q-27 -180 71.5 -306t277.5 -126q125 0 229 53.5t158 143.5h49q-29 -51 -55.5 -78.5t-62.5 -64.5q-36 -36 -49 -54q-40 -54 -40 -126.5
t53 -114t141 -41.5q25 0 58 4l4 -43q-29 -6 -68 -6q-104 0 -168.5 54t-64.5 138t43 143q-111 -49 -234 -49q-203 0 -311 142.5t-73.5 347.5t194 347t360.5 142z" />
    <glyph glyph-name="Ecaron" unicode="&#x11a;" horiz-adv-x="1366" 
d="M436 1352l-110 -635h798l-8 -41h-799l-110 -635h880l-8 -41h-925l245 1393h926l-8 -41h-881zM924 1565l-211 278h53l195 -250l282 250h62l-310 -278h-71z" />
    <glyph glyph-name="ecaron" unicode="&#x11b;" horiz-adv-x="1220" 
d="M696 909q-174 0 -315 -122t-182 -302h827q23 184 -66.5 304t-263.5 120zM705 950q201 0 299 -141t63 -356q0 -6 -2 -9h-872q-27 -180 71 -306t277 -126q125 0 229 53.5t158 143.5h49q-59 -109 -178 -173.5t-264 -64.5q-203 0 -311.5 142.5t-74 347.5t194.5 347t361 142z
M713 1114l-211 279h53l195 -250l282 250h62l-310 -279h-71z" />
    <glyph glyph-name="Gbreve" unicode="&#x11e;" horiz-adv-x="1693" 
d="M1030 1378q-283 0 -516 -200q-234 -200 -284 -483.5t109 -482t431 -198.5t469 182.5t256 458.5h-608l6 41h655v-6l-123 -690h-45l72 412q-102 -201 -281.5 -321t-398.5 -120q-299 0 -470 211t-118 513t303 514t551 212q231 0 388 -131t173 -336h-45q-14 186 -162.5 305
t-361.5 119zM1069.5 1579q-106.5 0 -176.5 67.5t-49 186.5h41q-16 -102 42 -158.5t143 -56.5t165 57.5t96 157.5h45q-20 -121 -110 -187.5t-196.5 -66.5z" />
    <glyph glyph-name="gbreve" unicode="&#x11f;" horiz-adv-x="1280" 
d="M543 10q123 0 241 56t207 157l82 473q-51 100 -149 156t-222 57q-210 1 -362 -155t-152 -365q0 -163 98 -271t257 -108zM476 -510q-186 0 -289 82t-113 217h47q10 -117 102 -187t258 -71q166 0 296 112t163 296l39 217q-190 -186 -442 -187q-176 0 -285 118t-109 296
q0 229 168 398t409 169t365 -184l29 156h43l-174 -983q-35 -203 -178 -326t-329 -123zM727 1108q-106 0 -176 68t-49 186h41q-16 -102 42 -158t143 -57q85 0 165 57t96 158h45q-20 -122 -110 -188t-197 -66z" />
    <glyph glyph-name="Gdotaccent" unicode="&#x120;" horiz-adv-x="1705" 
d="M1030 1378q-283 0 -516 -200q-234 -200 -284 -483.5t109 -482t431 -198.5t469 182.5t256 458.5h-608l6 41h655v-6l-123 -690h-45l72 412q-102 -201 -281.5 -321t-398.5 -120q-299 0 -470 211t-118 513t303 514t551 212q231 0 388 -131t173 -336h-45q-14 186 -162.5 305
t-361.5 119zM1064.5 1606q-20.5 0 -35.5 14t-15 36.5t15 37t35.5 14.5t36 -14.5t15.5 -37t-15.5 -36.5t-36 -14z" />
    <glyph glyph-name="gdotaccent" unicode="&#x121;" horiz-adv-x="1280" 
d="M543 10q123 0 241 56t207 157l82 473q-51 100 -149 156t-222 57q-210 1 -362 -155t-152 -365q0 -163 98 -271t257 -108zM476 -510q-186 0 -289 82t-113 217h47q10 -117 102 -187t258 -71q166 0 296 112t163 296l39 217q-190 -186 -442 -187q-176 0 -285 118t-109 296
q0 229 168 398t409 169t365 -184l29 156h43l-174 -983q-35 -203 -178 -326t-329 -123zM793 1217q-23 0 -37 14t-15 37q1 23 15 37t37 14q49 0 51 -51q0 -23 -14 -37t-37 -14z" />
    <glyph glyph-name="Gcommaaccent" unicode="&#x122;" horiz-adv-x="1693" 
d="M708.5 -166q20.5 0 37 -13.5t16.5 -37.5t-18.5 -59t-110.5 -189h-37l117 201q-53 0 -54 47q0 23 14.5 37t35 14zM1030 1378q-283 0 -516 -199.5t-283.5 -483.5t108.5 -482.5t431 -198.5t469 182.5t256 458.5h-608l6 41h655v-6l-123 -690h-45l72 412
q-102 -201 -281.5 -321t-398.5 -120q-299 0 -470 211t-118 513t303 514t551 212q231 0 388 -131t173 -336h-45q-14 186 -162.5 305t-361.5 119z" />
    <glyph glyph-name="gcommaaccent" unicode="&#x123;" horiz-adv-x="1282" 
d="M543 10q123 0 241 56t207 157l82 473q-51 100 -149 156t-222 57q-210 1 -362 -155t-152 -365q0 -163 98 -271t257 -108zM476 -510q-186 0 -289 82t-113 217h47q10 -117 102 -187t258 -71q166 0 296 112t163 296l39 217q-190 -186 -442 -187q-176 0 -285 118t-109 296
q0 229 168 398t409 169t365 -184l29 156h43l-174 -983q-35 -203 -178 -326t-329 -123zM764 1190q-20 0 -37 13q-16 13 -16 37t18 60q18 35 111 189h37l-117 -201q53 0 53 -47q0 -23 -14 -37q-15 -14 -35 -14z" />
    <glyph glyph-name="Hbar" unicode="&#x126;" horiz-adv-x="1554" 
d="M1380 1065h-993l-61 -348h993zM1520 1065h-95l-188 -1065h-45l119 678h-994l-118 -678h-45l188 1065h-106l8 41h104l51 287h45l-51 -287h993l52 287h45l-51 -287h96z" />
    <glyph glyph-name="hbar" unicode="&#x127;" horiz-adv-x="1171" 
d="M719 952q170 0 257 -105t54 -290l-98 -557h-43l98 557q31 166 -47 260t-215 94t-256 -56t-195 -153l-122 -702h-43l213 1204h-181l9 41h178l37 209h43l-37 -209h389l-8 -41h-387l-78 -432q79 84 193 132t239 48z" />
    <glyph glyph-name="Imacron" unicode="&#x12a;" horiz-adv-x="516" 
d="M199 0h-45l245 1393h45zM737 1634l-8 -37h-565l8 37h565z" />
    <glyph glyph-name="imacron" unicode="&#x12b;" horiz-adv-x="452" 
d="M330 922l-164 -922h-43l164 922h43zM637 1204l-8 -37h-566l9 37h565z" />
    <glyph glyph-name="Iogonek" unicode="&#x12e;" horiz-adv-x="516" 
d="M188 -375q25 0 58 4l4 -43q-27 -6 -68 -6q-104 0 -169 54t-64 143q0 150 211 252l239 1364h45l-245 -1393q-150 -67 -188 -143q-17 -35 -17 -76q0 -72 53 -114t141 -42z" />
    <glyph glyph-name="iogonek" unicode="&#x12f;" horiz-adv-x="505" 
d="M-12 -219q0 -72 53 -114t141 -42q25 0 58 4l4 -43q-27 -6 -68 -6q-104 0 -169 54t-64 143q0 145 213 254l155 891h43l-161 -922q-150 -67 -188 -143q-17 -35 -17 -76zM399 1335q19 0 33 -13q14 -14 14 -34t-13 -34t-33 -13q-20 0 -34 13q-14 14 -14 34t14 34t33 13z" />
    <glyph glyph-name="Idotaccent" unicode="&#x130;" horiz-adv-x="516" 
d="M199 0h-45l245 1393h45zM483 1606q-20 0 -36 14q-15 14 -15 37t15 37t35 14t36 -14t16 -37t-15 -37q-16 -14 -36 -14z" />
    <glyph glyph-name="dotlessi" unicode="&#x131;" horiz-adv-x="452" 
d="M330 922l-164 -922h-43l164 922h43z" />
    <glyph glyph-name="IJ" unicode="&#x132;" horiz-adv-x="1783" 
d="M1022 10q182 0 318 127t176 346l161 910h45l-161 -910q-41 -237 -194 -375t-351 -138t-304 104t-112 278h45q6 -158 101 -250q94 -92 276 -92zM199 0h-45l245 1393h45z" />
    <glyph glyph-name="ij" unicode="&#x133;" horiz-adv-x="1026" 
d="M889 922l-166 -942q-33 -184 -111 -262t-229 -78l6 41q129 1 197 69t94 230l166 942h43zM354 922l-161 -922h-43l161 922h43zM922 1241q-20 0 -34 13q-14 14 -14 34t14 34t34 13q20 0 33 -13q13 -14 13 -34t-12 -34q-14 -14 -34 -13zM399 1241q-20 0 -33 13
q-14 14 -14 34t14 34t33 13q19 0 33 -13q14 -14 14 -34t-13 -34q-14 -13 -34 -13z" />
    <glyph glyph-name="Kcommaaccent" unicode="&#x136;" horiz-adv-x="1468" 
d="M605.5 -166q20.5 0 37 -13.5t16.5 -37.5t-18 -59t-111 -189h-36l116 201q-53 0 -53 47q0 23 14 37t34.5 14zM672 743l604 -743h-62l-579 711l-365 -310l-71 -401h-45l245 1393h45l-163 -926l1091 926h64z" />
    <glyph glyph-name="kcommaaccent" unicode="&#x137;" horiz-adv-x="1130" 
d="M497.5 -166q20.5 0 37 -13.5t16.5 -37.5t-18.5 -59t-110.5 -189h-37l117 201q-53 0 -53 47q0 23 14 37t34.5 14zM510 532l446 -532h-57l-424 506l-266 -203l-53 -303h-43l256 1454h43l-193 -1089l733 557h66z" />
    <glyph glyph-name="Lacute" unicode="&#x139;" horiz-adv-x="1222" 
d="M1026 41l-8 -41h-864l245 1393h45l-237 -1352h819zM477 1556h-49l227 279h52z" />
    <glyph glyph-name="lacute" unicode="&#x13a;" horiz-adv-x="452" 
d="M424 1454l-258 -1454h-43l258 1454h43zM717 1935l-230 -278h-49l228 278h51z" />
    <glyph glyph-name="Lcommaaccent" unicode="&#x13b;" horiz-adv-x="1222" 
d="M564.5 -166q20.5 0 37 -13.5t16.5 -37.5t-18 -59t-111 -189h-36l116 201q-53 0 -53 47q0 23 14 37t34.5 14zM1026 41l-8 -41h-864l245 1393h45l-237 -1352h819z" />
    <glyph glyph-name="lcommaaccent" unicode="&#x13c;" horiz-adv-x="452" 
d="M108.5 -166q20.5 0 37 -13.5t16.5 -37.5t-18.5 -59t-110.5 -189h-37l117 201q-53 0 -54 47q0 23 14.5 37t35 14zM424 1454l-258 -1454h-43l258 1454h43z" />
    <glyph glyph-name="Lcaron" unicode="&#x13d;" horiz-adv-x="1222" 
d="M750 1044h-39l90 349h45zM1026 41l-8 -41h-864l245 1393h45l-237 -1352h819z" />
    <glyph glyph-name="lcaron" unicode="&#x13e;" horiz-adv-x="452" 
d="M653 1454l-96 -348h-39l90 348h45zM424 1454l-258 -1454h-43l258 1454h43z" />
    <glyph glyph-name="Ldot" unicode="&#x13f;" horiz-adv-x="1222" 
d="M747.5 565q-22.5 0 -37 14.5t-14.5 37t14.5 37t37 14.5t37 -14.5t14.5 -37t-14.5 -37t-37 -14.5zM1026 41l-8 -41h-864l245 1393h45l-237 -1352h819z" />
    <glyph glyph-name="ldot" unicode="&#x140;" horiz-adv-x="575" 
d="M493.5 573q-22.5 0 -37 14.5t-14.5 37t14.5 37t37 14.5t37 -14.5t14.5 -37t-14.5 -37t-37 -14.5zM424 1454l-258 -1454h-43l258 1454h43z" />
    <glyph glyph-name="Lslash" unicode="&#x141;" horiz-adv-x="1222" 
d="M1026 41l-8 -41h-864l92 522l-180 -98l8 51l180 98l145 820h45l-139 -793l375 203l-10 -51l-375 -203l-88 -508h819z" />
    <glyph glyph-name="lslash" unicode="&#x142;" horiz-adv-x="452" 
d="M477 805l-186 -103l-125 -702h-43l121 676l-174 -94l10 51l172 94l129 727h43l-125 -700l188 102z" />
    <glyph glyph-name="Nacute" unicode="&#x143;" horiz-adv-x="1601" 
d="M1530 1393l-246 -1393h-53l-797 1333l-235 -1333h-45l245 1393h52l798 -1334l236 1334h45zM973 1556h-49l227 279h51z" />
    <glyph glyph-name="nacute" unicode="&#x144;" horiz-adv-x="1171" 
d="M719 952q170 0 257 -105.5t54 -289.5l-98 -557h-43l98 557q31 166 -47 260t-215 94t-255 -55t-194 -151l-124 -705h-43l163 922h43l-26 -148q80 84 193.5 131t236.5 47zM711 1124h-49l227 279h51z" />
    <glyph glyph-name="Ncommaaccent" unicode="&#x145;" horiz-adv-x="1601" 
d="M683.5 -166q20.5 0 37 -13.5t16.5 -37.5t-18.5 -59t-110.5 -189h-37l117 201q-53 0 -53 47q0 23 14 37t34.5 14zM1530 1393l-246 -1393h-53l-797 1333l-235 -1333h-45l245 1393h52l798 -1334l236 1334h45z" />
    <glyph glyph-name="ncommaaccent" unicode="&#x146;" horiz-adv-x="1171" 
d="M480.5 -166q20.5 0 37.5 -13.5t17 -37.5t-18.5 -59t-110.5 -189h-37l116 201q-53 0 -53 47q0 23 14 37t34.5 14zM719 952q170 0 257 -105.5t54 -289.5l-98 -557h-43l98 557q31 166 -47 260t-215 94t-255 -55t-194 -151l-124 -705h-43l163 922h43l-26 -148
q80 84 193.5 131t236.5 47z" />
    <glyph glyph-name="Ncaron" unicode="&#x147;" horiz-adv-x="1601" 
d="M1530 1393l-246 -1393h-53l-797 1333l-235 -1333h-45l245 1393h52l798 -1334l236 1334h45zM985 1565l-211 278h53l195 -250l283 250h61l-309 -278h-72z" />
    <glyph glyph-name="ncaron" unicode="&#x148;" horiz-adv-x="1171" 
d="M719 952q170 0 257 -105.5t54 -289.5l-98 -557h-43l98 557q31 166 -47 260t-215 94t-255 -55t-194 -151l-124 -705h-43l163 922h43l-26 -148q80 84 193.5 131t236.5 47zM666 1114l-211 279h53l194 -250l283 250h62l-310 -279h-71z" />
    <glyph glyph-name="Omacron" unicode="&#x14c;" horiz-adv-x="1744" 
d="M793 14q207 0 394 106t302 288t115 387q0 247 -161 415t-409 168q-207 0 -394 -105t-302 -287t-115 -388q0 -248 161 -416t409 -168zM1040 1421q266 0 438 -178t173 -442q0 -219 -123 -412t-323 -305t-419 -113q-266 1 -438 179t-172 442q0 219 123 412t323 305t418 112z
M1368 1634l-8 -37h-565l8 37h565z" />
    <glyph glyph-name="omacron" unicode="&#x14d;" horiz-adv-x="1288" 
d="M563 10q207 0 369 155t162 359q0 162 -104 274t-267 111q-207 -1 -370 -155t-163 -359q0 -165 104 -275t269 -110zM729 950q180 0 296 -121t116 -299q0 -225 -178 -393t-406 -168q-180 0 -297 121t-117 299q1 225 179 393t407 168zM1087 1204l-8 -37h-565l8 37h565z" />
    <glyph glyph-name="Ohungarumlaut" unicode="&#x150;" horiz-adv-x="1744" 
d="M793 14q207 0 394 106t302 288t115 387q0 247 -161 415t-409 168q-207 0 -394 -105t-302 -287t-115 -388q0 -248 161 -416t409 -168zM1040 1421q266 0 438 -178t173 -442q0 -219 -123 -412t-323 -305t-419 -113q-266 1 -438 179t-172 442q0 219 123 412t323 305t418 112z
M1354 1835l-178 -279h-48l177 279h49zM1100 1835l-176 -279h-50l177 279h49z" />
    <glyph glyph-name="ohungarumlaut" unicode="&#x151;" horiz-adv-x="1288" 
d="M563 10q207 0 369 155t162 359q0 162 -104 274t-267 111q-207 -1 -370 -155t-163 -359q0 -165 104 -275t269 -110zM729 950q180 0 296 -121t116 -299q0 -225 -178 -393t-406 -168q-180 0 -297 121t-117 299q1 225 179 393t407 168zM1087 1405l-178 -279h-47l176 279h49z
M834 1405l-177 -279h-49l176 279h50z" />
    <glyph glyph-name="OE" unicode="&#x152;" horiz-adv-x="2187" 
d="M205 600q0 -246 173 -401.5t462 -155.5l143 2l229 1303l-141 2q-367 0 -616.5 -216t-249.5 -534zM834 0q-307 0 -491.5 166t-184.5 428q0 338 267 568.5t654 230.5h1067l-8 -41h-881l-110 -635h799l-9 -41h-798l-111 -635h881l-8 -41h-1067z" />
    <glyph glyph-name="oe" unicode="&#x153;" horiz-adv-x="2162" 
d="M1634 909q-172 0 -310 -115.5t-183 -289.5l-2 -19h823q23 184 -66.5 304t-261.5 120zM568 10q169 0 317.5 116t193.5 284q6 24 6 51l9 35v28q0 162 -104.5 273.5t-266.5 111.5q-207 0 -370 -154.5t-163 -359.5q0 -164 104.5 -274.5t273.5 -110.5zM1642 950
q199 0 297.5 -141t63.5 -356q0 -6 -2 -9h-868q-2 -6 -4.5 -20t-4.5 -23q-10 -166 87.5 -277.5t265.5 -111.5q125 0 229 53.5t158 143.5h49q-59 -109 -178 -173.5t-271 -64.5t-255 90.5t-126 235.5q-74 -145 -219 -236.5t-316 -91.5t-288 121t-117 299q0 225 178.5 393
t407.5 168q158 0 268.5 -95t137.5 -243q70 150 207.5 244t299.5 94z" />
    <glyph glyph-name="Racute" unicode="&#x154;" horiz-adv-x="1423" 
d="M725 594q242 0 393.5 118.5t151.5 319.5q0 150 -110.5 235t-301.5 85h-422l-133 -758h422zM1317 1038q0 -207 -148.5 -337t-392.5 -146l402 -555h-60l-397 553h-424l-98 -553h-45l245 1393h467q209 0 330 -94.5t121 -260.5zM813 1556h-49l227 279h51z" />
    <glyph glyph-name="racute" unicode="&#x155;" horiz-adv-x="671" 
d="M315 922l-36 -211q80 111 195.5 176t234.5 65l-7 -41q-121 0 -240.5 -78.5t-199.5 -209.5l-110 -623h-43l163 922h43zM498 1124h-49l227 279h51z" />
    <glyph glyph-name="Rcommaaccent" unicode="&#x156;" horiz-adv-x="1423" 
d="M552.5 -166q20.5 0 37 -13.5t16.5 -37.5t-18.5 -59t-110.5 -189h-37l117 201q-53 0 -53 47q0 23 14 37t34.5 14zM725 594q242 0 393.5 118.5t151.5 319.5q0 150 -110.5 235t-301.5 85h-422l-133 -758h422zM1317 1038q0 -207 -148.5 -337t-392.5 -146l402 -555h-60
l-397 553h-424l-98 -553h-45l245 1393h467q209 0 330 -94.5t121 -260.5z" />
    <glyph glyph-name="rcommaaccent" unicode="&#x157;" horiz-adv-x="671" 
d="M91.5 -166q20.5 0 37 -13.5t16.5 -37.5t-18 -59t-111 -189h-36l116 201q-53 0 -53 47q0 23 14 37t34.5 14zM315 922l-36 -211q80 111 195.5 176t234.5 65l-7 -41q-121 0 -240.5 -78.5t-199.5 -209.5l-110 -623h-43l163 922h43z" />
    <glyph glyph-name="Rcaron" unicode="&#x158;" horiz-adv-x="1423" 
d="M725 594q242 0 393.5 118.5t151.5 319.5q0 150 -110.5 235t-301.5 85h-422l-133 -758h422zM1317 1038q0 -207 -148.5 -337t-392.5 -146l402 -555h-60l-397 553h-424l-98 -553h-45l245 1393h467q209 0 330 -94.5t121 -260.5zM825 1565l-211 278h54l194 -250l283 250h61
l-309 -278h-72z" />
    <glyph glyph-name="rcaron" unicode="&#x159;" horiz-adv-x="671" 
d="M315 922l-36 -211q80 111 195.5 176t234.5 65l-7 -41q-121 0 -240.5 -78.5t-199.5 -209.5l-110 -623h-43l163 922h43zM453 1114l-211 279h53l194 -250l283 250h62l-310 -279h-71z" />
    <glyph glyph-name="Sacute" unicode="&#x15a;" horiz-adv-x="1337" 
d="M822 1423q230 0 345 -101t113 -271h-45q-4 158 -108.5 244.5t-311.5 86.5t-343 -103t-136 -261q0 -94 76.5 -160.5t220.5 -93.5l239 -47q145 -27 223.5 -103.5t78.5 -189.5q0 -197 -164 -326t-411 -129t-368.5 119t-113.5 346h45q-4 -207 106.5 -315.5t335.5 -108.5
t373.5 115t148.5 289q0 102 -70.5 169.5t-201.5 92.5l-246 49q-154 29 -236.5 104.5t-82.5 186.5q0 176 151.5 291.5t381.5 115.5zM1071 1835l-229 -279h-49l227 279h51z" />
    <glyph glyph-name="sacute" unicode="&#x15b;" horiz-adv-x="1116" 
d="M512 10q162 0 261 67.5t99 182.5q0 147 -180 178l-213 35q-119 20 -178 66.5t-59 134.5q0 125 110.5 201.5t280.5 76.5t267 -76.5t85 -201.5h-41q6 113 -73.5 175t-238.5 62t-253 -62.5t-94 -166.5q0 -70 47 -108.5t155 -59.5l195 -33q106 -18 169.5 -64t63.5 -151
q0 -137 -113.5 -217t-290.5 -80t-281.5 78t-112.5 211h45q10 -115 99 -181.5t251 -66.5zM911 1403l-229 -279h-49l227 279h51z" />
    <glyph glyph-name="Scedilla" unicode="&#x15e;" horiz-adv-x="1337" 
d="M383 -449h-47l147 273h49zM822 1423q230 0 345 -101t113 -271h-45q-4 158 -108.5 244.5t-311.5 86.5t-343 -103t-136 -261q0 -94 76.5 -160.5t220.5 -93.5l239 -47q145 -27 223.5 -103.5t78.5 -189.5q0 -197 -164 -326t-411 -129t-368.5 119t-113.5 346h45
q-4 -207 106.5 -315.5t335.5 -108.5t373.5 115t148.5 289q0 102 -70.5 169.5t-201.5 92.5l-246 49q-154 29 -236.5 104.5t-82.5 186.5q0 176 151.5 291.5t381.5 115.5z" />
    <glyph glyph-name="scedilla" unicode="&#x15f;" horiz-adv-x="1116" 
d="M328 -449h-47l147 273h49zM512 10q162 0 261 67.5t99 182.5q0 147 -180 178l-213 35q-119 20 -178 66.5t-59 134.5q0 125 110.5 201.5t280.5 76.5t267 -76.5t85 -201.5h-41q6 113 -73.5 175t-238.5 62t-253 -62.5t-94 -166.5q0 -70 47 -108.5t155 -59.5l195 -33
q106 -18 169.5 -64t63.5 -151q0 -137 -113.5 -217t-290.5 -80t-281.5 78t-112.5 211h45q10 -115 99 -181.5t251 -66.5z" />
    <glyph glyph-name="Scaron" unicode="&#x160;" horiz-adv-x="1337" 
d="M822 1423q230 0 345 -101t113 -271h-45q-4 158 -108.5 244.5t-311.5 86.5t-343 -103t-136 -261q0 -94 76.5 -160.5t220.5 -93.5l239 -47q145 -27 223.5 -103.5t78.5 -189.5q0 -197 -164 -326t-411 -129t-368.5 119t-113.5 346h45q-4 -207 106.5 -315.5t335.5 -108.5
t373.5 115t148.5 289q0 102 -70.5 169.5t-201.5 92.5l-246 49q-154 29 -236.5 104.5t-82.5 186.5q0 176 151.5 291.5t381.5 115.5zM1235 1843l-309 -278h-72l-211 278h53l195 -250l283 250h61z" />
    <glyph glyph-name="scaron" unicode="&#x161;" horiz-adv-x="1116" 
d="M512 10q162 0 261 67.5t99 182.5q0 147 -180 178l-213 35q-119 20 -178 66.5t-59 134.5q0 125 110.5 201.5t280.5 76.5t267 -76.5t85 -201.5h-41q6 113 -73.5 175t-238.5 62t-253 -62.5t-94 -166.5q0 -70 47 -108.5t155 -59.5l195 -33q106 -18 169.5 -64t63.5 -151
q0 -137 -113.5 -217t-290.5 -80t-281.5 78t-112.5 211h45q10 -115 99 -181.5t251 -66.5zM1018 1393l-309 -279h-72l-211 279h53l195 -250l282 250h62z" />
    <glyph glyph-name="Tcedilla" unicode="&#x162;" horiz-adv-x="1273" 
d="M512 -176h49l-149 -273h-47zM1368 1352h-553l-237 -1352h-46l238 1352h-553l8 41h1151z" />
    <glyph glyph-name="tcedilla" unicode="&#x163;" horiz-adv-x="845" 
d="M354 -176h49l-149 -273h-47zM502 10q68 0 160 21l2 -37q-98 -25 -170 -25q-127 0 -186.5 93.5t-33.5 246.5l101 572h-287l6 41h287l61 348h43l-61 -348h356l-6 -41h-356l-101 -572q-25 -135 25.5 -217t159.5 -82z" />
    <glyph glyph-name="Tcaron" unicode="&#x164;" horiz-adv-x="1273" 
d="M1368 1352h-553l-237 -1352h-46l238 1352h-553l8 41h1151zM801 1565l-211 278h53l195 -250l282 250h62l-310 -278h-71z" />
    <glyph glyph-name="tcaron" unicode="&#x165;" horiz-adv-x="845" 
d="M502 10q68 0 160 21l2 -37q-98 -25 -170 -25q-127 0 -186.5 93.5t-33.5 246.5l101 572h-287l6 41h287l61 348h43l-61 -348h356l-6 -41h-356l-101 -572q-25 -135 25.5 -217t159.5 -82zM662 1110h-39l90 348h45z" />
    <glyph glyph-name="Umacron" unicode="&#x16a;" horiz-adv-x="1579" 
d="M700 -31q-252 0 -382 171t-85 425l146 828h45l-145 -828q-43 -235 75 -395t349 -160q232 0 407 160q174 160 217 395l146 828h45l-146 -828q-45 -256 -232 -426q-188 -170 -440 -170zM1243 1634l-8 -37h-565l8 37h565z" />
    <glyph glyph-name="umacron" unicode="&#x16b;" horiz-adv-x="1196" 
d="M453 -31q-170 -1 -256 105t-56 291l99 557h43l-99 -557q-29 -167 49 -261q77 -94 215 -94t256 56t193 151l123 705h43l-162 -922h-43l27 147q-80 -84 -195 -131t-237 -47zM995 1167h-565l8 37h566z" />
    <glyph glyph-name="Uring" unicode="&#x16e;" horiz-adv-x="1579" 
d="M700 -31q-252 0 -382 171t-85 425l146 828h45l-145 -828q-43 -235 75 -395t349 -160q232 0 407 160q174 160 217 395l146 828h45l-146 -828q-45 -256 -232 -426q-188 -170 -440 -170zM969 1628q59 0 99 40t40 98t-41 100t-98 41q-57 0 -99 -41q-42 -42 -41 -100t41 -98
t99 -40zM969 1944q76 0 127 -50t51 -127q0 -76 -51 -126t-127 -50t-127 50t-51 126q0 77 51 127t127 50z" />
    <glyph glyph-name="uring" unicode="&#x16f;" horiz-adv-x="1196" 
d="M453 -31q-170 -1 -256 105t-56 291l99 557h43l-99 -557q-29 -167 49 -261q77 -94 215 -94t256 56t193 151l123 705h43l-162 -922h-43l27 147q-80 -84 -195 -131t-237 -47zM682 1436q-57 0 -98 -41t-41 -99t40 -99q40 -40 99 -40t99 40t40 98q0 57 -41 99t-98 42z
M682 1120q-76 0 -127 50t-51 126t51 126t127 50t127 -50t51 -126t-51 -126t-127 -50z" />
    <glyph glyph-name="Uhungarumlaut" unicode="&#x170;" horiz-adv-x="1579" 
d="M700 -31q-252 0 -382 171t-85 425l146 828h45l-145 -828q-43 -235 75 -395t349 -160q232 0 407 160q174 160 217 395l146 828h45l-146 -828q-45 -256 -232 -426q-188 -170 -440 -170zM1270 1835l-178 -279h-48l177 279h49zM1016 1835l-176 -279h-49l176 279h49z" />
    <glyph glyph-name="uhungarumlaut" unicode="&#x171;" horiz-adv-x="1171" 
d="M453 -31q-170 -1 -256 105t-56 291l99 557h43l-99 -557q-29 -167 49 -261q77 -94 215 -94t256 56t193 151l123 705h43l-162 -922h-43l27 147q-80 -84 -195 -131t-237 -47zM780 1126h-47l176 279h49zM528 1126h-49l176 279h50z" />
    <glyph glyph-name="Uogonek" unicode="&#x172;" horiz-adv-x="1579" 
d="M788 -180q0 -72 54 -114t141 -42q25 0 57 4l4 -43q-29 -6 -67 -6q-104 0 -169 54q-65 55 -65 145t78 162q-66 -10 -121 -11q-252 0 -382 171t-85 425l146 828h45l-145 -828q-43 -235 75 -395t349 -160q232 0 407 160q174 160 217 395l146 828h45l-146 -828
q-35 -186 -147 -333q-113 -146 -279 -214q-158 -84 -158 -198z" />
    <glyph glyph-name="uogonek" unicode="&#x173;" horiz-adv-x="1196" 
d="M889 -375q25 0 57 4l4 -43q-29 -6 -67 -6q-104 0 -169 54t-65 143q0 150 215 254l21 116q-80 -84 -195 -131t-237 -47q-170 -1 -256 105t-56 291l99 557h43l-99 -557q-29 -167 49 -261q77 -94 215 -94t256 56t193 151l123 705h43l-162 -922h-2q-149 -66 -187 -143
q-18 -35 -18 -91t54 -99q54 -42 141 -42z" />
    <glyph glyph-name="Wcircumflex" unicode="&#x174;" horiz-adv-x="2158" 
d="M2212 1393l-737 -1403h-43l-207 1337l-682 -1337h-43l-242 1403h45l227 -1336l682 1336h45l207 -1334l699 1334h49zM1036 1565h-63l313 278h74l207 -278h-54l-192 250z" />
    <glyph glyph-name="wcircumflex" unicode="&#x175;" horiz-adv-x="1570" 
d="M1550 922l-512 -922h-47l-137 850l-434 -850h-47l-189 922h45l174 -856l441 856h43l137 -861l479 861h47zM705 1114h-64l313 279h74l207 -279h-53l-193 250z" />
    <glyph glyph-name="Ycircumflex" unicode="&#x176;" horiz-adv-x="1310" 
d="M680 526l-92 -526h-45l92 526l-438 867h51l414 -820l708 820h55zM571 1565h-63l313 278h74l207 -278h-53l-193 250z" />
    <glyph glyph-name="ycircumflex" unicode="&#x177;" horiz-adv-x="1148" 
d="M1155 922l-946 -1454h-55l307 471l-311 983h49l295 -932l606 932h55zM438 1114h-63l313 279h74l207 -279h-54l-192 250z" />
    <glyph glyph-name="Ydieresis" unicode="&#x178;" horiz-adv-x="1310" 
d="M680 526l-92 -526h-45l92 526l-438 867h51l414 -820l708 820h55zM981 1606q-23 0 -37 14t-14 37t14 37t37 14t37 -14t14 -37t-14 -37t-37 -14zM641 1606q-23 0 -37 14t-14 37t14 37t37 14t37 -14t14 -37t-14 -37t-37 -14z" />
    <glyph glyph-name="Zacute" unicode="&#x179;" horiz-adv-x="1341" 
d="M1333 1358l-1190 -1317h959l-8 -41h-1024l6 35l1196 1317h-944l8 41h1003zM842 1556h-49l227 279h51z" />
    <glyph glyph-name="zacute" unicode="&#x17a;" horiz-adv-x="1001" 
d="M954 887l-845 -846h696l-8 -41h-756l6 35l844 846h-666l8 41h728zM631 1124h-49l227 279h51z" />
    <glyph glyph-name="Zdotaccent" unicode="&#x17b;" horiz-adv-x="1341" 
d="M1333 1358l-1190 -1317h959l-8 -41h-1024l6 35l1196 1317h-944l8 41h1003zM854 1606q-23 0 -37 14t-14 37t14 37t37 14t37 -14t14 -37t-14 -37t-37 -14z" />
    <glyph glyph-name="zdotaccent" unicode="&#x17c;" horiz-adv-x="1001" 
d="M954 887l-845 -846h696l-8 -41h-756l6 35l844 846h-666l8 41h728zM625 1217q-23 0 -37 14t-15 37q1 23 15 37t37 14t37 -14t14 -37t-14 -37t-37 -14z" />
    <glyph glyph-name="Zcaron" unicode="&#x17d;" horiz-adv-x="1341" 
d="M1333 1358l-1190 -1317h959l-8 -41h-1024l6 35l1196 1317h-944l8 41h1003zM854 1565l-211 278h53l195 -250l283 250h61l-309 -278h-72z" />
    <glyph glyph-name="zcaron" unicode="&#x17e;" horiz-adv-x="1001" 
d="M233 922h728l-7 -35l-845 -846h696l-8 -41h-756l6 35l844 846h-666zM586 1114l-211 279h53l195 -250l282 250h62l-310 -279h-71z" />
    <glyph glyph-name="florin" unicode="&#x192;" horiz-adv-x="870" 
d="M889 1403q70 0 162 -25l-17 -37q-86 20 -151 21q-203 0 -285 -258l-115 -367h353l-9 -41h-356l-160 -530q-92 -299 -334 -299q-70 0 -161 24l16 37q86 -20 152 -20q203 0 284 258l160 530h-266l8 41h270l115 367q96 299 334 299z" />
    <glyph glyph-name="Acaron" unicode="&#x1cd;" horiz-adv-x="1517" 
d="M1147 541l-234 807l-516 -807h750zM1159 500h-788l-320 -500h-53l899 1403h47l408 -1403h-47zM920 1565l-211 278h53l194 -250l283 250h61l-309 -278h-71z" />
    <glyph glyph-name="acaron" unicode="&#x1ce;" horiz-adv-x="1280" 
d="M563 10q246 0 426 213l84 473q-104 213 -350 213q-207 -1 -370 -155t-163 -359q0 -165 104 -275t269 -110zM143 389q1 225 179 393t412 168t351 -184l29 156h43l-164 -922h-43l27 154q-184 -184 -420 -185q-180 0 -297 121t-117 299zM739 1114l-211 279h54l194 -250
l283 250h61l-309 -279h-72z" />
    <glyph glyph-name="Scommaaccent" unicode="&#x218;" horiz-adv-x="1337" 
d="M581.5 -166q20.5 0 37 -13.5t16.5 -37.5t-18.5 -59t-110.5 -189h-37l117 201q-53 0 -54 47q0 23 14.5 37t35 14zM822 1423q230 0 345 -101t113 -271h-45q-4 158 -108.5 244.5t-311.5 86.5t-343 -103t-136 -261q0 -94 76.5 -160.5t220.5 -93.5l239 -47
q145 -27 223.5 -103.5t78.5 -189.5q0 -197 -164 -326t-411 -129t-368.5 119t-113.5 346h45q-4 -207 106.5 -315.5t335.5 -108.5t373.5 115t148.5 289q0 102 -70.5 169.5t-201.5 92.5l-246 49q-154 29 -236.5 104.5t-82.5 186.5q0 176 151.5 291.5t381.5 115.5z" />
    <glyph glyph-name="scommaaccent" unicode="&#x219;" horiz-adv-x="1116" 
d="M436 -217q0 23 14.5 37t34.5 14t37 -13.5t17 -37.5t-18.5 -59t-110.5 -189h-37l116 201q-53 0 -53 47zM512 10q162 0 261 67.5t99 182.5q0 147 -180 178l-213 35q-119 20 -178 66.5t-59 134.5q0 125 110.5 201.5t280.5 76.5t267 -76.5t85 -201.5h-41q6 113 -73.5 175
t-238.5 62t-253 -62.5t-94 -166.5q0 -70 47 -108.5t155 -59.5l195 -33q106 -18 169.5 -64t63.5 -151q0 -137 -113.5 -217t-290.5 -80t-281.5 78t-112.5 211h45q10 -115 99 -181.5t251 -66.5z" />
    <glyph glyph-name="uni021A" unicode="&#x21a;" horiz-adv-x="1273" 
d="M509.5 -166q20.5 0 37 -13.5t16.5 -37.5t-18.5 -59t-110.5 -189h-37l117 201q-53 0 -53 47q0 23 14 37t34.5 14zM1368 1352h-553l-237 -1352h-46l238 1352h-553l8 41h1151z" />
    <glyph glyph-name="uni021B" unicode="&#x21b;" horiz-adv-x="845" 
d="M411.5 -166q20.5 0 37 -13.5t16.5 -37.5t-18.5 -59t-110.5 -189h-37l117 201q-53 0 -54 47q0 23 14.5 37t35 14zM502 10q68 0 160 21l2 -37q-98 -25 -170 -25q-127 0 -186.5 93.5t-33.5 246.5l101 572h-287l6 41h287l61 348h43l-61 -348h356l-6 -41h-356l-101 -572
q-25 -135 25.5 -217t159.5 -82z" />
    <glyph glyph-name="circumflex" unicode="&#x2c6;" 
d="M700 1425l-284 -249h-64l314 278h73l207 -278h-53z" />
    <glyph glyph-name="caron" unicode="&#x2c7;" 
d="M1057 1454l-309 -278h-72l-211 278h53l195 -250l282 250h62z" />
    <glyph glyph-name="breve" unicode="&#x2d8;" 
d="M650 1188q85 0 165 58t96 157h45q-20 -121 -110 -188t-196 -67t-177 69q-70 68 -49 186h41q-16 -103 42 -159t143 -56z" />
    <glyph glyph-name="dotaccent" unicode="&#x2d9;" 
d="M676 1176q-20 0 -36 14q-15 14 -15 37t15 37q16 14 36 14t36 -14t15 -37q1 -23 -15 -37t-36 -14z" />
    <glyph glyph-name="ring" unicode="&#x2da;" 
d="M655 1198q57 0 99 40q41 40 41 98t-41 100q-40 42 -98 41q-58 0 -99 -41q-41 -42 -41 -100t41 -98t98 -40zM655 1513q76 0 127 -50q52 -50 52 -126t-52 -126t-127 -50q-76 0 -127 50t-51 126t51 126t127 50z" />
    <glyph glyph-name="ogonek" unicode="&#x2db;" 
d="M727 -389q25 0 57 4l4 -43q-29 -6 -67 -6q-104 0 -169 54t-65 147t82 163q58 49 148 95l20 -39q-149 -66 -187 -144q-18 -35 -18 -91t54 -98t141 -42z" />
    <glyph glyph-name="tilde" unicode="&#x2dc;" 
d="M874 1386h39q0 -110 -84 -140t-165 34l-78 55q-59 47 -125 28t-66 -99h-39q0 72 43 108t101 34q58 -3 106 -38l76 -53q72 -51 132 -31t60 102z" />
    <glyph glyph-name="hungarumlaut" unicode="&#x2dd;" 
d="M936 1446l-178 -279h-47l176 279h49zM682 1446l-176 -279h-49l176 279h49z" />
    <glyph glyph-name="uni0326" unicode="&#x326;" horiz-adv-x="0" 
d="M577.5 -166q20.5 0 37 -13.5t16.5 -37.5t-18.5 -59t-110.5 -189h-37l117 201q-53 0 -54 47q0 23 14.5 37t35 14z" />
    <glyph glyph-name="Wgrave" unicode="&#x1e80;" horiz-adv-x="2158" 
d="M2212 1393l-737 -1403h-43l-207 1337l-682 -1337h-43l-242 1403h45l227 -1336l682 1336h45l207 -1334l699 1334h49zM1225 1556l-181 279h52l178 -279h-49z" />
    <glyph glyph-name="wgrave" unicode="&#x1e81;" horiz-adv-x="1570" 
d="M1550 922l-512 -922h-47l-137 850l-434 -850h-47l-189 922h45l174 -856l441 856h43l137 -861l479 861h47zM858 1126l-180 279h51l178 -279h-49z" />
    <glyph glyph-name="Wacute" unicode="&#x1e82;" horiz-adv-x="2158" 
d="M2212 1393l-737 -1403h-43l-207 1337l-682 -1337h-43l-242 1403h45l227 -1336l682 1336h45l207 -1334l699 1334h49zM1284 1556h-49l227 279h51z" />
    <glyph glyph-name="wacute" unicode="&#x1e83;" horiz-adv-x="1570" 
d="M1550 922l-512 -922h-47l-137 850l-434 -850h-47l-189 922h45l174 -856l441 856h43l137 -861l479 861h47zM915 1124h-49l228 279h51z" />
    <glyph glyph-name="Wdieresis" unicode="&#x1e84;" horiz-adv-x="2158" 
d="M2212 1393l-737 -1403h-43l-207 1337l-682 -1337h-43l-242 1403h45l227 -1336l682 1336h45l207 -1334l699 1334h49zM1446 1606q-20 0 -36 14q-15 14 -15 37t15 37q16 14 36 14t36 -14t15 -37q1 -23 -15 -37t-36 -14zM1106 1606q-20 0 -36 14q-15 14 -15 37t15 37
q16 14 36 14t36 -14t15 -37q1 -23 -15 -37t-36 -14z" />
    <glyph glyph-name="wdieresis" unicode="&#x1e85;" horiz-adv-x="1570" 
d="M1550 922l-512 -922h-47l-137 850l-434 -850h-47l-189 922h45l174 -856l441 856h43l137 -861l479 861h47zM1079 1217q-23 0 -37 14t-14 37t14 37t37 14t37 -14t14 -37t-14 -37t-37 -14zM739 1217q-23 0 -37 14t-14 37t14 37t37 14t37 -14t14 -37t-14 -37t-37 -14z" />
    <glyph glyph-name="Ygrave" unicode="&#x1ef2;" horiz-adv-x="1310" 
d="M680 526l-92 -526h-45l92 526l-438 867h51l414 -820l708 820h55zM760 1556l-180 279h51l178 -279h-49z" />
    <glyph glyph-name="ygrave" unicode="&#x1ef3;" horiz-adv-x="1148" 
d="M1155 922l-946 -1454h-55l307 471l-311 983h49l295 -932l606 932h55zM662 1126l-181 279h51l179 -279h-49z" />
    <glyph glyph-name="endash" unicode="&#x2013;" horiz-adv-x="1509" 
d="M1288 596l-8 -43h-1018l8 43h1018z" />
    <glyph glyph-name="emdash" unicode="&#x2014;" horiz-adv-x="1945" 
d="M1724 596l-8 -43h-1454l8 43h1454z" />
    <glyph glyph-name="quoteleft" unicode="&#x2018;" horiz-adv-x="323" 
d="M289 1034q1 -20 -13 -34t-34 -13q-20 0 -34 13q-13 12 -13 32t34 86l150 275h37l-164 -318q37 -6 37 -41z" />
    <glyph glyph-name="quoteright" unicode="&#x2019;" horiz-adv-x="364" 
d="M319 1352q-1 20 13 33t34 13t34 -12q14 -14 14 -33t-35 -85l-150 -275h-36l163 318q-37 6 -37 41z" />
    <glyph glyph-name="quotesinglbase" unicode="&#x201a;" horiz-adv-x="364" 
d="M116 78q20 0 34 -13t14 -33t-35 -85l-149 -275h-37l163 318q-37 6 -36 41q0 19 13 33t33 14z" />
    <glyph glyph-name="quotedblleft" unicode="&#x201c;" horiz-adv-x="651" 
d="M586 1034q0 -20 -14 -34t-33 -13q-20 0 -34 13q-13 12 -13 32t34 86l150 275h37l-164 -318q37 -6 37 -41zM299 1034q0 -20 -13 -34q-14 -14 -34 -13q-20 0 -34 13q-13 12 -13 32t35 86l149 275h37l-164 -318q37 -6 37 -41z" />
    <glyph glyph-name="quotedblright" unicode="&#x201d;" horiz-adv-x="653" 
d="M592 1352q0 20 13 33t33 13t34 -12q14 -14 14 -33t-35 -85l-149 -275h-37l164 318q-37 6 -37 41zM303 1352q0 20 13 33q14 13 34 13t34 -12q14 -14 13 -33q0 -19 -35 -85l-149 -275h-37l164 318q-37 6 -37 41z" />
    <glyph glyph-name="quotedblbase" unicode="&#x201e;" horiz-adv-x="653" 
d="M358 31q0 19 14 33t34 14t33 -13t13 -33t-34 -85l-150 -275h-37l164 318q-37 6 -37 41zM116 78q20 0 34 -13t14 -33t-35 -85l-149 -275h-37l163 318q-37 6 -36 41q0 19 13 33t33 14z" />
    <glyph glyph-name="dagger" unicode="&#x2020;" horiz-adv-x="827" 
d="M553 1180l-80 -455h-43l80 455h-268l8 43h268l47 268h43l-47 -268h270l-8 -43h-270z" />
    <glyph glyph-name="daggerdbl" unicode="&#x2021;" horiz-adv-x="827" 
d="M528 1018h271l-6 -43h-271l-45 -250h-43l45 250h-268l6 43h268l37 203h-268l6 43h268l41 227h43l-41 -227h271l-6 -43h-271z" />
    <glyph glyph-name="bullet" unicode="&#x2022;" horiz-adv-x="624" 
d="M343 410q-81 0 -140 59t-60 139t59 140t141 59q81 0 140 -59q59 -60 59 -140t-58 -139q-60 -59 -141 -59z" />
    <glyph glyph-name="ellipsis" unicode="&#x2026;" horiz-adv-x="1001" 
d="M776 -16q-20 0 -34 13q-13 13 -13 33t13 34q14 14 34 14t34 -13t13 -33q0 -20 -13 -35q-14 -13 -34 -13zM432 -16q-20 0 -34 13q-13 13 -13 33t13 34q14 14 34 14t34 -13t13 -33q0 -20 -13 -35q-14 -13 -34 -13zM74 -16q-20 0 -34 13q-13 13 -13 33t13 34q14 14 34 14
t34 -13t13 -33q0 -20 -13 -35q-14 -13 -34 -13z" />
    <glyph glyph-name="perthousand" unicode="&#x2030;" horiz-adv-x="3223" 
d="M2710 680q-154 0 -272 -113t-118 -272q0 -121 76 -201t195 -80q153 0 271 113t118 270q0 123 -76 203t-194 80zM1790 680q-154 0 -272 -113t-117 -272q0 -121 76 -201t194 -80q154 0 272 113t117 270q0 123 -75 203q-76 80 -195 80zM2716 723q137 0 222 -90t85 -227
q0 -180 -131 -308t-309 -129q-135 0 -221 90q-85 90 -85 228q0 180 131 308q132 128 308 128zM1796 723q135 0 221 -90t86 -227q0 -180 -131 -308t-309 -129q-135 0 -220 90t-85 228q0 180 131 308t307 128zM715 1380q-154 0 -272 -114t-117 -271q0 -121 76 -201t196 -79
q154 1 270 113t117 270q1 122 -75 202t-195 80zM737 0h-49l909 1393h50zM723 1423q135 0 220 -90t85 -227q0 -180 -131 -308t-307 -128q-137 0 -222 90t-85 227q0 180 132 308t308 128z" />
    <glyph glyph-name="guilsinglleft" unicode="&#x2039;" horiz-adv-x="540" 
d="M446 811l-301 -299l197 -291h-51l-199 295l301 295h53z" />
    <glyph glyph-name="guilsinglright" unicode="&#x203a;" horiz-adv-x="540" 
d="M115 221l301 299l-197 291h51l199 -295l-301 -295h-53z" />
    <glyph glyph-name="fraction" unicode="&#x2044;" horiz-adv-x="835" 
d="M-12 0h-49l909 1393h49z" />
    <glyph glyph-name="zerosuperior" unicode="&#x2070;" horiz-adv-x="864" 
d="M469 686q156 0 255 122t99 294q0 122 -60 198t-171 76q-154 0 -254 -123t-100 -292q0 -123 60 -199t171 -76zM598 1415q129 0 200 -85t70 -222q0 -195 -114 -329t-291 -134q-129 0 -200 86t-70 223q0 190 114 326q115 135 291 135z" />
    <glyph glyph-name="foursuperior" unicode="&#x2074;" horiz-adv-x="794" 
d="M764 831h-137l-29 -169h-41l29 169h-432l6 29l342 539h45l-330 -527h377l43 250h41l-43 -250h137z" />
    <glyph glyph-name="fivesuperior" unicode="&#x2075;" horiz-adv-x="747" 
d="M684 900q0 81 -52 124t-143 43l-184 -2l8 41h187q106 0 166 -51t61 -151q0 -100 -92 -179q-92 -80 -219 -80t-192 56t-68 155h45q8 -172 219 -172q108 0 186 68t78 148zM305 1065h-41l60 334h448l-6 -39h-408z" />
    <glyph glyph-name="sixsuperior" unicode="&#x2076;" horiz-adv-x="733" 
d="M205 874q-1 -90 55 -140t158 -50t182 70q82 70 82 162t-56 142t-162 50t-181 -74q-78 -70 -78 -160zM489 1149q107 0 173 -57t65 -154q0 -125 -95 -209t-217 -84q-122 -1 -189 59q-66 60 -66 158t90 199l325 338h54l-256 -271q57 21 116 21z" />
    <glyph glyph-name="sevensuperior" unicode="&#x2077;" horiz-adv-x="595" 
d="M739 1399l-6 -27l-508 -710h-53l498 696h-463l8 41h524z" />
    <glyph glyph-name="eightsuperior" unicode="&#x2078;" horiz-adv-x="772" 
d="M231 848q-1 -78 55 -121t162 -43t184 57q77 57 77 135q-1 78 -57 118t-162 40t-183 -54q-76 -54 -76 -132zM554 1378q-88 0 -158 -52t-70 -120t49 -105q49 -36 141 -36t159 48q67 49 67 117t-50 108q-49 40 -138 40zM444 645q-130 0 -196 51t-66 134q0 84 58 142t153 81
q-113 39 -113 136t85 162q84 65 191 65q106 0 168 -49q62 -48 62 -121q0 -72 -47 -122t-125 -73q142 -43 142 -155t-91 -182q-91 -69 -221 -69z" />
    <glyph glyph-name="ninesuperior" unicode="&#x2079;" horiz-adv-x="733" 
d="M264 1161q0 -92 56 -142t160 -50q103 -1 183 71q79 72 79 162t-56 140q-54 50 -156 50t-184 -69q-82 -70 -82 -162zM532 1432q122 0 188 -60t66 -157q0 -98 -90 -199l-325 -338h-54l256 270q-57 -20 -116 -20q-106 0 -172 57t-66 168t95 195q96 84 218 84z" />
    <glyph glyph-name="zeroinferior" unicode="&#x2080;" horiz-adv-x="864" 
d="M295 -344q156 0 255 122t99 294q0 122 -60 198t-171 76q-154 0 -254 -123t-101 -293q1 -122 61 -198t171 -76zM424 385q129 0 200 -85t70 -222q0 -195 -114 -329t-291 -134q-129 0 -200 86t-71 223q0 190 115 326t291 135z" />
    <glyph glyph-name="oneinferior" unicode="&#x2081;" horiz-adv-x="589" 
d="M410 -330l-9 -39h-487l8 39h232l114 649l-229 -77l6 41l254 86h23l-125 -699h213z" />
    <glyph glyph-name="twoinferior" unicode="&#x2082;" horiz-adv-x="722" 
d="M510 202q0 60 -46 102t-130 42t-146 -45t-84 -121h-43q25 94 99 150t177 55q103 0 159 -51t57 -133q0 -82 -52 -149t-192 -179l-252 -203h422l-6 -39h-502l4 25l301 242q92 74 133 109q101 91 101 195z" />
    <glyph glyph-name="threeinferior" unicode="&#x2083;" horiz-adv-x="745" 
d="M233 -381q-123 0 -189 50t-60 132h45q-4 -67 50 -105q53 -38 155 -38t173 52t71 126t-49 112q-48 38 -130 38h-68l9 37h67q90 0 151 52q60 51 60 123t-47 110t-130 38t-141 -38t-81 -103h-43q25 82 97 131q73 49 173 49t156 -47t57 -123q-1 -76 -41 -131t-112 -80
q114 -40 114 -148t-82 -172t-205 -65z" />
    <glyph glyph-name="fourinferior" unicode="&#x2084;" horiz-adv-x="794" 
d="M600 -199h-137l-29 -170h-41l29 170h-432l6 29l342 539h45l-330 -527h377l43 250h41l-43 -250h137z" />
    <glyph glyph-name="fiveinferior" unicode="&#x2085;" horiz-adv-x="747" 
d="M246 -346q108 0 186 68t78 148q0 81 -52 124t-143 43l-184 -2l8 41h187q106 0 166 -51t61 -151q0 -100 -92 -180q-91 -80 -219 -79q-128 0 -192 56t-68 155h45q8 -172 219 -172zM131 35h-41l60 334h448l-6 -39h-408z" />
    <glyph glyph-name="sixinferior" unicode="&#x2086;" horiz-adv-x="733" 
d="M20 -156q0 -90 56 -140t156 -50q102 0 184 70t82 162t-56 142t-160 50t-173 -64l-11 -10q-78 -70 -78 -160zM305 119q106 1 172 -57t66 -168q1 -110 -95 -195q-96 -84 -218 -84t-188 59q-67 60 -67 158t91 199l325 338h53l-256 -271q58 21 117 21z" />
    <glyph glyph-name="seveninferior" unicode="&#x2087;" horiz-adv-x="595" 
d="M555 369l-6 -27l-508 -711h-53l497 697h-462l8 41h524z" />
    <glyph glyph-name="eightinferior" unicode="&#x2088;" horiz-adv-x="772" 
d="M514 -154q0 158 -219 158q-107 0 -183 -54t-75 -132q-1 -78 55 -121t162 -43t184 57q76 57 76 135zM131 176q0 -68 49 -105q49 -36 141 -36t159 48q67 49 67 117t-49 108t-138 40t-159 -52t-70 -120zM561 -135q0 -112 -91 -181t-220 -69t-196 51q-66 51 -66 134
q0 84 57 142t154 81q-113 39 -113 136t84 162t192 65t168 -49q62 -48 62 -121t-47 -123t-125 -73q141 -43 141 -155z" />
    <glyph glyph-name="nineinferior" unicode="&#x2089;" horiz-adv-x="733" 
d="M551 158q0 90 -55 140t-157 50q-101 0 -183 -70t-82 -162t56 -142t163 -49t180 73q78 70 78 160zM340 387q122 0 189 -59q67 -60 67 -158t-90 -199l-326 -338h-53l256 271q-57 -20 -117 -21q-106 -1 -172 57t-65 154q0 125 95 209q94 84 216 84z" />
    <glyph glyph-name="Euro" unicode="&#x20ac;" horiz-adv-x="1851" 
d="M1194 1378q-232 0 -442 -148t-303 -378h759l-18 -41h-756q-45 -124 -41 -266h682l-16 -41h-662q25 -215 180 -352q155 -138 382 -138t410 118t265 306h49q-89 -207 -287 -337t-444 -130t-412 150t-190 383h-284l6 41h276q-4 143 39 266h-268l8 41h276q97 246 323 408
t477 162t403 -131q152 -130 168 -337h-50q-16 188 -156 307q-142 117 -374 117z" />
    <glyph glyph-name="uni2116" unicode="&#x2116;" horiz-adv-x="2873" 
d="M1606 41h929l-8 -41h-930zM2253 1196q-207 0 -370 -155t-163 -359q0 -164 104 -274t269 -111q207 0 369 155t161 359q0 161 -104 273t-266 112zM2087 256q-180 0 -297 121t-117 299q0 225 178 393t408 168q180 0 296 -121t116 -299q-1 -225 -179 -393t-405 -168z
M1485 1393h45l-246 -1393h-53l-797 1333l-235 -1333h-45l245 1393h52l798 -1334z" />
    <glyph glyph-name="uni2117" unicode="&#x2117;" horiz-adv-x="1798" 
d="M750 1063v-424h229q121 0 196 58q75 57 75 153t-75 155q-75 58 -196 58h-229zM709 1100h270q139 0 225 -69t86 -181t-86 -180t-225 -68h-229v-309h-41v807zM940 1384q-287 0 -495 -200q-207 -200 -207 -488t208 -488t494 -200q287 0 496 200t209 488t-209 488t-496 200z
M940 1423q307 0 526 -209q220 -209 220 -518t-220 -518t-526 -209q-307 0 -526 209t-219 518t219 518t526 209z" />
    <glyph glyph-name="trademark" unicode="&#x2122;" horiz-adv-x="1374" 
d="M1407 1391l-104 -598h-37l94 528l-330 -438h-16l-180 444l-93 -534h-36l104 598h35l184 -453l340 453h39zM698 1391l-4 -33h-239l-99 -565h-37l99 565h-236l4 33h512z" />
    <glyph glyph-name="oneeighth" unicode="&#x215b;" horiz-adv-x="1736" 
d="M1321 373q-107 -1 -183 -55t-75 -132q-1 -78 55 -120t162 -43q106 0 184 57q76 57 76 134t-56 118t-163 41zM1157 544q0 -68 49 -104t141 -37q92 1 159 49t67 116t-49 109q-49 40 -138 40t-159 -52q-70 -53 -70 -121zM1587 234q0 -112 -91 -182q-91 -68 -220 -68t-196 51
q-66 51 -66 134t57 141t154 81q-113 39 -113 136t84 162t192 65t168 -48q62 -48 62 -121t-47 -123t-125 -73q141 -43 141 -155zM1311 1393l-910 -1393h-49l910 1393h49zM88 659l8 39h232l114 650l-229 -78l6 41l254 86h23l-125 -699h213l-9 -39h-487z" />
    <glyph glyph-name="threeeighths" unicode="&#x215c;" horiz-adv-x="1740" 
d="M1325 373q-107 -1 -183 -55t-75 -132q-1 -78 55 -120t162 -43q106 0 184 57q76 57 76 134t-56 118t-163 41zM1161 544q0 -68 49 -104t141 -37q92 1 159 49t67 116t-49 109q-49 40 -138 40t-159 -52q-70 -53 -70 -121zM1591 234q0 -112 -91 -182q-91 -68 -220 -68t-196 51
q-66 51 -66 134t57 141t154 81q-113 39 -113 136t84 162t192 65t168 -48q62 -48 62 -121t-47 -123t-125 -73q141 -43 141 -155zM1315 1393l-909 -1393h-50l910 1393h49zM694 894q0 -108 -82 -174q-82 -65 -205 -65q-123 1 -189 51t-60 132h45q-4 -66 50 -105q53 -39 155 -39
t173 52t71 126t-49 112q-48 38 -130 38h-67l8 37h67q90 0 151 52q60 51 60 123t-47 110t-130 38t-141 -38t-81 -103h-43q25 82 97 131q73 49 173 49t156 -47t57 -123q0 -76 -41 -131t-112 -80q114 -38 114 -146z" />
    <glyph glyph-name="fiveeighths" unicode="&#x215d;" horiz-adv-x="1740" 
d="M1325 373q-107 -1 -183 -55t-75 -132q-1 -78 55 -120t162 -43q106 0 184 57q76 57 76 134t-56 118t-163 41zM1161 544q0 -68 49 -104t141 -37q92 1 159 49t67 116t-49 109q-49 40 -138 40t-159 -52q-70 -53 -70 -121zM1591 234q0 -112 -91 -182q-91 -68 -220 -68t-196 51
q-66 51 -66 134t57 141t154 81q-113 39 -113 136t84 162t192 65t168 -48q62 -48 62 -121t-47 -123t-125 -73q141 -43 141 -155zM489 1104q106 0 167 -52t61 -150q0 -100 -92 -180q-91 -80 -219 -79q-128 0 -192 56t-69 155h45q4 -82 58 -127t162 -45q106 0 185 68t79 148
t-52 124q-52 43 -143 43l-184 -2l8 41h186zM1315 1393l-909 -1393h-50l910 1393h49zM295 1063h-41l59 334h449l-6 -39h-408z" />
    <glyph glyph-name="seveneighths" unicode="&#x215e;" horiz-adv-x="1556" 
d="M1182 373q-107 -1 -183 -55q-75 -54 -75 -132t55 -120t161 -43q106 0 184 57q77 57 77 134t-56 118t-163 41zM1018 544q0 -68 49 -104t141 -37q92 1 159 49t67 116t-50 109q-50 40 -138 40t-158 -52q-70 -53 -70 -121zM1448 234q0 -112 -91 -182q-91 -68 -221 -68
t-196 51t-66 134t58 141t153 81q-113 39 -113 136t85 162q84 65 191 65q106 0 168 -48t62 -121t-46 -123q-47 -50 -125 -73q141 -43 141 -155zM1171 1393l-909 -1393h-49l909 1393h49zM285 659l497 697h-463l9 41h524l-6 -27l-508 -711h-53z" />
    <glyph glyph-name="arrowleft" unicode="&#x2190;" horiz-adv-x="1568" 
d="M1487 721v-41h-1337l663 -664l-31 -28l-712 712l712 713l31 -29l-663 -663h1337z" />
    <glyph glyph-name="arrowup" unicode="&#x2191;" horiz-adv-x="1609" 
d="M825 0h-41v1337l-663 -663l-29 31l713 712l713 -712l-29 -31l-664 663v-1337z" />
    <glyph glyph-name="arrowright" unicode="&#x2192;" horiz-adv-x="1568" 
d="M82 721h1337l-663 663l30 29l713 -713l-713 -712l-30 28l663 664h-1337v41z" />
    <glyph glyph-name="arrowdown" unicode="&#x2193;" horiz-adv-x="1609" 
d="M825 1393v-1338l664 664l29 -31l-713 -713l-713 713l29 31l663 -664v1338h41z" />
    <glyph glyph-name="arrowupleft" unicode="&#x2196;" horiz-adv-x="1685" 
d="M184 1393h1008l2 -43h-938l1327 -1327l-29 -29l-1327 1327v-938l-43 2v1008z" />
    <glyph glyph-name="arrowupright" unicode="&#x2197;" horiz-adv-x="1767" 
d="M1583 1393v-1008l-43 -2v938l-1327 -1327l-29 29l1327 1327h-938l2 43h1008z" />
    <glyph glyph-name="arrowdownright" unicode="&#x2198;" horiz-adv-x="1685" 
d="M1501 0h-1007l-2 43h938l-1328 1327l29 29l1327 -1327v938l43 -2v-1008z" />
    <glyph glyph-name="arrowdownleft" unicode="&#x2199;" horiz-adv-x="1634" 
d="M184 0v1008l43 2v-938l1327 1327l29 -29l-1327 -1327h938l-2 -43h-1008z" />
    <glyph glyph-name="minus" unicode="&#x2212;" horiz-adv-x="1396" 
d="M283 668h905l-8 -43h-906z" />
    <glyph glyph-name="R.ss02" horiz-adv-x="1435" 
d="M723 596q240 0 393.5 117.5t153.5 308.5q0 160 -104.5 245t-297.5 85h-432l-133 -756h420zM1317 1028q0 -213 -168 -344t-432 -131h-250l723 -553h-78l-721 553h-94l-98 -553h-45l245 1393h467q211 0 331 -94.5t120 -270.5z" />
    <glyph glyph-name="Racute.ss02" horiz-adv-x="1435" 
d="M723 596q240 0 393.5 117.5t153.5 308.5q0 160 -104.5 245t-297.5 85h-432l-133 -756h420zM1317 1028q0 -213 -168 -344t-432 -131h-250l723 -553h-78l-721 553h-94l-98 -553h-45l245 1393h467q211 0 331 -94.5t120 -270.5zM840 1556h-49l227 279h51z" />
    <glyph glyph-name="Rcaron.ss02" horiz-adv-x="1435" 
d="M723 596q240 0 393.5 117.5t153.5 308.5q0 160 -104.5 245t-297.5 85h-432l-133 -756h420zM1317 1028q0 -213 -168 -344t-432 -131h-250l723 -553h-78l-721 553h-94l-98 -553h-45l245 1393h467q211 0 331 -94.5t120 -270.5zM852 1565l-211 278h53l195 -250l282 250h62
l-309 -278h-72z" />
    <glyph glyph-name="Rcommaaccent.ss02" horiz-adv-x="1435" 
d="M579.5 -166q20.5 0 37 -13.5t16.5 -37.5t-18.5 -59t-110.5 -189h-37l117 201q-53 0 -54 47q0 23 14.5 37t35 14zM723 596q240 0 393.5 117.5t153.5 308.5q0 160 -104.5 245t-297.5 85h-432l-133 -756h420zM1317 1028q0 -213 -168 -344t-432 -131h-250l723 -553h-78
l-721 553h-94l-98 -553h-45l245 1393h467q211 0 331 -94.5t120 -270.5z" />
    <glyph glyph-name="Q.ss03" horiz-adv-x="1744" 
d="M1448 -381l-10 -47q-252 66 -662 190l8 35zM793 14q207 0 394 106t302 288t115 387q0 247 -161 415t-409 168q-207 0 -394 -105t-302 -287t-115 -388q0 -248 161 -416t409 -168zM1040 1421q266 0 438 -178t173 -442q0 -219 -123 -412t-323 -305t-419 -113
q-266 1 -438 179t-172 442q0 219 123 412t323 305t418 112z" />
    <glyph glyph-name="i.loclTRK" horiz-adv-x="505" 
d="M354 922l-161 -922h-43l161 922h43zM399 1241q-20 0 -33 13q-14 14 -14 34t14 34t33 13q19 0 33 -13q14 -14 14 -34t-13 -34q-14 -13 -34 -13z" />
    <glyph glyph-name="germandbls.case" horiz-adv-x="2674" 
d="M2160 1423q230 0 344.5 -101t112.5 -271h-45q-4 158 -108.5 244.5t-311 86.5t-343 -103t-136.5 -261q0 -94 77 -160.5t220 -93.5l240 -47q145 -27 223 -103.5t78 -189.5q0 -197 -164 -326t-411 -129t-368.5 119t-113.5 346h45q-4 -207 106.5 -315.5t336 -108.5t374 115
t148.5 289q0 102 -71 169.5t-202 92.5l-245 49q-154 29 -237 104.5t-83 186.5q0 176 152 291.5t382 115.5zM822 1423q230 0 345 -101t113 -271h-45q-4 158 -108.5 244.5t-311.5 86.5t-343 -103t-136 -261q0 -94 76.5 -160.5t220.5 -93.5l239 -47q145 -27 223.5 -103.5
t78.5 -189.5q0 -197 -164 -326t-411 -129t-368.5 119t-113.5 346h45q-4 -207 106.5 -315.5t335.5 -108.5t373.5 115t148.5 289q0 102 -70.5 169.5t-201.5 92.5l-246 49q-154 29 -236.5 104.5t-82.5 186.5q0 176 151.5 291.5t381.5 115.5z" />
    <glyph glyph-name="l.ss01" horiz-adv-x="681" 
d="M344 10q57 0 162 23l2 -39q-102 -25 -170 -25q-219 0 -174 258l217 1227h43l-217 -1227q-39 -217 137 -217z" />
    <glyph glyph-name="lacute.ss01" horiz-adv-x="681" 
d="M344 10q57 0 162 23l2 -39q-102 -25 -170 -25q-219 0 -174 258l217 1227h43l-217 -1227q-39 -217 137 -217zM696 1935l-229 -278h-49l227 278h51z" />
    <glyph glyph-name="lcaron.ss01" horiz-adv-x="681" 
d="M674 1454l-96 -348h-39l90 348h45zM344 10q57 0 162 23l2 -39q-102 -25 -170 -25q-219 0 -174 258l217 1227h43l-217 -1227q-39 -217 137 -217z" />
    <glyph glyph-name="lcommaaccent.ss01" horiz-adv-x="681" 
d="M240 -217q0 23 14 37t34.5 14t37 -13.5t16.5 -37.5t-18.5 -59t-110.5 -189h-37l117 201q-53 0 -53 47zM344 10q57 0 162 23l2 -39q-102 -25 -170 -25q-219 0 -174 258l217 1227h43l-217 -1227q-39 -217 137 -217z" />
    <glyph glyph-name="ldot.ss01" horiz-adv-x="712" 
d="M495.5 573q-20.5 0 -36 14.5t-15.5 37t15.5 37t36 14.5t36 -14.5t15.5 -37t-15.5 -37t-36 -14.5zM344 10q57 0 162 23l2 -39q-102 -25 -170 -25q-219 0 -174 258l217 1227h43l-217 -1227q-39 -217 137 -217z" />
    <glyph glyph-name="lslash.ss01" horiz-adv-x="681" 
d="M344 10q57 0 162 23l2 -39q-102 -25 -170 -25q-219 0 -174 258l76 432l-142 -77l11 51l141 78l131 743h43l-127 -719l219 121l-10 -51l-217 -119l-82 -459q-39 -217 137 -217z" />
    <glyph glyph-name="y.ss04" horiz-adv-x="1218" 
d="M430 -510q-178 0 -277 83t-110 216h47q10 -115 98 -187t248 -71q160 0 278 98t148 269l45 252q-81 -86 -193 -134t-222 -47q-184 1 -272 105t-56 291l98 557h43l-98 -557q-31 -167 48 -261t243 -94q116 0 232 56t190 153l122 703h43l-180 -1024q-35 -188 -166 -298
t-309 -110z" />
    <glyph glyph-name="yacute.ss04" horiz-adv-x="1218" 
d="M430 -510q-178 0 -277 83t-110 216h47q10 -115 98 -187t248 -71q160 0 278 98t148 269l45 252q-81 -86 -193 -134t-222 -47q-184 1 -272 105t-56 291l98 557h43l-98 -557q-31 -167 48 -261t243 -94q116 0 232 56t190 153l122 703h43l-180 -1024q-35 -188 -166 -298
t-309 -110zM707 1124h-50l228 279h51z" />
    <glyph glyph-name="ycircumflex.ss04" horiz-adv-x="1218" 
d="M430 -510q-178 0 -277 83t-110 216h47q10 -115 98 -187t248 -71q160 0 278 98t148 269l45 252q-81 -86 -193 -134t-222 -47q-184 1 -272 105t-56 291l98 557h43l-98 -557q-31 -167 48 -261t243 -94q116 0 232 56t190 153l122 703h43l-180 -1024q-35 -188 -166 -298
t-309 -110zM496 1114h-64l313 279h74l207 -279h-53l-193 250z" />
    <glyph glyph-name="ydieresis.ss04" horiz-adv-x="1218" 
d="M430 -510q-178 0 -277 83t-110 216h47q10 -115 98 -187t248 -71q160 0 278 98t148 269l45 252q-81 -86 -193 -134t-222 -47q-184 1 -272 105t-56 291l98 557h43l-98 -557q-31 -167 48 -261t243 -94q116 0 232 56t190 153l122 703h43l-180 -1024q-35 -188 -166 -298
t-309 -110zM870 1217q-49 0 -51 51q1 23 15 37t36 14t37 -14t15 -37t-14 -37t-38 -14zM530 1217q-49 0 -51 51q1 23 15 37t36 14t37 -14t15 -37t-14 -37t-38 -14z" />
    <glyph glyph-name="ygrave.ss04" horiz-adv-x="1218" 
d="M430 -510q-178 0 -277 83t-110 216h47q10 -115 98 -187t248 -71q160 0 278 98t148 269l45 252q-81 -86 -193 -134t-222 -47q-184 1 -272 105t-56 291l98 557h43l-98 -557q-31 -167 48 -261t243 -94q116 0 232 56t190 153l122 703h43l-180 -1024q-35 -188 -166 -298
t-309 -110zM649 1126l-180 279h51l178 -279h-49z" />
    <glyph glyph-name="a.ss06" horiz-adv-x="1116" 
d="M434 14q242 0 438 172l50 279h-459q-154 0 -238 -70t-84 -169q0 -100 80 -156t213 -56zM643 934q182 0 273 -118t57 -310l-88 -506h-45l22 129q-199 -160 -440 -160q-152 0 -240 67q-88 68 -88 186t100 204t275 80h459q31 174 -49 280t-242 107q-125 0 -218 -53
t-130 -144h-49q42 110 150 174t253 64z" />
    <glyph glyph-name="aacute.ss06" horiz-adv-x="1116" 
d="M434 14q242 0 438 172l50 279h-459q-154 0 -238 -70t-84 -169q0 -100 80 -156t213 -56zM643 934q182 0 273 -118t57 -310l-88 -506h-45l22 129q-199 -160 -440 -160q-152 0 -240 67q-88 68 -88 186t100 204t275 80h459q31 174 -49 280t-242 107q-125 0 -218 -53
t-130 -144h-49q42 110 150 174t253 64zM717 1124h-49l227 279h51z" />
    <glyph glyph-name="abreve.ss06" horiz-adv-x="1116" 
d="M434 14q242 0 438 172l50 279h-459q-154 0 -238 -70t-84 -169q0 -100 80 -156t213 -56zM643 934q182 0 273 -118t57 -310l-88 -506h-45l22 129q-199 -160 -440 -160q-152 0 -240 67q-88 68 -88 186t100 204t275 80h459q31 174 -49 280t-242 107q-125 0 -218 -53
t-130 -144h-49q42 110 150 174t253 64zM645 1108q-106 0 -176 68t-49 186h41q-16 -102 42 -158t143 -57q85 0 165 57t96 158h45q-20 -122 -110 -188t-197 -66z" />
    <glyph glyph-name="acaron.ss06" horiz-adv-x="1116" 
d="M434 14q242 0 438 172l50 279h-459q-154 0 -238 -70t-84 -169q0 -100 80 -156t213 -56zM643 934q182 0 273 -118t57 -310l-88 -506h-45l22 129q-199 -160 -440 -160q-152 0 -240 67q-88 68 -88 186t100 204t275 80h459q31 174 -49 280t-242 107q-125 0 -218 -53
t-130 -144h-49q42 110 150 174t253 64zM672 1114l-211 279h53l195 -250l282 250h62l-310 -279h-71z" />
    <glyph glyph-name="acircumflex.ss06" horiz-adv-x="1116" 
d="M434 14q242 0 438 172l50 279h-459q-154 0 -238 -70t-84 -169q0 -100 80 -156t213 -56zM643 934q182 0 273 -118t57 -310l-88 -506h-45l22 129q-199 -160 -440 -160q-152 0 -240 67q-88 68 -88 186t100 204t275 80h459q31 174 -49 280t-242 107q-125 0 -218 -53
t-130 -144h-49q42 110 150 174t253 64zM465 1114h-64l314 279h73l207 -279h-53l-192 250z" />
    <glyph glyph-name="adieresis.ss06" horiz-adv-x="1116" 
d="M434 14q242 0 438 172l50 279h-459q-154 0 -238 -70t-84 -169q0 -100 80 -156t213 -56zM643 934q182 0 273 -118t57 -310l-88 -506h-45l22 129q-199 -160 -440 -160q-152 0 -240 67q-88 68 -88 186t100 204t275 80h459q31 174 -49 280t-242 107q-125 0 -218 -53
t-130 -144h-49q42 110 150 174t253 64zM881 1217q-20 0 -36 14q-15 14 -16 37t15 37t36 14t36 -14t16 -37t-16 -37t-35 -14zM541 1217q-20 0 -36 14q-15 14 -16 37t15 37t36 14t36 -14t16 -37t-16 -37t-35 -14z" />
    <glyph glyph-name="agrave.ss06" horiz-adv-x="1116" 
d="M434 14q242 0 438 172l50 279h-459q-154 0 -238 -70t-84 -169q0 -100 80 -156t213 -56zM643 934q182 0 273 -118t57 -310l-88 -506h-45l22 129q-199 -160 -440 -160q-152 0 -240 67q-88 68 -88 186t100 204t275 80h459q31 174 -49 280t-242 107q-125 0 -218 -53
t-130 -144h-49q42 110 150 174t253 64zM659 1126l-180 279h51l179 -279h-50z" />
    <glyph glyph-name="amacron.ss06" horiz-adv-x="1116" 
d="M434 14q242 0 438 172l50 279h-459q-154 0 -238 -70t-84 -169q0 -100 80 -156t213 -56zM643 934q182 0 273 -118t57 -310l-88 -506h-45l22 129q-199 -160 -440 -160q-152 0 -240 67q-88 68 -88 186t100 204t275 80h459q31 174 -49 280t-242 107q-125 0 -218 -53
t-130 -144h-49q42 110 150 174t253 64zM991 1204l-8 -37h-565l8 37h565z" />
    <glyph glyph-name="aogonek.ss06" horiz-adv-x="1116" 
d="M434 14q242 0 438 172l50 279h-459q-154 0 -238 -70t-84 -169q0 -100 80 -156t213 -56zM680 -219q0 -72 53 -114t141 -42q25 0 58 4l4 -43q-29 -6 -68 -6q-104 0 -169 54t-64 143q0 147 209 252l18 100q-199 -160 -440 -160q-152 0 -240 67q-88 68 -88 186t100 204
t275 80h459q31 174 -49 280t-242 107q-125 0 -218 -53t-130 -144h-49q42 110 150 174t253 64q181 0 273 -118t57 -310l-88 -506q-147 -65 -188 -143q-17 -35 -17 -76z" />
    <glyph glyph-name="aring.ss06" horiz-adv-x="1116" 
d="M434 14q242 0 438 172l50 279h-459q-154 0 -238 -70t-84 -169q0 -100 80 -156t213 -56zM643 934q182 0 273 -118t57 -310l-88 -506h-45l22 129q-199 -160 -440 -160q-152 0 -240 67q-88 68 -88 186t100 204t275 80h459q31 174 -49 280t-242 107q-125 0 -218 -53
t-130 -144h-49q42 110 150 174t253 64zM690 1436q-57 0 -98 -41t-41 -99t40 -99q40 -40 99 -40t100 40q40 40 40 98q0 57 -42 99q-41 42 -98 42zM690 1120q-76 0 -127 50t-51 126t51 126t127 50t127 -50t51 -126t-51 -126t-127 -50z" />
    <glyph glyph-name="atilde.ss06" horiz-adv-x="1116" 
d="M434 14q242 0 438 172l50 279h-459q-154 0 -238 -70t-84 -169q0 -100 80 -156t213 -56zM643 934q182 0 273 -118t57 -310l-88 -506h-45l22 129q-199 -160 -440 -160q-152 0 -240 67q-88 68 -88 186t100 204t275 80h459q31 174 -49 280t-242 107q-125 0 -218 -53
t-130 -144h-49q42 110 150 174t253 64zM420 1223q0 73 43 109t101 33t106 -38l75 -53q70 -51 132 -31q61 20 61 103h39q0 -110 -84 -140t-166 33l-78 55q-59 47 -125 28t-65 -99h-39z" />
    <glyph glyph-name="zero.osf" horiz-adv-x="1411" 
d="M625 16q254 0 430 176t176 451q0 199 -114 317t-304 117q-254 0 -430 -176t-176 -450q0 -199 114 -317t304 -118zM819 1118q209 0 335 -127t126 -342q0 -295 -193 -484t-469 -190q-208 0 -334 127t-126 342q0 295 192 485q193 189 469 189z" />
    <glyph glyph-name="one.osf" horiz-adv-x="1015" 
d="M879 41l-9 -41h-862l8 41h430l181 1032l-426 -158l8 48l450 163h21l-191 -1085h390z" />
    <glyph glyph-name="two.osf" horiz-adv-x="1120" 
d="M993 821q0 131 -86 203q-85 72 -243 72t-284 -91t-171 -241h-43q43 168 182 270q138 102 318 102t276 -80q96 -81 96 -217t-70 -226q-40 -50 -79 -90q-77 -79 -410 -285l-317 -197h776l-6 -41h-877l4 27l390 239q283 174 362 242q182 147 182 313z" />
    <glyph glyph-name="three.osf" horiz-adv-x="1155" 
d="M991 123q0 -190 -147 -311q-146 -121 -366 -121t-339 91t-104 238h45q-8 -132 97 -210t301 -78t332 108t136 277q0 129 -89 206t-243 76h-120l6 41h121q175 0 291 106t116 269q0 127 -89 204t-247 77t-274 -77t-156 -206h-47q41 147 171 235t308 89q178 0 278 -85
q100 -86 101 -230q0 -144 -84 -252t-223 -150q106 -33 166 -111t59 -186z" />
    <glyph glyph-name="four.osf" horiz-adv-x="1323" 
d="M1112 4h-254l-59 -332h-43l59 332h-780l6 27l633 1034h47l-621 -1020h721l86 487h43l-86 -487h256z" />
    <glyph glyph-name="five.osf" horiz-adv-x="1187" 
d="M999 195q0 141 -97 225t-271 84l-359 -2l9 43h360q188 0 296 -93t107 -251q0 -211 -166 -362t-394 -151q-226 0 -341 105q-115 104 -118 289h47q4 -166 108 -259t309 -93t358 138q152 139 152 327zM272 502h-43l109 610h788l-6 -41h-747z" />
    <glyph glyph-name="six.osf" horiz-adv-x="1253" 
d="M535 10q219 0 375 144t155 358q0 162 -104 260t-275 98q-215 0 -362 -129l-25 -26q-143 -143 -143 -342q0 -163 104 -263t275 -100zM692 911q188 1 304 -107t116 -284q0 -238 -171 -394t-415 -157q-188 0 -303 110q-115 111 -115 299t160 363l611 652h63l-512 -539
q129 57 262 57z" />
    <glyph glyph-name="seven.osf" horiz-adv-x="1026" 
d="M1092 1106l-5 -29l-948 -1364h-57l944 1352h-874l6 41h934z" />
    <glyph glyph-name="eight.osf" horiz-adv-x="1265" 
d="M574 10q204 0 353 117q148 117 148 297q0 133 -108 214q-109 81 -313 81t-352 -110q-146 -110 -146 -285q0 -141 106 -228q108 -86 312 -86zM338 1014q0 -123 94 -193q94 -69 270 -69t304 94q129 94 129 254q-1 123 -95 204q-94 80 -262 80t-304 -108t-136 -262zM545 -31
q-201 -1 -318 95t-117 254t113 271q113 112 301 148q-109 31 -169 101t-60 172q0 172 149 293q150 121 357 120q168 0 273 -90q106 -90 106 -229q0 -138 -94 -236t-250 -133q135 -29 211 -111t75 -196q0 -199 -164 -329t-413 -130z" />
    <glyph glyph-name="nine.osf" horiz-adv-x="1253" 
d="M1110 700q0 164 -104 264t-275 99q-219 0 -375 -143t-155 -359q0 -162 104 -260t275 -98q215 0 362 129l25 26q143 143 143 342zM739 1104q188 0 303 -110t115 -298t-160 -364l-610 -651h-63l512 538q-129 -57 -263 -57q-188 0 -304 108t-115 283q0 239 170 395t415 156z
" />
    <glyph glyph-name="zero.tf" horiz-adv-x="1187" 
d="M506 10q266 0 448 244t183 604q1 240 -103 382t-286 142q-266 0 -449 -243q-182 -244 -182 -604q-1 -241 103 -383t286 -142zM756 1423q200 -1 314 -153t114 -408q0 -381 -198 -637t-488 -256q-201 0 -315 153t-113 408q0 381 197 637q198 256 489 256z" />
    <glyph glyph-name="one.tf" horiz-adv-x="1187" 
d="M1036 41l-8 -41h-944l8 41h445l227 1298l-426 -157l8 47l451 164h20l-237 -1352h456z" />
    <glyph glyph-name="two.tf" horiz-adv-x="1187" 
d="M1106 1067q0 141 -92 228t-256 87t-294 -91t-175 -240h-43q43 168 187 270q143 102 327 102t288 -97t105 -256q0 -159 -98 -285t-365 -343l-489 -401h809l-9 -41h-897l7 27l546 444q129 103 198 165q182 162 225 280q26 69 26 151z" />
    <glyph glyph-name="three.tf" horiz-adv-x="1187" 
d="M1044 410q0 -190 -147 -312t-367 -121q-220 -1 -338 91t-104 239h45q-8 -131 97 -210t301 -79t332 108t136 277q0 129 -89 206t-242 77h-121l6 41h121q176 -1 292 105t115 270q0 127 -89 204q-89 76 -247 76q-157 0 -273 -76t-157 -206h-47q41 147 171 235q131 88 309 88
t278 -85t100 -229q0 -143 -84 -251t-223 -151q105 -33 165 -111t60 -186z" />
    <glyph glyph-name="four.tf" horiz-adv-x="1187" 
d="M1118 332h-254l-59 -332h-43l59 332h-780l6 26l633 1035h47l-621 -1020h721l86 487h43l-86 -487h256z" />
    <glyph glyph-name="five.tf" horiz-adv-x="1187" 
d="M1051 475q1 141 -97 225t-272 84l-358 -2l8 43h360q188 0 296 -93t108 -251q0 -211 -167 -361t-393 -151q-226 1 -342 105q-114 104 -118 288h47q4 -166 108 -259t309 -93t358 138t153 327zM324 782h-43l108 611h789l-7 -41h-747z" />
    <glyph glyph-name="six.tf" horiz-adv-x="1187" 
d="M506 10q219 0 375 144t155 358q0 162 -104 260t-275 98q-215 0 -362 -129l-25 -26q-143 -143 -143 -342q1 -163 105 -263t274 -100zM664 911q188 1 304 -107t115 -284q0 -238 -171 -394t-414 -157q-188 0 -303 110q-115 111 -115 299t160 363l610 652h63l-512 -539
q130 57 263 57z" />
    <glyph glyph-name="seven.tf" horiz-adv-x="1187" 
d="M1235 1393l-4 -29l-948 -1364h-58l944 1352h-874l6 41h934z" />
    <glyph glyph-name="eight.tf" horiz-adv-x="1187" 
d="M542 10q204 0 354 117q148 117 148 297q0 133 -108 214q-110 81 -314 81t-350 -110t-147 -285q0 -141 106 -228q107 -86 311 -86zM307 1014q0 -123 94 -193q93 -69 269 -69t305 94t129 254q0 123 -94 204q-94 80 -263 80t-305 -108t-135 -262zM1092 428q0 -199 -164 -329
t-414 -130q-202 -1 -318 95t-116 254t113 271q113 112 301 148q-109 31 -169 101t-61 172q0 172 150 293t356 120q168 0 273 -90t105 -229q0 -138 -93 -236q-94 -98 -250 -133q135 -29 211 -111t76 -196z" />
    <glyph glyph-name="nine.tf" horiz-adv-x="1187" 
d="M756 1382q-219 0 -375 -143t-156 -358q1 -162 105 -260t274 -99q216 0 363 129l24 27q143 142 143 324t-104 281t-274 99zM764 1423q188 1 303 -109t115 -298t-160 -365l-610 -651h-64l512 539q-129 -57 -262 -58q-188 0 -304 108t-116 283q0 238 171 394t415 157z" />
    <glyph glyph-name="zero.zero" horiz-adv-x="1462" 
d="M653 10q299 0 486 241q186 241 186 603q0 174 -59 299l-975 -934q114 -209 362 -209zM895 1382q-299 0 -485 -240t-187 -603q0 -162 49 -279l975 930q-110 192 -352 192zM903 1423q225 -1 347 -153t122 -410q0 -385 -202 -638t-525 -253q-225 0 -347 153t-122 410
q0 385 202 638t525 253z" />
    <glyph glyph-name="zero.osf.zero" horiz-adv-x="1411" 
d="M640 16q240 0 415 176q176 176 176 451q0 133 -55 238l-889 -705q113 -160 353 -160zM800 1077q-240 0 -417 -176q-176 -176 -176 -450q0 -137 57 -240l891 702q-115 164 -355 164zM819 1118q209 0 335 -127t126 -342q0 -295 -193 -484t-469 -190q-208 0 -334 127
t-126 342q0 295 192 485q193 189 469 189z" />
    <glyph glyph-name="zero.dnom" horiz-adv-x="864" 
d="M356 25q156 -1 255 121t100 294q-1 121 -61 198t-171 77q-154 0 -254 -123t-100 -293q0 -123 60 -199t171 -75zM485 754q129 0 200 -85t71 -223q0 -194 -114 -328t-292 -134q-130 0 -200 86t-70 223q0 189 114 325t291 136z" />
    <glyph glyph-name="one.dnom" horiz-adv-x="589" 
d="M471 39l-8 -39h-488l9 39h231l115 649l-230 -78l6 41l254 86h23l-125 -698h213z" />
    <glyph glyph-name="two.dnom" horiz-adv-x="722" 
d="M395 715q-84 0 -145 -45t-84 -121h-43q25 94 98 149q74 56 177 56q104 0 160 -52t56 -133q0 -83 -52 -149t-191 -178l-252 -203h422l-6 -39h-502l4 25l301 241q92 74 132 110q103 93 101 187q0 68 -46 110t-130 42z" />
    <glyph glyph-name="three.dnom" horiz-adv-x="745" 
d="M582 226q0 -108 -82 -174q-82 -64 -205 -64t-190 50t-60 132h45q-4 -66 50 -104t156 -39q102 0 172 52q70 51 71 125q-1 74 -49 112t-130 38h-67l8 37h68q90 0 150 52q61 51 61 123t-48 110t-130 39q-83 0 -141 -38t-81 -104h-43q25 82 97 132q74 49 174 49t156 -47
t56 -123t-40 -131q-41 -55 -113 -80q115 -39 115 -147z" />
    <glyph glyph-name="four.dnom" horiz-adv-x="794" 
d="M641 170h-137l-29 -170h-41l29 170h-432l6 29l342 538h45l-330 -526h377l43 250h41l-43 -250h137z" />
    <glyph glyph-name="five.dnom" horiz-adv-x="747" 
d="M297 23q107 -1 185 67t79 149q0 81 -52 123t-142 44l-185 -3l8 41h187q107 0 167 -51t60 -151t-92 -179t-219 -79t-192 56t-68 155h45q8 -172 219 -172zM182 403h-41l60 334h448l-6 -39h-407z" />
    <glyph glyph-name="six.dnom" horiz-adv-x="733" 
d="M82 213q0 -90 56 -140t156 -50q102 -1 184 69t81 162q0 92 -56 142t-163 50t-180 -73q-78 -70 -78 -160zM367 487q106 0 172 -57t65 -154q0 -124 -95 -208t-217 -84t-189 59t-67 157t91 199l326 338h53l-256 -270q58 20 117 20z" />
    <glyph glyph-name="seven.dnom" horiz-adv-x="595" 
d="M616 737l-6 -26l-508 -711h-53l498 696h-463l8 41h524z" />
    <glyph glyph-name="eight.dnom" horiz-adv-x="772" 
d="M356 373q-106 -1 -182 -55t-76 -132t56 -120t162 -43q106 0 183 57t77 134t-57 118t-163 41zM421 717q-89 0 -159 -52q-70 -53 -69 -121q0 -68 49 -104t141 -37q92 1 159 49q66 48 66 116t-49 109q-49 40 -138 40zM49 169q0 83 57 141t154 81q-113 39 -113 136t84 162
q83 65 191 65t170 -48t61 -121q0 -73 -47 -123t-125 -73q141 -43 141 -155t-90 -182q-92 -68 -221 -68t-195 51t-67 134z" />
    <glyph glyph-name="nine.dnom" horiz-adv-x="733" 
d="M406 717q-102 0 -183 -70q-82 -70 -82 -162q1 -92 57 -142t162 -50t181 74q77 70 77 160t-55 140t-157 50zM408 756q122 0 189 -60t67 -157q0 -98 -91 -199l-325 -338h-53l256 270q-57 -20 -117 -20q-106 0 -172 57t-66 168t95 195t217 84z" />
    <glyph glyph-name="zero.numr" horiz-adv-x="864" 
d="M469 684q156 0 255 122t99 294q0 122 -60 198t-171 76q-154 0 -254 -123t-100 -293q0 -122 60 -198t171 -76zM598 1413q129 0 200 -85t70 -222q0 -195 -114 -329t-291 -134q-129 0 -200 86t-70 223q0 190 114 326q115 135 291 135z" />
    <glyph glyph-name="one.numr" horiz-adv-x="589" 
d="M584 698l-9 -39h-487l8 39h232l114 650l-229 -78l6 41l254 86h23l-125 -699h213z" />
    <glyph glyph-name="two.numr" horiz-adv-x="722" 
d="M684 1230q0 60 -46 102t-130 42t-146 -45t-83 -121h-43q25 94 98 150q74 55 177 55t159 -51t57 -133q0 -82 -52 -149t-192 -179l-252 -203h422l-6 -39h-502l5 25l301 242q92 74 132 109q101 91 101 195z" />
    <glyph glyph-name="three.numr" horiz-adv-x="745" 
d="M407 655q-123 1 -189 51t-60 132h45q-4 -66 50 -105q53 -39 155 -39t173 52t71 126t-49 112q-48 38 -130 38h-67l8 37h67q90 0 151 52q60 51 60 123t-47 110t-130 38t-141 -38t-81 -103h-43q25 82 97 131q73 49 173 49t156 -47t57 -123q-1 -76 -41 -131t-112 -80
q114 -39 114 -147t-82 -173t-205 -65z" />
    <glyph glyph-name="four.numr" horiz-adv-x="794" 
d="M754 829h-138l-28 -170h-41l28 170h-432l7 29l342 539h45l-330 -527h377l43 250h41l-43 -250h137z" />
    <glyph glyph-name="five.numr" horiz-adv-x="747" 
d="M410 682q106 0 185 68t79 148q0 81 -52 124t-143 43l-184 -2l8 41h186q107 0 167 -51t60 -151t-91 -180t-219 -79q-128 0 -192 56t-69 155h45q4 -82 58 -127q56 -45 162 -45zM295 1063h-41l59 334h449l-6 -39h-408z" />
    <glyph glyph-name="six.numr" horiz-adv-x="733" 
d="M406 682q102 0 184 70t82 162t-56 142t-160 50t-173 -64l-11 -10q-78 -70 -78 -160t56 -140q54 -50 156 -50zM479 1147q106 0 172 -57t66 -168t-95 -195t-217 -84t-189 59q-66 60 -66 158t90 199l325 338h53l-256 -271q58 21 117 21z" />
    <glyph glyph-name="seven.numr" horiz-adv-x="595" 
d="M729 1397l-6 -27l-508 -711h-53l497 697h-462l8 41h524z" />
    <glyph glyph-name="eight.numr" horiz-adv-x="772" 
d="M436 690q106 0 184 58q76 58 76 134q0 78 -56 118t-163 40t-183 -54t-75 -132q-1 -78 55 -121t162 -43zM313 1212q0 -68 49 -105q50 -36 142 -36t159 48q67 49 67 117t-50 108q-49 40 -138 40t-159 -52t-70 -120zM743 902q0 -112 -91 -182q-91 -69 -220 -69
q-130 0 -196 51q-66 50 -66 134t57 142t154 81q-113 39 -113 136t84 162t192 65t168 -49q62 -48 62 -121q0 -72 -47 -122t-125 -73q141 -43 141 -155z" />
    <glyph glyph-name="nine.numr" horiz-adv-x="733" 
d="M731 1194q0 90 -55 140t-157 50q-101 0 -183 -70t-82 -161q0 -92 56 -142t163 -50t180 73q78 70 78 160zM522 1423q122 0 188 -59q66 -60 66 -158t-90 -198l-326 -338h-53l256 270q-57 -20 -117 -20q-106 0 -172 57t-65 153q0 125 95 209q96 84 218 84z" />
    <glyph glyph-name="backslash.case" horiz-adv-x="751" 
d="M102 1495h45l502 -1591h-45z" />
    <glyph glyph-name="bullet.case" horiz-adv-x="624" 
d="M343 481q-81 -1 -140 59t-60 140t59 139t141 59t140 -58q59 -60 59 -140t-58 -140q-60 -60 -141 -59z" />
    <glyph glyph-name="exclamdown.case" horiz-adv-x="501" 
d="M336 1065h45l-188 -1065h-46zM410 1409q20 0 33 -13q13 -14 13 -34t-12 -34q-14 -14 -34 -13q-20 0 -34 13q-14 14 -14 34t14 34t34 13z" />
    <glyph glyph-name="periodcentered.case" horiz-adv-x="299" 
d="M193 635q-20 0 -34 13q-13 14 -13 34t12 34q14 14 34 13q20 0 34 -13q14 -14 14 -34t-14 -34t-33 -13z" />
    <glyph glyph-name="questiondown.case" 
d="M532 -31q-158 1 -260 103t-102 256q0 197 154 339t374 142l41 233h41l-41 -274h-47q-197 0 -337 -129t-140 -303q0 -138 93 -232q92 -94 232 -94t257 76t166 197h45q-54 -141 -186 -227t-290 -87zM817 1315q-20 0 -34 13q-13 14 -13 34t13 34t33 13q20 0 34 -13
q14 -14 14 -34t-13 -34q-14 -13 -34 -13z" />
    <glyph glyph-name="slash.case" horiz-adv-x="751" 
d="M-8 -96l780 1591h45l-780 -1591h-45z" />
    <glyph glyph-name="braceleft.case" horiz-adv-x="735" 
d="M496 1186l-29 -162q-47 -264 -201 -319q135 -55 88 -320l-28 -162q-23 -135 27 -217t157 -82l-6 -41q-127 0 -188 93q-60 93 -33 247l28 162q29 163 -13 231t-171 68l6 41q129 0 197 69t94 230l29 162q29 154 121 247q93 93 219 93l-7 -41q-104 0 -186 -88t-104 -211z
" />
    <glyph glyph-name="braceright.case" horiz-adv-x="733" 
d="M324 223l28 162q47 264 201 320q-135 55 -88 319l29 162q22 135 -28 217t-157 82l6 41q127 0 187 -93t35 -247l-29 -162q-29 -162 13 -230t171 -69l-6 -41q-129 0 -197 -69t-94 -230l-28 -162q-27 -154 -121 -247t-219 -93l6 41q104 0 186 88t105 211z" />
    <glyph glyph-name="bracketleft.case" horiz-adv-x="698" 
d="M186 -61h269l-9 -41h-311l283 1597h311l-8 -41h-268z" />
    <glyph glyph-name="bracketright.case" horiz-adv-x="698" 
d="M594 1454h-268l8 41h311l-283 -1597h-311l8 41h269z" />
    <glyph glyph-name="parenleft.case" horiz-adv-x="731" 
d="M715 1481l20 -31q-217 -156 -341 -341t-171 -441q-96 -451 240 -762l-31 -31q-170 147 -235 356q-66 209 -17 443q97 516 535 807z" />
    <glyph glyph-name="parenright.case" horiz-adv-x="731" 
d="M344 1450l31 31q169 -147 235 -357t17 -442q-96 -516 -535 -807l-20 31q217 156 341 341t171 441q96 451 -240 762z" />
    <glyph glyph-name="emdash.case" horiz-adv-x="1947" 
d="M1747 721l-8 -43h-1454l8 43h1454z" />
    <glyph glyph-name="endash.case" horiz-adv-x="1511" 
d="M1311 719l-8 -43h-1018l8 43h1018z" />
    <glyph glyph-name="hyphen.case" horiz-adv-x="1136" 
d="M936 719l-8 -43h-643l8 43h643z" />
    <glyph glyph-name="guillemotleft.case" horiz-adv-x="827" 
d="M766 995l-301 -299l197 -290h-52l-198 294l301 295h53zM479 995l-301 -299l197 -290h-51l-199 294l301 295h53z" />
    <glyph glyph-name="guillemotright.case" horiz-adv-x="827" 
d="M434 406l301 299l-196 290h51l198 -295l-301 -294h-53zM147 406l302 299l-197 290h51l199 -295l-301 -294h-54z" />
    <glyph glyph-name="guilsinglleft.case" horiz-adv-x="540" 
d="M479 995l-301 -299l197 -290h-51l-199 294l301 295h53z" />
    <glyph glyph-name="guilsinglright.case" horiz-adv-x="540" 
d="M147 406l302 299l-197 290h51l199 -295l-301 -294h-54z" />
    <glyph glyph-name="florin.tf" horiz-adv-x="1187" 
d="M1114 1403q70 0 162 -25l-16 -37q-86 20 -152 21q-203 0 -285 -258l-114 -367h352l-8 -41h-357l-159 -530q-92 -299 -334 -299q-70 0 -162 24l16 37q86 -20 152 -20q203 0 285 258l159 530h-266l8 41h271l114 367q96 299 334 299z" />
    <glyph glyph-name="cent.tf" horiz-adv-x="1187" 
d="M682 909q-190 0 -332 -130t-177 -318q-35 -189 63 -319t288 -130q137 0 248 71t160 187h47q-55 -135 -181 -217t-282 -82h-8l-45 -260h-43l47 262q-187 19 -281 157t-59 331t178 331t334 156l49 279h43l-49 -277h8q156 0 251 -81t106 -218h-48q-10 117 -95 187t-222 71z
" />
    <glyph glyph-name="dollar.tf" horiz-adv-x="1187" 
d="M760 1423q227 0 342 -101t112 -271h-45q-4 159 -108 245t-311 86t-343 -103t-137 -261q0 -94 77 -161t220 -93l240 -47q145 -27 223 -104t78 -189q0 -197 -164 -326t-414 -129h-30l-45 -258h-43l45 260q-207 18 -311 135q-103 117 -95 328h45q-4 -208 107 -316t336 -108
t373 115t149 289q0 102 -71 170t-202 92l-245 49q-154 29 -237 105t-83 186q0 168 137 280t353 125l49 277h43l-49 -275h4z" />
    <glyph glyph-name="Euro.tf" horiz-adv-x="1187" 
d="M883 1423q147 0 247 -61t142 -174h-55q-37 92 -126 143t-217 51q-227 0 -393 -144t-235 -386h731l-19 -41h-725q-31 -139 -30 -266h641l-17 -41h-624q8 -226 120 -360t310 -134q240 0 377 160h59q-162 -201 -442 -201q-219 -1 -341 143t-130 392h-117l6 41h111
q0 127 30 266h-94l8 41h99q72 260 253 416t431 155z" />
    <glyph glyph-name="sterling.tf" horiz-adv-x="1187" 
d="M808 1423q198 0 302 -105t90 -284h-45q10 160 -83 254t-271 94t-311 -112q-132 -113 -164 -297l-60 -338h557l-8 -41h-555l-98 -553h858l-8 -41h-1082l9 41h178l98 553h-180l8 41h178l60 338q35 203 182 327t345 123z" />
    <glyph glyph-name="yen.tf" horiz-adv-x="1187" 
d="M610 479h396l-9 -43h-395l-29 -172h394l-6 -43h-396l-39 -221h-45l39 221h-395l6 43h397l29 172h-395l8 43h395l8 47l-337 867h51l317 -824l604 824h52l-642 -867z" />
    <glyph glyph-name="arrowdown.ss05" horiz-adv-x="1376" 
d="M1171 844l-483 -484l-483 484l28 30l455 -454l455 454z" />
    <glyph glyph-name="arrowleft.ss05" horiz-adv-x="1376" 
d="M1143 381l-455 455l-455 -455l-28 31l483 483l483 -483z" />
    <glyph glyph-name="arrowright.ss05" horiz-adv-x="1169" 
d="M346 719l455 -455l-31 -28l-483 483l483 483l31 -28z" />
    <glyph glyph-name="arrowup.ss05" horiz-adv-x="1128" 
d="M842 719l-484 -483l-30 28l454 455l-454 455l30 28z" />
    <glyph glyph-name="at.case" horiz-adv-x="1937" 
d="M932 258q190 0 334 164q0 45 10 110l47 265q-88 151 -261 151t-296 -114t-123 -285q0 -129 81 -210t208 -81zM1135 1423q299 -1 499 -197t199 -481q-1 -209 -107 -361t-284 -153q-156 0 -174 148q-147 -162 -346 -162q-141 0 -233 90q-91 90 -91 236q0 190 138 318
t320 128t275 -137l19 98h43l-74 -418q-23 -128 5 -194t124 -66q146 0 242 136t96 327q0 269 -188 457t-470 188q-227 0 -438 -114t-345 -317q-134 -202 -134 -433q0 -279 186 -465t469 -186t533 182l22 -37q-262 -188 -563 -188t-499 194t-197 490q0 250 141 464t365 334
t467 119z" />
    <glyph glyph-name="bar.case" horiz-adv-x="516" 
d="M463 1495l-281 -1591h-45l281 1591h45z" />
    <glyph glyph-name="brokenbar.case" horiz-adv-x="518" 
d="M182 -96h-45l123 690h45zM342 803h-45l121 692h45z" />
    <glyph glyph-name="registered.ss07" horiz-adv-x="1798" 
d="M721 639h229q121 0 196 58q75 57 75 153t-75 154t-196 59h-229v-424zM950 1100q140 0 226 -68t86 -178t-77 -177t-206 -75l301 -309h-53l-297 309h-209v-309h-41v807h270zM938 8q287 0 496 200q208 200 208 488t-208 489q-209 199 -496 199t-495 -200
q-207 -200 -207 -488t208 -488t494 -200zM938 1423q307 0 526 -209t219 -518t-219 -518t-526 -209t-526 209t-219 518t219 518t526 209z" />
    <glyph glyph-name="caron.alt" 
d="M651 1393l-96 -349h-39l90 349h45z" />
    <glyph glyph-name="acute.case" 
d="M893 1835l-229 -279h-50l228 279h51z" />
    <glyph glyph-name="breve.case" 
d="M650 1579q-106 0 -177 68q-70 68 -49 186h41q-16 -103 42 -159t143 -56t165 58t96 157h45q-20 -121 -110 -187t-196 -67z" />
    <glyph glyph-name="caron.case" 
d="M1057 1843l-309 -278h-72l-211 278h53l195 -250l282 250h62z" />
    <glyph glyph-name="circumflex.case" 
d="M700 1815l-284 -250h-64l314 278h73l207 -278h-53z" />
    <glyph glyph-name="dieresis.case" 
d="M825 1708q23 0 37 -14t14 -37t-14 -37t-37 -14t-37 14t-14 37t14 37t37 14zM485 1708q23 0 37 -14t14 -37t-14 -37t-37 -14q-49 0 -51 51q0 23 14 37t37 14z" />
    <glyph glyph-name="dotaccent.case" 
d="M676 1606q-20 0 -36 14q-15 14 -15 37t15 37q16 14 36 14t36 -14t15 -37q1 -23 -15 -37t-36 -14z" />
    <glyph glyph-name="grave.case" 
d="M684 1556h-49l-180 279h51z" />
    <glyph glyph-name="hungarumlaut.case" 
d="M936 1835l-178 -279h-47l176 279h49zM682 1835l-176 -279h-49l176 279h49z" />
    <glyph glyph-name="macron.case" 
d="M930 1634l-8 -37h-566l9 37h565z" />
    <glyph glyph-name="ring.case" 
d="M655 1628q57 0 99 40q41 40 41 98t-41 100q-40 42 -98 41q-58 0 -99 -41q-41 -42 -41 -100t41 -98t98 -40zM655 1944q76 0 127 -50q52 -50 52 -127q0 -76 -52 -126t-127 -50q-76 0 -127 50t-51 126q0 77 51 127t127 50z" />
    <glyph glyph-name="tilde.case" 
d="M874 1776h39q0 -111 -84 -141t-165 34l-78 55q-59 47 -125 28t-66 -99h-39q0 73 43 109t101 33t106 -38l76 -53q72 -50 132 -30t60 102z" />
    </font>
</defs>
</svg>
