<?xml version="1.0" standalone="no"?>
<!DOCTYPE svg PUBLIC "-//W3C//DTD SVG 1.1//EN" "http://www.w3.org/Graphics/SVG/1.1/DTD/svg11.dtd" >
<svg xmlns="http://www.w3.org/2000/svg">
<metadata>
Created by FontPrep 20130207 at Tue May 20 17:24:44 2014
 By Adrien
Copyright (c) 2014 by Rene' Bieder. All rights reserved.
</metadata>
<defs>
<font id="43972483396cb8ddc137a00c31095aee" horiz-adv-x='1024' >
  <font-face 
    font-family="Campton-BookItalic"
    font-weight="475"
    font-style="italic"
    font-stretch="normal"
    units-per-em="2048"
    panose-1="0 0 5 0 0 0 0 0 0 0"
    ascent="1638"
    descent="-410"
    x-height="956"
    cap-height="1393"
    bbox="-158 -498 3045 1982"
    underline-thickness="102"
    underline-position="-102"
    slope="-10"
    unicode-range="U+0020-FB02"
  />
<missing-glyph horiz-adv-x="1781" 
d="M348 143h977l-977 977v-977zM1434 1249h-985l985 -985v985zM1577 1393v-1393h-1372v1393h1372z" />
    <glyph glyph-name="fi" unicode="fi" horiz-adv-x="1376" 
d="M843 1378q-99 0 -168 -57t-85 -154l-37 -211h743l-168 -956h-188l139 799h-555l-139 -799h-186l139 799h-275l29 157h275l36 211q31 173 150 279t277 106t384 -79l-57 -164q-215 69 -314 69z" />
    <glyph glyph-name="fl" unicode="fl" horiz-adv-x="1357" 
d="M1372 1454l-258 -1454h-186l258 1454h186zM838 1552q109 0 202 -28l-55 -164q-88 18 -145 18q-96 0 -164 -58t-84 -155l-37 -209h346l-29 -157h-344l-141 -799h-188l139 799h-275l29 157h275l36 211q31 173 151 279t284 106z" />
    <glyph glyph-name=".notdef" horiz-adv-x="1781" 
d="M348 143h977l-977 977v-977zM1434 1249h-985l985 -985v985zM1577 1393v-1393h-1372v1393h1372z" />
    <glyph glyph-name=".null" horiz-adv-x="0" 
 />
    <glyph glyph-name="nonmarkingreturn" horiz-adv-x="681" 
 />
    <glyph glyph-name="space" unicode=" " horiz-adv-x="546" 
 />
    <glyph glyph-name="exclam" unicode="!" horiz-adv-x="557" 
d="M211 -18q-51 0 -86 34t-35 83q0 50 35 84t86 34t86 -34t35 -84q0 -49 -35 -83t-86 -34zM352 403h-170l160 990h199z" />
    <glyph glyph-name="quotedbl" unicode="&#x22;" horiz-adv-x="663" 
d="M721 1393l-100 -557h-162l100 557h162zM412 1393l-99 -557h-161l98 557h162z" />
    <glyph glyph-name="numbersign" unicode="#" horiz-adv-x="1533" 
d="M672 823l-133 -274h368l133 274h-368zM1102 549h246l-29 -168h-301l-184 -381h-195l184 381h-368l-185 -381h-194l184 381h-211l31 168h264l133 274h-235l28 168h289l199 404h194l-198 -404h368l199 404h195l-199 -404h221l-29 -168h-274z" />
    <glyph glyph-name="dollar" unicode="$" horiz-adv-x="1359" 
d="M463 993q0 -139 223 -184l186 -39q342 -68 342 -315q0 -205 -160 -339t-415 -145l-41 -229h-170l43 240q-190 33 -288 154q-97 122 -83 315h195q-8 -306 350 -306q162 0 262 72t101 186q0 141 -201 179l-227 45q-340 66 -328 346q8 184 140 300t331 142l43 244h170
l-41 -238q197 -15 315 -119t107 -305h-195q2 121 -72 190q-75 69 -231 69t-256 -74q-100 -72 -100 -189z" />
    <glyph glyph-name="percent" unicode="%" horiz-adv-x="2252" 
d="M1432 338q0 -108 58 -168t164 -61q106 0 195 85q90 85 90 194q0 108 -58 168q-57 60 -163 60t-196 -85t-90 -193zM1753 754q150 0 241 -91t91 -237q0 -195 -139 -326t-332 -131q-145 0 -238 91q-92 91 -92 239q0 195 139 325q140 130 330 130zM369 1006q-1 -110 59 -170
t166 -60t194 85t88 195t-58 170t-164 60t-195 -85q-90 -85 -90 -195zM735 0h-137l938 1393h137zM692 1423q148 0 240 -91t92 -238q0 -193 -139 -324t-330 -131q-150 0 -241 91t-91 239q-1 195 139 325t330 129z" />
    <glyph glyph-name="ampersand" unicode="&#x26;" horiz-adv-x="1486" 
d="M539 139q168 0 329 123l-252 270q-94 104 -106 119q-114 -43 -182 -119t-68 -171t77 -159t202 -63zM508 -29q-203 1 -320 99q-116 98 -116 255t95 273t249 176q-76 115 -76 221q0 182 143 305t331 123t280 -103t80 -282h-189q4 104 -46 160q-51 56 -151 57t-176 -69
t-76 -164t57 -174q56 -80 202 -232l206 -225l259 303h196l-336 -399l-14 -19l254 -276h-250l-137 147q-211 -176 -465 -176z" />
    <glyph glyph-name="quotesingle" unicode="'" horiz-adv-x="356" 
d="M416 1393l-99 -557h-161l98 557h162z" />
    <glyph glyph-name="parenleft" unicode="(" horiz-adv-x="780" 
d="M717 1501l112 -137q-213 -174 -331 -342t-161 -399q-42 -231 13 -413t199 -347l-143 -123q-174 170 -241 404t-20 491q89 514 572 866z" />
    <glyph glyph-name="parenright" unicode=")" horiz-adv-x="780" 
d="M281 1378l143 123q174 -169 241 -405t19 -492q-90 -518 -571 -864l-111 137q213 176 332 343q119 166 160 398t-15 413q-55 181 -198 347z" />
    <glyph glyph-name="asterisk" unicode="*" horiz-adv-x="827" 
d="M840 1217l26 -105l-233 -57l155 -156l-77 -80l-158 156l-59 -234l-105 29l60 240l-238 -60l-33 105l236 59l-154 154l78 80l156 -156l57 235l108 -28l-61 -240z" />
    <glyph glyph-name="plus" unicode="+" horiz-adv-x="1402" 
d="M809 582l-68 -379h-180l66 379h-389l30 174h389l68 379h180l-65 -379h389l-31 -174h-389z" />
    <glyph glyph-name="comma" unicode="," horiz-adv-x="417" 
d="M146 203q50 0 85 -34t35 -86t-71 -153l-125 -190h-117l147 248q-74 29 -73 100q0 47 34 81q35 34 85 34z" />
    <glyph glyph-name="hyphen" unicode="-" horiz-adv-x="1132" 
d="M903 453h-688l33 188h690z" />
    <glyph glyph-name="period" unicode="." horiz-adv-x="395" 
d="M131 -31q-51 0 -86 34t-35 84t35 84t86 34t86 -34t35 -84t-35 -84t-86 -34z" />
    <glyph glyph-name="slash" unicode="/" horiz-adv-x="827" 
d="M92 -328h-182l852 1823h182z" />
    <glyph glyph-name="zero" unicode="0" horiz-adv-x="1468" 
d="M672 145q238 0 381 201t143 492q0 184 -84 297t-246 112q-240 1 -382 -199t-142 -491q0 -184 84 -298t246 -114zM899 1423q240 -1 369 -159t129 -410t-93 -451q-94 -199 -268 -317t-404 -117q-230 0 -361 159q-130 159 -130 427q0 367 212 617t546 251z" />
    <glyph glyph-name="one" unicode="1" horiz-adv-x="1046" 
d="M938 162l-29 -162h-932l29 162h383l180 1018l-383 -119l31 168l473 164h111l-217 -1231h354z" />
    <glyph glyph-name="two" unicode="2" horiz-adv-x="1146" 
d="M848 1196q-59 59 -177 59q-118 1 -208 -69t-123 -189h-188q41 193 189 310t349 117t307 -101q106 -100 107 -256q0 -70 -18 -128q-33 -104 -191 -256q-57 -56 -180 -171l-379 -350h635l-29 -162h-926l19 102l526 492q20 18 100 89t103 99q24 27 65 72q78 84 78 183
q0 100 -59 159z" />
    <glyph glyph-name="three" unicode="3" horiz-adv-x="1150" 
d="M522 -29q-226 1 -350 107q-125 106 -117 278h191q2 -100 72 -158t207 -58q138 0 235 77q96 79 96 185t-71 161t-191 55h-113l27 158h113q131 0 217 79t86 183t-60 159q-60 54 -171 54t-187 -57t-107 -158h-190q45 174 182 278t325 103q188 0 292 -93q102 -92 102 -232
q0 -279 -231 -390q163 -82 163 -278t-147 -324q-147 -129 -373 -129z" />
    <glyph glyph-name="four" unicode="4" horiz-adv-x="1312" 
d="M1186 295h-209l-51 -295h-189l54 295h-738l23 121l583 977h199l-547 -930h508l78 432h186l-75 -432h209z" />
    <glyph glyph-name="five" unicode="5" horiz-adv-x="1204" 
d="M913 473q0 104 -72 168q-73 63 -202 64l-221 -3l31 170h241q188 0 300 -101t112 -265q0 -223 -170 -380t-402 -157t-349 109q-116 109 -113 297h190q20 -238 287 -238q154 -1 261 99t107 237zM418 702h-180l122 691h836l-31 -174h-655z" />
    <glyph glyph-name="six" unicode="6" horiz-adv-x="1261" 
d="M571 127q164 0 281 110t117 261q0 118 -78 194q-79 76 -217 76t-242 -82q-78 -78 -111 -145t-32 -142q-1 -117 77 -195t205 -77zM717 940q203 0 325 -114t121 -294q0 -238 -178 -400t-440 -163q-203 0 -325 117t-122 297q0 109 44 199t141 206l520 605h231l-389 -457
q45 4 72 4z" />
    <glyph glyph-name="seven" unicode="7" horiz-adv-x="1030" 
d="M1161 1393l-20 -119l-838 -1274h-217l799 1210h-715l33 183h958z" />
    <glyph glyph-name="eight" unicode="8" horiz-adv-x="1277" 
d="M289 374q-1 -114 75 -178t216 -65q140 0 248 88t108 215q0 96 -77 158t-219 63q-142 0 -246 -84q-105 -83 -105 -197zM753 1270q-125 0 -221 -81t-96 -185t67 -159q67 -57 193 -57t219 78q95 78 95 180t-66 164q-66 60 -191 60zM1149 441q0 -204 -171 -338t-441 -134
q-215 1 -339 99t-124 250t85 257q85 106 234 162q-147 84 -147 259t160 301t368 126t319 -93t111 -228q-1 -261 -252 -369q197 -88 197 -292z" />
    <glyph glyph-name="nine" unicode="9" horiz-adv-x="1261" 
d="M1059 993q0 117 -78 195t-205 78q-164 0 -280 -110t-117 -261q0 -117 78 -194t222 -76t245 90q76 82 105 143q30 61 30 135zM803 1423q203 -1 325 -117t121 -296q0 -109 -44 -198t-140 -206l-520 -606h-232l392 459q-45 -4 -74 -4q-201 1 -324 113t-123 292
q0 238 178 401q179 162 441 162z" />
    <glyph glyph-name="colon" unicode=":" horiz-adv-x="395" 
d="M128 -31q-50 0 -86 35t-36 84t36 83t86 34t86 -34t36 -84t-36 -84t-86 -34zM389 867q0 -49 -36 -83t-86 -34t-86 34t-36 84q0 49 36 83t86 34t86 -34t36 -84z" />
    <glyph glyph-name="semicolon" unicode=";" horiz-adv-x="403" 
d="M10 88q0 47 35 81t86 34t86 -34t35 -86t-72 -153l-127 -190h-114l147 248q-76 29 -76 100zM270 750q-51 0 -86 34q-34 34 -34 83q0 50 34 84q35 34 86 34t86 -34t35 -84q0 -49 -35 -83t-86 -34z" />
    <glyph glyph-name="less" unicode="&#x3c;" horiz-adv-x="1103" 
d="M119 717l934 403l-33 -200l-709 -310l600 -303l-32 -184l-793 403z" />
    <glyph glyph-name="equal" unicode="=" horiz-adv-x="1431" 
d="M1190 377h-987l30 174h988zM1260 778h-988l31 176h987z" />
    <glyph glyph-name="greater" unicode="&#x3e;" horiz-adv-x="1105" 
d="M1032 526l-934 -403l33 201l709 309l-600 303l32 184l793 -403z" />
    <glyph glyph-name="question" unicode="?" horiz-adv-x="1128" 
d="M439 217q50 0 86 -34t36 -84t-36 -84q-36 -33 -86 -33t-86 34t-36 84q0 49 36 83t86 34zM703 1417q183 0 292 -102q109 -101 109 -281t-139 -309t-355 -143l-39 -176h-147l37 307h112q141 0 243 90q102 89 102 205t-64 180t-166 63q-104 0 -189 -58t-118 -153h-188
q51 172 189 274t321 103z" />
    <glyph glyph-name="at" unicode="@" horiz-adv-x="1992" 
d="M938 215q154 0 268 137q2 49 13 99l28 161q-68 131 -215 131q-121 0 -216 -86t-95 -221q0 -100 62 -161q63 -60 155 -60zM1157 1339q323 1 527 -199t204 -509q0 -236 -110 -400q-110 -163 -311 -163q-202 0 -248 137q-141 -141 -332 -142q-152 1 -246 99t-94 250
q0 201 145 341t340 140q158 0 248 -94l12 69h168l-80 -454q-37 -205 105 -205q125 0 193 114t67 283q0 260 -172 429t-440 169q-166 0 -326 -66q-332 -136 -475 -435q-74 -153 -74 -318q0 -262 175 -436t438 -174t493 159l57 -116q-259 -178 -575 -178t-526 204t-209 521
q0 264 148 491t389 355t509 128z" />
    <glyph glyph-name="A" unicode="A" horiz-adv-x="1531" 
d="M1044 539l-159 616l-375 -616h534zM1092 358h-691l-219 -358h-217l869 1401h184l373 -1401h-207z" />
    <glyph glyph-name="B" unicode="B" horiz-adv-x="1449" 
d="M754 172q166 0 265 75t99 174q0 191 -280 191h-443l-78 -440h437zM807 786q166 0 262 70t96 186q0 82 -67 130q-68 48 -193 49h-403l-76 -435h381zM731 0h-639l246 1393h606q190 0 302 -82t112 -216q0 -133 -78 -235t-207 -139q119 -25 178 -99t60 -182q0 -196 -161 -318
t-419 -122z" />
    <glyph glyph-name="C" unicode="C" horiz-adv-x="1636" 
d="M788 160q166 0 313.5 97t215.5 257h203q-92 -244 -300 -393.5t-464 -149.5q-303 0 -478.5 207t-121.5 516t302.5 518t553.5 209q256 0 410.5 -149.5t160.5 -392.5h-203q-12 166 -118.5 260t-284.5 94q-227 0 -404.5 -153.5t-217.5 -385.5t84 -383t349 -151z" />
    <glyph glyph-name="D" unicode="D" horiz-adv-x="1540" 
d="M627 180q262 0 450 175t189 427q0 188 -126 310t-331 120h-309l-181 -1032h308zM840 1393q284 0 456 -163t172 -419q0 -343 -256 -577t-618 -234h-502l246 1393h502z" />
    <glyph glyph-name="E" unicode="E" horiz-adv-x="1294" 
d="M483 1212l-75 -432h710l-31 -180h-710l-74 -420h793l-33 -180h-989l245 1393h990l-31 -181h-795z" />
    <glyph glyph-name="F" unicode="F" horiz-adv-x="1257" 
d="M500 1212l-82 -469h690l-33 -180h-688l-100 -563h-195l246 1393h973l-33 -181h-778z" />
    <glyph glyph-name="G" unicode="G" horiz-adv-x="1679" 
d="M745 -29q-307 0 -477 209t-118 504q37 209 164.5 379t312 264t403 94t381 -132t178.5 -365h-194q-23 164 -135.5 240.5t-272.5 76.5q-231 0 -413.5 -157.5t-222.5 -388t80 -383t347 -152.5q190 0 334.5 111.5t212.5 293.5h-489l30 180h701l-11 -49h3l-123 -696h-156
l31 256q-217 -285 -566 -285z" />
    <glyph glyph-name="H" unicode="H" horiz-adv-x="1511" 
d="M1495 1393l-246 -1393h-194l104 596h-768l-104 -596h-195l246 1393h194l-108 -617h768l108 617h195z" />
    <glyph glyph-name="I" unicode="I" horiz-adv-x="546" 
d="M287 0h-195l246 1393h194z" />
    <glyph glyph-name="J" unicode="J" horiz-adv-x="1253" 
d="M1255 1393l-157 -883q-45 -260 -209 -400t-384 -140t-343 124q-123 125 -105 326h197q-6 -125 60 -197q66 -71 206 -71q139 0 246 99q106 99 135 263l156 879h198z" />
    <glyph glyph-name="K" unicode="K" horiz-adv-x="1466" 
d="M813 766l512 -766h-248l-426 621l-303 -277l-61 -344h-195l246 1393h194l-133 -752l840 752h264z" />
    <glyph glyph-name="L" unicode="L" horiz-adv-x="1222" 
d="M1073 176l-31 -176h-950l246 1393h194l-215 -1217h756z" />
    <glyph glyph-name="M" unicode="M" horiz-adv-x="1738" 
d="M1722 1393l-245 -1393h-197l170 946l-559 -698h-123l-313 717l-166 -965h-197l246 1393h143l385 -895l713 895h143z" />
    <glyph glyph-name="N" unicode="N" horiz-adv-x="1558" 
d="M1542 1393l-246 -1393h-155l-672 1042l-182 -1042h-195l246 1393h127l694 -1067l189 1067h194z" />
    <glyph glyph-name="O" unicode="O" horiz-adv-x="1695" 
d="M782 158q248 0 444 186t195 442q0 193 -117 321q-118 128 -319 128q-252 0 -443 -186t-192 -439q0 -192 118 -322t314 -130zM1008 1421q270 0 443 -178t173 -440q0 -219 -123 -413t-321 -306t-416 -113q-270 0 -442 177t-172 442q0 218 122 412t321 306q198 112 415 113z
" />
    <glyph glyph-name="P" unicode="P" horiz-adv-x="1337" 
d="M696 612q178 0 297 100t119 249q0 117 -83 185t-224 66h-305l-105 -600h301zM829 1393q217 0 349 -110t131 -294q1 -241 -187 -399t-477 -158h-283l-75 -432h-195l246 1393h491z" />
    <glyph glyph-name="Q" unicode="Q" horiz-adv-x="1695" 
d="M350 610q0 -192 118 -322t314 -130q250 0 446 186t195 442q0 193 -118 321q-119 128 -318 128q-253 -1 -445 -187t-192 -438zM1622 803q0 -211 -114 -396t-300 -303l252 -305l-145 -133l-291 350q-131 -45 -260 -45q-270 0 -443 177t-174 442q0 218 123 412t322 307
t414 112q270 0 443 -177t173 -441z" />
    <glyph glyph-name="R" unicode="R" horiz-adv-x="1413" 
d="M748 662q170 0 285.5 87t115.5 226q0 111 -84 174t-221 63h-344l-97 -550h345zM1346 1001q0 -183 -120 -316.5t-317 -180.5l334 -504h-225l-320 481h-327l-84 -481h-195l246 1393h518q221 0 355.5 -104.5t134.5 -287.5z" />
    <glyph glyph-name="S" unicode="S" horiz-adv-x="1359" 
d="M1008 403q0 141 -201 179l-229 45q-336 66 -328 346q8 211 179 330.5t398.5 119.5t364.5 -104.5t123 -321.5h-193q2 121 -72.5 189.5t-231.5 68.5t-256 -72.5t-99 -189.5q0 -139 221 -184l186 -39q344 -68 344 -315q0 -213 -172 -348.5t-432 -135.5t-394 127t-116 353
h193q-8 -306 352 -306q162 0 262.5 72t100.5 186z" />
    <glyph glyph-name="T" unicode="T" horiz-adv-x="1312" 
d="M1384 1212h-503l-213 -1212h-195l213 1212h-500l31 181h1198z" />
    <glyph glyph-name="U" unicode="U" horiz-adv-x="1523" 
d="M682 -31q-280 -1 -416 181t-88 454l139 789h195l-139 -789q-35 -200 51 -326t273 -126t324 127q136 127 171 325l139 789h195l-140 -789q-53 -301 -239 -468q-185 -167 -465 -167z" />
    <glyph glyph-name="V" unicode="V" horiz-adv-x="1552" 
d="M1659 1393l-883 -1401h-182l-389 1401h207l309 -1129l713 1129h225z" />
    <glyph glyph-name="W" unicode="W" horiz-adv-x="2193" 
d="M2273 1393l-717 -1401h-192l-170 1036l-549 -1036h-190l-224 1401h207l162 -1074l569 1074h168l174 -1088l549 1088h213z" />
    <glyph glyph-name="X" unicode="X" horiz-adv-x="1359" 
d="M848 690l389 -690h-227l-318 543l-495 -543h-244l625 700l-365 693h240l282 -535l475 535h256z" />
    <glyph glyph-name="Y" unicode="Y" horiz-adv-x="1376" 
d="M784 483l-84 -483h-198l86 483l-408 910h217l312 -697l559 697h243z" />
    <glyph glyph-name="Z" unicode="Z" horiz-adv-x="1339" 
d="M1358 1296l-985 -1118h794l-30 -178h-1117l17 96l1012 1118h-787l31 179h1081z" />
    <glyph glyph-name="bracketleft" unicode="[" horiz-adv-x="759" 
d="M266 -84h289l-31 -180h-477l309 1759h478l-33 -180h-289z" />
    <glyph glyph-name="backslash" unicode="\" horiz-adv-x="827" 
d="M238 1495l532 -1823h-180l-533 1823h181z" />
    <glyph glyph-name="bracketright" unicode="]" horiz-adv-x="759" 
d="M543 1315h-289l31 180h477l-309 -1759h-478l33 180h289z" />
    <glyph glyph-name="asciicircum" unicode="^" horiz-adv-x="825" 
d="M831 909h-174l-122 342l-244 -342h-174l358 484h168z" />
    <glyph glyph-name="underscore" unicode="_" horiz-adv-x="1327" 
d="M-45 -233h1163l-31 -166h-1163z" />
    <glyph glyph-name="grave" unicode="`" 
d="M776 1147h-172l-196 299h208z" />
    <glyph glyph-name="a" unicode="a" horiz-adv-x="1259" 
d="M563 139q188 0 320 154l65 369q-76 156 -264 155q-156 0 -274 -118t-117 -258t75 -221t195 -81zM511 -25q-185 0 -298 119t-113 307q0 233 178 407t408 173q186 0 301 -111l14 86h187l-168 -956h-189l15 86q-150 -111 -335 -111z" />
    <glyph glyph-name="b" unicode="b" horiz-adv-x="1257" 
d="M569 139q156 0 274 119t118 256t-76 220t-197 83q-186 0 -319 -153l-66 -371q80 -154 266 -154zM737 981q184 0 299 -122t115 -304q0 -233 -178 -405t-408 -173q-186 0 -299 109l-14 -86h-189l256 1454h189l-102 -582q147 109 331 109z" />
    <glyph glyph-name="c" unicode="c" horiz-adv-x="1173" 
d="M666 809q-139 1 -244 -95q-104 -96 -130 -238t45 -235.5t212 -93.5q102 0 184 52.5t117 138.5h194q-55 -162 -201.5 -262.5t-324.5 -100.5q-225 0 -338.5 140.5t-75.5 358.5t208 362t366 144.5t307 -101t109 -263.5h-195q-4 88 -67.5 140.5t-165.5 52.5z" />
    <glyph glyph-name="d" unicode="d" horiz-adv-x="1259" 
d="M563 139q184 0 322 158l63 365q-80 156 -266 155q-156 0 -273.5 -117.5t-117.5 -271.5q0 -121 75.5 -205t196.5 -84zM512 -23q-182 0 -298 122t-116 304q0 233 178.5 405.5t407.5 172.5q190 0 301 -111l105 584h186l-258 -1454h-187l15 86q-152 -109 -334 -109z" />
    <glyph glyph-name="e" unicode="e" horiz-adv-x="1179" 
d="M662 823q-125 0 -218.5 -77.5t-134.5 -198.5h590q14 129 -49 202.5t-188 73.5zM686 981q211 0 317.5 -137t73.5 -357q-8 -47 -20 -81l-4 2v-2h-768q0 -117 70.5 -192t197.5 -75q174 0 248 115h209q-61 -127 -191.5 -203t-296.5 -76q-219 0 -336.5 145.5t-81 358.5
t203.5 357.5t378 144.5z" />
    <glyph glyph-name="f" unicode="f" horiz-adv-x="856" 
d="M822 1378q-78 0 -147 -58t-85 -155l-37 -209h381l-29 -157h-379l-141 -799h-186l139 799h-275l29 157h275l36 211q31 173 150 279t283 106q106 0 204 -28l-57 -164q-83 18 -161 18z" />
    <glyph glyph-name="g" unicode="g" horiz-adv-x="1259" 
d="M563 178q190 0 328 158l59 334q-78 160 -272 159q-158 1 -270 -111t-113 -263q-1 -113 73 -195t195 -82zM462 -489q-204 0 -320 104t-107 272h190q2 -94 70 -150q69 -56 193 -56t221 81q96 82 118 224l25 139q-154 -109 -338 -109t-297 121t-113 293q0 231 174 397
t385 166q212 0 324 -112l14 75h187l-172 -970q-39 -217 -195 -346q-155 -129 -359 -129z" />
    <glyph glyph-name="h" unicode="h" horiz-adv-x="1206" 
d="M762 987q186 0 278 -122t56 -324l-95 -541h-188l94 530q25 135 -33 211t-178 76q-166 0 -315 -160l-117 -657h-188l256 1454h188l-104 -594q160 127 346 127z" />
    <glyph glyph-name="i" unicode="i" horiz-adv-x="559" 
d="M461 956l-168 -956h-189l168 956h189zM423 1194q-52 0 -87 34t-35 85t35 85t87 34t87 -34t35 -85t-35 -85t-87 -34z" />
    <glyph glyph-name="j" unicode="j" horiz-adv-x="530" 
d="M463 956l-162 -919q-39 -215 -140 -315t-319 -101l15 164q121 10 176 59t76 170l165 942h189zM428 1194q-51 0 -86 34t-35 85t35 85t86 34t87 -34t36 -85t-36 -85t-87 -34z" />
    <glyph glyph-name="k" unicode="k" horiz-adv-x="1165" 
d="M664 557l366 -557h-244l-276 426l-223 -188l-43 -238h-189l258 1454h189l-172 -965l561 467h244z" />
    <glyph glyph-name="l" unicode="l" horiz-adv-x="499" 
d="M516 1454l-258 -1454h-188l258 1454h188z" />
    <glyph glyph-name="m" unicode="m" horiz-adv-x="1851" 
d="M1407 987q176 0 267 -123t55 -323l-95 -541h-186l92 530q24 137 -28 212t-173 75q-162 0 -290 -160q0 -66 -11 -116l-94 -541h-188l94 530q26 137 -28 212t-175 75q-147 0 -278 -155l-117 -662h-189l170 956h187l-17 -88q139 119 312 119q207 0 291 -160q178 160 401 160
z" />
    <glyph glyph-name="n" unicode="n" horiz-adv-x="1206" 
d="M749.5 987q186.5 0 278.5 -122t55 -324l-94 -541h-186l92 530q25 135 -32.5 211t-178.5 76q-164 0 -317 -160l-115 -657h-189l170 956h187l-17 -96q160 127 346.5 127z" />
    <glyph glyph-name="o" unicode="o" horiz-adv-x="1232" 
d="M557 141q157 0 271 116t114 273q0 119 -74 199t-192 80q-158 0 -273 -114t-114 -271q1 -123 73 -203t195 -80zM705 981q190 0 309 -120t119 -306q1 -242 -181 -414t-426 -172q-190 0 -309 121t-119 309q0 242 182 412t425 170z" />
    <glyph glyph-name="p" unicode="p" horiz-adv-x="1255" 
d="M573 139q156 0 274 118t118 255t-76 221t-197 84q-186 0 -321 -155l-64 -367q80 -156 266 -156zM743 981q183 0 299 -123t115 -305q0 -233 -175 -405t-411 -173q-190 0 -301 111l-104 -584h-186l258 1454h186l-14 -86q150 111 333 111z" />
    <glyph glyph-name="q" unicode="q" horiz-adv-x="1253" 
d="M555 139q188 0 322 156l65 369q-78 154 -266 153q-156 0 -274 -118t-117 -273q1 -121 75 -204t195 -83zM506 -25q-184 0 -299 123t-115 303q0 233 178 407t408 173q186 0 301 -111l14 86h189l-256 -1454h-189l103 584q-150 -111 -334 -111z" />
    <glyph glyph-name="r" unicode="r" horiz-adv-x="755" 
d="M420 956l-25 -143q170 166 391 166l-30 -178q-233 -6 -398 -189l-106 -612h-189l170 956h187z" />
    <glyph glyph-name="s" unicode="s" horiz-adv-x="1062" 
d="M487 123q113 0 182.5 42t69.5 111q0 90 -121 111l-206 37q-242 41 -242 225q0 152 126 244t299 92q293 1 369 -161q30 -64 21 -150l-176 -2q8 82 -50.5 124t-165 42t-169 -41t-62.5 -105q0 -90 140 -114l180 -31q244 -43 244 -230q0 -162 -132 -255t-324.5 -93t-302 84
t-97.5 258l176 -2q0 -186 241 -186z" />
    <glyph glyph-name="t" unicode="t" horiz-adv-x="897" 
d="M563 143q84 0 182 27l-2 -164q-129 -37 -219 -37q-158 0 -239.5 109.5t-53.5 277.5l78 443h-235l26 157h238l61 353h189l-62 -353h357l-27 -157h-358l-78 -443q-16 -98 21.5 -155.5t121.5 -57.5z" />
    <glyph glyph-name="u" unicode="u" horiz-adv-x="1226" 
d="M457 -31q-186 0 -279 122q-92 122 -57 327l94 538h188l-92 -528q-25 -137 33 -212t178 -75q164 0 318 160l114 655h189l-170 -956h-187l17 96q-160 -127 -346 -127z" />
    <glyph glyph-name="v" unicode="v" horiz-adv-x="1177" 
d="M1204 956l-598 -956h-186l-281 956h201l207 -714l454 714h203z" />
    <glyph glyph-name="w" unicode="w" horiz-adv-x="1609" 
d="M1636 956l-508 -956h-186l-106 653l-336 -653h-168l-191 956h203l123 -661l342 661h160l108 -659l357 659h202z" />
    <glyph glyph-name="x" unicode="x" horiz-adv-x="1114" 
d="M684 479l293 -479h-223l-217 348l-334 -348h-236l465 481l-289 477h230l209 -340l325 340h238z" />
    <glyph glyph-name="y" unicode="y" horiz-adv-x="1243" 
d="M1264 958l-904 -1454h-213l293 469l-303 985h203l233 -768l480 768h211z" />
    <glyph glyph-name="z" unicode="z" horiz-adv-x="1013" 
d="M993 852l-684 -694h561l-26 -158h-842l16 92l697 707h-553l26 157h824z" />
    <glyph glyph-name="braceleft" unicode="{" horiz-adv-x="727" 
d="M563 1159l-49 -276q-18 -115 -60 -173t-135 -87q82 -29 104 -91t-1 -167l-47 -277q-13 -84 29 -134t131 -50l-33 -183q-170 1 -257 101t-59 266l50 270q18 109 -18 146t-142 37l28 166q106 0 156 36q49 37 68 144l47 272q29 164 151 265q123 101 293 102l-33 -183
q-84 0 -146 -53t-77 -131z" />
    <glyph glyph-name="bar" unicode="|" horiz-adv-x="530" 
d="M532 1495l-321 -1823h-176l321 1823h176z" />
    <glyph glyph-name="braceright" unicode="}" horiz-adv-x="724" 
d="M215 88l47 277q18 113 62 171t135 87q-82 29 -104 88t-1 172l49 276q14 82 -29 133q-44 51 -130 51l32 183q170 0 256 -102t58 -265l-47 -272q-17 -109 17 -145t142 -35l-30 -168q-109 0 -156 -36t-65 -145l-50 -270q-29 -166 -151 -266t-293 -101l33 183q86 0 148 52
t77 132z" />
    <glyph glyph-name="asciitilde" unicode="~" horiz-adv-x="923" 
d="M723 819h166q0 -90 -36 -151q-67 -113 -204 -106q-59 3 -108 32l-123 80q-55 33 -95 10t-40 -80h-166q0 88 37 150q69 115 202 105q59 -3 109 -32l123 -79q57 -32 96 -10t39 81z" />
    <glyph glyph-name="exclamdown" unicode="&#xa1;" horiz-adv-x="557" 
d="M199 561h168l-160 -989h-197zM339 983q50 0 86 -35t36 -84t-36 -83q-36 -33 -86 -33t-86 34t-36 83q0 50 36 84t86 34z" />
    <glyph glyph-name="cent" unicode="&#xa2;" horiz-adv-x="1173" 
d="M666 809q-138 0 -244 -95t-131 -237h2q-25 -145 46 -237t212 -93q102 1 183 53t118 138h192q-51 -144 -176 -242t-282 -116l-41 -224h-170l41 230q-176 33 -260 166t-52 325h-2q33 187 168 323t320 171l45 256h170l-45 -250q152 -17 242 -115t90 -246h-193q-7 88 -69 140
t-164 53z" />
    <glyph glyph-name="sterling" unicode="&#xa3;" horiz-adv-x="1275" 
d="M857 1423q212 0 324 -111q111 -112 99 -300h-190q2 112 -66 178t-196 66t-226 -86q-98 -85 -123 -226l-37 -207h455l-29 -164h-454l-72 -409h770l-31 -164h-1099l30 164h142l71 409h-141l29 164h141l37 207q39 215 196 347q158 132 370 132z" />
    <glyph glyph-name="yen" unicode="&#xa5;" horiz-adv-x="1376" 
d="M854 567h324l-25 -139h-379l-20 -121h376l-24 -141h-377l-29 -166h-198l28 166h-364l24 141h367l21 121h-365l25 139h313l-371 826h217l312 -699l559 699h245z" />
    <glyph glyph-name="brokenbar" unicode="&#xa6;" horiz-adv-x="530" 
d="M211 -328h-176l143 807h176zM391 688h-176l141 807h176z" />
    <glyph glyph-name="section" unicode="&#xa7;" horiz-adv-x="1112" 
d="M279 608q0 -90 145 -162l215 -108l37 -21q68 9 112 55t46 107q0 86 -146 162l-248 129q-68 -10 -114 -54t-47 -108zM683 1245q-97 0 -164 -51t-67 -138t142 -161l205 -104q229 -121 229 -283q0 -213 -221 -303q49 -70 49 -152q0 -172 -130 -275q-130 -104 -316 -104
t-286 98q-99 98 -89 263h203q-4 -88 45 -139q49 -52 147 -52t164 50t65 137q0 51 -31 87q-32 36 -108 75l-207 104q-227 113 -227 283q0 213 221 303q-51 68 -51 153q0 172 130 274t316 103q186 0 286 -98q99 -98 89 -262h-203q4 88 -45 140t-146 52z" />
    <glyph glyph-name="dieresis" unicode="&#xa8;" 
d="M858 1380q51 0 86 -34t35 -82q0 -49 -35 -82t-86 -33t-85 33t-34 82q0 48 34 82t85 34zM467 1380q51 0 85 -34t34 -82q0 -49 -34 -82t-85 -33t-85 33t-34 82q0 48 34 82t85 34z" />
    <glyph glyph-name="copyright" unicode="&#xa9;" horiz-adv-x="1740" 
d="M887 922q-82 0 -148 -67q-65 -67 -65 -162t66 -162t147 -67q82 0 137 39q55 38 76 99h147q-25 -122 -121 -196t-238 -74t-249 104q-106 104 -107 258q0 154 106 258t250 104q142 0 238 -74q96 -75 121 -196h-147q-20 60 -76 98t-137 38zM895 96q250 0 431 174t181 426
t-181 426t-431 174t-430 -174t-180 -426t180 -426t430 -174zM897 1423q307 0 526 -209t219 -518t-219 -518t-526 -209t-526 209t-219 518t219 518t526 209z" />
    <glyph glyph-name="ordfeminine" unicode="&#xaa;" horiz-adv-x="722" 
d="M387 844q104 0 205 65l18 111h-227q-59 0 -92 -26t-33 -64t33 -62t96 -24zM536 1403q118 0 182 -77t40 -208l-64 -370h-131l6 40q-102 -55 -210 -55t-170 46t-62 137q0 90 75 146t206 56h219q14 76 -14 123t-96 47t-115 -26q-46 -27 -60 -74h-135q27 104 119 160t210 55z
" />
    <glyph glyph-name="guillemotleft" unicode="&#xab;" horiz-adv-x="899" 
d="M864 823l-264 -315l156 -299h-185l-157 307l266 307h184zM512 823l-266 -315l155 -299h-184l-156 307l267 307h184z" />
    <glyph glyph-name="registered" unicode="&#xae;" horiz-adv-x="1146" 
d="M565 940h109q40 0 64 22t24 56t-25 54q-25 22 -63 22h-109v-154zM846 1016q0 -104 -107 -139l121 -156h-102l-111 145h-82v-145h-80v448h189q74 -1 123 -43t49 -110zM649 553q158 0 273 111q114 110 114 270t-114 272t-273 111q-157 0 -273 -111q-116 -112 -116 -272
t116 -270t273 -111zM649 1419q205 0 351 -140t146 -345t-146 -344t-351 -139t-351 139t-146 344t146 345t351 140z" />
    <glyph glyph-name="macron" unicode="&#xaf;" 
d="M956 1325l-26 -137h-572l27 137h571z" />
    <glyph glyph-name="degree" unicode="&#xb0;" horiz-adv-x="980" 
d="M596 887q84 0 142 57t59 139q-1 83 -59 141t-142 58t-142 -58t-58 -140t58 -140q58 -57 142 -57zM596 1423q150 0 249 -97q99 -96 99 -242t-99 -243t-249 -97t-249 96q-99 98 -99 243t99 243t249 97z" />
    <glyph glyph-name="plusminus" unicode="&#xb1;" horiz-adv-x="1400" 
d="M1139 258l-31 -176h-958l30 176h959zM1210 662h-387l-53 -304h-182l53 304h-389l31 174h389l53 305h182l-53 -305h387z" />
    <glyph glyph-name="twosuperior" unicode="&#xb2;" horiz-adv-x="743" 
d="M629 1197q0 48 -31 75t-84 26q-139 0 -170 -129h-143q25 117 111 188q87 71 211 71t189 -59q64 -58 64 -138t-43 -145t-164 -173l-207 -184h343l-23 -121h-576l13 76l338 295q100 84 136 127t36 91z" />
    <glyph glyph-name="threesuperior" unicode="&#xb3;" horiz-adv-x="768" 
d="M737 861q0 -109 -90 -187t-227 -78t-214 64t-75 171h145q4 -109 144 -108q78 0 128 38t50 95q0 98 -147 98h-68l23 117h65q70 0 116 39t46 90q0 103 -120 103t-153 -107h-143q29 109 115 171q86 63 201 63t176 -56t61 -147q0 -139 -121 -211q88 -47 88 -155z" />
    <glyph glyph-name="acute" unicode="&#xb4;" 
d="M961 1446l-248 -299h-174l213 299h209z" />
    <glyph glyph-name="paragraph" unicode="&#xb6;" horiz-adv-x="1540" 
d="M754 1225h-181q-139 0 -229 -82t-90 -213t90 -215t229 -84h181v594zM1384 1393v-1721h-194v1553h-242v-1553h-194v783h-181q-219 0 -364 133t-145 341t144 336q146 128 365 128h811z" />
    <glyph glyph-name="periodcentered" unicode="&#xb7;" horiz-adv-x="395" 
d="M206 428q-50 0 -86 34t-36 83t36 83t86 34t86 -34t36 -83t-36 -83t-86 -34z" />
    <glyph glyph-name="cedilla" unicode="&#xb8;" 
d="M514 -436h-166l148 307h188z" />
    <glyph glyph-name="onesuperior" unicode="&#xb9;" horiz-adv-x="657" 
d="M668 735l-23 -121h-575l22 121h223l93 527l-224 -66l21 125l293 94h75l-120 -680h215z" />
    <glyph glyph-name="ordmasculine" unicode="&#xba;" horiz-adv-x="794" 
d="M480 852q89 0 162 75t73 165t-47 141t-136 51t-161 -74t-72 -165t46 -142t135 -51zM565 1407q127 0 207 -80t80 -205q0 -162 -121 -278t-285 -115q-128 0 -206 82t-78 207q0 162 120 276t283 113z" />
    <glyph glyph-name="guillemotright" unicode="&#xbb;" horiz-adv-x="899" 
d="M399 209l267 315l-156 299h184l156 -307l-264 -307h-187zM47 209l266 315l-155 299h184l156 -307l-265 -307h-186z" />
    <glyph glyph-name="onequarter" unicode="&#xbc;" horiz-adv-x="1828" 
d="M1704 162h-119l-29 -162h-139l29 162h-438l16 90l338 549h149l-309 -514h264l41 235h142l-41 -235h116zM1485 1393l-938 -1393h-137l938 1393h137zM70 594l22 121h223l93 526l-224 -65l21 124l293 95h75l-120 -680h215l-23 -121h-575z" />
    <glyph glyph-name="onehalf" unicode="&#xbd;" horiz-adv-x="1814" 
d="M1745 622q0 -80 -43 -144t-164 -173l-207 -184h342l-22 -121h-576l12 76l338 295q100 84 137 127q36 43 36 91t-31 75t-84 26q-139 0 -170 -129h-144q25 117 112 188t211 71t188 -59t65 -139zM1466 1393l-938 -1393h-137l938 1393h137zM70 594l22 121h223l93 526
l-224 -65l21 124l293 95h75l-120 -680h215l-23 -121h-575z" />
    <glyph glyph-name="threequarters" unicode="&#xbe;" horiz-adv-x="1802" 
d="M1675 162h-119l-28 -162h-142l29 162h-436l14 90l340 549h150l-309 -514h264l41 235h141l-41 -235h117zM1456 1393l-936 -1393h-137l936 1393h137zM737 848q0 -108 -90 -186t-227 -78t-214 64t-75 171h145q4 -109 144 -108q78 0 128 38t50 95q0 98 -147 98h-68l23 117h65
q70 0 116 39t46 90q0 104 -120 103t-153 -107h-143q29 109 115 171t201 62t176 -56t61 -147q0 -139 -121 -210q88 -48 88 -156z" />
    <glyph glyph-name="questiondown" unicode="&#xbf;" horiz-adv-x="1128" 
d="M434 -309q-182 0 -292 102t-110 281q0 178 140 308q139 130 354 144l39 176h148l-37 -307h-113q-141 0 -242 -90q-101 -89 -101 -205t62 -180q64 -64 168 -63q104 0 188 58q85 58 118 153h188q-51 -172 -189 -275q-139 -102 -321 -102zM697 891q-50 0 -86 34t-36 84
t36 84q36 33 86 33t86 -34t36 -84q0 -49 -36 -83t-86 -34z" />
    <glyph glyph-name="Agrave" unicode="&#xc0;" horiz-adv-x="1531" 
d="M1044 539l-157 614l-375 -614h532zM1092 358h-691l-219 -358h-217l869 1401h184l375 -1401h-209zM860 1550l-196 299h208l160 -299h-172z" />
    <glyph glyph-name="Aacute" unicode="&#xc1;" horiz-adv-x="1531" 
d="M1044 539l-157 614l-375 -614h532zM1092 358h-691l-219 -358h-217l869 1401h184l375 -1401h-209zM1038 1550h-174l213 299h209z" />
    <glyph glyph-name="Acircumflex" unicode="&#xc2;" horiz-adv-x="1531" 
d="M1044 539l-157 614l-375 -614h532zM1092 358h-691l-219 -358h-217l869 1401h184l375 -1401h-209zM807 1552h-189l304 306h188l193 -306h-170l-132 199z" />
    <glyph glyph-name="Atilde" unicode="&#xc3;" horiz-adv-x="1531" 
d="M1044 539l-157 614l-375 -614h532zM1092 358h-691l-219 -358h-217l869 1401h184l375 -1401h-209zM768 1622h-131q-2 76 30 126q57 89 182 82q54 -3 101 -28l68 -37q66 -35 106 -17t41 77h131q0 -76 -30 -127q-54 -93 -179 -84q-55 4 -106 31l-68 36q-59 33 -102 15
t-43 -74z" />
    <glyph glyph-name="Adieresis" unicode="&#xc4;" horiz-adv-x="1531" 
d="M1044 539l-157 614l-375 -614h532zM1092 358h-691l-219 -358h-217l869 1401h184l375 -1401h-209zM1165 1567q-51 1 -85 33t-33 81q0 49 33 83q34 34 85 34t86 -34t35 -83t-35 -81t-86 -33zM774 1567q-51 1 -85 33t-34 81t34 83t85 34t85 -34t34 -83t-34 -81t-85 -33z" />
    <glyph glyph-name="Aring" unicode="&#xc5;" horiz-adv-x="1531" 
d="M1044 539l-157 614l-375 -614h532zM1092 358h-691l-219 -358h-217l869 1401h184l375 -1401h-209zM972 1882q-46 0 -77 -30t-31 -74t31 -76q31 -31 77 -31t76 30t30 76q0 45 -30 75t-76 30zM972 1571q-95 0 -156 58q-60 59 -60 149t60 147t156 57t155 -57q61 -57 61 -147
t-60 -148t-156 -59z" />
    <glyph glyph-name="AE" unicode="&#xc6;" horiz-adv-x="2328" 
d="M1219 539l110 620l-594 -620h484zM1532 1212l-76 -432h713l-31 -180h-713l-73 -420h794l-32 -180h-990l64 358h-625l-344 -358h-268l1366 1393h1042l-32 -181h-795z" />
    <glyph glyph-name="Ccedilla" unicode="&#xc7;" horiz-adv-x="1636" 
d="M616 -129h189l-170 -307h-166zM786 160q166 0 314.5 97t216.5 257h201q-92 -244 -299 -393.5t-463 -149.5q-303 0 -478.5 207t-121.5 516t302.5 518t551.5 209q256 0 411.5 -149.5t159.5 -392.5h-201q-12 166 -119.5 260t-285.5 94q-227 0 -403.5 -153.5t-216.5 -385.5
t84 -383t347 -151z" />
    <glyph glyph-name="Egrave" unicode="&#xc8;" horiz-adv-x="1294" 
d="M481 1212l-75 -432h714l-33 -180h-712l-74 -420h795l-33 -180h-989l245 1393h992l-33 -181h-797zM739 1550l-196 299h209l159 -299h-172z" />
    <glyph glyph-name="Eacute" unicode="&#xc9;" horiz-adv-x="1294" 
d="M481 1212l-75 -432h714l-33 -180h-712l-74 -420h795l-33 -180h-989l245 1393h992l-33 -181h-797zM918 1550h-175l213 299h209z" />
    <glyph glyph-name="Ecircumflex" unicode="&#xca;" horiz-adv-x="1294" 
d="M481 1212l-75 -432h714l-33 -180h-712l-74 -420h795l-33 -180h-989l245 1393h992l-33 -181h-797zM686 1552h-188l303 306h188l193 -306h-170l-131 199z" />
    <glyph glyph-name="Edieresis" unicode="&#xcb;" horiz-adv-x="1294" 
d="M481 1212l-75 -432h714l-33 -180h-712l-74 -420h795l-33 -180h-989l245 1393h992l-33 -181h-797zM1044.5 1567q-51.5 0 -85 32.5t-33.5 82t33.5 83t85 33.5t86 -33.5t34.5 -83t-34.5 -82t-86 -32.5zM653.5 1567q-51.5 0 -85 32.5t-33.5 82t33.5 83t85 33.5t85 -33.5
t33.5 -83t-33.5 -82t-85 -32.5z" />
    <glyph glyph-name="Igrave" unicode="&#xcc;" horiz-adv-x="546" 
d="M287 0h-195l246 1393h194zM543 1550h-172l-197 299h209z" />
    <glyph glyph-name="Iacute" unicode="&#xcd;" horiz-adv-x="546" 
d="M287 0h-195l246 1393h194zM797 1849l-248 -299h-174l213 299h209z" />
    <glyph glyph-name="Icircumflex" unicode="&#xce;" horiz-adv-x="546" 
d="M287 0h-195l246 1393h194zM514 1751l-195 -199h-188l303 306h189l192 -306h-170z" />
    <glyph glyph-name="Idieresis" unicode="&#xcf;" horiz-adv-x="546" 
d="M287 0h-195l246 1393h194zM678 1798q51 0 86 -34t35 -83t-35 -82t-86 -33t-85 34q-34 32 -34 81t34 83t85 34zM287 1798q51 0 85 -34t34 -83t-34 -82t-85 -33t-85 34q-34 32 -34 81t34 83t85 34z" />
    <glyph glyph-name="Eth" unicode="&#xd0;" horiz-adv-x="1542" 
d="M627 180q262 0 450 175t189 427q0 188 -126 310t-331 120h-309l-74 -424h301l-31 -180h-303l-74 -428h308zM840 1393q284 0 456 -163t172 -419q0 -343 -256 -577t-618 -234h-502l107 608h-158l33 180h157l107 605h502z" />
    <glyph glyph-name="Ntilde" unicode="&#xd1;" horiz-adv-x="1558" 
d="M1542 1393l-246 -1393h-155l-670 1040l-184 -1040h-195l246 1393h127l694 -1067l189 1067h194zM754 1620h-131q-2 76 29.5 126t79.5 68q106 39 204 -14l68 -37q66 -35 106.5 -16.5t40.5 76.5h131q0 -76 -30 -127q-28 -52 -76 -70q-101 -39 -209 16l-68 37
q-59 33 -102 14.5t-43 -73.5z" />
    <glyph glyph-name="Ograve" unicode="&#xd2;" horiz-adv-x="1695" 
d="M782 158q250 0 446 186t195 442q0 193 -118 321q-119 128 -318 128q-254 0 -445 -186t-192 -439q0 -192 118 -322t314 -130zM1006 1421q270 0 443 -177t173 -441q0 -219 -123 -413t-321 -306t-414 -113q-270 0 -443 177t-174 442q0 218 123 412t322 306t414 113z
M1139 1550h-172l-197 299h209z" />
    <glyph glyph-name="Oacute" unicode="&#xd3;" horiz-adv-x="1695" 
d="M782 158q250 0 446 186t195 442q0 193 -118 321q-119 128 -318 128q-254 0 -445 -186t-192 -439q0 -192 118 -322t314 -130zM1006 1421q270 0 443 -177t173 -441q0 -219 -123 -413t-321 -306t-414 -113q-270 0 -443 177t-174 442q0 218 123 412t322 306t414 113z
M1393 1849l-248 -299h-174l213 299h209z" />
    <glyph glyph-name="Ocircumflex" unicode="&#xd4;" horiz-adv-x="1695" 
d="M782 158q250 0 446 186t195 442q0 193 -118 321q-119 128 -318 128q-254 0 -445 -186t-192 -439q0 -192 118 -322t314 -130zM1006 1421q270 0 443 -177t173 -441q0 -219 -123 -413t-321 -306t-414 -113q-270 0 -443 177t-174 442q0 218 123 412t322 306t414 113z
M1108 1751l-195 -199h-188l303 306h189l192 -306h-170z" />
    <glyph glyph-name="Otilde" unicode="&#xd5;" horiz-adv-x="1695" 
d="M782 158q250 0 446 186t195 442q0 193 -118 321q-119 128 -318 128q-254 0 -445 -186t-192 -439q0 -192 118 -322t314 -130zM1006 1421q270 0 443 -177t173 -441q0 -219 -123 -413t-321 -306t-414 -113q-270 0 -443 177t-174 442q0 218 123 412t322 306t414 113z
M1272 1825h131q0 -76 -30 -127q-30 -52 -77 -70q-101 -40 -209 17l-67 36q-59 33 -102 15t-44 -74h-131q-2 76 30 126t80 68q105 38 204 -14l67 -37q66 -35 107 -16t41 76z" />
    <glyph glyph-name="Odieresis" unicode="&#xd6;" horiz-adv-x="1699" 
d="M782 158q250 0 446 186t195 442q0 193 -118 321q-119 128 -318 128q-254 0 -445 -186t-192 -439q0 -192 118 -322t314 -130zM1006 1421q270 0 443 -177t173 -441q0 -219 -123 -413t-321 -306t-414 -113q-270 0 -443 177t-174 442q0 218 123 412t322 306t414 113z
M1284 1798q51 0 86 -34t35 -83t-35 -82t-86 -33t-85 34q-34 32 -34 81t34 83t85 34zM893 1798q51 0 85 -34t34 -83t-34 -82t-85 -33t-85 34q-34 32 -34 81t34 83t85 34z" />
    <glyph glyph-name="multiply" unicode="&#xd7;" horiz-adv-x="1372" 
d="M1073 344l-147 -123l-254 311l-367 -311l-104 125l364 311l-252 310l146 123l254 -308l364 310l105 -125l-365 -312z" />
    <glyph glyph-name="Oslash" unicode="&#xd8;" horiz-adv-x="1699" 
d="M782 158q250 0 446 186t195 442q0 156 -80 271l-825 -813q104 -86 264 -86zM350 610q0 -135 60 -241l817 802q-102 63 -240 64q-253 -1 -445 -187t-192 -438zM1622 808q0 -224 -123 -418t-321 -306t-418 -113q-219 0 -387 129l-137 -135l-117 117l141 139
q-113 162 -113 375q0 212 123 406t322 307t409 113t367 -109l135 131l117 -115l-131 -129q133 -168 133 -392z" />
    <glyph glyph-name="Ugrave" unicode="&#xd9;" horiz-adv-x="1523" 
d="M682 -31q-280 1 -416 181t-88 454l137 789h197l-139 -789q-37 -200 50 -326t274 -126t323 127q135 127 170 325l139 789h195l-138 -789q-53 -301 -239 -468q-185 -167 -465 -167zM1006 1550h-172l-197 299h209z" />
    <glyph glyph-name="Uacute" unicode="&#xda;" horiz-adv-x="1523" 
d="M682 -31q-280 1 -416 181t-88 454l137 789h197l-139 -789q-37 -200 50 -326t274 -126t323 127q135 127 170 325l139 789h195l-138 -789q-53 -301 -239 -468q-185 -167 -465 -167zM1260 1849l-248 -299h-174l213 299h209z" />
    <glyph glyph-name="Ucircumflex" unicode="&#xdb;" horiz-adv-x="1523" 
d="M682 -31q-280 1 -416 181t-88 454l137 789h197l-139 -789q-37 -200 50 -326t274 -126t323 127q135 127 170 325l139 789h195l-138 -789q-53 -301 -239 -468q-185 -167 -465 -167zM977 1751l-195 -199h-188l303 306h188l193 -306h-170z" />
    <glyph glyph-name="Udieresis" unicode="&#xdc;" horiz-adv-x="1523" 
d="M682 -31q-280 1 -416 181t-88 454l137 789h197l-139 -789q-37 -200 50 -326t274 -126t323 127q135 127 170 325l139 789h195l-138 -789q-53 -301 -239 -468q-185 -167 -465 -167zM1141 1798q51 0 86 -34t35 -83t-35 -82t-86 -33t-85 34q-34 32 -34 81t34 83t85 34z
M750 1798q51 0 85 -34q33 -34 33 -83t-34 -82t-84 -33q-51 0 -85 34q-34 32 -34 81t34 83t85 34z" />
    <glyph glyph-name="Yacute" unicode="&#xdd;" horiz-adv-x="1376" 
d="M786 483h-2l-84 -483h-198l86 483l-408 910h217l312 -699l559 699h245zM911 1550h-174l213 299h209z" />
    <glyph glyph-name="Thorn" unicode="&#xde;" horiz-adv-x="1337" 
d="M659 401q180 -1 298 99t118 254q0 112 -84 180t-225 67h-303l-105 -600h301zM805 1182q215 0 341 -109t126 -289q0 -248 -188 -406t-476 -157h-282l-39 -221h-195l246 1393h194l-36 -211h309z" />
    <glyph glyph-name="germandbls" unicode="&#xdf;" horiz-adv-x="1302" 
d="M1161 90q0 -215 -164 -361t-424 -147q-184 0 -337 66l30 170q154 -68 332 -68t276 93t98 203t-67 166q-68 54 -180 54h-209l16 92l418 424h-565l-137 -782h-189l203 1155q31 173 156 279t299 106l-31 -184q-90 0 -156 -56t-79 -145l-35 -199h829l-20 -118l-412 -408
q162 -16 255 -105t93 -235z" />
    <glyph glyph-name="agrave" unicode="&#xe0;" horiz-adv-x="1259" 
d="M563 139q188 0 320 154l67 371q-82 154 -266 153q-156 0 -274 -118t-117 -258t75 -221t195 -81zM510 -25q-184 0 -297 119t-113 307q0 233 178 407t408 173q186 0 301 -109l14 84h187l-168 -956h-189l15 84q-152 -109 -336 -109zM668 1106l-197 299h209l160 -299h-172z
" />
    <glyph glyph-name="aacute" unicode="&#xe1;" horiz-adv-x="1259" 
d="M563 139q188 0 320 154l67 371q-82 154 -266 153q-156 0 -274 -118t-117 -258t75 -221t195 -81zM510 -25q-184 0 -297 119t-113 307q0 233 178 407t408 173q186 0 301 -109l14 84h187l-168 -956h-189l15 84q-152 -109 -336 -109zM840 1106h-174l213 299h208z" />
    <glyph glyph-name="acircumflex" unicode="&#xe2;" horiz-adv-x="1259" 
d="M563 139q188 0 320 154l67 371q-82 154 -266 153q-156 0 -274 -118t-117 -258t75 -221t195 -81zM510 -25q-184 0 -297 119t-113 307q0 233 178 407t408 173q186 0 301 -109l14 84h187l-168 -956h-189l15 84q-152 -109 -336 -109zM616 1087h-188l303 306h189l192 -306
h-170l-131 199z" />
    <glyph glyph-name="atilde" unicode="&#xe3;" horiz-adv-x="1259" 
d="M563 139q188 0 320 154l67 371q-82 154 -266 153q-156 0 -274 -118t-117 -258t75 -221t195 -81zM510 -25q-184 0 -297 119t-113 307q0 233 178 407t408 173q186 0 301 -109l14 84h187l-168 -956h-189l15 84q-152 -109 -336 -109zM569 1180h-131q-2 76 30 126
q55 87 182 82q54 -3 102 -28l67 -37q66 -35 107 -17t41 76h131q0 -76 -30 -127q-53 -91 -179 -84q-55 4 -107 31l-67 37q-59 33 -103 15t-43 -74z" />
    <glyph glyph-name="adieresis" unicode="&#xe4;" horiz-adv-x="1259" 
d="M563 139q188 0 320 154l67 371q-82 154 -266 153q-156 0 -274 -118t-117 -258t75 -221t195 -81zM510 -25q-184 0 -297 119t-113 307q0 233 178 407t408 173q186 0 301 -109l14 84h187l-168 -956h-189l15 84q-152 -109 -336 -109zM942 1137q-51 1 -85 33t-34 81t34 83
t85 34t86 -34t35 -83t-35 -81t-86 -33zM551 1137q-51 1 -85 33t-34 81t34 83t85 34t85 -34t34 -83t-34 -81t-85 -33z" />
    <glyph glyph-name="aring" unicode="&#xe5;" horiz-adv-x="1259" 
d="M563 139q188 0 320 154l67 371q-82 154 -266 153q-156 0 -274 -118t-117 -258t75 -221t195 -81zM510 -25q-184 0 -297 119t-113 307q0 233 178 407t408 173q186 0 301 -109l14 84h187l-168 -956h-189l15 84q-152 -109 -336 -109zM746 1397q-46 0 -76 -30t-31 -76
q0 -46 31 -76q30 -29 76 -29t76 30t30 75q0 46 -30 76t-76 30zM746 1497q96 0 156 -57q60 -58 60 -148t-60 -148q-61 -58 -156 -59q-95 1 -155 59t-61 148q0 90 60 148t156 57z" />
    <glyph glyph-name="ae" unicode="&#xe6;" horiz-adv-x="1886" 
d="M442 135q186 0 369 137q-16 68 -14 134h-367q-90 0 -139 -37t-49 -97.5t52 -98.5t148 -38zM1362 823q-125 0 -218 -77.5t-134 -198.5h589q14 127 -49 201.5t-188 74.5zM1376.5 981q221.5 0 327.5 -137t74 -357q-8 -47 -21 -81l-4 2v-2h-768q0 -117 70.5 -192t197.5 -75
q174 0 248 115h209q-61 -127 -191 -203t-296 -76q-248 0 -361 181q-225 -178 -456 -179q-162 0 -255.5 70t-93.5 204t109.5 215t300.5 81h350q47 272 -196 272q-92 0 -161 -41t-93 -112h-191q41 154 175 234.5t298 80.5q250 0 330 -172q176 172 397.5 172z" />
    <glyph glyph-name="ccedilla" unicode="&#xe7;" horiz-adv-x="1173" 
d="M385 -129h188l-170 -307h-165zM666 809q-139 0 -245 -95.5t-130 -236.5h2q-25 -145 46 -237.5t212 -92.5q102 0 183 52.5t118 138.5h192q-55 -162 -201.5 -262.5t-322.5 -100.5q-225 0 -339.5 140.5t-76.5 361.5h-2q39 215 209 359.5t385 144.5q176 0 287 -101.5
t109 -263.5h-193q-6 88 -68.5 140.5t-164.5 52.5z" />
    <glyph glyph-name="egrave" unicode="&#xe8;" horiz-adv-x="1179" 
d="M662 823q-125 0 -218.5 -77.5t-134.5 -198.5h590q14 129 -49 202.5t-188 73.5zM685 981q210 0 317.5 -137t72.5 -357q-6 -47 -18 -81l-4 2v-2h-770q2 -117 71.5 -192t196.5 -75q176 0 250 115h209q-63 -127 -192.5 -203t-295.5 -76q-219 0 -336.5 145.5t-81 358.5
t203.5 357.5t377 144.5zM629 1106l-197 299h209l160 -299h-172z" />
    <glyph glyph-name="eacute" unicode="&#xe9;" horiz-adv-x="1179" 
d="M662 823q-125 0 -218.5 -77.5t-134.5 -198.5h590q14 129 -49 202.5t-188 73.5zM685 981q210 0 317.5 -137t72.5 -357q-6 -47 -18 -81l-4 2v-2h-770q2 -117 71.5 -192t196.5 -75q176 0 250 115h209q-63 -127 -192.5 -203t-295.5 -76q-219 0 -336.5 145.5t-81 358.5
t203.5 357.5t377 144.5zM801 1106h-174l213 299h209z" />
    <glyph glyph-name="ecircumflex" unicode="&#xea;" horiz-adv-x="1179" 
d="M662 823q-125 0 -218.5 -77.5t-134.5 -198.5h590q14 129 -49 202.5t-188 73.5zM685 981q210 0 317.5 -137t72.5 -357q-6 -47 -18 -81l-4 2v-2h-770q2 -117 71.5 -192t196.5 -75q176 0 250 115h209q-63 -127 -192.5 -203t-295.5 -76q-219 0 -336.5 145.5t-81 358.5
t203.5 357.5t377 144.5zM578 1087h-189l303 306h189l192 -306h-170l-131 199z" />
    <glyph glyph-name="edieresis" unicode="&#xeb;" horiz-adv-x="1179" 
d="M662 823q-125 0 -218.5 -77.5t-134.5 -198.5h590q14 129 -49 202.5t-188 73.5zM685 981q210 0 317.5 -137t72.5 -357q-6 -47 -18 -81l-4 2v-2h-770q2 -117 71.5 -192t196.5 -75q176 0 250 115h209q-63 -127 -192.5 -203t-295.5 -76q-219 0 -336.5 145.5t-81 358.5
t203.5 357.5t377 144.5zM903 1137q-51 0 -85 32.5t-34 81.5t34 83t85 34t86 -34t35 -83t-35 -81.5t-86 -32.5zM512 1137q-51 0 -85 32.5t-34 81.5t34 83t85 34t85 -34t34 -83t-34 -81.5t-85 -32.5z" />
    <glyph glyph-name="igrave" unicode="&#xec;" horiz-adv-x="499" 
d="M426 956l-168 -956h-188l170 956h186zM442 1106h-172l-196 299h209z" />
    <glyph glyph-name="iacute" unicode="&#xed;" horiz-adv-x="499" 
d="M426 956l-168 -956h-188l170 956h186zM690 1405l-248 -299h-174l213 299h209z" />
    <glyph glyph-name="icircumflex" unicode="&#xee;" horiz-adv-x="499" 
d="M426 956l-168 -956h-188l170 956h186zM414 1286l-195 -199h-188l303 306h188l193 -306h-170z" />
    <glyph glyph-name="idieresis" unicode="&#xef;" horiz-adv-x="499" 
d="M426 956l-168 -956h-188l170 956h186zM545 1368q51 0 86 -34t35 -83t-35 -82t-86 -33t-85 34q-34 32 -34 81t34 83t85 34zM154 1368q51 0 85 -34q33 -34 33 -83t-34 -82t-84 -33q-51 0 -85 34q-34 32 -34 81t34 83t85 34z" />
    <glyph glyph-name="eth" unicode="&#xf0;" horiz-adv-x="1230" 
d="M557 141q155 0 271 119t116 281q0 125 -71 197t-213 71q-142 0 -256 -114t-113 -271q1 -123 73 -203t193 -80zM98 399q0 240 180 411t414 171q152 0 244 -86q-53 164 -178 276l-352 -122l-27 129l258 84q-88 59 -223 110l209 82q123 -53 206 -123l199 70l27 -127
l-123 -43q100 -111 154 -269t55 -325q1 -297 -181 -482t-430 -186q-192 0 -312 121t-120 309z" />
    <glyph glyph-name="ntilde" unicode="&#xf1;" horiz-adv-x="1206" 
d="M751 987q187 0 278 -122t54 -324l-94 -541h-186l92 530q25 135 -32.5 211t-178.5 76q-164 0 -317 -160l-115 -657h-189l170 956h187l-17 -96q161 127 348 127zM516 1180h-131q-2 76 29.5 126t79.5 68q101 37 204 -16l68 -37q66 -33 106.5 -14.5t40.5 73.5h131
q0 -100 -52 -156q-90 -98 -263 -24l-67 39q-59 33 -102.5 14.5t-43.5 -73.5z" />
    <glyph glyph-name="ograve" unicode="&#xf2;" horiz-adv-x="1232" 
d="M557 141q157 0 271 116t114 273q0 119 -74 199t-192 80q-158 0 -273 -114t-114 -271q1 -123 73 -203t195 -80zM705 981q190 0 309 -120t119 -306q1 -242 -181 -414t-426 -172q-190 0 -309 121t-119 309q0 242 180 412t427 170zM811 1106h-172l-197 299h209z" />
    <glyph glyph-name="oacute" unicode="&#xf3;" horiz-adv-x="1232" 
d="M557 141q157 0 271 116t114 273q0 119 -74 199t-192 80q-158 0 -273 -114t-114 -271q1 -123 73 -203t195 -80zM705 981q190 0 309 -120t119 -306q1 -242 -181 -414t-426 -172q-190 0 -309 121t-119 309q0 242 180 412t427 170zM1059 1405l-248 -299h-174l213 299h209z
" />
    <glyph glyph-name="ocircumflex" unicode="&#xf4;" horiz-adv-x="1232" 
d="M557 141q157 0 271 116t114 273q0 119 -74 199t-192 80q-158 0 -273 -114t-114 -271q1 -123 73 -203t195 -80zM705 981q190 0 309 -120t119 -306q1 -242 -181 -414t-426 -172q-190 0 -309 121t-119 309q0 242 180 412t427 170zM782 1286l-194 -199h-189l303 306h189
l192 -306h-170z" />
    <glyph glyph-name="otilde" unicode="&#xf5;" horiz-adv-x="1232" 
d="M557 141q157 0 271 116t114 273q0 119 -74 199t-192 80q-158 0 -273 -114t-114 -271q1 -123 73 -203t195 -80zM705 981q190 0 309 -120t119 -306q1 -242 -181 -414t-426 -172q-190 0 -309 121t-119 309q0 242 180 412t427 170zM938 1382h131q0 -76 -30 -127
q-53 -91 -179 -84q-55 4 -106 31l-68 37q-59 33 -102 15t-43 -74h-131q-2 76 29 126q55 87 183 82q54 -3 101 -28l68 -37q67 -35 107 -17t40 76z" />
    <glyph glyph-name="odieresis" unicode="&#xf6;" horiz-adv-x="1232" 
d="M557 141q157 0 271 116t114 273q0 119 -74 199t-192 80q-158 0 -273 -114t-114 -271q1 -123 73 -203t195 -80zM705 981q190 0 309 -120t119 -306q1 -242 -181 -414t-426 -172q-190 0 -309 121t-119 309q0 242 180 412t427 170zM946 1368q51 0 85 -34t34 -83t-34 -82
t-85 -33t-86 34q-35 32 -35 81t35 83t86 34zM554 1368q50 0 85 -34t35 -83t-35 -82t-85 -33t-85 34q-35 32 -35 81t35 83t85 34z" />
    <glyph glyph-name="divide" unicode="&#xf7;" horiz-adv-x="1400" 
d="M667 174q-48 0 -83 33t-35 81t34 81t83 33t84 -34q34 -32 34 -80t-34 -81t-83 -33zM270 756h957l-31 -174h-958zM805 942q-49 0 -83 33t-34 81t34 81t83 33t84 -34q35 -32 35 -80t-35 -81t-84 -33z" />
    <glyph glyph-name="oslash" unicode="&#xf8;" horiz-adv-x="1232" 
d="M942 530q0 76 -33 142l-499 -492q66 -39 147 -39q157 -1 271 115t114 274zM289 424q0 -72 24 -127l490 481q-55 31 -127 31q-158 1 -272 -113t-115 -272zM1133 555q1 -242 -181 -414t-426 -172q-150 0 -254 76l-104 -102l-109 104l109 107q-70 104 -70 245q0 242 180 412
t427 170q135 0 239 -63l96 94l109 -105l-94 -94q78 -111 78 -258z" />
    <glyph glyph-name="ugrave" unicode="&#xf9;" horiz-adv-x="1218" 
d="M457 -31q-186 0 -279 122q-92 122 -55 327l94 538h186l-92 -528q-25 -137 33 -212t178 -75q170 0 318 158l114 657h189l-168 -956h-189l17 96q-160 -127 -346 -127zM623 1106l-197 299h209l160 -299h-172z" />
    <glyph glyph-name="uacute" unicode="&#xfa;" horiz-adv-x="1226" 
d="M457 -31q-186 0 -279 122q-92 122 -55 327l94 538h186l-92 -528q-25 -137 33 -212t178 -75q170 0 318 158l114 657h189l-168 -956h-189l17 96q-160 -127 -346 -127zM791 1106h-175l213 299h209z" />
    <glyph glyph-name="ucircumflex" unicode="&#xfb;" horiz-adv-x="1218" 
d="M457 -31q-186 0 -279 122q-92 122 -55 327l94 538h186l-92 -528q-25 -137 33 -212t178 -75q170 0 318 158l114 657h189l-168 -956h-189l17 96q-160 -127 -346 -127zM545 1090h-187l304 303h188l192 -303h-170l-131 196z" />
    <glyph glyph-name="udieresis" unicode="&#xfc;" horiz-adv-x="1218" 
d="M457 -31q-186 0 -279 122q-92 122 -55 327l94 538h186l-92 -528q-25 -137 33 -212t178 -75q170 0 318 158l114 657h189l-168 -956h-189l17 96q-160 -127 -346 -127zM893 1137q-51 1 -86 33t-35 81t35 83t86 34t85 -34t34 -83t-34 -81t-85 -33zM621 1251q0 -49 -35 -81
t-85 -33q-50 1 -85 33t-35 81t35 83t85 34t85 -34t35 -83z" />
    <glyph glyph-name="yacute" unicode="&#xfd;" horiz-adv-x="1243" 
d="M1264 958l-904 -1454h-213l291 469l-301 985h203l233 -768l478 768h213zM797 1106h-174l213 299h208z" />
    <glyph glyph-name="thorn" unicode="&#xfe;" horiz-adv-x="1253" 
d="M571 139q156 0 274 118t118 255t-76 221t-197 84q-184 0 -319 -155l-66 -369q78 -154 266 -154zM742 981q183 0 298 -123t115 -305q0 -231 -178 -405t-408 -173q-186 0 -301 111l-102 -584h-189l334 1891h189l-92 -521q151 109 334 109z" />
    <glyph glyph-name="ydieresis" unicode="&#xff;" horiz-adv-x="1243" 
d="M1264 958l-904 -1454h-213l291 469l-301 985h203l233 -768l478 768h213zM897 1137q-51 1 -85 33t-34 81t34 83t85 34t86 -34t35 -83t-35 -81t-86 -33zM506 1137q-51 1 -85 33t-34 81t34 83t85 34t85 -34t34 -83t-34 -81t-85 -33z" />
    <glyph glyph-name="Amacron" unicode="&#x100;" horiz-adv-x="1531" 
d="M1044 539l-157 614l-375 -614h532zM1092 358h-691l-219 -358h-217l869 1401h184l375 -1401h-209zM1239 1567h-571l26 137h572z" />
    <glyph glyph-name="amacron" unicode="&#x101;" horiz-adv-x="1259" 
d="M563 139q188 0 320 154l67 371q-82 154 -266 153q-156 0 -274 -118t-117 -258t75 -221t195 -81zM510 -25q-184 0 -297 119t-113 307q0 233 178 407t408 173q186 0 301 -109l14 84h187l-168 -956h-189l15 84q-152 -109 -336 -109zM1065 1147h-571l26 137h572z" />
    <glyph glyph-name="Abreve" unicode="&#x102;" horiz-adv-x="1531" 
d="M1044 539l-157 614l-375 -614h532zM1092 358h-691l-219 -358h-217l869 1401h184l375 -1401h-209zM949 1559q-132 1 -204 79t-47 222h140q-14 -88 24 -130t104 -42q67 0 123 43t70 129h148q-25 -143 -125 -223q-101 -78 -233 -78z" />
    <glyph glyph-name="abreve" unicode="&#x103;" horiz-adv-x="1259" 
d="M563 139q188 0 320 154l67 371q-82 154 -266 153q-156 0 -274 -118t-117 -258t75 -221t195 -81zM510 -25q-184 0 -297 119t-113 307q0 233 178 407t408 173q186 0 301 -109l14 84h187l-168 -956h-189l15 84q-152 -109 -336 -109zM762 1079q-133 0 -205 78t-47 221h139
q-14 -86 24 -128q39 -42 105 -42t122 43t71 127h147q-25 -143 -124 -221t-232 -78z" />
    <glyph glyph-name="Aogonek" unicode="&#x104;" horiz-adv-x="1531" 
d="M1044 539l-157 614l-375 -614h532zM1028 -143q0 121 143 194l-79 307h-691l-219 -358h-217l869 1401h184l375 -1401h-76q-129 -39 -129 -123q0 -92 143 -92q37 0 76 8l18 -141q-41 -18 -142 -18t-178 60q-77 62 -77 163z" />
    <glyph glyph-name="aogonek" unicode="&#x105;" horiz-adv-x="1259" 
d="M563 139q188 0 320 154l67 371q-82 154 -266 153q-156 0 -274 -118t-117 -258t75 -221t195 -81zM1006 -223q37 0 75 8l19 -141q-40 -18 -142 -18t-179 60q-77 62 -77 172t136 181l8 45q-152 -109 -336 -109t-297 119t-113 307q0 233 178 407t408 173q186 0 301 -109
l14 84h187l-168 -956q-158 -39 -158 -131q1 -92 144 -92z" />
    <glyph glyph-name="Cacute" unicode="&#x106;" horiz-adv-x="1636" 
d="M786 160q166 0 314.5 97t216.5 257h201q-92 -244 -299 -393.5t-463 -149.5q-303 0 -478.5 207t-121.5 516t302.5 518t551.5 209q256 0 411.5 -149.5t159.5 -392.5h-201q-12 166 -119.5 260t-285.5 94q-227 0 -403.5 -153.5t-216.5 -385.5t84 -383t347 -151zM1120 1550
h-174l213 299h209z" />
    <glyph glyph-name="cacute" unicode="&#x107;" horiz-adv-x="1173" 
d="M666 809q-139 0 -245 -95.5t-130 -236.5h2q-25 -145 46 -237.5t212 -92.5q102 0 183 52.5t118 138.5h192q-55 -162 -201.5 -262.5t-322.5 -100.5q-225 0 -339.5 140.5t-76.5 361.5h-2q39 215 209 359.5t385 144.5q176 0 287 -101.5t109 -263.5h-193q-6 88 -68.5 140.5
t-164.5 52.5zM805 1106h-174l213 299h209z" />
    <glyph glyph-name="Cdotaccent" unicode="&#x10a;" horiz-adv-x="1636" 
d="M786 160q166 0 314.5 97t216.5 257h201q-92 -244 -299 -393.5t-463 -149.5q-303 0 -478.5 207t-121.5 516t302.5 518t551.5 209q256 0 411.5 -149.5t159.5 -392.5h-201q-12 166 -119.5 260t-285.5 94q-227 0 -403.5 -153.5t-216.5 -385.5t84 -383t347 -151zM1028 1561
q-53 0 -89 34.5t-36 86t36 86t89 34.5t89 -34.5t36 -86t-36 -86t-89 -34.5z" />
    <glyph glyph-name="cdotaccent" unicode="&#x10b;" horiz-adv-x="1173" 
d="M666 809q-139 0 -245 -95.5t-130 -236.5h2q-25 -145 46 -237.5t212 -92.5q102 0 183 52.5t118 138.5h192q-55 -162 -201.5 -262.5t-322.5 -100.5q-225 0 -339.5 140.5t-76.5 361.5h-2q39 215 209 359.5t385 144.5q176 0 287 -101.5t109 -263.5h-193q-6 88 -68.5 140.5
t-164.5 52.5zM710.5 1130q-53.5 0 -89 35t-35.5 86.5t35.5 86t89 34.5t89.5 -34.5t36 -86t-36 -86.5t-89.5 -35z" />
    <glyph glyph-name="Ccaron" unicode="&#x10c;" horiz-adv-x="1636" 
d="M786 160q166 0 314.5 97t216.5 257h201q-92 -244 -299 -393.5t-463 -149.5q-303 0 -478.5 207t-121.5 516t302.5 518t551.5 209q256 0 411.5 -149.5t159.5 -392.5h-201q-12 166 -119.5 260t-285.5 94q-227 0 -403.5 -153.5t-216.5 -385.5t84 -383t347 -151zM975 1540
l-195 305h170l133 -198l199 198h182l-301 -305h-188z" />
    <glyph glyph-name="ccaron" unicode="&#x10d;" horiz-adv-x="1173" 
d="M696 981q176 0 287 -101.5t109 -263.5h-193q-6 88 -68.5 140.5t-164.5 52.5q-139 0 -245 -95.5t-130 -236.5h2q-25 -145 46 -237.5t212 -92.5q102 0 183 52.5t118 138.5h192q-55 -162 -201.5 -262.5t-322.5 -100.5q-225 0 -339.5 140.5t-76.5 361.5h-2q39 215 209 359.5
t385 144.5zM629 1087l-195 306h170l133 -199l199 199h182l-301 -306h-188z" />
    <glyph glyph-name="Dcaron" unicode="&#x10e;" horiz-adv-x="1540" 
d="M627 180q262 0 450 175t189 427q0 188 -126 310t-331 120h-309l-181 -1032h308zM840 1393q284 0 456 -163t172 -419q0 -343 -256 -577t-618 -234h-502l246 1393h502zM786 1540l-194 305h170l133 -198l199 198h182l-301 -305h-189z" />
    <glyph glyph-name="dcaron" unicode="&#x10f;" horiz-adv-x="1259" 
d="M563 139q184 0 318 154l67 371q-82 154 -266 153q-156 0 -273.5 -117.5t-117.5 -271.5q0 -121 75.5 -205t196.5 -84zM1610 1454l-133 -393h-146l86 393h193zM98 403q0 233 178.5 405.5t407.5 172.5q188 0 301 -109l102 582h189l-258 -1454h-189l15 84
q-147 -106 -331.5 -106.5t-299.5 121.5t-115 304z" />
    <glyph glyph-name="Dcroat" unicode="&#x110;" horiz-adv-x="1542" 
d="M627 180q262 0 450 175t189 427q0 188 -126 310t-331 120h-309l-74 -424h301l-31 -180h-303l-74 -428h308zM840 1393q284 0 456 -163t172 -419q0 -343 -256 -577t-618 -234h-502l107 608h-158l33 180h157l107 605h502z" />
    <glyph glyph-name="dcroat" unicode="&#x111;" horiz-adv-x="1259" 
d="M563 139q184 0 318 154l67 371q-82 154 -266 153q-156 0 -273.5 -117.5t-117.5 -271.5q0 -121 75.5 -205t196.5 -84zM98 403q0 233 178.5 405.5t407.5 172.5q188 0 301 -109l49 281h-325l26 156h326l26 145h189l-27 -145h119l-27 -156h-118l-205 -1153h-189l15 84
q-147 -106 -331.5 -106.5t-299.5 121.5t-115 304z" />
    <glyph glyph-name="Emacron" unicode="&#x112;" horiz-adv-x="1294" 
d="M481 1212l-75 -432h714l-33 -180h-712l-74 -420h795l-33 -180h-989l245 1393h992l-33 -181h-797zM1118 1567h-571l26 137h572z" />
    <glyph glyph-name="emacron" unicode="&#x113;" horiz-adv-x="1179" 
d="M662 823q-125 0 -218.5 -77.5t-134.5 -198.5h590q14 129 -49 202.5t-188 73.5zM685 981q210 0 317.5 -137t72.5 -357q-6 -47 -18 -81l-4 2v-2h-770q2 -117 71.5 -192t196.5 -75q176 0 250 115h209q-63 -127 -192.5 -203t-295.5 -76q-219 0 -336.5 145.5t-81 358.5
t203.5 357.5t377 144.5zM1028 1147h-571l26 137h572z" />
    <glyph glyph-name="Edotaccent" unicode="&#x116;" horiz-adv-x="1280" 
d="M481 1212l-75 -432h714l-33 -180h-712l-74 -420h795l-33 -180h-989l245 1393h992l-33 -181h-797zM844 1561q-53 0 -89 34.5t-36 86t36 86t89 34.5t89 -34.5t36 -86t-36 -86t-89 -34.5z" />
    <glyph glyph-name="edotaccent" unicode="&#x117;" horiz-adv-x="1181" 
d="M662 823q-125 0 -218.5 -77.5t-134.5 -198.5h590q14 129 -49 202.5t-188 73.5zM685 981q210 0 317.5 -137t72.5 -357q-6 -47 -18 -81l-4 2v-2h-770q2 -117 71.5 -192t196.5 -75q176 0 250 115h209q-63 -127 -192.5 -203t-295.5 -76q-219 0 -336.5 145.5t-81 358.5
t203.5 357.5t377 144.5zM749.5 1130q-53.5 0 -89 35t-35.5 86.5t35.5 86t89 34.5t89 -34.5t35.5 -86t-35.5 -86.5t-89 -35z" />
    <glyph glyph-name="Eogonek" unicode="&#x118;" horiz-adv-x="1294" 
d="M901 -131q0 -92 143 -92q37 0 76 8l19 -141q-41 -18 -142.5 -18.5t-178.5 61t-77 154.5t78 159h-745l245 1393h992l-33 -181h-797l-75 -432h714l-33 -180h-712l-74 -420h795l-33 -180h-4q-158 -39 -158 -131z" />
    <glyph glyph-name="eogonek" unicode="&#x119;" horiz-adv-x="1179" 
d="M660 823q-125 0 -218.5 -77.5t-134.5 -198.5h590q14 129 -49 202.5t-188 73.5zM683 981q210 0 317.5 -137t72.5 -357q-6 -47 -18 -81l-4 2v-2h-768q0 -117 70.5 -192t197.5 -75q174 0 248 115h209q-43 -84 -113 -148q-57 -57 -76.5 -87.5t-19.5 -75.5q0 -106 141 -107
q31 0 78 10l18 -143q-49 -16 -121 -16q-125 0 -200.5 60t-75.5 161q0 45 14 82q-59 -14 -133 -15q-219 0 -336.5 145.5t-81 358.5t203.5 357.5t377 144.5z" />
    <glyph glyph-name="Ecaron" unicode="&#x11a;" horiz-adv-x="1294" 
d="M481 1212l-75 -432h714l-33 -180h-712l-74 -420h795l-33 -180h-989l245 1393h992l-33 -181h-797zM772 1540l-194 305h170l133 -198l198 198h183l-301 -305h-189z" />
    <glyph glyph-name="ecaron" unicode="&#x11b;" horiz-adv-x="1179" 
d="M662 823q-125 0 -218.5 -77.5t-134.5 -198.5h590q14 129 -49 202.5t-188 73.5zM685 981q210 0 317.5 -137t72.5 -357q-6 -47 -18 -81l-4 2v-2h-770q2 -117 71.5 -192t196.5 -75q176 0 250 115h209q-63 -127 -192.5 -203t-295.5 -76q-219 0 -336.5 145.5t-81 358.5
t203.5 357.5t377 144.5zM627 1087l-195 306h170l133 -199l199 199h182l-301 -306h-188z" />
    <glyph glyph-name="Gbreve" unicode="&#x11e;" horiz-adv-x="1679" 
d="M745 -29q-307 0 -477 209t-115.5 515t304.5 516t557 210q236 0 398.5 -132t176.5 -365h-194q-23 164 -135.5 240.5t-272.5 76.5q-229 0 -411.5 -157.5t-227.5 -399.5q-37 -219 83 -371.5t347 -152.5q190 0 334.5 111.5t212.5 293.5h-489l30 180h701l-11 -49l-122 -696
h-156l31 254q-211 -283 -564 -283zM1027 1559q-132 0 -203.5 78.5t-47.5 222.5h139q-14 -88 24 -130t104.5 -42t123 43t70.5 129h147q-25 -143 -125 -222t-232 -79z" />
    <glyph glyph-name="gbreve" unicode="&#x11f;" horiz-adv-x="1259" 
d="M563 178q190 0 326 158l61 338q-80 156 -272 155q-158 1 -270 -111t-113 -263q-1 -113 73 -195t195 -82zM462 -489q-204 0 -320 104t-107 272h192q0 -94 68 -150q67 -56 193 -56t222 81q95 82 119 224h-2l25 139q-150 -109 -335 -109t-299 121t-114 293q0 231 174 397
t402 166q190 0 307 -110l12 73h189l-172 -970q-39 -217 -194 -346q-156 -129 -360 -129zM738 1079q-132 0 -204 79t-47 222h140q-15 -88 23 -130t105 -42t123 43t70 129h148q-26 -143 -126 -222t-232 -79z" />
    <glyph glyph-name="Gdotaccent" unicode="&#x120;" horiz-adv-x="1683" 
d="M745 -29q-307 0 -477 209t-115.5 515t304.5 516t557 210q236 0 398.5 -132t176.5 -365h-194q-23 164 -135.5 240.5t-272.5 76.5q-229 0 -411.5 -157.5t-227.5 -399.5q-37 -219 83 -371.5t347 -152.5q190 0 334.5 111.5t212.5 293.5h-489l30 180h701l-11 -49l-122 -696
h-156l31 254q-211 -283 -564 -283zM1038.5 1561q-53.5 0 -89.5 34.5t-36 86t36 86t89.5 34.5t89 -34.5t35.5 -86t-35.5 -86t-89 -34.5z" />
    <glyph glyph-name="gdotaccent" unicode="&#x121;" horiz-adv-x="1259" 
d="M563 178q190 0 326 158l61 338q-80 156 -272 155q-158 1 -270 -111t-113 -263q-1 -113 73 -195t195 -82zM462 -489q-204 0 -320 104t-107 272h192q0 -94 68 -150q67 -56 193 -56t222 81q95 82 119 224h-2l25 139q-150 -109 -335 -109t-299 121t-114 293q0 231 174 397
t402 166q190 0 307 -110l12 73h189l-172 -970q-39 -217 -194 -346q-156 -129 -360 -129zM750 1130q-53 0 -90 35q-36 35 -35 86q0 51 35 86q36 35 90 35t89 -35t35 -86t-36 -86t-88 -35z" />
    <glyph glyph-name="Gcommaaccent" unicode="&#x122;" horiz-adv-x="1679" 
d="M729 -119q47 0 81 -31.5t34 -72.5t-23.5 -79t-140.5 -194h-107l117 170q-78 25 -78 99q0 45 35 76.5t82 31.5zM745 -29q-307 0 -477 209t-115.5 515t304.5 516t557 210q236 0 398.5 -132t176.5 -365h-194q-23 164 -135.5 240.5t-272.5 76.5q-229 0 -411.5 -157.5
t-227.5 -399.5q-37 -219 83 -371.5t347 -152.5q190 0 334.5 111.5t212.5 293.5h-489l30 180h701l-11 -49l-122 -696h-156l31 254q-211 -283 -564 -283z" />
    <glyph glyph-name="gcommaaccent" unicode="&#x123;" horiz-adv-x="1265" 
d="M563 178q190 0 326 158l61 338q-80 156 -272 155q-158 1 -270 -111t-113 -263q-1 -113 73 -195t195 -82zM462 -489q-204 0 -320 104t-107 272h192q0 -94 68 -150q67 -56 193 -56t222 81q95 82 119 224h-2l25 139q-150 -109 -335 -109t-299 121t-114 293q0 231 174 397
t402 166q190 0 307 -110l12 73h189l-172 -970q-39 -217 -194 -346q-156 -129 -360 -129zM741 1139q-47 -1 -81 31q-65 60 -10 152q24 38 141 196h106l-117 -172q78 -25 78 -99q0 -45 -35 -77t-82 -31z" />
    <glyph glyph-name="Hbar" unicode="&#x126;" horiz-adv-x="1511" 
d="M1233 1010h-768l-41 -234h768zM1526 1010h-99l-178 -1010h-194l104 596h-768l-104 -596h-195l178 1010h-102l29 161h102l39 222h194l-38 -222h768l38 222h195l-39 -222h98z" />
    <glyph glyph-name="hbar" unicode="&#x127;" horiz-adv-x="1206" 
d="M763 987q187 0 278 -122t55 -324l-95 -541h-186l92 530q25 135 -33 211t-178 76q-166 0 -315 -160l-117 -657h-188l209 1192h-140l25 135h139l23 127h188l-22 -127h282l-24 -135h-283l-57 -332q160 127 347 127z" />
    <glyph glyph-name="Imacron" unicode="&#x12a;" horiz-adv-x="546" 
d="M287 0h-195l246 1393h194zM776 1704l-26 -137h-572l27 137h571z" />
    <glyph glyph-name="imacron" unicode="&#x12b;" horiz-adv-x="499" 
d="M426 956l-168 -956h-188l170 956h186zM676 1284l-27 -137h-571l26 137h572z" />
    <glyph glyph-name="Iogonek" unicode="&#x12e;" horiz-adv-x="546" 
d="M272 -223q37 0 76 8l19 -141q-41 -18 -143 -18t-178 60q-77 62 -77 170t129 179l240 1358h194l-245 -1393q-158 -39 -158 -131t143 -92z" />
    <glyph glyph-name="iogonek" unicode="&#x12f;" horiz-adv-x="559" 
d="M133 -131q0 -92 143 -92q37 0 76 8l19 -141q-41 -18 -143 -18t-178 60q-77 62 -77 172t138 183l161 915h189l-168 -956h-2q-158 -39 -158 -131zM423 1432q52 0 87 -34t35 -85t-35 -85t-87 -34t-87 34t-35 85t35 85t87 34z" />
    <glyph glyph-name="Idotaccent" unicode="&#x130;" horiz-adv-x="546" 
d="M287 0h-195l246 1393h194zM459 1565q-53 0 -91 36t-38 88t38 89t91 37t91 -37t38 -89t-38 -88t-91 -36z" />
    <glyph glyph-name="dotlessi" unicode="&#x131;" horiz-adv-x="499" 
d="M428 956l-170 -956h-188l170 956h188z" />
    <glyph glyph-name="IJ" unicode="&#x132;" horiz-adv-x="1800" 
d="M1802 1393l-157 -883q-45 -260 -209 -400t-384 -140t-344 124q-122 125 -104 326h197q-5 -125 61 -197q66 -71 205 -71t246 99q106 99 135 263l156 879h198zM287 0h-195l246 1393h194z" />
    <glyph glyph-name="ij" unicode="&#x133;" horiz-adv-x="1087" 
d="M1022 956l-162 -919q-39 -215 -140 -315t-319 -101l15 164q121 10 176 59t76 170l166 942h188zM461 956l-168 -956h-189l168 956h189zM987 1194q-51 0 -86 34t-35 85t35 85t86 34t87 -34t36 -85t-36 -85t-87 -34zM423 1194q-52 0 -87 34t-35 85t35 85t87 34t87 -34
t35 -85t-35 -85t-87 -34z" />
    <glyph glyph-name="Kcommaaccent" unicode="&#x136;" horiz-adv-x="1466" 
d="M631 -119q47 0 80.5 -31.5t33.5 -72.5t-23.5 -79t-139.5 -194h-107l117 170q-78 25 -78 99q0 45 35 76.5t82 31.5zM813 766l512 -766h-248l-426 621l-303 -277l-61 -344h-195l246 1393h194l-133 -752l840 752h264z" />
    <glyph glyph-name="kcommaaccent" unicode="&#x137;" horiz-adv-x="1165" 
d="M479 -119q47 0 81 -31.5t34 -72.5t-23.5 -79t-140.5 -194h-106l116 170q-78 25 -78 99q0 45 35 76.5t82 31.5zM664 557l366 -557h-242l-278 428l-225 -190l-41 -238h-189l258 1454h187l-170 -967l563 469h242z" />
    <glyph glyph-name="Lacute" unicode="&#x139;" horiz-adv-x="1222" 
d="M1073 176l-33 -176h-948l246 1393h194l-215 -1217h756zM549 1550h-174l213 299h209z" />
    <glyph glyph-name="lacute" unicode="&#x13a;" horiz-adv-x="499" 
d="M516 1454l-258 -1454h-188l258 1454h188zM795 1901l-248 -299h-174l213 299h209z" />
    <glyph glyph-name="Lcommaaccent" unicode="&#x13b;" horiz-adv-x="1222" 
d="M557 -119q47 0 81 -31.5t34 -72.5t-23.5 -79t-140.5 -194h-107l117 170q-78 25 -78 99q0 45 35 76.5t82 31.5zM1073 176l-33 -176h-948l246 1393h194l-215 -1217h756z" />
    <glyph glyph-name="lcommaaccent" unicode="&#x13c;" horiz-adv-x="499" 
d="M12 -227q0 45 35 76.5t82 31.5t81 -31.5t34 -72.5t-23.5 -79t-140.5 -194h-107l117 170q-78 25 -78 99zM516 1454l-258 -1454h-188l258 1454h188z" />
    <glyph glyph-name="Lcaron" unicode="&#x13d;" horiz-adv-x="1222" 
d="M836 999h-146l86 394h193zM1073 176l-33 -176h-948l246 1393h194l-215 -1217h756z" />
    <glyph glyph-name="lcaron" unicode="&#x13e;" horiz-adv-x="499" 
d="M838 1454l-133 -393h-146l86 393h193zM516 1454l-258 -1454h-188l258 1454h188z" />
    <glyph glyph-name="Ldot" unicode="&#x13f;" horiz-adv-x="1222" 
d="M786.5 559q-53.5 0 -89 35t-35.5 86t35.5 86t89 35t89 -35t35.5 -86t-35.5 -86t-89 -35zM1073 176l-33 -176h-948l246 1393h194l-215 -1217h756z" />
    <glyph glyph-name="ldot" unicode="&#x140;" horiz-adv-x="753" 
d="M592 541q-53 0 -89 34.5t-36 86t36 86t89 34.5t89 -34.5t36 -86t-36 -86t-89 -34.5zM516 1454l-258 -1454h-188l258 1454h188z" />
    <glyph glyph-name="Lslash" unicode="&#x141;" horiz-adv-x="1222" 
d="M1073 176l-33 -176h-948l88 498l-147 -62l28 168l148 62l129 727h194l-112 -639l360 151l-28 -166l-361 -151l-74 -412h756z" />
    <glyph glyph-name="lslash" unicode="&#x142;" horiz-adv-x="499" 
d="M537 762l-156 -68l-123 -694h-188l108 608l-151 -65l34 194l150 64l117 653h188l-100 -565l153 65z" />
    <glyph glyph-name="Nacute" unicode="&#x143;" horiz-adv-x="1558" 
d="M1542 1393l-246 -1393h-155l-670 1040l-184 -1040h-195l246 1393h127l694 -1067l189 1067h194zM1001 1550h-174l213 299h209z" />
    <glyph glyph-name="nacute" unicode="&#x144;" horiz-adv-x="1206" 
d="M751 987q187 0 278 -122t54 -324l-94 -541h-186l92 530q25 135 -32.5 211t-178.5 76q-164 0 -317 -160l-115 -657h-189l170 956h187l-17 -96q161 127 348 127zM795 1106h-174l213 299h208z" />
    <glyph glyph-name="Ncommaaccent" unicode="&#x145;" horiz-adv-x="1558" 
d="M684 -119q47 0 81 -31.5t34 -72.5t-23.5 -79t-140.5 -194h-107l117 170q-78 25 -78 99q0 45 35 76.5t82 31.5zM1542 1393l-246 -1393h-155l-670 1040l-184 -1040h-195l246 1393h127l694 -1067l189 1067h194z" />
    <glyph glyph-name="ncommaaccent" unicode="&#x146;" horiz-adv-x="1206" 
d="M493.5 -119q47.5 0 81 -31.5t33.5 -72.5t-23.5 -79t-140.5 -194h-106l117 170q-78 25 -78 99q0 45 34.5 76.5t82 31.5zM751 987q187 0 278 -122t54 -324l-94 -541h-186l92 530q25 135 -32.5 211t-178.5 76q-164 0 -317 -160l-115 -657h-189l170 956h187l-17 -96
q161 127 348 127z" />
    <glyph glyph-name="Ncaron" unicode="&#x147;" horiz-adv-x="1558" 
d="M1542 1393l-246 -1393h-155l-670 1040l-184 -1040h-195l246 1393h127l694 -1067l189 1067h194zM856 1540l-194 305h169l134 -198l198 198h183l-302 -305h-188z" />
    <glyph glyph-name="ncaron" unicode="&#x148;" horiz-adv-x="1206" 
d="M751 987q187 0 278 -122t54 -324l-94 -541h-186l92 530q25 135 -32.5 211t-178.5 76q-164 0 -317 -160l-115 -657h-189l170 956h187l-17 -96q161 127 348 127zM618 1087l-194 306h170l133 -199l199 199h182l-301 -306h-189z" />
    <glyph glyph-name="Omacron" unicode="&#x14c;" horiz-adv-x="1695" 
d="M782 158q250 0 446 186t195 442q0 193 -118 321q-119 128 -318 128q-254 0 -445 -186t-192 -439q0 -192 118 -322t314 -130zM1006 1421q270 0 443 -177t173 -441q0 -219 -123 -413t-321 -306t-414 -113q-270 0 -443 177t-174 442q0 218 123 412t322 306t414 113z
M1372 1704l-26 -137h-572l27 137h571z" />
    <glyph glyph-name="omacron" unicode="&#x14d;" horiz-adv-x="1232" 
d="M557 141q157 0 271 116t114 273q0 119 -74 199t-192 80q-158 0 -273 -114t-114 -271q1 -123 73 -203t195 -80zM705 981q190 0 309 -120t119 -306q1 -242 -181 -414t-426 -172q-190 0 -309 121t-119 309q0 242 180 412t427 170zM1063 1284l-27 -137h-571l27 137h571z" />
    <glyph glyph-name="Ohungarumlaut" unicode="&#x150;" horiz-adv-x="1695" 
d="M782 158q250 0 446 186t195 442q0 193 -118 321q-119 128 -318 128q-254 0 -445 -186t-192 -439q0 -192 118 -322t314 -130zM1006 1421q270 0 443 -177t173 -441q0 -219 -123 -413t-321 -306t-414 -113q-270 0 -443 177t-174 442q0 218 123 412t322 306t414 113z
M1409 1849l-168 -299h-160l133 299h195zM1122 1849l-170 -299h-159l133 299h196z" />
    <glyph glyph-name="ohungarumlaut" unicode="&#x151;" horiz-adv-x="1232" 
d="M557 141q157 0 271 116t114 273q0 119 -74 199t-192 80q-158 0 -273 -114t-114 -271q1 -123 73 -203t195 -80zM705 981q190 0 309 -120t119 -306q1 -242 -181 -414t-426 -172q-190 0 -309 121t-119 309q0 242 180 412t427 170zM1102 1405l-168 -299h-160l133 299h195z
M813 1405l-168 -299h-160l133 299h195z" />
    <glyph glyph-name="OE" unicode="&#x152;" horiz-adv-x="2119" 
d="M1018 1210q-289 0 -481.5 -170t-192.5 -422q0 -195 132 -315.5t360 -120.5l96 2l180 1026h-94zM805 0q-297 0 -479.5 167t-182.5 427q0 336 265.5 567.5t642.5 231.5h1083l-31 -181h-794l-76 -432h711l-31 -180h-711l-74 -420h793l-33 -180h-1083z" />
    <glyph glyph-name="oe" unicode="&#x153;" horiz-adv-x="2017" 
d="M557 141q156 0 270.5 116t114.5 273q0 119 -73.5 199t-192.5 80q-158 0 -272.5 -113.5t-114.5 -271.5q0 -123 72.5 -203t195.5 -80zM1497 823q-125 0 -219 -77.5t-135 -198.5h592q14 129 -49.5 202.5t-188.5 73.5zM1524 981q207 0 313.5 -137t73.5 -357q-6 -47 -19 -81
l-6 4v-4h-768q2 -117 72 -192t196 -75q176 0 250 115h209q-63 -127 -192 -203t-295 -76q-260 0 -375 199q-86 -96 -206 -150.5t-251 -54.5q-190 0 -309 121t-119 309q0 242 180.5 412t426.5 170q127 0 224 -55.5t150 -153.5q179 209 445 209z" />
    <glyph glyph-name="Racute" unicode="&#x154;" horiz-adv-x="1413" 
d="M748 662q168 0 283.5 87t115.5 226q0 111 -83 174t-222 63h-342l-97 -550h345zM1343 1002q0 -182 -119.5 -316.5t-314.5 -181.5l334 -504h-225l-320 481h-327l-84 -481h-195l246 1393h516q223 0 356 -104.5t133 -286.5zM864 1550h-174l213 299h209z" />
    <glyph glyph-name="racute" unicode="&#x155;" horiz-adv-x="755" 
d="M420 956l-25 -143q170 166 391 166l-30 -178q-238 -6 -396 -189l-108 -612h-189l170 956h187zM604 1106h-174l213 299h209z" />
    <glyph glyph-name="Rcommaaccent" unicode="&#x156;" horiz-adv-x="1413" 
d="M584 -119q47 0 80.5 -31.5t33.5 -72.5t-23.5 -79t-139.5 -194h-107l117 170q-78 25 -78 99q0 45 35 76.5t82 31.5zM748 662q168 0 283.5 87t115.5 226q0 111 -83 174t-222 63h-342l-97 -550h345zM1343 1002q0 -182 -119.5 -316.5t-314.5 -181.5l334 -504h-225l-320 481
h-327l-84 -481h-195l246 1393h516q223 0 356 -104.5t133 -286.5z" />
    <glyph glyph-name="rcommaaccent" unicode="&#x157;" horiz-adv-x="755" 
d="M123 -119q47 0 81 -31.5t34 -72.5t-24 -79t-140 -194h-107l117 170q-78 25 -78 99q0 45 35 76.5t82 31.5zM420 956l-25 -143q170 166 391 166l-30 -178q-238 -6 -396 -189l-108 -612h-189l170 956h187z" />
    <glyph glyph-name="Rcaron" unicode="&#x158;" horiz-adv-x="1413" 
d="M748 662q168 0 283.5 87t115.5 226q0 111 -83 174t-222 63h-342l-97 -550h345zM1343 1002q0 -182 -119.5 -316.5t-314.5 -181.5l334 -504h-225l-320 481h-327l-84 -481h-195l246 1393h516q223 0 356 -104.5t133 -286.5zM719 1540l-195 305h170l133 -198l199 198h182
l-301 -305h-188z" />
    <glyph glyph-name="rcaron" unicode="&#x159;" horiz-adv-x="755" 
d="M420 956l-25 -143q170 166 391 166l-30 -178q-238 -6 -396 -189l-108 -612h-189l170 956h187zM430 1087l-194 306h170l133 -199l198 199h183l-302 -306h-188z" />
    <glyph glyph-name="Sacute" unicode="&#x15a;" horiz-adv-x="1359" 
d="M1008 403q0 141 -201 179l-227 45q-340 66 -328 346q8 211 178 330.5t397.5 119.5t365.5 -105.5t124 -320.5h-195q2 121 -72.5 189.5t-230.5 68.5t-256 -72.5t-100 -189.5q0 -139 223 -184l186 -39q342 -68 342 -315q0 -213 -172 -348.5t-431 -135.5t-394 127t-117 353
h195q-8 -306 350 -306q162 0 262.5 72t100.5 186zM1163 1849l-248 -299h-174l213 299h209z" />
    <glyph glyph-name="sacute" unicode="&#x15b;" horiz-adv-x="1062" 
d="M487 123q113 0 182.5 42t69.5 111q0 90 -121 111l-206 37q-242 41 -242 225q0 152 126 244t299 92q293 1 369 -161q30 -64 21 -150l-176 -2q8 82 -50.5 124t-165 42t-169 -41t-62.5 -105q0 -90 140 -114l180 -31q244 -43 244 -230q0 -162 -132 -255t-324.5 -93t-302 84
t-97.5 258l176 -2q0 -186 241 -186zM973 1405l-248 -299h-174l213 299h209z" />
    <glyph glyph-name="Scedilla" unicode="&#x15e;" horiz-adv-x="1359" 
d="M465 -436h-166l147 307h189zM1008 403q0 141 -201 179l-227 45q-340 66 -328 346q8 211 178 330.5t397.5 119.5t365.5 -105.5t124 -320.5h-195q2 121 -72.5 189.5t-230.5 68.5t-256 -72.5t-100 -189.5q0 -139 223 -184l186 -39q342 -68 342 -315q0 -213 -172 -348.5
t-431 -135.5t-394 127t-117 353h195q-8 -306 350 -306q162 0 262.5 72t100.5 186z" />
    <glyph glyph-name="scedilla" unicode="&#x15f;" horiz-adv-x="1062" 
d="M344 -436h-166l148 307h188zM487 123q113 0 182.5 42t69.5 111q0 90 -121 111l-206 37q-242 41 -242 225q0 152 126 244t299 92q293 1 369 -161q30 -64 21 -150l-176 -2q8 82 -50.5 124t-165 42t-169 -41t-62.5 -105q0 -90 140 -114l180 -31q244 -43 244 -230
q0 -162 -132 -255t-324.5 -93t-302 84t-97.5 258l176 -2q0 -186 241 -186z" />
    <glyph glyph-name="Scaron" unicode="&#x160;" horiz-adv-x="1359" 
d="M1008 403q0 141 -201 179l-227 45q-340 66 -328 346q8 211 178 330.5t397.5 119.5t365.5 -105.5t124 -320.5h-195q2 121 -72.5 189.5t-230.5 68.5t-256 -72.5t-100 -189.5q0 -139 223 -184l186 -39q342 -68 342 -315q0 -213 -172 -348.5t-431 -135.5t-394 127t-117 353
h195q-8 -306 350 -306q162 0 262.5 72t100.5 186zM1262 1845l-301 -305h-189l-194 305h170l133 -198l198 198h183z" />
    <glyph glyph-name="scaron" unicode="&#x161;" horiz-adv-x="1062" 
d="M487 123q113 0 182.5 42t69.5 111q0 90 -121 111l-206 37q-242 41 -242 225q0 152 126 244t299 92q293 1 369 -161q30 -64 21 -150l-176 -2q8 82 -50.5 124t-165 42t-169 -41t-62.5 -105q0 -90 140 -114l180 -31q244 -43 244 -230q0 -162 -132 -255t-324.5 -93t-302 84
t-97.5 258l176 -2q0 -186 241 -186zM1038 1393l-301 -306h-188l-195 306h170l133 -199l199 199h182z" />
    <glyph glyph-name="Tcedilla" unicode="&#x162;" horiz-adv-x="1312" 
d="M451 -129h188l-170 -307h-166zM1384 1212h-503l-213 -1212h-195l213 1212h-500l33 181h1198z" />
    <glyph glyph-name="tcedilla" unicode="&#x163;" horiz-adv-x="897" 
d="M326 -129h188l-170 -307h-166zM563 143q84 0 182 27l-2 -164q-129 -37 -219 -37q-158 0 -239.5 109.5t-53.5 277.5l78 443h-235l26 157h238l61 353h189l-62 -353h357l-27 -157h-358l-78 -443q-16 -98 21.5 -155.5t121.5 -57.5z" />
    <glyph glyph-name="Tcaron" unicode="&#x164;" horiz-adv-x="1312" 
d="M1384 1212h-503l-213 -1212h-195l213 1212h-500l33 181h1198zM739 1540l-194 305h170l133 -198l199 198h182l-301 -305h-189z" />
    <glyph glyph-name="tcaron" unicode="&#x165;" horiz-adv-x="897" 
d="M563 143q84 0 182 27l-2 -164q-129 -37 -219 -37q-158 0 -239.5 109.5t-53.5 277.5l78 443h-235l26 157h238l61 353h189l-62 -353h357l-27 -157h-358l-78 -443q-16 -98 21.5 -155.5t121.5 -57.5zM807 1065h-145l86 393h192z" />
    <glyph glyph-name="Umacron" unicode="&#x16a;" horiz-adv-x="1523" 
d="M682 -31q-280 1 -416 181t-88 454l137 789h197l-139 -789q-37 -200 50 -326t274 -126t323 127q135 127 170 325l139 789h195l-138 -789q-53 -301 -239 -468q-185 -167 -465 -167zM1239 1704l-27 -137h-571l27 137h571z" />
    <glyph glyph-name="umacron" unicode="&#x16b;" horiz-adv-x="1226" 
d="M457 -31q-186 0 -279 122q-92 122 -55 327l94 538h186l-92 -528q-25 -137 33 -212t178 -75q170 0 318 158l114 657h189l-168 -956h-189l17 96q-160 -127 -346 -127zM1016 1147h-572l27 137h571z" />
    <glyph glyph-name="Uring" unicode="&#x16e;" horiz-adv-x="1523" 
d="M682 -31q-280 1 -416 181t-88 454l137 789h197l-139 -789q-37 -200 50 -326t274 -126t323 127q135 127 170 325l139 789h195l-138 -789q-53 -301 -239 -468q-185 -167 -465 -167zM944 1671q47 0 77 30t30 76q0 45 -30 75t-76 30t-77 -30q-30 -30 -30 -74t30 -76
q30 -31 76 -31zM945 1982q95 0 155 -57t61 -147q0 -90 -60 -148q-59 -58 -155 -59q-96 0 -156 58q-60 59 -60 149t60 147t155 57z" />
    <glyph glyph-name="uring" unicode="&#x16f;" horiz-adv-x="1226" 
d="M457 -31q-186 0 -279 122q-92 122 -55 327l94 538h186l-92 -528q-25 -137 33 -212t178 -75q170 0 318 158l114 657h189l-168 -956h-189l17 96q-160 -127 -346 -127zM695 1397q-46 0 -77 -30q-30 -30 -30 -76t30 -76q30 -29 76 -29q47 0 77 30t30 75q0 46 -30 76t-76 30z
M695 1497q95 0 155 -57q60 -58 61 -148q-1 -90 -61 -148t-155 -59q-95 1 -155 59t-61 148q1 90 61 148t155 57z" />
    <glyph glyph-name="Uhungarumlaut" unicode="&#x170;" horiz-adv-x="1523" 
d="M682 -31q-280 1 -416 181t-88 454l137 789h197l-139 -789q-37 -200 50 -326t274 -126t323 127q135 127 170 325l139 789h195l-138 -789q-53 -301 -239 -468q-185 -167 -465 -167zM1290 1847l-168 -299h-159l133 299h194zM1004 1847l-170 -299h-160l133 299h197z" />
    <glyph glyph-name="uhungarumlaut" unicode="&#x171;" horiz-adv-x="1218" 
d="M457 -31q-186 0 -279 122q-92 122 -55 327l94 538h186l-92 -528q-25 -137 33 -212t178 -75q170 0 318 158l114 657h189l-168 -956h-189l17 96q-160 -127 -346 -127zM737 1106l133 299h195l-168 -299h-160zM608 1106h-159l133 299h194z" />
    <glyph glyph-name="Uogonek" unicode="&#x172;" horiz-adv-x="1523" 
d="M854 -154q0 -102 137 -102q41 0 76 8l18 -158q-39 -14 -118 -14q-125 0 -199 60t-74 157q0 96 80 178q-53 -6 -104 -6q-268 1 -404 181t-88 454l137 789h197l-139 -789q-37 -200 50 -326t274 -126t323 127q135 127 170 325l139 789h195l-138 -789q-72 -401 -368 -557
q-164 -106 -164 -201z" />
    <glyph glyph-name="uogonek" unicode="&#x173;" horiz-adv-x="1226" 
d="M958 -223q37 0 76 8l19 -141q-41 -18 -143 -18t-178 60q-77 62 -77 172t138 183l10 55q-160 -127 -346 -127t-279 122q-92 122 -55 327l94 538h186l-92 -528q-25 -137 33 -212t178 -75q170 0 318 158l114 657h189l-168 -956h-2q-158 -39 -158 -131t143 -92z" />
    <glyph glyph-name="Wcircumflex" unicode="&#x174;" horiz-adv-x="2193" 
d="M2273 1393l-717 -1401h-192l-170 1036l-549 -1036h-192l-222 1401h205l164 -1071l567 1071h170l176 -1084l547 1084h213zM1137 1552h-189l303 306h189l192 -306h-170l-131 199z" />
    <glyph glyph-name="wcircumflex" unicode="&#x175;" horiz-adv-x="1609" 
d="M1638 956l-508 -956h-188l-106 653l-338 -653h-166l-191 956h203l123 -659l340 659h162l108 -661l357 661h204zM776 1087h-188l303 306h188l193 -306h-170l-131 199z" />
    <glyph glyph-name="Ycircumflex" unicode="&#x176;" horiz-adv-x="1376" 
d="M786 483h-2l-84 -483h-198l86 483l-408 910h217l312 -699l559 699h245zM682 1552h-188l303 306h188l193 -306h-170l-131 199z" />
    <glyph glyph-name="ycircumflex" unicode="&#x177;" horiz-adv-x="1243" 
d="M1264 958l-904 -1454h-213l291 469l-301 985h203l233 -768l478 768h213zM569 1090h-188l303 303h188l195 -303h-172l-131 196z" />
    <glyph glyph-name="Ydieresis" unicode="&#x178;" horiz-adv-x="1376" 
d="M786 483h-2l-84 -483h-198l86 483l-408 910h217l312 -699l559 699h245zM1040 1567q-51 1 -85 33t-33 81q0 49 33 83q34 34 85 34t86 -34t35 -83t-35 -81t-86 -33zM649 1567q-51 1 -85 33t-34 81t34 83t85 34t85 -34t34 -83t-34 -81t-85 -33z" />
    <glyph glyph-name="Zacute" unicode="&#x179;" horiz-adv-x="1339" 
d="M1354 1294l-983 -1116h794l-30 -178h-1115l17 96l1012 1118h-787l31 179h1081l-16 -97zM926 1550h-174l213 299h209z" />
    <glyph glyph-name="zacute" unicode="&#x17a;" horiz-adv-x="1013" 
d="M993 852l-684 -694h561l-26 -158h-842l16 92l697 707h-555l28 157h824zM700 1106h-174l213 299h209z" />
    <glyph glyph-name="Zdotaccent" unicode="&#x17b;" horiz-adv-x="1339" 
d="M1354 1294l-983 -1116h794l-30 -178h-1115l17 96l1012 1118h-787l31 179h1081l-16 -97zM836 1561q-53 0 -90 34q-36 35 -35 86q0 51 35 86q36 35 90 35t89 -35q36 -35 36 -86t-36 -85t-89 -35z" />
    <glyph glyph-name="zdotaccent" unicode="&#x17c;" horiz-adv-x="1013" 
d="M993 852l-684 -694h561l-26 -158h-842l16 92l697 707h-555l28 157h824zM606 1130q-53 0 -89 35t-36 86t36 86t89 35t89 -35t36 -86t-36 -86t-89 -35z" />
    <glyph glyph-name="Zcaron" unicode="&#x17d;" horiz-adv-x="1339" 
d="M1354 1294l-983 -1116h794l-30 -178h-1115l17 96l1012 1118h-787l31 179h1081l-16 -97zM782 1540l-194 305h170l133 -198l199 198h182l-301 -305h-189z" />
    <glyph glyph-name="zcaron" unicode="&#x17e;" horiz-adv-x="1013" 
d="M188 956h824l-19 -104l-684 -694h561l-26 -158h-842l16 92l697 707h-555zM526 1087l-194 306h170l133 -199l199 199h182l-301 -306h-189z" />
    <glyph glyph-name="florin" unicode="&#x192;" horiz-adv-x="1079" 
d="M1020 1229q-182 0 -250 -211l-78 -258h344l-26 -160h-367l-127 -412q-55 -180 -168 -283t-272 -104q-100 0 -205 31l55 164q86 -20 146 -21q182 0 250 213l127 412h-267l27 160h289l77 258q55 178 168 281t273 104q100 0 205 -31l-56 -162q-92 19 -145 19z" />
    <glyph glyph-name="Acaron" unicode="&#x1cd;" horiz-adv-x="1531" 
d="M1044 539l-157 614l-375 -614h532zM1092 358h-691l-219 -358h-217l869 1401h184l375 -1401h-209zM858 1538l-194 305h170l133 -198l198 198h183l-301 -305h-189z" />
    <glyph glyph-name="acaron" unicode="&#x1ce;" horiz-adv-x="1259" 
d="M563 139q188 0 320 154l67 371q-82 154 -266 153q-156 0 -274 -118t-117 -258t75 -221t195 -81zM510 -25q-184 0 -297 119t-113 307q0 233 178 407t408 173q186 0 301 -109l14 84h187l-168 -956h-189l15 84q-152 -109 -336 -109zM666 1087l-195 306h170l133 -199l199 199
h182l-301 -306h-188z" />
    <glyph glyph-name="Scommaaccent" unicode="&#x218;" horiz-adv-x="1359" 
d="M570 -119q48 0 82 -31.5t34 -72.5t-23.5 -79t-140.5 -194h-106l116 170q-78 25 -77 99q0 45 33.5 76.5t81.5 31.5zM1008 403q0 141 -201 179l-227 45q-340 66 -328 346q8 211 178 330.5t397.5 119.5t365.5 -105.5t124 -320.5h-195q2 121 -72.5 189.5t-230.5 68.5
t-256 -72.5t-100 -189.5q0 -139 223 -184l186 -39q342 -68 342 -315q0 -213 -172 -348.5t-431 -135.5t-394 127t-117 353h195q-8 -306 350 -306q162 0 262.5 72t100.5 186z" />
    <glyph glyph-name="scommaaccent" unicode="&#x219;" horiz-adv-x="1062" 
d="M305 -227q0 45 35 76.5t82 31.5t81 -31.5t34 -72.5t-24 -79t-140 -194h-107l117 170q-78 25 -78 99zM487 123q113 0 182.5 42t69.5 111q0 90 -121 111l-206 37q-242 41 -242 225q0 152 126 244t299 92q293 1 369 -161q30 -64 21 -150l-176 -2q8 82 -50.5 124t-165 42
t-169 -41t-62.5 -105q0 -90 140 -114l180 -31q244 -43 244 -230q0 -162 -132 -255t-324.5 -93t-302 84t-97.5 258l176 -2q0 -186 241 -186z" />
    <glyph glyph-name="uni021A" unicode="&#x21a;" horiz-adv-x="1312" 
d="M536.5 -119q47.5 0 82 -31.5t34.5 -72.5t-22.5 -76t-141.5 -197h-108l117 170q-76 25 -76 99q0 45 33.5 76.5t81 31.5zM1384 1212h-503l-213 -1212h-195l213 1212h-500l33 181h1198z" />
    <glyph glyph-name="uni021B" unicode="&#x21b;" horiz-adv-x="897" 
d="M422 -119q47 0 81 -31.5t34 -72.5t-24 -79t-140 -194h-107l117 170q-78 25 -78 99q0 45 35 76.5t82 31.5zM563 143q84 0 182 27l-2 -164q-129 -37 -219 -37q-158 0 -239.5 109.5t-53.5 277.5l78 443h-235l26 157h238l61 353h189l-62 -353h357l-27 -157h-358l-78 -443
q-16 -98 21.5 -155.5t121.5 -57.5z" />
    <glyph glyph-name="circumflex" unicode="&#x2c6;" 
d="M694 1335l-194 -198h-189l303 305h189l192 -305h-170z" />
    <glyph glyph-name="caron" unicode="&#x2c7;" 
d="M1075 1442l-301 -305h-188l-195 305h170l133 -199l199 199h182z" />
    <glyph glyph-name="breve" unicode="&#x2d8;" 
d="M640 1114q-132 0 -204 79t-47 222h139q-14 -88 24 -130t104 -42t124 43q56 43 70 129h147q-25 -143 -125 -222t-232 -79z" />
    <glyph glyph-name="dotaccent" unicode="&#x2d9;" 
d="M637 1143q-53 0 -89 35t-36 86t36 86q36 34 89 34t89 -34t36 -86q0 -51 -36 -86t-89 -35z" />
    <glyph glyph-name="ring" unicode="&#x2da;" 
d="M657 1227q47 -1 77 29t30 76t-30 76t-76 30t-76 -30t-31 -76t29 -76t77 -29zM658 1538q96 0 156 -57t60 -147t-60 -149t-156 -59t-155 58q-60 58 -61 149q0 89 60 147t156 58z" />
    <glyph glyph-name="ogonek" unicode="&#x2db;" 
d="M594 -129q0 -92 143 -92q37 0 76 8l18 -141q-41 -18 -142 -18t-178 60q-77 62 -77 158t83 161t212 85l23 -90q-158 -39 -158 -131z" />
    <glyph glyph-name="tilde" unicode="&#x2dc;" 
d="M858 1421h131q0 -76 -30 -127q-53 -91 -179 -84q-55 4 -106 31l-68 37q-59 32 -102 14t-43 -73h-131q-2 76 29 126q56 88 183 81q54 -3 101 -27l68 -37q67 -34 107 -16t40 75z" />
    <glyph glyph-name="hungarumlaut" unicode="&#x2dd;" 
d="M997 1446l-168 -299h-159l133 299h194zM711 1446l-170 -299h-160l133 299h197z" />
    <glyph glyph-name="uni0326" unicode="&#x326;" horiz-adv-x="0" 
d="M483 -227q0 45 35 76.5t82 31.5t81 -31.5t34 -72.5t-23.5 -79t-140.5 -194h-107l117 170q-78 25 -78 99z" />
    <glyph glyph-name="Wgrave" unicode="&#x1e80;" horiz-adv-x="2193" 
d="M2273 1393l-717 -1401h-192l-170 1036l-549 -1036h-192l-222 1401h205l164 -1071l567 1071h170l176 -1084l547 1084h213zM1190 1550l-197 299h209l160 -299h-172z" />
    <glyph glyph-name="wgrave" unicode="&#x1e81;" horiz-adv-x="1609" 
d="M1638 956l-508 -956h-188l-106 653l-338 -653h-166l-191 956h203l123 -659l340 659h162l108 -661l357 661h204zM825 1106l-196 299h209l159 -299h-172z" />
    <glyph glyph-name="Wacute" unicode="&#x1e82;" horiz-adv-x="2193" 
d="M2273 1393l-717 -1401h-192l-170 1036l-549 -1036h-192l-222 1401h205l164 -1071l567 1071h170l176 -1084l547 1084h213zM1368 1550h-174l213 299h209z" />
    <glyph glyph-name="wacute" unicode="&#x1e83;" horiz-adv-x="1609" 
d="M1638 956l-508 -956h-188l-106 653l-338 -653h-166l-191 956h203l123 -659l340 659h162l108 -661l357 661h204zM999 1106h-174l213 299h209z" />
    <glyph glyph-name="Wdieresis" unicode="&#x1e84;" horiz-adv-x="2193" 
d="M2273 1393l-717 -1401h-192l-170 1036l-549 -1036h-192l-222 1401h205l164 -1071l567 1071h170l176 -1084l547 1084h213zM1495 1567q-51 1 -85 33t-34 81t34 83t85 34t86 -34t35 -83t-35 -81t-86 -33zM1104 1567q-51 1 -85 33t-34 81t34 83t85 34t85 -34t34 -83t-34 -81
t-85 -33z" />
    <glyph glyph-name="wdieresis" unicode="&#x1e85;" horiz-adv-x="1609" 
d="M1638 956l-508 -956h-188l-106 653l-338 -653h-166l-191 956h203l123 -659l340 659h162l108 -661l357 661h204zM1100 1137q-51 1 -85 33t-34 81t34 83t85 34t86 -34t35 -83t-35 -81t-86 -33zM709 1137q-51 1 -85 33t-34 81t34 83t85 34t85 -34t34 -83t-34 -82
q-34 -32 -85 -32z" />
    <glyph glyph-name="Ygrave" unicode="&#x1ef2;" horiz-adv-x="1376" 
d="M786 483h-2l-84 -483h-198l86 483l-408 910h217l312 -699l559 699h245zM735 1550l-196 299h209l159 -299h-172z" />
    <glyph glyph-name="ygrave" unicode="&#x1ef3;" horiz-adv-x="1243" 
d="M1264 958l-904 -1454h-213l291 469l-301 985h203l233 -768l478 768h213zM631 1106l-195 299h209l160 -299h-174z" />
    <glyph glyph-name="endash" unicode="&#x2013;" horiz-adv-x="1462" 
d="M1235 455h-1018l33 188h1018z" />
    <glyph glyph-name="emdash" unicode="&#x2014;" horiz-adv-x="2084" 
d="M1858 455h-1641l33 188h1640z" />
    <glyph glyph-name="quoteleft" unicode="&#x2018;" horiz-adv-x="401" 
d="M416 1044q0 -46 -35 -80t-85 -34t-85 34t-35 86t72 152l125 189h116l-147 -248q74 -29 74 -99z" />
    <glyph glyph-name="quoteright" unicode="&#x2019;" horiz-adv-x="417" 
d="M365 1407q51 0 86 -34t35 -87t-72 -151l-127 -191h-115l147 248q-76 29 -75 98q0 49 35 83t86 34z" />
    <glyph glyph-name="quotesinglbase" unicode="&#x201a;" horiz-adv-x="417" 
d="M148 203q50 0 85 -34t35 -86t-71 -153l-125 -190h-117l147 248q-74 29 -73 100q0 47 34 81q35 34 85 34z" />
    <glyph glyph-name="quotedblleft" unicode="&#x201c;" horiz-adv-x="770" 
d="M768 1044q0 -46 -35 -80t-86 -34t-86 34t-35 84t72 154l127 189h115l-148 -248q76 -27 76 -99zM416 1044q0 -46 -35 -80t-86 -34t-86 34t-35 86t72 152l127 189h114l-147 -248q76 -29 76 -99z" />
    <glyph glyph-name="quotedblright" unicode="&#x201d;" horiz-adv-x="770" 
d="M592 1290q0 49 35 83t85 34t85 -34t35 -87t-72 -151l-125 -191h-117l150 248q-76 27 -76 98zM359 1407q50 0 85 -34t35 -87t-71 -151l-127 -191h-115l147 248q-74 29 -73 98q0 49 34 83q35 34 85 34z" />
    <glyph glyph-name="quotedblbase" unicode="&#x201e;" horiz-adv-x="774" 
d="M383 88q0 47 35 81t86 34t86 -34t35 -84t-72 -155l-127 -190h-115l148 248q-76 27 -76 100zM148 203q50 0 85 -34t35 -86t-71 -153l-125 -190h-117l147 248q-74 29 -73 100q0 47 34 81q35 34 85 34z" />
    <glyph glyph-name="dagger" unicode="&#x2020;" horiz-adv-x="833" 
d="M578 1102l-78 -447h-129l78 447h-248l24 129h248l43 248h129l-43 -248h250l-25 -129h-249z" />
    <glyph glyph-name="daggerdbl" unicode="&#x2021;" horiz-adv-x="833" 
d="M573 1001h250l-22 -127h-250l-39 -219h-127l37 219h-248l23 127h247l27 144h-248l21 129h250l34 205h129l-36 -205h249l-22 -129h-248z" />
    <glyph glyph-name="bullet" unicode="&#x2022;" horiz-adv-x="663" 
d="M355 358q-101 0 -176 75t-75 175t75 175t176 75t177 -75t76 -175t-76 -175t-177 -75z" />
    <glyph glyph-name="ellipsis" unicode="&#x2026;" horiz-adv-x="1261" 
d="M996 -31q-50 0 -86 35t-36 84t36 83t86 34t86 -34t36 -84t-36 -84t-86 -34zM570 -31q-50 0 -86 35t-35 84q0 49 35 83q36 34 86 34t86 -34t36 -84t-36 -84t-86 -34zM132 -31q-50 0 -86 35t-36 84t36 83t86 34t86 -34t36 -84t-36 -84t-86 -34z" />
    <glyph glyph-name="perthousand" unicode="&#x2030;" horiz-adv-x="3213" 
d="M2678 616q-106 0 -196 -85t-90 -193t58 -168t164 -61q106 0 196 85t90 194t-58 169q-58 59 -164 59zM1939 388q0 108 -58 168q-57 60 -163 60t-196 -85t-90 -193t58 -168t164 -61q106 0 195 85q90 85 90 194zM2714 754q150 0 240 -91t91 -237q0 -195 -139 -326t-332 -131
q-145 0 -237 91t-92 239q0 195 139 325q140 130 330 130zM1753 754q150 0 241 -91t91 -237q0 -195 -139 -326t-332 -131q-145 0 -238 91q-92 91 -92 239q0 195 139 325q140 130 330 130zM654 1286q-106 0 -195 -85q-90 -85 -90 -195t59 -169q59 -61 165 -61q107 0 195 85
t88 195t-58 170t-164 60zM735 0h-137l938 1393h137zM692 1423q148 0 240 -91t92 -238q0 -193 -139 -324t-330 -131q-150 0 -241 91t-91 239q-1 195 139 325t330 129z" />
    <glyph glyph-name="guilsinglleft" unicode="&#x2039;" horiz-adv-x="546" 
d="M512 823l-264 -315l155 -299h-184l-158 307l267 307h184z" />
    <glyph glyph-name="guilsinglright" unicode="&#x203a;" horiz-adv-x="546" 
d="M47 209l266 315l-155 299h184l156 -307l-265 -307h-186z" />
    <glyph glyph-name="fraction" unicode="&#x2044;" horiz-adv-x="952" 
d="M76 0h-137l938 1393h137z" />
    <glyph glyph-name="zerosuperior" unicode="&#x2070;" horiz-adv-x="903" 
d="M494 723q130 0 208 103t78 245q0 99 -47 161t-137 62q-129 0 -207 -103t-78 -245q0 -98 46 -161q47 -62 137 -62zM621 1427q147 0 228 -94t81 -243q0 -208 -128 -354t-331 -146q-147 0 -228 94t-81 246q0 207 129 352t330 145z" />
    <glyph glyph-name="foursuperior" unicode="&#x2074;" horiz-adv-x="833" 
d="M815 776h-117l-28 -162h-142l29 162h-438l16 90l338 549h150l-310 -514h265l40 236h142l-41 -236h117z" />
    <glyph glyph-name="fivesuperior" unicode="&#x2075;" horiz-adv-x="786" 
d="M432 723q82 0 138 48q56 49 57 109q0 60 -36 91t-102 30h-256l74 414h514l-22 -131h-379l-29 -158h125q122 0 186 -58t64 -157q0 -133 -102 -224t-244 -91t-211 63q-70 63 -70 175h144q14 -111 149 -111z" />
    <glyph glyph-name="sixsuperior" unicode="&#x2076;" horiz-adv-x="776" 
d="M435 715q75 0 135 52q60 51 60 121t-39 108q-40 38 -119 38t-128 -49q-68 -63 -68 -127t42 -104q42 -39 117 -39zM508 1161q124 -1 196 -67t72 -170q0 -136 -106 -232t-246 -96t-214 70q-75 70 -75 174q0 61 27 112t88 127l289 336h170l-215 -254h14z" />
    <glyph glyph-name="sevensuperior" unicode="&#x2077;" horiz-adv-x="663" 
d="M797 1415l-17 -88l-477 -713h-164l447 664h-398l25 137h584z" />
    <glyph glyph-name="eightsuperior" unicode="&#x2078;" horiz-adv-x="821" 
d="M637 854q-1 115 -149 115q-72 0 -124 -41q-52 -42 -52 -98q0 -118 148 -117q72 0 124 42q53 42 53 99zM550 1313q-62 0 -112 -40q-49 -40 -49 -93t35 -82q36 -29 98 -29t111 39t49 93t-35 83t-97 29zM444 590q-148 0 -222 58q-75 58 -75 144q0 166 175 240
q-76 48 -76 148t95 174t222 74t197 -56q70 -55 69 -141q0 -137 -135 -203q102 -55 102 -169q0 -113 -102 -191t-250 -78z" />
    <glyph glyph-name="ninesuperior" unicode="&#x2079;" horiz-adv-x="776" 
d="M534 1317q-74 0 -136 -52q-60 -51 -60 -121t40 -108t115 -39q75 0 128 45l4 5q67 63 67 127t-42 104q-42 39 -116 39zM544 1436q140 0 215 -70t75 -174q0 -62 -27 -114t-88 -124l-289 -338h-170l215 254h-14q-123 0 -196 67t-72 171q0 136 106 232q105 96 245 96z" />
    <glyph glyph-name="zeroinferior" unicode="&#x2080;" horiz-adv-x="903" 
d="M326 -254q131 0 209 103t77 245q0 98 -47 160t-137 63q-129 0 -207 -103t-78 -245q1 -99 47 -161t136 -62zM453 451q147 -1 228 -95t81 -243q0 -209 -128 -355t-331 -145q-147 0 -228 94t-81 244q0 207 129 353t330 147z" />
    <glyph glyph-name="oneinferior" unicode="&#x2081;" horiz-adv-x="657" 
d="M500 -248l-23 -121h-575l22 121h223l93 527l-224 -66l21 125l293 94h76l-121 -680h215z" />
    <glyph glyph-name="twoinferior" unicode="&#x2082;" horiz-adv-x="743" 
d="M461 220q0 48 -31 75t-84 27q-139 0 -170 -129h-143q25 117 111 187t211 71q124 -1 189 -59q64 -58 64 -138t-43 -144t-164 -173l-206 -185h342l-23 -121h-575l12 76l338 295q100 84 136 127t36 91z" />
    <glyph glyph-name="threeinferior" unicode="&#x2083;" horiz-adv-x="768" 
d="M569 -122q0 -108 -90 -186t-227 -79q-137 1 -214 65t-75 168h146q4 -106 143 -106q78 0 128 38t50 95q0 98 -147 98h-68l23 117h65q70 0 116 39t46 90q0 104 -120 103t-152 -107h-144q29 109 115 171t201 62t176 -56t61 -146q0 -139 -121 -211q88 -47 88 -155z" />
    <glyph glyph-name="fourinferior" unicode="&#x2084;" horiz-adv-x="833" 
d="M651 -209h-119l-26 -160h-141l26 160h-436l16 92l338 549h150l-309 -514h264l41 236h141l-41 -236h117z" />
    <glyph glyph-name="fiveinferior" unicode="&#x2085;" horiz-adv-x="786" 
d="M459 -104q0 60 -36 92q-36 31 -101 30h-256l73 414h514l-22 -131h-379l-29 -158h125q121 0 186 -58t64 -157q0 -133 -102 -224t-244 -91t-212 63q-71 63 -69 174h144q14 -111 149 -110q82 0 138 48t57 108z" />
    <glyph glyph-name="sixinferior" unicode="&#x2086;" horiz-adv-x="776" 
d="M263 -268q75 0 135 52t60 122t-39 107q-40 38 -119 38t-128 -49q-68 -64 -68 -128t42 -103t117 -39zM336 178q124 0 196 -66t72 -171q0 -135 -106 -231t-246 -97q-140 0 -214 70q-75 70 -75 174q0 61 27 112t88 127l289 336h170l-215 -254h14z" />
    <glyph glyph-name="seveninferior" unicode="&#x2087;" horiz-adv-x="663" 
d="M625 432l-17 -88l-477 -713h-164l447 664h-398l25 137h584z" />
    <glyph glyph-name="eightinferior" unicode="&#x2088;" horiz-adv-x="821" 
d="M463 -124q-1 116 -149 116q-72 0 -124 -41t-53 -97q0 -56 38 -88q37 -30 109 -30t126 42q53 42 53 98zM376 336q-62 0 -112 -40q-49 -40 -49 -93t35 -82q36 -29 98 -29t111 39t49 93t-35 83t-97 29zM270 -387q-148 0 -222 58q-75 57 -75 143q0 166 174 241
q-75 47 -75 148t95 175t222 73q127 1 197 -55t69 -142q0 -137 -135 -203q102 -55 102 -169t-102 -192t-250 -77z" />
    <glyph glyph-name="nineinferior" unicode="&#x2089;" horiz-adv-x="776" 
d="M360 334q-74 0 -136 -52q-60 -52 -60 -122t40 -108t113 -38t134 49q67 63 67 128t-42 104t-116 39zM18 125q0 135 106 231t246 97q140 0 215 -70t74 -174q-1 -63 -27 -115t-87 -123l-289 -338h-170l215 254h-14q-123 0 -196 67t-73 171z" />
    <glyph glyph-name="Euro" unicode="&#x20ac;" horiz-adv-x="1744" 
d="M248 592q0 89 24 170h-163l24 137h189q106 233 324 377t471 145t408 -149t158 -393h-200q-13 166 -119 260t-282 94t-323 -91q-148 -91 -231 -243h650l-60 -137h-647q-22 -73 -22 -170h600l-58 -137h-524q39 -135 151 -215t275 -80q162 0 310 97t216 257h201
q-92 -244 -299 -394t-455 -149q-248 0 -412 133t-198 351h-201l23 137h170z" />
    <glyph glyph-name="uni2116" unicode="&#x2116;" horiz-adv-x="2801" 
d="M1577 168h967l-29 -168h-967zM2222 1171q-156 -1 -270 -115t-115 -272q0 -122 73 -202t193 -80q156 0 271 116t114 273q0 121 -72 201q-73 79 -194 79zM2075 332q-193 0 -311 121t-117 309q0 242 180 410t426 169q188 1 308 -119t120 -307q0 -239 -181 -411t-425 -172z
M1348 1393h194l-246 -1393h-155l-670 1040l-184 -1040h-195l246 1393h127l694 -1067z" />
    <glyph glyph-name="uni2117" unicode="&#x2117;" horiz-adv-x="1740" 
d="M797 950v-256h157q74 0 117 35t43 93t-43 93t-117 35h-157zM680 1061h274q127 0 204 -66q77 -65 77 -173t-77 -170t-206 -62h-155v-230h-117v701zM909 1296q-250 0 -430 -174t-180 -426t180 -426t430 -174t431 174t182 426q0 252 -182 426t-431 174zM911 1423
q307 0 527 -209t219 -518q0 -309 -219 -518q-218 -209 -526 -209t-527 209t-219 518t219 518t526 209z" />
    <glyph glyph-name="trademark" unicode="&#x2122;" horiz-adv-x="1409" 
d="M1018 868v2l-135 297l-66 -374h-108l104 598h82l176 -375l307 375h84l-104 -598h-111l66 372l-236 -297h-59zM508 1286l-86 -493h-109l86 493h-211l19 105h530l-16 -105h-213z" />
    <glyph glyph-name="oneeighth" unicode="&#x215b;" horiz-adv-x="1888" 
d="M1593 246q-1 116 -147 114q-72 0 -125 -41t-53 -97t38 -87t110 -31t125 42q52 42 52 100zM1506 705q-64 0 -110 -40q-48 -39 -48 -93t34 -83t97 -29q65 0 113 40q48 39 48 93q0 112 -134 112zM1755 251q0 -114 -102 -192q-102 -77 -250 -77q-147 0 -223 58t-76 143
q0 167 174 241q-76 48 -76 148t96 174t224 73q128 0 196 -55t68 -141q0 -135 -133 -203q102 -55 102 -169zM1493 1393l-938 -1393h-137l938 1393h137zM70 594l22 121h223l93 526l-224 -65l21 124l293 95h75l-120 -680h215l-23 -121h-575z" />
    <glyph glyph-name="threeeighths" unicode="&#x215c;" horiz-adv-x="1853" 
d="M1380 104q72 0 125 42t53 98t-37 87q-38 29 -111 29t-125 -41t-52 -97t38 -87q37 -31 109 -31zM1472 705q-64 0 -112 -40q-49 -39 -49 -93t35 -83q36 -29 98 -29t112 41q50 40 50 93t-35 82t-99 29zM1718 252q0 -115 -101 -193q-101 -77 -249 -77t-223 58q-76 58 -76 143
q0 167 174 241q-76 48 -76 148q-1 100 95 174t223 73q127 0 197 -55t69 -141q0 -135 -133 -203q100 -53 100 -168zM1470 1393l-938 -1393h-137l938 1393h137zM737 848q0 -108 -90 -186t-227 -78t-214 64t-75 171h145q4 -109 144 -108q78 0 128 38t50 95q0 98 -147 98h-68
l23 117h65q70 0 116 39t46 90q0 104 -120 103t-153 -107h-143q29 109 115 171t201 62t176 -56t61 -147q0 -139 -121 -210q88 -48 88 -156z" />
    <glyph glyph-name="fiveeighths" unicode="&#x215d;" horiz-adv-x="1863" 
d="M1569 246q0 116 -149 114q-73 0 -125 -41t-52 -97t37 -87q38 -31 110 -31t126 42q53 42 53 100zM1482 705q-62 0 -112 -40q-49 -39 -49 -93t35 -83q36 -29 98 -29t111 40q49 39 49 93t-35 83t-97 29zM1079 190q0 160 172 234q-73 48 -73 148t95 174t222 73q127 0 197 -55
t69 -141q0 -137 -135 -203q102 -55 102 -169t-102 -192q-102 -77 -250 -77t-222 58q-75 58 -75 150zM762 891q0 -133 -102 -224t-244 -91q-141 0 -211 62q-70 64 -70 175h144q14 -111 149 -111q82 0 138 48t56 109q1 122 -137 122h-256l74 414h514l-22 -131h-379l-29 -158
h125q122 0 186 -58t64 -157zM1466 1393l-938 -1393h-137l938 1393h137z" />
    <glyph glyph-name="seveneighths" unicode="&#x215e;" horiz-adv-x="1658" 
d="M1378 244q0 116 -148 116q-72 0 -125 -41q-52 -41 -52 -97t38 -87q37 -31 109 -31t125 42t53 98zM1292 705q-64 0 -112 -40q-48 -39 -50 -93q0 -54 35 -83t97 -29t113 41q50 40 50 93t-34 82q-35 29 -99 29zM1538 252q0 -115 -101 -193q-101 -77 -249 -77t-224 58
t-75 143q0 167 174 241q-76 48 -76 148t95 174q94 74 222 73q128 0 198 -55t69 -141q0 -135 -133 -203q100 -53 100 -168zM1280 1393l-938 -1393h-137l938 1393h137zM178 594l447 663h-398l25 138h584l-17 -88l-477 -713h-164z" />
    <glyph glyph-name="arrowleft" unicode="&#x2190;" horiz-adv-x="1568" 
d="M1487 788v-178h-1086l502 -493l-127 -125l-706 706l706 709l127 -125l-500 -494h1084z" />
    <glyph glyph-name="arrowup" unicode="&#x2191;" horiz-adv-x="1599" 
d="M891 0h-180v1085l-494 -501l-125 127l707 706l708 -706l-125 -127l-491 499v-1083z" />
    <glyph glyph-name="arrowright" unicode="&#x2192;" horiz-adv-x="1568" 
d="M82 788h1083l-499 494l127 125l706 -709l-706 -706l-127 125l501 493h-1085v178z" />
    <glyph glyph-name="arrowdown" unicode="&#x2193;" horiz-adv-x="1599" 
d="M891 1393v-1084l491 500l125 -127l-708 -707l-707 707l125 127l494 -502v1086h180z" />
    <glyph glyph-name="arrowupleft" unicode="&#x2196;" horiz-adv-x="1646" 
d="M184 391v1002h1002v-179l-699 3l1090 -1092l-125 -127l-1092 1092l2 -699h-178z" />
    <glyph glyph-name="arrowupright" unicode="&#x2197;" horiz-adv-x="1677" 
d="M492 1393h1001v-1002h-178v699l-1090 -1092l-127 127l1092 1092l-698 -3v179z" />
    <glyph glyph-name="arrowdownright" unicode="&#x2198;" horiz-adv-x="1646" 
d="M1286 1001h176v-1001h-999l-2 178l700 -2l-1091 1094l127 125l1089 -1092v698z" />
    <glyph glyph-name="arrowdownleft" unicode="&#x2199;" horiz-adv-x="1628" 
d="M1186 0h-1002v1001h178l-2 -698l1092 1092l125 -125l-1090 -1094l699 2v-178z" />
    <glyph glyph-name="minus" unicode="&#x2212;" horiz-adv-x="1400" 
d="M270 756h957l-31 -174h-958z" />
    <glyph glyph-name="R.ss02" horiz-adv-x="1431" 
d="M739 664q180 0 295 86t115 212t-82 188t-225 62h-340l-96 -548h333zM1346 1004q0 -225 -172.5 -371t-440.5 -152l516 -481h-252l-522 481h-102l-84 -481h-197l246 1393h539q219 0 344 -104.5t125 -284.5z" />
    <glyph glyph-name="Racute.ss02" horiz-adv-x="1431" 
d="M739 664q178 0 293 86t115 212t-81 188t-226 62h-340l-97 -548h336zM1343 1004q0 -225 -171 -371t-439 -152l516 -481h-252l-522 481h-104l-84 -481h-195l244 1393h538q219 0 344 -103.5t125 -285.5zM887 1550h-174l213 299h209z" />
    <glyph glyph-name="Rcaron.ss02" horiz-adv-x="1431" 
d="M739 664q178 0 293 86t115 212t-81 188t-226 62h-340l-97 -548h336zM1343 1004q0 -225 -171 -371t-439 -152l516 -481h-252l-522 481h-104l-84 -481h-195l244 1393h538q219 0 344 -103.5t125 -285.5zM741 1540l-194 305h170l133 -198l199 198h182l-301 -305h-189z" />
    <glyph glyph-name="Rcommaaccent.ss02" horiz-adv-x="1431" 
d="M594 -119q47 0 81 -31.5t34 -72.5t-23.5 -79t-140.5 -194h-107l117 170q-78 25 -78 99q0 45 35 76.5t82 31.5zM739 664q178 0 293 86t115 212t-81 188t-226 62h-340l-97 -548h336zM1343 1004q0 -225 -171 -371t-439 -152l516 -481h-252l-522 481h-104l-84 -481h-195
l244 1393h538q219 0 344 -103.5t125 -285.5z" />
    <glyph glyph-name="Q.ss03" horiz-adv-x="1695" 
d="M1468 -260l-24 -186q-332 57 -670 159l19 144zM782 158q250 0 446 186t195 442q0 193 -118 321q-119 128 -318 128q-254 0 -445 -186t-192 -439q0 -192 118 -322t314 -130zM1006 1421q270 0 443 -177t173 -441q0 -219 -123 -413t-321 -306t-414 -113q-270 0 -443 177
t-174 442q0 218 123 412t322 306t414 113z" />
    <glyph glyph-name="i.loclTRK" horiz-adv-x="559" 
d="M461 956l-168 -956h-189l168 956h189zM423 1194q-52 0 -87 34t-35 85t35 85t87 34t87 -34t35 -85t-35 -85t-87 -34z" />
    <glyph glyph-name="germandbls.case" horiz-adv-x="2693" 
d="M2341 403q0 141 -201 179l-229 45q-336 66 -328 346q8 211 179 330.5t398.5 119.5t364.5 -104.5t123 -321.5h-192q2 121 -73 189.5t-232 68.5t-256 -72.5t-99 -189.5q0 -139 221 -184l187 -39q344 -68 344 -315q0 -213 -172 -348.5t-432.5 -135.5t-394.5 127t-115 353
h192q-8 -306 352 -306q162 0 262.5 72t100.5 186zM1008 403q0 141 -201 179l-227 45q-340 66 -328 346q8 211 178 330.5t397.5 119.5t365.5 -105.5t124 -320.5h-195q2 121 -72.5 189.5t-230.5 68.5t-256 -72.5t-100 -189.5q0 -139 223 -184l186 -39q342 -68 342 -315
q0 -213 -172 -348.5t-431 -135.5t-394 127t-117 353h195q-8 -306 350 -306q162 0 262.5 72t100.5 186z" />
    <glyph glyph-name="l.ss01" horiz-adv-x="741" 
d="M420 143q55 0 162 25l-2 -162q-131 -37 -218 -37q-147 0 -209.5 82t-35.5 238l207 1165h186l-203 -1153q-29 -158 113 -158z" />
    <glyph glyph-name="lacute.ss01" horiz-adv-x="741" 
d="M420 143q55 0 162 25l-2 -162q-131 -37 -218 -37q-147 0 -209.5 82t-35.5 238l205 1165h188l-203 -1153q-31 -158 113 -158zM780 1901l-248 -299h-174l213 299h209z" />
    <glyph glyph-name="lcaron.ss01" horiz-adv-x="741" 
d="M866 1454l-133 -393h-145l86 393h192zM420 143q55 0 162 25l-2 -162q-131 -37 -218 -37q-147 0 -209.5 82t-35.5 238l205 1165h188l-203 -1153q-31 -158 113 -158z" />
    <glyph glyph-name="lcommaaccent.ss01" horiz-adv-x="741" 
d="M313 -119q47 0 81 -31.5t34 -72.5t-23.5 -79t-140.5 -194h-106l116 170q-78 25 -77 99q0 45 34.5 76.5t81.5 31.5zM420 143q55 0 162 25l-2 -162q-131 -37 -218 -37q-147 0 -209.5 82t-35.5 238l205 1165h188l-203 -1153q-31 -158 113 -158z" />
    <glyph glyph-name="ldot.ss01" horiz-adv-x="802" 
d="M594 541q-53 0 -89 34.5t-36 86t36 86t89 34.5t89 -34.5t36 -86t-36 -86t-89 -34.5zM420 143q55 0 162 25l-2 -162q-131 -37 -218 -37q-147 0 -209.5 82t-35.5 238l205 1165h188l-203 -1153q-31 -158 113 -158z" />
    <glyph glyph-name="lslash.ss01" horiz-adv-x="741" 
d="M420 143q55 0 162 25l-2 -162q-131 -37 -218 -37q-147 0 -209.5 82t-35.5 238l53 305l-121 -51l35 194l121 51l117 666h188l-102 -577l184 77l-33 -192l-184 -80l-68 -381q-31 -158 113 -158z" />
    <glyph glyph-name="y.ss04" horiz-adv-x="1232" 
d="M209 -113q1 -92 67 -149t189 -57q123 1 213 77t117 211l28 166q-161 -127 -347 -127t-278 122t-57 327l88 499h189l-88 -489q-24 -135 34 -211t185 -76q160 0 309 160l109 616h188l-174 -987q-37 -211 -189 -335t-354 -124t-316 105q-114 104 -106 272h193z" />
    <glyph glyph-name="yacute.ss04" horiz-adv-x="1232" 
d="M209 -113q1 -92 67 -149t189 -57q123 1 213 77t115 211h2l28 166q-160 -127 -346 -127t-279 122t-57 327l88 499h189l-88 -489q-24 -135 34 -211t185 -76q162 0 311 162l109 614h188l-174 -987h-2q-39 -211 -189 -335t-354 -124q-202 0 -316 105q-114 104 -106 272h193z
M784 1106h-174l213 299h209z" />
    <glyph glyph-name="ycircumflex.ss04" horiz-adv-x="1232" 
d="M209 -113q1 -92 67 -149t189 -57q123 1 213 77t115 211h2l28 166q-160 -127 -346 -127t-279 122t-57 327l88 499h189l-88 -489q-24 -135 34 -211t185 -76q162 0 311 162l109 614h188l-174 -987h-2q-39 -211 -189 -335t-354 -124q-202 0 -316 105q-114 104 -106 272h193z
M559 1087h-188l303 306h188l193 -306h-170l-131 199z" />
    <glyph glyph-name="ydieresis.ss04" horiz-adv-x="1232" 
d="M209 -113q1 -92 67 -149t189 -57q123 1 213 77t115 211h2l28 166q-160 -127 -346 -127t-279 122t-57 327l88 499h189l-88 -489q-24 -135 34 -211t185 -76q162 0 311 162l109 614h188l-174 -987h-2q-39 -211 -189 -335t-354 -124q-202 0 -316 105q-114 104 -106 272h193z
M885 1137q-51 1 -85 33t-34 81t34 83t85 34t86 -34t35 -83t-35 -81t-86 -33zM494 1137q-51 1 -85 33t-34 81t34 83t85 34t85 -34q33 -34 33 -83t-33 -82q-34 -32 -85 -32z" />
    <glyph glyph-name="ygrave.ss04" horiz-adv-x="1232" 
d="M209 -113q1 -92 67 -149t189 -57q123 1 213 77t115 211h2l28 166q-160 -127 -346 -127t-279 122t-57 327l88 499h189l-88 -489q-24 -135 34 -211t185 -76q162 0 311 162l109 614h188l-174 -987h-2q-39 -211 -189 -335t-354 -124q-202 0 -316 105q-114 104 -106 272h193z
M610 1106l-196 299h209l159 -299h-172z" />
    <glyph glyph-name="a.ss06" horiz-adv-x="1110" 
d="M444 135q162 0 320 105l31 172h-363q-86 0 -137 -40t-51 -100t51 -99q51 -38 149 -38zM664 981q180 0 278 -115t64 -311l-97 -555h-186l12 70q-159 -92 -325 -92t-259 69q-93 70 -93 205t111 220q112 85 300 83h350q19 119 -27 191t-154 73q-108 0 -177 -41
q-68 -41 -92 -112h-191q41 154 174 234q132 80 312 81z" />
    <glyph glyph-name="aacute.ss06" horiz-adv-x="1110" 
d="M444 135q160 0 322 105l31 172h-365q-86 0 -137 -40t-51 -100t51 -99q51 -38 149 -38zM664 981q180 0 278 -115t64 -311l-97 -555h-186l12 70q-159 -92 -325 -92t-259 69q-93 70 -93 205t111 220q112 85 300 83h352q21 119 -27 191t-156 73q-108 0 -176 -41
q-69 -41 -93 -112h-191q41 154 174 234q132 80 312 81zM754 1106h-174l213 299h208z" />
    <glyph glyph-name="abreve.ss06" horiz-adv-x="1110" 
d="M444 135q160 0 322 105l31 172h-365q-86 0 -137 -40t-51 -100t51 -99q51 -38 149 -38zM664 981q180 0 278 -115t64 -311l-97 -555h-186l12 70q-159 -92 -325 -92t-259 69q-93 70 -93 205t111 220q112 85 300 83h352q21 119 -27 191t-156 73q-108 0 -176 -41
q-69 -41 -93 -112h-191q41 154 174 234q132 80 312 81zM648 1079q-132 0 -204 79t-47 222h140q-15 -88 23 -130t105 -42t123 43t70 129h148q-26 -143 -126 -222t-232 -79z" />
    <glyph glyph-name="acaron.ss06" horiz-adv-x="1110" 
d="M444 135q160 0 322 105l31 172h-365q-86 0 -137 -40t-51 -100t51 -99q51 -38 149 -38zM664 981q180 0 278 -115t64 -311l-97 -555h-186l12 70q-159 -92 -325 -92t-259 69q-93 70 -93 205t111 220q112 85 300 83h352q21 119 -27 191t-156 73q-108 0 -176 -41
q-69 -41 -93 -112h-191q41 154 174 234q132 80 312 81zM578 1087l-195 306h170l133 -199l199 199h182l-301 -306h-188z" />
    <glyph glyph-name="acircumflex.ss06" horiz-adv-x="1110" 
d="M444 135q160 0 322 105l31 172h-365q-86 0 -137 -40t-51 -100t51 -99q51 -38 149 -38zM664 981q180 0 278 -115t64 -311l-97 -555h-186l12 70q-159 -92 -325 -92t-259 69q-93 70 -93 205t111 220q112 85 300 83h352q21 119 -27 191t-156 73q-108 0 -176 -41
q-69 -41 -93 -112h-191q41 154 174 234q132 80 312 81zM514 1090h-188l303 303h188l195 -303h-170l-133 196z" />
    <glyph glyph-name="adieresis.ss06" horiz-adv-x="1110" 
d="M444 135q160 0 322 105l31 172h-365q-86 0 -137 -40t-51 -100t51 -99q51 -38 149 -38zM664 981q180 0 278 -115t64 -311l-97 -555h-186l12 70q-159 -92 -325 -92t-259 69q-93 70 -93 205t111 220q112 85 300 83h352q21 119 -27 191t-156 73q-108 0 -176 -41
q-69 -41 -93 -112h-191q41 154 174 234q132 80 312 81zM854 1137q-51 1 -85 33t-34 81t34 83t85 34t86 -34t35 -83t-35 -81t-86 -33zM463 1137q-51 1 -85 33t-34 81t34 83t85 34t85 -34t34 -83t-34 -81t-85 -33z" />
    <glyph glyph-name="agrave.ss06" horiz-adv-x="1110" 
d="M444 135q160 0 322 105l31 172h-365q-86 0 -137 -40t-51 -100t51 -99q51 -38 149 -38zM664 981q180 0 278 -115t64 -311l-97 -555h-186l12 70q-159 -92 -325 -92t-259 69q-93 70 -93 205t111 220q112 85 300 83h352q21 119 -27 191t-156 73q-108 0 -176 -41
q-69 -41 -93 -112h-191q41 154 174 234q132 80 312 81zM580 1106l-197 299h209l160 -299h-172z" />
    <glyph glyph-name="amacron.ss06" horiz-adv-x="1110" 
d="M444 135q160 0 322 105l31 172h-365q-86 0 -137 -40t-51 -100t51 -99q51 -38 149 -38zM664 981q180 0 278 -115t64 -311l-97 -555h-186l12 70q-159 -92 -325 -92t-259 69q-93 70 -93 205t111 220q112 85 300 83h352q21 119 -27 191t-156 73q-108 0 -176 -41
q-69 -41 -93 -112h-191q41 154 174 234q132 80 312 81zM963 1147h-570l27 137h569z" />
    <glyph glyph-name="aogonek.ss06" horiz-adv-x="1110" 
d="M444 135q160 0 322 105l31 172h-365q-86 0 -137 -40t-51 -100t51 -99q51 -38 149 -38zM891 -223q37 0 76 8l18 -141q-41 -18 -143 -18t-178 60q-76 62 -76 162q0 125 143 195l4 27q-159 -92 -325 -92t-259 69q-93 70 -93 205t111 220q112 85 300 83h352q21 119 -27 191
t-156 73q-108 0 -176 -41q-69 -41 -93 -112h-191q41 154 174 234q132 80 312 81q180 0 278 -115t64 -311l-97 -555h-4q-158 -39 -157 -131q0 -92 143 -92z" />
    <glyph glyph-name="aring.ss06" horiz-adv-x="1110" 
d="M444 135q160 0 322 105l31 172h-365q-86 0 -137 -40t-51 -100t51 -99q51 -38 149 -38zM664 981q180 0 278 -115t64 -311l-97 -555h-186l12 70q-159 -92 -325 -92t-259 69q-93 70 -93 205t111 220q112 85 300 83h352q21 119 -27 191t-156 73q-108 0 -176 -41
q-69 -41 -93 -112h-191q41 154 174 234q132 80 312 81zM690 1397q-45 0 -76 -30q-30 -30 -30 -76t30 -76q30 -29 76 -29q47 0 77 30t30 75q0 46 -31 76t-76 30zM690 1497q96 0 156 -57q60 -58 61 -148q-1 -90 -61 -148t-155 -59q-95 1 -156 59t-62 148q1 90 61 148t156 57z
" />
    <glyph glyph-name="atilde.ss06" horiz-adv-x="1110" 
d="M444 135q160 0 322 105l31 172h-365q-86 0 -137 -40t-51 -100t51 -99q51 -38 149 -38zM664 981q180 0 278 -115t64 -311l-97 -555h-186l12 70q-159 -92 -325 -92t-259 69q-93 70 -93 205t111 220q112 85 300 83h352q21 119 -27 191t-156 73q-108 0 -176 -41
q-69 -41 -93 -112h-191q41 154 174 234q132 80 312 81zM494 1180h-132q-2 76 30 126t80 67q102 36 204 -15l67 -37q66 -33 107 -15t41 74h131q0 -100 -52 -156q-92 -99 -263 -24l-68 39q-59 33 -102 15t-43 -74z" />
    <glyph glyph-name="zero.osf" horiz-adv-x="1355" 
d="M621 147q186 -1 322 135t136 343q0 153 -87 243t-228 90q-188 0 -326 -135t-137 -342q1 -150 89 -242t231 -92zM788 1130q216 0 350 -131t134 -346q0 -295 -195 -486t-479 -192q-217 1 -352 133t-135 347q0 295 196 485t481 190z" />
    <glyph glyph-name="one.osf" horiz-adv-x="1046" 
d="M948 162l-28 -162h-932l28 162h383l133 751l-382 -118l28 168l475 163h111l-170 -964h354z" />
    <glyph glyph-name="two.osf" horiz-adv-x="1138" 
d="M872 774q0 84 -57 135t-174 51t-205 -68q-88 -69 -119 -187h-188q43 193 188 309t344 116t303 -95t105 -257q0 -162 -148 -291q-122 -104 -241 -173q-119 -68 -122 -70t-11 -8q-8 -5 -12 -7l-113 -67h561l-27 -162h-917l16 102l348 222q25 16 77 48q261 161 319 237
t65 106q8 31 8 59z" />
    <glyph glyph-name="three.osf" horiz-adv-x="1150" 
d="M482 -315q-226 0 -351 106t-117 279h191q2 -100 71 -159q70 -58 208 -58t235 77q96 78 96 184t-71 162q-71 55 -191 56h-113l27 157h113q131 0 217 79q86 80 86 184q-1 104 -61 158t-170 54t-186 -56q-76 -58 -108 -158h-190q45 174 182 277q138 103 326 103t290 -93
t103 -232q0 -279 -231 -389q164 -82 164 -278t-148 -324q-146 -129 -372 -129z" />
    <glyph glyph-name="four.osf" horiz-adv-x="1312" 
d="M1141 2h-209l-51 -295h-189l53 295h-737l23 121l583 977h199l-547 -930h508l78 432h186l-75 -432h208z" />
    <glyph glyph-name="five.osf" horiz-adv-x="1204" 
d="M870 193q0 104 -72 167q-73 63 -202 64l-221 -2l31 170h241q188 0 300 -102t112 -265q0 -223 -170 -380q-171 -157 -403 -157t-348 110q-116 108 -113 296h190q20 -238 287 -237q154 -1 261 99t107 237zM375 422h-180l122 690h836l-31 -174h-655z" />
    <glyph glyph-name="six.osf" horiz-adv-x="1261" 
d="M565 127q164 0 281 110t117 261q0 118 -78 194q-79 76 -217 76t-242 -82q-78 -78 -111 -145t-32 -142q-1 -117 77 -195t205 -77zM711 940q203 0 325 -114t121 -294q0 -238 -177 -400t-441 -163q-203 0 -325 117t-122 297q0 109 44 199t140 206l521 605h231l-389 -457
q45 4 72 4z" />
    <glyph glyph-name="seven.osf" horiz-adv-x="1030" 
d="M1108 1106l-21 -119l-837 -1274h-217l798 1211h-714l33 182h958z" />
    <glyph glyph-name="eight.osf" horiz-adv-x="1277" 
d="M645 655q-141 0 -247 -84q-106 -83 -105 -197q-1 -114 75 -178t216 -65q140 0 249 88q108 88 107 215q0 96 -77 158t-218 63zM1014 1046q0 102 -66 164q-66 60 -191 60q-124 0 -220 -81q-97 -81 -97 -185t67 -159q67 -57 193 -57t220 78t94 180zM1153 441
q0 -204 -171 -338t-441 -134q-215 1 -339 99t-124 250t85 257q85 106 234 162q-147 84 -147 259t160 301t368 126t319 -93t111 -228q-1 -261 -252 -369q197 -88 197 -292z" />
    <glyph glyph-name="nine.osf" horiz-adv-x="1261" 
d="M1004 700q0 117 -78 195t-205 78q-164 0 -281 -110t-116 -261q0 -118 78 -194t213 -76q136 0 245 82q78 78 111 145t33 141zM748 1130q202 0 324 -116t122 -297q0 -109 -44 -198t-140 -206l-521 -606h-231l391 459q-45 -4 -74 -4q-201 0 -323 112t-123 293q0 238 177 401
q178 162 442 162z" />
    <glyph glyph-name="zero.tf" horiz-adv-x="1267" 
d="M556 145q152 -1 270 99t176 256t62 340t-70 296q-75 112 -224 111q-228 0 -368 -205t-144 -487q-4 -186 70 -298t228 -112zM791 1423q227 1 350 -155t123 -412q0 -375 -204 -631t-528 -256q-227 0 -349 156t-122 412q0 375 203 631t527 255z" />
    <glyph glyph-name="one.tf" horiz-adv-x="1267" 
d="M1126 162l-28 -162h-1028l28 162h414l180 1018l-381 -119l29 168l473 164h111l-217 -1231h419z" />
    <glyph glyph-name="two.tf" horiz-adv-x="1267" 
d="M993 1047q0 90 -59 149t-177 59q-118 1 -208 -69t-121 -189h-190q43 193 190 310t349 117t308 -101q107 -101 107 -245t-79 -248t-312 -318l-379 -350h635l-29 -162h-926l19 102l528 492q111 99 129 117t86 84t87 110l22 44q20 43 20 98z" />
    <glyph glyph-name="three.tf" horiz-adv-x="1267" 
d="M1102 424q0 -196 -148 -324q-148 -129 -372 -129q-226 1 -351 107t-116 278h190q2 -100 71 -158q68 -58 206 -58t236 77q97 79 97 185t-70 161q-71 55 -194 55h-110l26 158h113q131 0 217 79t86 183t-60 159q-60 54 -170 54t-187 -57t-107 -158h-191q44 174 182 278
t326 103q188 0 290 -93q102 -92 103 -232q0 -279 -231 -390q164 -82 164 -278z" />
    <glyph glyph-name="four.tf" horiz-adv-x="1267" 
d="M1163 295h-209l-51 -295h-188l51 295h-735l22 121l584 977h199l-547 -930h508l75 432h189l-76 -432h207z" />
    <glyph glyph-name="five.tf" horiz-adv-x="1267" 
d="M950 473q0 104 -72 168q-73 63 -202 64l-221 -3l30 170h242q188 0 300 -101t112 -265q0 -223 -170 -380q-171 -157 -403 -157t-348 109t-114 297h191q20 -238 287 -238q154 -1 261 99t107 237zM455 702h-181l123 691h836l-31 -174h-655z" />
    <glyph glyph-name="six.tf" horiz-adv-x="1267" 
d="M584 127q144 0 262 110q117 110 117 261q0 118 -77 194t-213 76t-245 -80l-8 -10q-78 -82 -107 -142t-28 -137q-1 -117 77 -195t222 -77zM711 940q203 0 325 -114t121 -294q0 -238 -177 -400t-441 -163q-203 0 -325 117t-122 297q0 109 44 198t143 207l518 605h231
l-389 -457q45 4 72 4z" />
    <glyph glyph-name="seven.tf" horiz-adv-x="1267" 
d="M1284 1393l-18 -119l-838 -1274h-219l799 1210h-713l31 183h958z" />
    <glyph glyph-name="eight.tf" horiz-adv-x="1267" 
d="M594 131q142 0 250 88t106 215q0 96 -77 158t-219 63q-142 0 -246 -84q-104 -83 -104 -197t74 -178t216 -65zM1024 1046q0 102 -66 164q-66 60 -191 60q-124 0 -221 -81t-97 -185q-1 -104 67 -159q68 -57 192 -57t221 78q95 78 95 180zM549 -31q-215 1 -339 99t-124 250
t85 257q85 106 235 162q-148 80 -148 257t160 303t368 126t319 -93q112 -93 112 -228q-1 -136 -67 -228t-183 -141q197 -88 197 -292t-173 -338q-172 -134 -442 -134z" />
    <glyph glyph-name="nine.tf" horiz-adv-x="1214" 
d="M1026 993q0 117 -78 195t-205 78q-165 0 -281 -110t-116 -261q0 -117 78 -194t214 -77t245 83q79 79 111 145q32 67 32 141zM770 1423q203 -1 325 -117t122 -296q-1 -109 -45 -198t-140 -206l-520 -606h-231l391 459q-45 -4 -74 -4q-201 1 -324 113t-122 292
q0 238 178 400t440 163z" />
    <glyph glyph-name="zero.zero" horiz-adv-x="1468" 
d="M674 145q238 0 381 201t143 492q0 84 -18 157l-760 -727q90 -123 254 -123zM866 1247q-238 1 -381 -199t-143 -491q0 -55 10 -121l746 717q-89 94 -232 94zM899 1423q240 -1 369 -159t129 -410t-93 -451q-94 -199 -268 -317t-404 -117q-230 0 -361 159q-130 159 -130 427
q0 367 212 617t546 251z" />
    <glyph glyph-name="zero.osf.zero" horiz-adv-x="1357" 
d="M623 147q186 1 322 137t136 341q0 70 -18 125l-670 -512q87 -91 230 -91zM766 958q-190 0 -326 -135t-137 -342q0 -63 14 -108l664 508q-88 77 -215 77zM788 1130q216 0 350 -131t134 -346q0 -295 -195 -486t-479 -192q-217 1 -351 133t-134 347q0 295 195 485t480 190z
" />
    <glyph glyph-name="zero.dnom" horiz-adv-x="903" 
d="M387 115q131 0 209 103t78 245q0 99 -47 161t-138 62q-129 0 -207 -103t-77 -245q0 -98 46 -160t136 -63zM514 819q147 0 228 -94t81 -244q0 -209 -128 -354t-330 -145q-147 0 -229 94q-81 94 -81 246q0 207 129 352t330 145z" />
    <glyph glyph-name="one.dnom" horiz-adv-x="657" 
d="M561 121l-22 -121h-576l23 121h223l92 526l-223 -65l20 125l293 94h76l-121 -680h215z" />
    <glyph glyph-name="two.dnom" horiz-adv-x="743" 
d="M522 589q0 48 -30 75q-31 27 -84 26q-139 0 -170 -129h-144q25 117 112 188t211 71q125 0 189 -59t64 -139t-43 -144t-164 -173l-207 -184h342l-23 -121h-575l12 76l338 295q100 84 136 127t36 91z" />
    <glyph glyph-name="three.dnom" horiz-adv-x="768" 
d="M631 246q0 -108 -90 -186q-89 -78 -227 -78t-215 64t-74 171h145q4 -109 143 -108q78 -1 128 37t51 96q0 98 -148 98h-68l23 117h66q69 0 115 39t46 90q0 104 -120 103t-152 -107h-143q29 109 114 171q86 62 201 62t176 -56t62 -147q0 -139 -121 -211q88 -47 88 -155z
" />
    <glyph glyph-name="four.dnom" horiz-adv-x="833" 
d="M705 162h-117l-29 -162h-141l28 162h-438l17 90l337 549h150l-309 -514h264l41 235h141l-41 -235h117z" />
    <glyph glyph-name="five.dnom" horiz-adv-x="786" 
d="M516 264q0 122 -137 123h-256l74 414h514l-23 -131h-379l-28 -158h125q122 0 186 -58t63 -157q0 -133 -102 -224q-101 -91 -243 -91t-212 63t-69 174h143q14 -111 150 -110q82 -1 138 47t56 108z" />
    <glyph glyph-name="six.dnom" horiz-adv-x="776" 
d="M324 100q76 0 136 52t60 122t-40 108t-114 38t-128 -45q-73 -58 -73 -127q1 -68 43 -108t116 -40zM397 547q123 0 196 -67t73 -171q0 -135 -106 -231t-246 -96t-215 70t-74 173q1 61 27 113t87 127l289 336h170l-215 -254h14z" />
    <glyph glyph-name="seven.dnom" horiz-adv-x="663" 
d="M686 801l-16 -88l-477 -713h-164l446 664h-397l24 137h584z" />
    <glyph glyph-name="eight.dnom" horiz-adv-x="821" 
d="M524 246q0 116 -148 114q-72 0 -125 -41q-52 -41 -52 -97t38 -87q37 -31 109 -31t125 42t53 100zM436 705q-62 0 -110 -40q-48 -39 -50 -93q0 -54 35 -83t97 -29t112 40q49 39 49 93q-1 112 -133 112zM684 251q0 -114 -102 -192q-102 -77 -250 -77t-222 58t-75 143
q0 167 174 241q-76 48 -76 148t95 174q94 74 222 73q128 0 198 -55t69 -141q0 -137 -135 -203q102 -55 102 -169z" />
    <glyph glyph-name="nine.dnom" horiz-adv-x="776" 
d="M582 560q0 64 -42 104t-117 38q-75 0 -135 -52t-60 -122t39 -107q40 -38 119 -38t128 49q68 64 68 128zM434 821q140 1 214 -69t75 -174q0 -62 -27 -114t-88 -124l-289 -338h-169l215 254h-15q-124 0 -196 67t-72 171q0 135 106 231t246 96z" />
    <glyph glyph-name="zero.numr" horiz-adv-x="903" 
d="M494 709q130 0 208 103t78 245q0 99 -47 161t-137 62q-129 0 -207 -103t-78 -245q0 -98 46 -161q47 -62 137 -62zM621 1413q147 0 228 -94t81 -244q0 -209 -128 -354t-331 -146q-147 1 -228 95t-81 245q0 207 129 353t330 145z" />
    <glyph glyph-name="one.numr" horiz-adv-x="657" 
d="M668 715l-23 -121h-575l22 121h223l93 526l-224 -65l21 124l293 95h75l-120 -680h215z" />
    <glyph glyph-name="two.numr" horiz-adv-x="743" 
d="M629 1183q0 49 -31 75t-84 26q-139 0 -170 -129h-143q25 117 111 187t211 71q124 0 189 -58q64 -59 64 -139t-43 -144t-164 -173l-207 -184h343l-23 -121h-576l13 76l338 295q100 84 136 127t36 91z" />
    <glyph glyph-name="three.numr" horiz-adv-x="768" 
d="M737 849q0 -109 -90 -187t-227 -78t-214 64t-75 171h145q4 -109 144 -108q78 0 128 38t50 95q0 98 -147 98h-68l23 117h65q70 0 116 39t46 90q0 104 -120 103t-153 -107h-143q29 109 115 171t201 62t176 -56t61 -147q0 -138 -121 -210q88 -47 88 -155z" />
    <glyph glyph-name="four.numr" horiz-adv-x="833" 
d="M811 756h-117l-28 -162h-142l29 162h-438l16 90l338 549h149l-309 -514h264l41 235h142l-41 -235h116z" />
    <glyph glyph-name="five.numr" horiz-adv-x="786" 
d="M428 702q82 0 138 48t57 108q0 122 -138 123h-256l74 414h514l-22 -131h-379l-29 -158h125q122 0 186 -58t64 -157q0 -133 -102 -224t-244 -91q-141 0 -211 62q-70 64 -70 175h144q14 -111 149 -111z" />
    <glyph glyph-name="six.numr" horiz-adv-x="776" 
d="M431 694q75 0 135 52t60 122t-39 108q-40 38 -119 38t-128 -49q-68 -63 -68 -128t42 -104t117 -39zM504 1141q124 0 196 -67t72 -171q0 -135 -106 -231t-246 -96t-214 69q-74 70 -75 174q0 61 27 113t88 127l289 336h170l-216 -254h15z" />
    <glyph glyph-name="seven.numr" horiz-adv-x="663" 
d="M793 1395l-17 -88l-477 -713h-164l447 663h-398l25 138h584z" />
    <glyph glyph-name="eight.numr" horiz-adv-x="821" 
d="M633 848q-1 115 -149 115q-72 0 -124 -41q-52 -42 -53 -98q0 -56 38 -86q37 -30 109 -31q72 0 126 42q53 42 53 99zM546 1307q-62 0 -112 -40q-49 -39 -49 -93t35 -82q36 -28 98 -29q62 0 111 39t49 93t-35 83t-97 29zM440 584q-148 0 -222 58q-75 58 -75 144
q0 166 174 240q-75 48 -75 148t95 174t222 74t197 -56q70 -55 69 -141q0 -137 -135 -203q102 -55 102 -169q0 -113 -102 -191t-250 -78z" />
    <glyph glyph-name="nine.numr" horiz-adv-x="776" 
d="M530 1305q-74 -1 -136 -53q-60 -52 -60 -122t40 -107q40 -38 114 -38t128 45q73 58 73 127q-1 69 -43 109t-116 39zM188 1096q0 135 106 231t246 96q140 1 215 -69t74 -174q-1 -62 -27 -114t-87 -124l-289 -338h-170l215 254h-14q-123 0 -196 67t-73 171z" />
    <glyph glyph-name="backslash.case" horiz-adv-x="761" 
d="M49 1495h197l465 -1591h-195z" />
    <glyph glyph-name="bullet.case" horiz-adv-x="663" 
d="M362 430q-100 0 -176 75t-75 175q0 100 74 175q75 75 177 75t178 -75t74 -175q0 -100 -76 -175t-176 -75z" />
    <glyph glyph-name="exclamdown.case" horiz-adv-x="557" 
d="M272 989h170l-159 -989h-199zM413 1411q50 0 86 -35t36 -84t-36 -83q-36 -33 -86 -33t-86 34t-36 83q0 50 36 84t86 34z" />
    <glyph glyph-name="periodcentered.case" horiz-adv-x="395" 
d="M236 563q-51 0 -86 33t-35 84t35 84t86 33t86 -33q34 -33 34 -84t-34 -84t-86 -33z" />
    <glyph glyph-name="questiondown.case" horiz-adv-x="1128" 
d="M499 -25q-183 1 -292 103t-109 281t140 309t354 143l39 176h147l-37 -307h-112q-141 0 -243 -90t-101 -221q0 -99 63 -163q62 -64 166 -64t189 58t118 152h189q-52 -172 -190 -274t-321 -103zM885 1292q0 -48 -36 -82t-86 -34t-86 34t-36 83q0 50 36 84t86 34t86 -35
t36 -84z" />
    <glyph glyph-name="slash.case" horiz-adv-x="761" 
d="M-53 -96l745 1591h197l-748 -1591h-194z" />
    <glyph glyph-name="braceleft.case" horiz-adv-x="727" 
d="M563 1159l-35 -196q-18 -113 -60 -171t-134 -87q82 -29 102 -87t2 -172l-35 -194q-14 -84 30 -135t130 -51l-33 -183q-170 -1 -257 101t-58 268l35 188q18 109 -18 145t-142 36l29 167q106 0 155 36t68 145l33 190q29 164 151 265q123 101 293 102l-31 -183
q-86 0 -148 -53t-77 -131z" />
    <glyph glyph-name="braceright.case" horiz-adv-x="724" 
d="M244 252l32 194q20 113 62 171t135 88q-81 29 -103 87t-1 171l34 196q14 82 -29 133q-44 51 -130 51l32 183q170 0 258 -102t56 -265l-33 -190q-17 -109 17 -145t143 -36l-29 -167q-109 0 -158 -36t-67 -145l-31 -188q-30 -166 -152 -267t-292 -102l30 183q84 0 147 53
t79 133z" />
    <glyph glyph-name="bracketleft.case" horiz-adv-x="759" 
d="M295 84h291l-35 -180h-477l282 1591h478l-33 -180h-289z" />
    <glyph glyph-name="bracketright.case" horiz-adv-x="759" 
d="M543 1315h-289l33 180h477l-281 -1591h-477l31 180h289z" />
    <glyph glyph-name="parenleft.case" horiz-adv-x="749" 
d="M698 1501l99 -137q-201 -166 -300 -311t-139 -347t10 -358q50 -154 191 -317l-143 -123q-344 348 -256 809q42 242 170 425t368 359z" />
    <glyph glyph-name="parenright.case" horiz-adv-x="749" 
d="M268 1378l144 123q344 -346 258 -809q-45 -242 -173 -425t-366 -359l-100 137q203 166 302 311t138 353q41 197 -9 350q-51 153 -194 319z" />
    <glyph glyph-name="emdash.case" horiz-adv-x="2084" 
d="M1880 592h-1640l32 186h1643z" />
    <glyph glyph-name="endash.case" horiz-adv-x="1462" 
d="M1257 590h-1017l32 188h1018z" />
    <glyph glyph-name="hyphen.case" horiz-adv-x="1132" 
d="M928 590h-688l32 186h689z" />
    <glyph glyph-name="guillemotleft.case" horiz-adv-x="899" 
d="M895 995l-266 -315l155 -301h-182l-158 309l267 307h184zM543 995l-267 -315l156 -301h-184l-156 309l266 307h185z" />
    <glyph glyph-name="guillemotright.case" horiz-adv-x="899" 
d="M430 379l266 317l-155 299h184l156 -307l-267 -309h-184zM78 379l266 317l-158 299h185l157 -307l-266 -309h-184z" />
    <glyph glyph-name="guilsinglleft.case" horiz-adv-x="546" 
d="M543 995l-267 -315l156 -301h-184l-156 309l266 307h185z" />
    <glyph glyph-name="guilsinglright.case" horiz-adv-x="546" 
d="M63 379l267 317l-156 299h184l156 -307l-264 -309h-187z" />
    <glyph glyph-name="florin.tf" horiz-adv-x="1267" 
d="M1163 1229q-182 0 -250 -211l-77 -258h346l-29 -160h-367l-127 -412q-55 -180 -167 -283t-273 -104q-100 0 -205 31l56 164q86 -20 145 -21q182 0 250 213l127 412h-266l26 160h289l78 258q57 178 169 281t271 104q100 0 205 -31l-55 -162q-93 19 -146 19z" />
    <glyph glyph-name="cent.tf" horiz-adv-x="1267" 
d="M688 809q-138 0 -244 -95t-131 -237h2q-25 -145 46 -237t212 -93q101 1 183 53t118 138h193q-51 -144 -176 -242t-283 -116l-41 -224h-170l41 230q-176 33 -260 166t-51 325h-2q33 187 168 323t319 171l45 256h170l-45 -250q152 -17 243 -115t89 -246h-192q-6 88 -69 140
t-165 53z" />
    <glyph glyph-name="dollar.tf" horiz-adv-x="1267" 
d="M426 993q0 -139 223 -184l187 -39q342 -68 342 -315q0 -205 -161 -339t-415 -145l-41 -229h-170l43 240q-190 33 -288 154q-97 122 -83 315h195q-8 -306 350 -306q162 0 262 72t101 186q0 141 -201 179l-227 45q-340 66 -328 346q8 184 140 300t331 142l43 244h170
l-41 -238q197 -14 316 -118q118 -105 106 -306h-195q2 121 -72 190q-75 69 -231 69t-256 -74q-100 -72 -100 -189z" />
    <glyph glyph-name="Euro.tf" horiz-adv-x="1267" 
d="M668 145q172 0 270 111h233q-86 -135 -225 -211t-309 -76q-217 0 -346 131t-152 355h-121l25 137h92q6 94 21 170h-84l24 137h99q84 238 268 381t430 143q182 0 298 -87t146 -238h-219q-24 72 -92 110t-164 39q-160 0 -280 -94t-185 -254h607l-60 -137h-588
q-16 -78 -20 -170h536l-57 -137h-471q25 -143 107 -227t217 -83z" />
    <glyph glyph-name="sterling.tf" horiz-adv-x="1267" 
d="M853 1423q212 0 324 -111q111 -112 99 -300h-191q3 112 -65 178t-196 66t-226 -86q-98 -85 -123 -226l-37 -207h455l-29 -164h-454l-72 -409h770l-31 -164h-1100l31 164h142l71 409h-141l29 164h141l37 207q39 215 196 347q158 132 370 132z" />
    <glyph glyph-name="yen.tf" horiz-adv-x="1267" 
d="M786 567h326l-25 -139h-368l-21 -121h369l-25 -141h-370l-29 -166h-199l29 166h-371l25 141h373l20 121h-370l22 139h330l-291 826h217l238 -701l481 701h217z" />
    <glyph glyph-name="arrowdown.ss05" horiz-adv-x="1419" 
d="M1229 825l-518 -518l-518 520l114 117l404 -407l401 405z" />
    <glyph glyph-name="arrowleft.ss05" horiz-adv-x="1419" 
d="M1112 313l-401 406l-404 -408l-114 117l518 520l518 -518z" />
    <glyph glyph-name="arrowright.ss05" horiz-adv-x="1167" 
d="M467 696l401 -401l-114 -117l-521 518l523 518l116 -114z" />
    <glyph glyph-name="arrowup.ss05" horiz-adv-x="1153" 
d="M920 696l-519 -518l-116 117l401 401l-403 404l114 114z" />
    <glyph glyph-name="at.case" horiz-adv-x="1992" 
d="M956 358q154 0 269 138q4 49 12 98l29 160q-66 133 -215 133q-121 0 -217 -86q-96 -85 -96 -203t62 -179t156 -61zM1174 1483q326 0 528 -200t203 -519q0 -319 -186 -471q-99 -82 -242 -82q-193 0 -240 137q-141 -141 -332 -141q-152 0 -247 98t-95 250q1 201 147 341
t341 140q158 0 247 -94l13 70h168l-80 -455q-37 -205 102 -205q127 0 194 113t66 285q0 260 -171 429t-439 169q-166 0 -326 -66q-329 -136 -475 -435q-74 -153 -74 -319q0 -262 176 -436t438 -174q263 0 492 160l58 -117q-260 -178 -577 -178t-525 205t-209 520
q0 199 88 381q173 358 565 517q191 77 392 77z" />
    <glyph glyph-name="bar.case" horiz-adv-x="530" 
d="M532 1495l-280 -1591h-176l280 1591h176z" />
    <glyph glyph-name="brokenbar.case" horiz-adv-x="530" 
d="M252 -96h-176l123 690h176zM412 803h-176l120 692h176z" />
    <glyph glyph-name="registered.ss07" horiz-adv-x="1740" 
d="M764 694h158q74 0 116 35t43 93q0 58 -43 93t-116 35h-158v-256zM924 1061q126 0 202 -66t76 -160q0 -182 -170 -231l193 -244h-148l-176 230h-137v-230h-117v701h277zM895 96q250 0 431 174t181 426t-181 426t-431 174t-430 -174t-180 -426t180 -426t430 -174zM897 1423
q307 0 526 -209t219 -518t-219 -518t-526 -209t-526 209t-219 518t219 518t526 209z" />
    <glyph glyph-name="caron.alt" 
d="M750 1393l-134 -394h-145l86 394h193z" />
    <glyph glyph-name="acute.case" 
d="M961 1796l-248 -299h-174l213 299h209z" />
    <glyph glyph-name="breve.case" 
d="M641 1505q-133 0 -205 78t-47 223h139q-14 -88 24 -130t104 -42t124 43q56 43 70 129h147q-25 -145 -124 -223t-232 -78z" />
    <glyph glyph-name="caron.case" 
d="M1075 1790l-301 -303h-188l-195 303h170l133 -197l199 197h182z" />
    <glyph glyph-name="circumflex.case" 
d="M694 1683l-194 -196h-189l303 303h189l192 -303h-170z" />
    <glyph glyph-name="dieresis.case" 
d="M858 1769q51 -1 86 -33t35 -81t-35 -83t-86 -34t-85 34t-34 83t34 81t85 33zM467 1769q51 -1 85 -33t34 -81t-34 -83t-85 -34t-85 34t-34 83t34 81t85 33z" />
    <glyph glyph-name="dotaccent.case" 
d="M637 1534q-53 0 -89 35t-36 86t36 86t89 35t89 -35t36 -86t-36 -86t-89 -35z" />
    <glyph glyph-name="grave.case" 
d="M776 1497h-172l-196 299h208z" />
    <glyph glyph-name="hungarumlaut.case" 
d="M997 1796l-168 -299h-159l133 299h194zM711 1796l-170 -299h-160l133 299h197z" />
    <glyph glyph-name="macron.case" 
d="M956 1675l-26 -139h-572l27 139h571z" />
    <glyph glyph-name="ring.case" 
d="M657 1618q47 0 77 30t30 76t-30 75q-30 30 -76 30t-76 -30t-31 -75q-1 -46 29 -76t77 -30zM658 1929q96 0 156 -57q60 -58 60 -148t-60 -148t-156 -58t-155 58q-60 58 -61 148q0 90 60 148t156 57z" />
    <glyph glyph-name="tilde.case" 
d="M858 1769h131q0 -98 -52 -154t-122 -56t-141 30l-68 39q-59 32 -102 14t-43 -73h-131q-2 76 29 126q55 87 183 82q54 -3 101 -28l68 -39q67 -32 107 -14t40 73z" />
    </font>
</defs>
</svg>
