<?xml version="1.0" standalone="no"?>
<!DOCTYPE svg PUBLIC "-//W3C//DTD SVG 1.1//EN" "http://www.w3.org/Graphics/SVG/1.1/DTD/svg11.dtd" >
<svg xmlns="http://www.w3.org/2000/svg">
<metadata>
Created by FontPrep 20130207 at Tue May 20 17:24:49 2014
 By Adrien
Copyright (c) 2014 by Rene' Bieder. All rights reserved.
</metadata>
<defs>
<font id="90153ef67054648aae573f44ca7335c5" horiz-adv-x='1024' >
  <font-face 
    font-family="Campton-MediumItalic"
    font-weight="550"
    font-style="italic"
    font-stretch="normal"
    units-per-em="2048"
    panose-1="0 0 6 0 0 0 0 0 0 0"
    ascent="1638"
    descent="-410"
    x-height="969"
    cap-height="1393"
    bbox="-168 -508 3054 1993.02"
    underline-thickness="102"
    underline-position="-102"
    slope="-10"
    unicode-range="U+0020-FB02"
  />
<missing-glyph horiz-adv-x="1781" 
d="M348 143h977l-977 977v-977zM1434 1249h-985l985 -985v985zM1577 1393v-1393h-1372v1393h1372z" />
    <glyph glyph-name="fi" unicode="fi" horiz-adv-x="1433" 
d="M848 1337q-74 0 -138 -53t-81 -143l-31 -172h768l-170 -969h-235l135 770h-533l-133 -770h-237l135 770h-273l37 199h270l31 172q35 186 163 300q128 113 294 113t418 -84l-70 -206q-145 48 -210 60q-66 13 -140 13z" />
    <glyph glyph-name="fl" unicode="fl" horiz-adv-x="1413" 
d="M1446 1454l-258 -1454h-238l258 1454h238zM849 1337q-75 0 -139 -54t-81 -144l-31 -170h342l-35 -199h-342l-135 -770h-235l135 770h-273l37 199h270l31 172q33 186 161 300t306 113q111 0 217 -30l-69 -205q-84 18 -159 18z" />
    <glyph glyph-name=".notdef" horiz-adv-x="1781" 
d="M348 143h977l-977 977v-977zM1434 1249h-985l985 -985v985zM1577 1393v-1393h-1372v1393h1372z" />
    <glyph glyph-name=".null" horiz-adv-x="0" 
 />
    <glyph glyph-name="nonmarkingreturn" horiz-adv-x="681" 
 />
    <glyph glyph-name="space" unicode=" " horiz-adv-x="538" 
 />
    <glyph glyph-name="exclam" unicode="!" horiz-adv-x="575" 
d="M369 123q1 -59 -43 -100t-104 -41t-103 41t-43 100t43 100t103 41t104 -41t43 -100zM385 430h-211l152 963h247z" />
    <glyph glyph-name="quotedbl" unicode="&#x22;" horiz-adv-x="677" 
d="M750 1393l-101 -566h-200l100 566h201zM438 1393l-102 -566h-201l103 566h200z" />
    <glyph glyph-name="numbersign" unicode="#" horiz-adv-x="1558" 
d="M696 795l-110 -230h317l111 230h-318zM1149 565h233l-39 -213h-301l-170 -352h-245l170 352h-318l-170 -352h-246l170 352h-200l37 213h270l111 230h-226l37 213h293l190 387h246l-190 -387h317l191 387h245l-190 -387h211l-39 -213h-276z" />
    <glyph glyph-name="dollar" unicode="$" horiz-adv-x="1368" 
d="M967 399q0 119 -176 150l-224 45q-344 66 -329 367q8 188 139 304t328 148l40 232h213l-38 -226q188 -17 306 -123t101 -315h-244q4 109 -60 170q-65 61 -204 61t-227 -62t-88 -165q0 -121 196 -162l170 -35q356 -74 357 -321q0 -207 -158 -342t-405 -152l-39 -219h-213
l41 232q-186 35 -283 158q-96 124 -78 311h244q-8 -267 321 -267q141 0 225 58t85 153z" />
    <glyph glyph-name="percent" unicode="%" horiz-adv-x="2236" 
d="M1442 345q0 -99 53 -153t147 -53q94 0 176 76q80 76 80 175q0 98 -52 152t-147 54t-176 -76t-81 -175zM1739 766q152 0 246 -92t94 -242q-1 -199 -143 -331t-339 -132q-149 0 -243 92t-94 244q0 197 142 329t337 132zM584 797q95 0 176 76q80 77 80 177t-52 151
q-52 52 -148 52q-96 1 -176 -75t-81 -176q0 -100 53 -152q53 -53 148 -53zM735 0h-166l947 1393h165zM682 1423q152 0 246 -92t94 -241q0 -199 -142 -331t-339 -132q-152 0 -245 93t-93 243q0 199 142 329t337 131z" />
    <glyph glyph-name="ampersand" unicode="&#x26;" horiz-adv-x="1480" 
d="M289 374q-1 -80 69 -136q70 -58 193 -58t258 88l-320 355q-92 -39 -146 -104t-54 -145zM942 1022q4 190 -167 190q-85 0 -151 -60t-65 -142q0 -82 49 -154q49 -70 178 -211l195 -217l233 285h248l-354 -430l252 -283h-311l-111 123q-203 -152 -423 -152q-220 1 -341 101
t-121 256t87 270q87 115 237 180q-63 102 -64 203q0 188 150 315t343 127t289 -108q95 -109 85 -293h-238z" />
    <glyph glyph-name="quotesingle" unicode="'" horiz-adv-x="364" 
d="M438 1393l-100 -566h-201l101 566h200z" />
    <glyph glyph-name="parenleft" unicode="(" horiz-adv-x="798" 
d="M719 1507l141 -172q-217 -188 -331 -343q-115 -155 -153 -376t15 -391t193 -342l-178 -153q-176 176 -246 412t-23 495q86 499 582 870z" />
    <glyph glyph-name="parenright" unicode=")" horiz-adv-x="796" 
d="M260 1354l180 153q176 -180 245 -414t22 -493q-86 -504 -580 -870l-143 170q217 188 330 344q114 156 153 376t-15 390t-192 344z" />
    <glyph glyph-name="asterisk" unicode="*" horiz-adv-x="833" 
d="M842 1223l35 -127l-222 -56l148 -145l-98 -96l-146 145l-55 -219l-129 35l57 227l-227 -57l-39 131l221 53l-145 146l98 96l145 -146l54 224l131 -37l-58 -228z" />
    <glyph glyph-name="plus" unicode="+" horiz-adv-x="1404" 
d="M827 567l-63 -362h-227l63 362h-375l39 217h375l63 363h226l-64 -363h377l-39 -217h-375z" />
    <glyph glyph-name="comma" unicode="," horiz-adv-x="434" 
d="M12 106q0 58 42 98t102 40t102 -40q43 -40 43 -105t-84 -173l-119 -162h-141l143 224q-88 37 -88 118z" />
    <glyph glyph-name="hyphen" unicode="-" horiz-adv-x="1130" 
d="M944 655l-41 -235h-704l41 235h704z" />
    <glyph glyph-name="period" unicode="." horiz-adv-x="428" 
d="M150 -35q-61 0 -104 40q-42 40 -42 100q0 61 42 101t104 40t104 -40q43 -40 43 -100t-43 -101q-43 -40 -104 -40z" />
    <glyph glyph-name="slash" unicode="/" horiz-adv-x="829" 
d="M127 -328h-229l841 1823h228z" />
    <glyph glyph-name="zero" unicode="0" horiz-adv-x="1470" 
d="M680 190q217 0 346 188t129 453q0 163 -76 267t-221 104q-219 0 -348 -186t-129 -453q0 -165 76 -269t223 -104zM897 1423q244 1 376 -161t132 -431q0 -358 -215 -610t-551 -252q-244 0 -376 162t-132 432q0 358 214 609t552 251z" />
    <glyph glyph-name="one" unicode="1" horiz-adv-x="1056" 
d="M963 201l-37 -201h-957l37 201h367l164 929l-367 -110l35 209l483 164h139l-211 -1192h347z" />
    <glyph glyph-name="two" unicode="2" horiz-adv-x="1146" 
d="M662 1212q-104 0 -179 -61q-76 -61 -104 -170h-238q43 201 191 322t355 121t315 -103q108 -102 108 -254q0 -95 -52 -189q-40 -77 -315 -343l-346 -334h582l-37 -201h-934l23 127l520 510q239 222 274 287t35 128q0 62 -47 111t-151 49z" />
    <glyph glyph-name="three" unicode="3" horiz-adv-x="1148" 
d="M1051 444q1 -213 -147 -343t-376 -130t-355 111q-126 111 -120 291h238q14 -193 231 -193q127 0 211 68t84 159t-64 139q-65 48 -178 48l17 90l18 109l-35 -199h-108l35 199h108q117 1 193 69t76 160q1 92 -49 138t-136 46q-201 0 -258 -190h-237q45 182 186 292t331 110
t294 -98q102 -97 102 -253q0 -246 -211 -367q150 -86 150 -256z" />
    <glyph glyph-name="four" unicode="4" horiz-adv-x="1308" 
d="M1198 283h-194l-50 -283h-235l49 283h-721l27 151l567 959h250l-524 -901h438l74 415h235l-74 -415h193z" />
    <glyph glyph-name="five" unicode="5" horiz-adv-x="1208" 
d="M692 887q188 -1 300 -105t112 -270q0 -225 -171 -384t-405 -159t-351 111q-116 111 -111 301h239q20 -203 246 -203q133 0 225 87t92 193t-64 164q-65 56 -179 56h-400l127 715h852l-41 -219h-624l-52 -287h205z" />
    <glyph glyph-name="six" unicode="6" horiz-adv-x="1263" 
d="M595 166q128 0 231 98q104 98 104 215t-69 186t-187 69t-211 -66q-76 -76 -106 -134q-30 -59 -29 -126q0 -100 70 -171t197 -71zM719 948q207 0 331 -116t124 -295q0 -238 -180 -403t-449 -165q-207 0 -331 119t-124 301q0 109 44 197t149 217l489 590h287l-367 -445h27z
" />
    <glyph glyph-name="seven" unicode="7" horiz-adv-x="1032" 
d="M1163 1393l-24 -148l-801 -1245h-272l751 1163h-659l39 230h966z" />
    <glyph glyph-name="eight" unicode="8" horiz-adv-x="1282" 
d="M586 172q120 0 215 78q94 78 94 174t-67 152q-66 56 -186 57q-120 0 -212 -75t-92 -173t64 -156q64 -57 184 -57zM698 801q109 -1 192 71t83 162q1 90 -57 144t-166 53q-108 0 -193 -72q-84 -72 -84 -164t58 -143t167 -51zM1163 439q0 -200 -174 -335t-450 -135
q-221 -1 -347 99t-126 250t78 256q79 105 218 163q-129 88 -129 242q0 190 162 317t400 127q190 0 306 -94t116 -244q-1 -241 -232 -354q178 -92 178 -292z" />
    <glyph glyph-name="nine" unicode="9" horiz-adv-x="1263" 
d="M1022 1001q0 84 -70 155t-198 71q-128 -1 -230 -99q-104 -98 -104 -214t68 -186q68 -69 187 -69q118 0 212 66q75 76 105 134t30 142zM805 1423q207 -1 331 -119t124 -300q0 -109 -44 -197t-149 -217l-489 -590h-287l366 444h-26q-207 0 -331 116t-124 296q0 238 180 402
t449 165z" />
    <glyph glyph-name="colon" unicode=":" horiz-adv-x="428" 
d="M143 -35q-61 0 -103 40t-42 100q0 61 42 101t103 40t105 -40t43 -100q1 -60 -43 -101q-44 -40 -105 -40zM279 717q-61 0 -104 40q-42 40 -42 100t42 100q41 40 103 40t104 -40t42 -100t-42 -100t-103 -40z" />
    <glyph glyph-name="semicolon" unicode=";" horiz-adv-x="430" 
d="M4 106q0 58 42 98t102 40t102 -40t43 -105q0 -65 -84 -173l-117 -162h-143l143 224q-88 37 -88 118zM282 717q-60 0 -104 41q-43 41 -43 100t43 99q44 40 104 40t103 -40t43 -100t-43 -100t-103 -40z" />
    <glyph glyph-name="less" unicode="&#x3c;" horiz-adv-x="1101" 
d="M131 741l934 396l-43 -250l-649 -277l553 -270l-43 -229l-793 395z" />
    <glyph glyph-name="equal" unicode="=" horiz-adv-x="1415" 
d="M1176 350h-988l37 217h987zM1247 756h-987l37 219h987z" />
    <glyph glyph-name="greater" unicode="&#x3e;" horiz-adv-x="1101" 
d="M1018 506l-932 -395l41 249l649 277l-551 270l41 230l795 -396z" />
    <glyph glyph-name="question" unicode="?" horiz-adv-x="1093" 
d="M429 264q60 0 103 -41t43 -100t-43 -100t-103 -41t-103 41t-43 100t43 100t103 41zM684 1417q190 0 302 -103q112 -102 112 -284t-134 -307t-348 -143l-36 -156h-187l39 317h133q121 0 210 77q89 76 89 180t-53 156t-144 52t-165 -51t-103 -137h-237q49 182 190 290
q142 108 332 109z" />
    <glyph glyph-name="at" unicode="@" horiz-adv-x="2011" 
d="M950 248q141 0 246 129q4 47 12 92l23 127q-61 129 -197 129q-106 0 -193 -78t-87 -183q0 -104 57 -160t139 -56zM1171 1360q332 0 537 -201t205 -518q0 -246 -110 -414q-111 -168 -323 -168t-268 136q-141 -135 -329 -136q-154 1 -250 103t-96 256q0 201 148 346
t347 145q141 0 240 -84l10 62h209l-82 -465q-33 -186 94 -186q119 0 177 105t59 269q0 256 -165 420t-431 164q-221 0 -420 -108t-321 -294t-121 -401q0 -258 171 -429t430 -171t478 154l70 -146q-262 -174 -581 -174t-533 209t-214 531q0 270 151 501q151 230 397 362
t521 132z" />
    <glyph glyph-name="A" unicode="A" horiz-adv-x="1536" 
d="M1012 537l-135 548l-330 -548h465zM1067 309h-655l-187 -309h-270l858 1401h229l363 -1401h-262z" />
    <glyph glyph-name="B" unicode="B" horiz-adv-x="1449" 
d="M1083 434q0 150 -235 150h-430l-64 -367h420q143 -1 226 63t83 154zM825 805q143 0 226 60q82 60 82 161q1 72 -59 111t-173 39h-379l-65 -371h368zM1323 442q0 -198 -160 -320t-415 -122h-676l245 1393h631q197 0 312 -83q114 -82 114 -216t-76 -236t-192 -139
q109 -23 163 -97t54 -180z" />
    <glyph glyph-name="C" unicode="C" horiz-adv-x="1628" 
d="M788 207q143 0 280.5 92t201.5 242h252q-92 -258 -303 -414t-471 -156q-303 0 -479.5 206t-121.5 518t303 519t554 207q260 0 414.5 -154.5t158.5 -414.5h-254q-10 158 -105.5 246t-256.5 88q-209 0 -368 -138.5t-197 -353.5t73.5 -351t318.5 -136z" />
    <glyph glyph-name="D" unicode="D" horiz-adv-x="1536" 
d="M633 227q233 0 408 160t176 383q0 170 -117 283t-301 112h-279l-164 -938h277zM840 1393q282 0 456 -165t174 -423q0 -337 -258 -571t-618 -234h-522l245 1393h523z" />
    <glyph glyph-name="E" unicode="E" horiz-adv-x="1269" 
d="M498 1165l-64 -364h684l-41 -228h-684l-59 -346h764l-39 -227h-1010l246 1393h1010l-41 -228h-766z" />
    <glyph glyph-name="F" unicode="F" horiz-adv-x="1243" 
d="M520 1165l-69 -401h659l-39 -227h-661l-95 -537h-243l245 1393h994l-39 -228h-752z" />
    <glyph glyph-name="G" unicode="G" horiz-adv-x="1675" 
d="M744.5 -29q-316.5 0 -486.5 207t-121 500q57 324 307 533.5t560 209.5q238 0 401.5 -131t179.5 -377h-246q-41 283 -366 283q-213 0 -379 -144.5t-207 -373.5q-33 -195 74.5 -332t316.5 -137q166 0 293 90t193 238h-445l39 227h715l-135 -764h-193l23 219
q-207 -248 -523.5 -248z" />
    <glyph glyph-name="H" unicode="H" horiz-adv-x="1497" 
d="M1501 1393l-246 -1393h-245l100 569h-694l-101 -569h-243l245 1393h244l-104 -596h694l104 596h246z" />
    <glyph glyph-name="I" unicode="I" horiz-adv-x="559" 
d="M315 0h-243l245 1393h244z" />
    <glyph glyph-name="J" unicode="J" horiz-adv-x="1249" 
d="M1272 1393l-156 -875q-47 -268 -216 -408t-395 -140t-354 131q-128 132 -104 343h248q-10 -114 47 -180t182 -66t222 91q97 90 124 237l152 867h250z" />
    <glyph glyph-name="K" unicode="K" horiz-adv-x="1466" 
d="M858 776l483 -776h-309l-377 588l-282 -262l-58 -326h-243l245 1393h244l-123 -693l756 693h332z" />
    <glyph glyph-name="L" unicode="L" horiz-adv-x="1222" 
d="M1090 221l-41 -221h-977l245 1393h244l-207 -1172h736z" />
    <glyph glyph-name="M" unicode="M" horiz-adv-x="1736" 
d="M748 223v2l-283 633l-148 -858h-245l245 1393h175l380 -856l693 856h176l-246 -1393h-246l148 834l-498 -611h-151z" />
    <glyph glyph-name="N" unicode="N" horiz-adv-x="1544" 
d="M1548 1393l-245 -1393h-193l-627 948l-168 -948h-243l245 1393h152l659 -983l175 983h245z" />
    <glyph glyph-name="O" unicode="O" horiz-adv-x="1677" 
d="M778 205q225 0 405 171q179 171 179 406q0 174 -104 290t-289 116q-231 0 -405 -171t-173 -403q-1 -174 103 -292t284 -117zM997 1421q269 0 443 -177t174 -441q0 -219 -123 -413t-322 -306t-413 -113q-270 0 -444 177q-173 177 -173 442q0 218 123 412q124 194 322 306
t413 113z" />
    <glyph glyph-name="P" unicode="P" horiz-adv-x="1327" 
d="M696 633q158 0 265 90q106 91 106 207t-74 176t-200 59h-273l-92 -532h268zM823 1393q223 0 357 -112t133 -304q0 -246 -193 -408t-489 -161h-244l-72 -408h-243l245 1393h506z" />
    <glyph glyph-name="Q" unicode="Q" horiz-adv-x="1677" 
d="M391 614q-1 -174 103 -292t284 -117q225 0 404 171q178 171 178 406q0 174 -104 290t-287 116q-231 0 -405 -171q-173 -172 -173 -403zM1614 803q0 -203 -104 -382t-279 -296l237 -283l-184 -168l-280 338q-123 -41 -248 -41q-270 0 -444 177q-173 177 -173 442
q0 218 123 412t322 307t413 112q269 0 443 -177t174 -441z" />
    <glyph glyph-name="R" unicode="R" horiz-adv-x="1409" 
d="M756 686q145 0 248.5 75t103.5 183t-75 164.5t-193 56.5h-320l-84 -479h320zM1354 996q0 -181 -110.5 -314t-293.5 -190l316 -492h-281l-295 459h-293l-82 -459h-243l245 1393h535q227 0 364.5 -108t137.5 -289z" />
    <glyph glyph-name="S" unicode="S" horiz-adv-x="1368" 
d="M967 399q0 119 -176 150l-224 45q-344 66 -329 367q12 221 188 341.5t397 120.5t363 -94q74 -49 112.5 -138t28.5 -210h-244q4 109 -60.5 170t-203.5 61t-227 -62.5t-88 -164.5q0 -121 196 -162l170 -35q178 -37 268.5 -113.5t90.5 -207.5q0 -219 -175 -357.5
t-440.5 -138.5t-403.5 130t-116 354h244q-8 -267 321 -267q141 0 224.5 57.5t83.5 153.5z" />
    <glyph glyph-name="T" unicode="T" horiz-adv-x="1327" 
d="M1389 1165h-486l-205 -1165h-245l204 1165h-483l41 228h1215z" />
    <glyph glyph-name="U" unicode="U" horiz-adv-x="1505" 
d="M675 -31q-288 1 -426 185t-89 464l137 775h244l-135 -775q-33 -190 43 -305q75 -115 247 -115t295 118q123 116 156 302l135 775h246l-137 -775q-55 -317 -241 -483t-475 -166z" />
    <glyph glyph-name="V" unicode="V" horiz-adv-x="1576" 
d="M1688 1393l-879 -1401h-225l-385 1401h262l280 -1055l664 1055h283z" />
    <glyph glyph-name="W" unicode="W" horiz-adv-x="2205" 
d="M2294 1393l-711 -1401h-242l-157 938l-504 -938h-242l-215 1401h258l144 -985l530 985h207l166 -1004l497 1004h269z" />
    <glyph glyph-name="X" unicode="X" horiz-adv-x="1366" 
d="M885 688l368 -688h-284l-283 504l-440 -504h-305l604 705l-348 688h299l247 -492l424 492h320z" />
    <glyph glyph-name="Y" unicode="Y" horiz-adv-x="1396" 
d="M819 469l-82 -469h-250l82 471l-395 922h272l279 -654l508 654h309z" />
    <glyph glyph-name="Z" unicode="Z" horiz-adv-x="1337" 
d="M1364 1276l-920 -1053h744l-39 -223h-1145l21 117l948 1052h-733l39 224h1105z" />
    <glyph glyph-name="bracketleft" unicode="[" horiz-adv-x="782" 
d="M299 -51h297l-41 -228h-532l313 1774h532l-41 -227h-295z" />
    <glyph glyph-name="backslash" unicode="\" horiz-adv-x="829" 
d="M268 1495l520 -1823h-227l-520 1823h227z" />
    <glyph glyph-name="bracketright" unicode="]" horiz-adv-x="780" 
d="M526 1268h-297l39 227h533l-312 -1774h-532l39 228h297z" />
    <glyph glyph-name="asciicircum" unicode="^" horiz-adv-x="845" 
d="M860 903h-217l-104 314l-213 -314h-217l356 490h211z" />
    <glyph glyph-name="underscore" unicode="_" horiz-adv-x="1304" 
d="M-53 -205h1163l-35 -207h-1163z" />
    <glyph glyph-name="grave" unicode="`" 
d="M807 1141h-215l-201 305h262z" />
    <glyph glyph-name="a" unicode="a" horiz-adv-x="1251" 
d="M563 182q168 0 285 133l59 338q-70 133 -237 133q-140 0 -242 -105t-102 -231t66 -198q66 -70 171 -70zM86 408q0 236 178 410t408 173q172 0 278 -90l13 68h237l-172 -969h-235l12 68q-141 -90 -318 -90t-289 118q-112 119 -112 312z" />
    <glyph glyph-name="b" unicode="b" horiz-adv-x="1251" 
d="M578 182q139 0 241 106q103 106 103 228t-66 196t-172 74q-166 0 -285 -133l-59 -336q70 -135 238 -135zM759 991q175 0 290 -123t114 -305q0 -237 -178 -411t-407 -175q-174 0 -281 91l-12 -68h-236l256 1454h236l-99 -553q142 90 317 90z" />
    <glyph glyph-name="c" unicode="c" horiz-adv-x="1167" 
d="M636.5 776q-106.5 0 -198.5 -84t-114.5 -211t40 -209t187.5 -82q90 0 160.5 46.5t103.5 125.5h242q-55 -172 -208 -278.5t-337 -106.5q-229 0 -347 140.5t-78 361.5t213 366.5t374.5 145.5t316.5 -107.5t109 -277.5h-242q-4 78 -59.5 124t-162 46z" />
    <glyph glyph-name="d" unicode="d" horiz-adv-x="1253" 
d="M563 182q168 0 283 135l61 334q-74 135 -239 135q-137 0 -240.5 -105.5t-103.5 -227.5t66.5 -196.5t172.5 -74.5zM84 410q0 233 178 407t408 174q172 0 280 -90l99 553h235l-258 -1454h-235l12 68q-139 -90 -314 -90.5t-290 123.5t-115 309z" />
    <glyph glyph-name="e" unicode="e" horiz-adv-x="1165" 
d="M650.5 795q-108.5 0 -188 -62.5t-116.5 -165.5h512q12 111 -43.5 169.5t-164 58.5zM679 991q214 0 328.5 -142.5t62.5 -398.5q-5 -24 -10 -40.5t-5 -18.5h-738q8 -94 71 -152.5t169 -58.5q141 0 203 88h260q-63 -133 -196.5 -212t-305.5 -79q-225 0 -345 146.5t-83 361.5
t206 360.5t383 145.5z" />
    <glyph glyph-name="f" unicode="f" horiz-adv-x="899" 
d="M848 1337q-74 0 -138 -54t-81 -144l-29 -170h379l-35 -199h-379l-135 -770h-237l135 770h-273l37 199h270l31 172q35 186 163 300t304 113q109 0 219 -30l-69 -205q-88 18 -162 18z" />
    <glyph glyph-name="g" unicode="g" horiz-adv-x="1253" 
d="M569 236q168 0 287 135l53 295q-74 137 -227 137q-152 0 -252 -97t-100 -231q0 -95 65 -167t174 -72zM458 -483q-210 -1 -330 111t-108 290h242q-4 -84 56 -135t172 -51t196 72t105 196l20 119q-139 -88 -315 -88t-291 121t-115 292q0 230 174 396t406 166q174 0 282 -91
l11 54h237l-174 -969q-37 -223 -197 -353q-161 -130 -371 -130z" />
    <glyph glyph-name="h" unicode="h" horiz-adv-x="1218" 
d="M790 999q180 0 272 -127q93 -127 56 -337l-94 -535h-236l93 520q23 127 -27 196t-164 68q-137 0 -276 -139l-113 -645h-235l256 1454h235l-100 -565q153 110 333 110z" />
    <glyph glyph-name="i" unicode="i" horiz-adv-x="577" 
d="M496 969l-170 -969h-236l170 969h236zM430 1178q-61 0 -103 41t-42 102t42 102t103 41q60 0 104 -42t44 -102t-44 -101t-104 -41z" />
    <glyph glyph-name="j" unicode="j" horiz-adv-x="532" 
d="M487 969l-159 -912q-39 -225 -150 -331t-346 -111l16 207q117 12 167 54t71 151l166 942h235zM433 1464q63 0 105 -42t42 -102t-44 -101t-104 -41q-61 0 -103 41t-42 102t42 102t104 41z" />
    <glyph glyph-name="k" unicode="k" horiz-adv-x="1177" 
d="M711 565l344 -565h-305l-230 399l-209 -184l-39 -215h-235l258 1454h235l-163 -926l505 441h299z" />
    <glyph glyph-name="l" unicode="l" horiz-adv-x="516" 
d="M547 1454l-258 -1454h-236l258 1454h236z" />
    <glyph glyph-name="m" unicode="m" horiz-adv-x="1857" 
d="M1388 999q196 0 292 -129q97 -129 61 -335l-94 -535h-236l90 520q23 127 -25 196q-48 68 -169 68t-238 -135q0 -63 -10 -114l-92 -535h-238l92 520q23 127 -26 196q-49 68 -165 68t-229 -131l-116 -653h-236l170 969h238l-13 -68q121 98 277 98q199 0 291 -147
q180 147 376 147z" />
    <glyph glyph-name="n" unicode="n" horiz-adv-x="1218" 
d="M774 999q178 0 272.5 -127t55.5 -337l-92 -535h-238l92 520q23 127 -27.5 195.5t-175 68.5t-262.5 -141l-114 -643h-236l170 969h238l-15 -80q154 110 332 110z" />
    <glyph glyph-name="o" unicode="o" horiz-adv-x="1214" 
d="M555 184q139 0 237 102t99 244q1 106 -63 176t-169 70q-141 0 -239 -101t-98 -243q0 -106 64 -177t169 -71zM698 991q193 0 313 -121t119 -309q0 -246 -182 -419t-432 -173q-192 0 -312 122t-120 312q0 246 181 417t433 171z" />
    <glyph glyph-name="p" unicode="p" horiz-adv-x="1251" 
d="M584 182q137 0 240 106q104 106 104 228q0 123 -66 197t-174 73q-164 0 -282 -135l-60 -334q70 -135 238 -135zM763 991q175 0 290 -124t114 -306q0 -239 -173 -411t-412 -173q-174 0 -281 91l-98 -553h-236l258 1454h236l-12 -68q139 90 314 90z" />
    <glyph glyph-name="q" unicode="q" horiz-adv-x="1243" 
d="M553 182q166 0 285 135l59 334q-70 135 -238 135q-139 0 -241 -105t-102 -229t65 -196q66 -74 172 -74zM662 991q172 0 278 -90l12 68h236l-256 -1454h-236l99 553q-141 -90 -317 -90t-289 122q-114 123 -113 308q0 236 178 410t408 173z" />
    <glyph glyph-name="r" unicode="r" horiz-adv-x="784" 
d="M457 969l-23 -125q162 143 379 143l-41 -223q-225 -8 -381 -162l-106 -602h-236l170 969h238z" />
    <glyph glyph-name="s" unicode="s" horiz-adv-x="1044" 
d="M694 281q0 72 -100 90l-205 35q-242 45 -242 237q0 160 131.5 256t335.5 96q144 0 256 -61q60 -33 91.5 -99.5t23.5 -160.5l-219 -2q6 70 -45 105.5t-140 35.5t-140.5 -34t-51.5 -83q0 -76 117 -98l176 -29q246 -47 246 -235q0 -170 -138.5 -267.5t-335 -97.5t-307 86.5
t-94.5 272.5l219 -2q-4 -164 207 -164q96 0 155.5 31.5t59.5 87.5z" />
    <glyph glyph-name="t" unicode="t" horiz-adv-x="913" 
d="M594 188q86 0 180 27l-4 -205q-141 -41 -233 -41q-170 0 -259.5 115t-58.5 289l70 397h-219l32 199h222l63 354h236l-64 -354h359l-35 -199h-359l-69 -397q-16 -86 18.5 -135.5t120.5 -49.5z" />
    <glyph glyph-name="u" unicode="u" horiz-adv-x="1236" 
d="M444 -31q-180 0 -273 127t-56 338l94 535h235l-92 -520q-20 -125 30 -195t173 -70t264 142l113 643h235l-170 -969h-235l14 82q-152 -113 -332 -113z" />
    <glyph glyph-name="v" unicode="v" horiz-adv-x="1183" 
d="M1229 969l-596 -969h-230l-278 969h252l182 -668l412 668h258z" />
    <glyph glyph-name="w" unicode="w" horiz-adv-x="1622" 
d="M1667 969l-508 -969h-233l-97 592l-305 -592h-207l-190 969h256l104 -594l310 594h198l101 -596l315 596h256z" />
    <glyph glyph-name="x" unicode="x" horiz-adv-x="1130" 
d="M723 487l283 -487h-281l-184 324l-295 -324h-291l453 489l-281 482h289l180 -309l285 309h297z" />
    <glyph glyph-name="y" unicode="y" horiz-adv-x="1275" 
d="M1300 971l-888 -1454h-265l285 467l-299 987h254l215 -711l434 711h264z" />
    <glyph glyph-name="z" unicode="z" horiz-adv-x="1017" 
d="M1008 842l-633 -645h518l-35 -197h-870l20 111l645 661h-514l35 197h854z" />
    <glyph glyph-name="braceleft" unicode="{" horiz-adv-x="724" 
d="M586 1149l-51 -293q-19 -104 -59 -158t-136 -82q86 -28 106 -80t3 -157l-52 -295q-10 -66 31 -106t121 -39l-41 -232q-186 1 -282 105t-64 272l51 287q15 89 -17 115t-135 26l37 209q102 0 144 25q41 26 57 116l49 287q31 170 163 273t316 104l-39 -232q-80 0 -135 -41
t-67 -104z" />
    <glyph glyph-name="bar" unicode="|" horiz-adv-x="534" 
d="M555 1495l-322 -1823h-219l322 1823h219z" />
    <glyph glyph-name="braceright" unicode="}" horiz-adv-x="722" 
d="M184 84l54 295q16 105 56 157t136 80q-86 29 -108 82t0 158l51 293q10 65 -31 105t-121 40l41 232q186 0 282 -104t64 -273l-51 -287q-15 -90 17 -116t135 -25l-37 -209q-102 0 -144 -26t-57 -115l-49 -287q-31 -170 -162 -273t-317 -104l39 232q80 0 135 41t67 104z" />
    <glyph glyph-name="asciitilde" unicode="~" horiz-adv-x="911" 
d="M692 827h209q0 -97 -39 -165q-72 -125 -218 -119q-65 2 -118 32l-114 70q-57 29 -85 9t-28 -70h-207q0 98 39 166q71 124 218 119q65 -1 118 -31l113 -72q56 -30 84 -8t28 69z" />
    <glyph glyph-name="exclamdown" unicode="&#xa1;" horiz-adv-x="575" 
d="M178 543h211l-149 -963h-250zM341 991q60 0 103 -41t43 -100t-43 -100t-103 -41t-103 41t-43 100t43 100t103 41z" />
    <glyph glyph-name="cent" unicode="&#xa2;" horiz-adv-x="1169" 
d="M636 776q-106 0 -198 -84t-114 -211t38 -209q61 -82 187 -82q90 0 162 48t104 124h242q-47 -150 -171 -250t-282 -126l-39 -215h-213l39 219q-172 35 -254 168t-49 320q33 188 166 324t313 175l43 250h215l-45 -244q150 -25 237 -127t83 -250h-242q-4 78 -59 124
q-57 46 -163 46z" />
    <glyph glyph-name="sterling" unicode="&#xa3;" horiz-adv-x="1259" 
d="M810 1214q-110 0 -198 -76t-110 -204l-29 -162h422l-37 -207h-420l-63 -358h741l-39 -207h-1106l39 207h127l64 358h-127l35 207h129l28 162q39 219 202 354t379 135q216 -1 330 -115t103 -304h-240q-4 98 -61 154q-59 56 -169 56z" />
    <glyph glyph-name="yen" unicode="&#xa5;" horiz-adv-x="1396" 
d="M918 596h294l-30 -172h-373l-18 -105h372l-30 -172h-371l-27 -147h-248l27 147h-356l30 172h355l18 105h-354l31 172h278l-342 797h272l277 -654l510 654h307z" />
    <glyph glyph-name="brokenbar" unicode="&#xa6;" horiz-adv-x="534" 
d="M233 -328h-219l144 807h219zM414 688h-219l141 807h219z" />
    <glyph glyph-name="section" unicode="&#xa7;" horiz-adv-x="1114" 
d="M317 608q0 -76 129 -141l232 -117l6 -4q49 12 81 49t32 82q0 78 -129 141l-236 121q-49 -10 -82 -48t-33 -83zM492 1042q0 -74 100 -124l215 -111q233 -121 233 -291q0 -213 -206 -307q35 -66 34 -141q0 -182 -134 -288t-326 -108q-192 0 -292 104q-101 104 -91 275h258
q-9 -166 153 -166q80 0 133 43t53 119t-98 123l-217 111q-231 115 -231 290q0 213 207 308q-37 63 -37 141q0 180 134 286t326 107t292 -103q102 -104 92 -274h-259q9 166 -153 166q-78 0 -132 -43t-54 -117z" />
    <glyph glyph-name="dieresis" unicode="&#xa8;" 
d="M868 1413q60 0 102 -40t42 -97t-42 -97t-102 -40t-100 40q-41 40 -41 97t41 97t100 40zM461 1413q59 0 101 -40t42 -97t-42 -97t-101 -40t-102 40q-42 40 -42 97t42 97q43 40 102 40z" />
    <glyph glyph-name="copyright" unicode="&#xa9;" horiz-adv-x="1720" 
d="M874 874q-66 0 -117 -52q-52 -52 -52 -129t52 -130q51 -53 117 -53t110 29t63 75h182q-23 -122 -118 -196t-237 -74t-243 99q-102 99 -103 249q0 150 104 250t244 100t235 -74t118 -196h-182q-19 46 -63 74t-110 28zM303 696q0 -240 171 -406t408 -165q238 0 410 167
q172 166 172 404t-173 405t-409 167t-408 -166q-171 -166 -171 -406zM885 1423q307 0 526 -209t219 -518t-219 -518t-526 -209t-527 209q-219 209 -219 518t219 518q220 209 527 209z" />
    <glyph glyph-name="ordfeminine" unicode="&#xaa;" horiz-adv-x="722" 
d="M276 930q0 -74 98 -74t191 55l17 86h-211q-43 0 -69 -19t-26 -48zM531 1403q122 0 189 -77t44 -208l-68 -381h-161l6 31q-98 -45 -198 -45t-163 48t-63 141q0 94 77 150t207 56h201q27 143 -104 144q-115 0 -144 -91h-164q27 115 123 173t218 59z" />
    <glyph glyph-name="guillemotleft" unicode="&#xab;" horiz-adv-x="923" 
d="M909 829l-254 -323l142 -303h-228l-143 313l254 313h229zM535 829l-254 -323l141 -303h-227l-144 313l254 313h230z" />
    <glyph glyph-name="registered" unicode="&#xae;" horiz-adv-x="1159" 
d="M580 932h88q76 0 75 65q0 61 -75 62h-88v-127zM844 995q0 -96 -88 -133l102 -147h-121l-90 131h-67v-131h-97v436h187q78 0 126 -43t48 -113zM645 547q153 -1 267 107t114 265t-114 265t-268 108t-266 -108t-112 -266q0 -156 112 -264t267 -107zM647 1417q211 0 362 -143
t151 -355t-151 -356q-151 -143 -362 -143t-361 143t-151 355q1 212 151 356q150 143 361 143z" />
    <glyph glyph-name="macron" unicode="&#xaf;" 
d="M965 1352l-33 -172h-572l33 172h572z" />
    <glyph glyph-name="degree" unicode="&#xb0;" horiz-adv-x="964" 
d="M586 909q70 0 121 50t51 120t-50 119t-122 49t-122 -49t-50 -119t51 -120t121 -50zM587 1423q153 0 253 -98t100 -247t-100 -247t-253 -98t-254 98q-101 99 -101 247t100 246q102 98 255 99z" />
    <glyph glyph-name="plusminus" unicode="&#xb1;" horiz-adv-x="1402" 
d="M1153 291l-39 -219h-975l37 219h977zM1219 659h-375l-49 -280h-228l51 280h-376l39 220h374l52 282h225l-49 -282h372z" />
    <glyph glyph-name="twosuperior" unicode="&#xb2;" horiz-adv-x="749" 
d="M528 1432q132 0 198 -60t67 -140q0 -80 -40 -144t-155 -170l-195 -179h318l-27 -147h-600l17 92l350 313q88 76 118 114q29 38 29 79q-1 86 -94 86q-123 0 -149 -119h-177q25 125 117 200q91 75 223 75z" />
    <glyph glyph-name="threesuperior" unicode="&#xb3;" horiz-adv-x="776" 
d="M752 852q0 -108 -94 -190t-235 -82q-142 0 -221 68t-79 181h176q14 -96 127 -96q68 0 111 33t43 82q0 86 -138 86l25 143l-25 -143h-65l24 143h66q63 0 104 33t41 84q0 84 -101 84t-128 -96h-176q29 114 119 182t210 68t183 -58t63 -153q1 -137 -112 -211q82 -51 82 -158
z" />
    <glyph glyph-name="acute" unicode="&#xb4;" 
d="M983 1446l-254 -305h-215l207 305h262z" />
    <glyph glyph-name="paragraph" unicode="&#xb6;" horiz-adv-x="1568" 
d="M739 1182h-168q-125 0 -203 -72t-77 -188q0 -116 78 -191q78 -74 202 -74h168v525zM1430 1393v-1721h-246v1510h-201v-1510h-244v762h-168q-223 0 -373 137t-149 349q0 212 150 343q150 130 372 130h859z" />
    <glyph glyph-name="periodcentered" unicode="&#xb7;" horiz-adv-x="428" 
d="M367 551q1 -59 -43 -100t-104 -41t-103 41t-43 100t43 100t103 41t104 -41t43 -100z" />
    <glyph glyph-name="cedilla" unicode="&#xb8;" 
d="M549 -432h-205l145 319h236z" />
    <glyph glyph-name="onesuperior" unicode="&#xb9;" horiz-adv-x="681" 
d="M694 745l-24 -147h-607l27 147h221l86 488l-223 -64l27 154l305 96h94l-119 -674h213z" />
    <glyph glyph-name="ordmasculine" unicode="&#xba;" horiz-adv-x="792" 
d="M682 1088q0 167 -158 167q-80 0 -142 -64q-62 -65 -62 -147t39 -127q40 -45 120 -45t142 68q61 68 61 148zM561 1407q129 0 209 -80t80 -207q0 -166 -121 -282t-287 -115q-129 0 -209 81t-79 210q0 164 120 278t287 115z" />
    <glyph glyph-name="guillemotright" unicode="&#xbb;" horiz-adv-x="923" 
d="M399 203l254 323l-141 303h227l144 -313l-254 -313h-230zM25 203l254 323l-142 303h228l143 -313l-254 -313h-229z" />
    <glyph glyph-name="onequarter" unicode="&#xbc;" horiz-adv-x="1873" 
d="M1757 158h-112l-27 -158h-176l28 158h-438l19 112l338 551h184l-303 -508h227l41 230h174l-39 -230h109zM1542 1393l-946 -1393h-166l946 1393h166zM63 571l27 148h221l86 487l-223 -63l27 153l305 97h94l-119 -674h213l-24 -148h-607z" />
    <glyph glyph-name="onehalf" unicode="&#xbd;" horiz-adv-x="1851" 
d="M1610 598q0 41 -25 64t-69 22q-123 0 -150 -119h-176q25 125 117 200t223 75q132 0 198 -60t66 -140t-40 -144t-155 -170l-194 -179h317l-26 -147h-600l16 92l350 314q88 76 118 114t30 78zM1518 1393l-947 -1393h-165l946 1393h166zM63 571l27 148h221l86 487l-223 -63
l27 153l305 97h94l-119 -674h213l-24 -148h-607z" />
    <glyph glyph-name="threequarters" unicode="&#xbe;" horiz-adv-x="1837" 
d="M1718 158h-112l-27 -158h-174l27 158h-439l19 112l338 551h184l-303 -508h229l39 230h174l-39 -230h109zM1505 1393l-946 -1393h-168l946 1393h168zM752 834q0 -106 -94 -190q-94 -83 -235 -83q-142 0 -221 68t-79 182h176q14 -96 127 -96q68 0 111 33t43 81
q0 86 -138 86l25 144l-25 -144h-65l24 144h66q63 0 104 33t41 84q0 84 -101 84t-128 -97h-176q29 115 119 183t210 68t183 -59q63 -58 63 -153q0 -137 -112 -211q82 -51 82 -157z" />
    <glyph glyph-name="questiondown" unicode="&#xbf;" horiz-adv-x="1093" 
d="M422 -309q-190 0 -302 103q-112 102 -112 284t134 307t347 143l37 156h187l-39 -317h-133q-121 0 -210 -77q-89 -76 -89 -180t53 -156t144 -52t165 51t103 137h237q-49 -182 -190 -290q-142 -108 -332 -109zM677 844q-60 0 -104 41q-43 41 -43 100t43 100t103 41t104 -41
q43 -41 43 -100t-43 -100t-103 -41z" />
    <glyph glyph-name="Agrave" unicode="&#xc0;" horiz-adv-x="1536" 
d="M1012 537l-135 548l-330 -548h465zM1067 309h-655l-187 -309h-270l858 1401h229l361 -1401h-260zM842 1546l-201 305h262l154 -305h-215z" />
    <glyph glyph-name="Aacute" unicode="&#xc1;" horiz-adv-x="1536" 
d="M1012 537l-135 548l-330 -548h465zM1067 309h-655l-187 -309h-270l858 1401h229l361 -1401h-260zM1061 1546h-215l207 305h262z" />
    <glyph glyph-name="Acircumflex" unicode="&#xc2;" horiz-adv-x="1536" 
d="M1012 537l-135 548l-330 -548h465zM1067 309h-655l-187 -309h-270l858 1401h229l361 -1401h-260zM836 1548h-230l301 312h226l190 -312h-211l-111 181z" />
    <glyph glyph-name="Atilde" unicode="&#xc3;" horiz-adv-x="1536" 
d="M1012 537l-135 548l-330 -548h465zM1067 309h-655l-187 -309h-270l858 1401h229l361 -1401h-260zM791 1610h-162q-2 82 31 137q59 95 196 93q57 -1 109 -25l65 -33q63 -28 97 -10t34 65h162q2 -82 -31 -137q-62 -103 -193 -96q-58 2 -112 28l-65 33q-59 29 -95 11
t-36 -66z" />
    <glyph glyph-name="Adieresis" unicode="&#xc4;" horiz-adv-x="1536" 
d="M1012 537l-135 548l-330 -548h465zM1067 309h-655l-187 -309h-270l858 1401h229l361 -1401h-260zM1178 1550q-59 0 -101 40q-41 40 -41 98t41 97q41 40 101 40t101 -40q42 -40 42 -97q0 -58 -42 -98t-101 -40zM770 1550q-59 0 -101 40t-42 98t42 97q42 40 101 40t101 -40
t42 -97q0 -58 -42 -98t-101 -40z" />
    <glyph glyph-name="Aring" unicode="&#xc5;" horiz-adv-x="1536" 
d="M1012 537l-135 548l-330 -548h465zM1067 309h-655l-187 -309h-270l858 1401h229l361 -1401h-260zM1069 1778q-1 42 -27 68t-68 26t-69 -27t-27 -67t28 -68q26 -27 68 -27t68 27t27 68zM975 1563q-102 0 -166 59q-63 60 -63 156t62 155q64 59 166 59t166 -58
q64 -60 64 -156t-63 -156q-64 -59 -166 -59z" />
    <glyph glyph-name="AE" unicode="&#xc6;" horiz-adv-x="2324" 
d="M1305 1100l-523 -563h422zM1561 1165l-64 -364h682l-41 -228h-682l-59 -346h762l-39 -227h-1010l55 309h-594l-286 -309h-336l1339 1393h1077l-38 -228h-766z" />
    <glyph glyph-name="Ccedilla" unicode="&#xc7;" horiz-adv-x="1628" 
d="M586 -113h235l-176 -319h-205zM788 207q143 0 279.5 92t200.5 242h254q-94 -260 -304 -415t-473 -155q-303 0 -478 206t-120 518t303 519t554 207q260 0 414.5 -154.5t158.5 -414.5h-254q-10 158 -105.5 246t-256.5 88q-209 0 -368 -138.5t-197 -353.5t73.5 -351
t318.5 -136z" />
    <glyph glyph-name="Egrave" unicode="&#xc8;" horiz-adv-x="1269" 
d="M500 1165l-64 -364h680l-39 -228h-682l-59 -346h762l-39 -227h-1010l246 1393h1008l-39 -228h-764zM700 1546l-200 305h262l153 -305h-215z" />
    <glyph glyph-name="Eacute" unicode="&#xc9;" horiz-adv-x="1269" 
d="M500 1165l-64 -364h680l-39 -228h-682l-59 -346h762l-39 -227h-1010l246 1393h1008l-39 -228h-764zM920 1546h-215l206 305h263z" />
    <glyph glyph-name="Ecircumflex" unicode="&#xca;" horiz-adv-x="1269" 
d="M500 1165l-64 -364h680l-39 -228h-682l-59 -346h762l-39 -227h-1010l246 1393h1008l-39 -228h-764zM694 1548h-229l301 312h225l191 -312h-211l-111 181z" />
    <glyph glyph-name="Edieresis" unicode="&#xcb;" horiz-adv-x="1269" 
d="M500 1165l-64 -364h680l-39 -228h-682l-59 -346h762l-39 -227h-1010l246 1393h1008l-39 -228h-764zM1036.5 1550q-59.5 0 -100.5 40t-41 97.5t41 97.5t100.5 40t101.5 -40t42 -97.5t-42 -97.5t-101.5 -40zM628.5 1550q-59.5 0 -101.5 40t-42 97.5t42 97.5t101.5 40
t101.5 -40t42 -97.5t-42 -97.5t-101.5 -40z" />
    <glyph glyph-name="Igrave" unicode="&#xcc;" horiz-adv-x="559" 
d="M317 0h-245l245 1393h246zM571 1546h-215l-200 305h262z" />
    <glyph glyph-name="Iacute" unicode="&#xcd;" horiz-adv-x="559" 
d="M317 0h-245l245 1393h246zM829 1851l-254 -305h-215l207 305h262z" />
    <glyph glyph-name="Icircumflex" unicode="&#xce;" horiz-adv-x="559" 
d="M317 0h-245l245 1393h246zM516 1729l-166 -181h-229l301 312h225l191 -312h-211z" />
    <glyph glyph-name="Idieresis" unicode="&#xcf;" horiz-adv-x="559" 
d="M317 0h-245l245 1393h246zM692 1825q60 0 102 -40t42 -97q0 -58 -42 -98t-102 -40t-100 40q-41 40 -41 98t41 97q41 40 100 40zM285 1825q59 0 101 -40t42 -97q0 -58 -42 -98t-101 -40t-102 40q-42 40 -42 98t42 97q43 40 102 40z" />
    <glyph glyph-name="Eth" unicode="&#xd0;" horiz-adv-x="1536" 
d="M633 227q233 0 408 160t176 383q0 170 -117 283t-301 112h-277l-61 -352h264l-41 -227h-264l-62 -359h275zM840 1393q282 0 456 -165t174 -423q0 -337 -258 -571t-618 -234h-522l102 586h-145l39 227h147l102 580h523z" />
    <glyph glyph-name="Ntilde" unicode="&#xd1;" horiz-adv-x="1544" 
d="M1548 1393l-245 -1393h-193l-627 948l-166 -948h-245l245 1393h154l657 -983l175 983h245zM748 1612h-162q-2 82 32 137t86 75q113 42 218 -7l65 -33q66 -27 98.5 -9.5t32.5 64.5h162q2 -82 -30 -137q-32 -54 -84 -76q-110 -46 -222 8l-65 33q-59 29 -95 10.5t-36 -65.5z
" />
    <glyph glyph-name="Ograve" unicode="&#xd2;" horiz-adv-x="1677" 
d="M778 205q225 0 404 171q178 171 178 406q0 174 -104 290t-287 116q-231 0 -405 -171t-173 -403q-1 -174 103 -292t284 -117zM997 1421q269 0 443 -177t174 -441q0 -219 -123 -413t-322 -306t-413 -113q-270 0 -444 177q-173 177 -173 442q0 218 123 412q124 194 322 306
t413 113zM1155 1546h-215l-201 305h262z" />
    <glyph glyph-name="Oacute" unicode="&#xd3;" horiz-adv-x="1677" 
d="M778 205q225 0 404 171q178 171 178 406q0 174 -104 290t-287 116q-231 0 -405 -171t-173 -403q-1 -174 103 -292t284 -117zM997 1421q269 0 443 -177t174 -441q0 -219 -123 -413t-322 -306t-413 -113q-270 0 -444 177q-173 177 -173 442q0 218 123 412q124 194 322 306
t413 113zM1413 1851l-254 -305h-215l207 305h262z" />
    <glyph glyph-name="Ocircumflex" unicode="&#xd4;" horiz-adv-x="1677" 
d="M778 205q225 0 404 171q178 171 178 406q0 174 -104 290t-287 116q-231 0 -405 -171t-173 -403q-1 -174 103 -292t284 -117zM997 1421q269 0 443 -177t174 -441q0 -219 -123 -413t-322 -306t-413 -113q-270 0 -444 177q-173 177 -173 442q0 218 123 412q124 194 322 306
t413 113zM1100 1729l-166 -181h-229l301 312h225l190 -312h-211z" />
    <glyph glyph-name="Otilde" unicode="&#xd5;" horiz-adv-x="1677" 
d="M778 205q225 0 404 171q178 171 178 406q0 174 -104 290t-287 116q-231 0 -405 -171t-173 -403q-1 -174 103 -292t284 -117zM997 1421q269 0 443 -177t174 -441q0 -219 -123 -413t-322 -306t-413 -113q-270 0 -444 177q-173 177 -173 442q0 218 123 412q124 194 322 306
t413 113zM1260 1837h161q1 -82 -31 -137q-61 -103 -193 -96q-58 2 -112 28l-65 33q-59 29 -95 11t-36 -66h-162q-2 82 32 137t86 75q113 42 218 -7l65 -33q64 -28 98 -10t34 65z" />
    <glyph glyph-name="Odieresis" unicode="&#xd6;" horiz-adv-x="1679" 
d="M778 205q225 0 404 171q178 171 178 406q0 174 -104 290t-287 116q-231 0 -405 -171t-173 -403q-1 -174 103 -292t284 -117zM997 1421q269 0 443 -177t174 -441q0 -219 -123 -413t-322 -306t-413 -113q-270 0 -444 177q-173 177 -173 442q0 218 123 412q124 194 322 306
t413 113zM1280 1825q59 0 101 -40t42 -97q0 -58 -42 -98t-101 -40t-100 40t-41 98t41 97q41 40 100 40zM872 1825q60 0 102 -40t42 -97q0 -58 -42 -98t-102 -40t-101 40q-42 40 -42 98t42 97q42 40 101 40z" />
    <glyph glyph-name="multiply" unicode="&#xd7;" horiz-adv-x="1386" 
d="M1102 360l-182 -155l-244 299l-352 -299l-129 155l352 299l-246 297l182 156l246 -297l350 297l129 -156l-350 -297z" />
    <glyph glyph-name="Oslash" unicode="&#xd8;" horiz-adv-x="1679" 
d="M1360 782q0 119 -51 217l-746 -735q92 -59 215 -59q226 1 404 171t178 406zM391 614q0 -106 39 -190l731 721q-86 43 -192 43q-231 0 -405 -171q-173 -172 -173 -403zM1614 802q0 -218 -123 -412t-322 -306t-413 -113q-214 0 -373 117l-131 -129l-148 143l138 136
q-102 154 -102 362t122 402q123 194 322 307q198 113 402 113t357 -99l130 127l145 -145l-125 -123q121 -162 121 -380z" />
    <glyph glyph-name="Ugrave" unicode="&#xd9;" horiz-adv-x="1505" 
d="M678 -31q-288 1 -428 185t-90 464l137 775h246l-137 -775q-33 -190 44 -305q78 -115 248 -115t293 118q123 116 156 302l137 775h246l-137 -775q-57 -317 -243 -483q-184 -166 -472 -166zM1020 1546h-215l-201 305h262z" />
    <glyph glyph-name="Uacute" unicode="&#xda;" horiz-adv-x="1505" 
d="M678 -31q-288 1 -428 185t-90 464l137 775h246l-137 -775q-33 -190 44 -305q78 -115 248 -115t293 118q123 116 156 302l137 775h246l-137 -775q-57 -317 -243 -483q-184 -166 -472 -166zM1278 1851l-254 -305h-215l207 305h262z" />
    <glyph glyph-name="Ucircumflex" unicode="&#xdb;" horiz-adv-x="1505" 
d="M678 -31q-288 1 -428 185t-90 464l137 775h246l-137 -775q-33 -190 44 -305q78 -115 248 -115t293 118q123 116 156 302l137 775h246l-137 -775q-57 -317 -243 -483q-184 -166 -472 -166zM963 1729l-166 -181h-230l301 312h226l190 -312h-211z" />
    <glyph glyph-name="Udieresis" unicode="&#xdc;" horiz-adv-x="1505" 
d="M678 -31q-288 1 -428 185t-90 464l137 775h246l-137 -775q-33 -190 44 -305q78 -115 248 -115t293 118q123 116 156 302l137 775h246l-137 -775q-57 -317 -243 -483q-184 -166 -472 -166zM1139 1825q59 0 101 -40t42 -97q0 -58 -42 -98t-101 -40t-101 40q-41 40 -41 98
t41 97q42 40 101 40zM731 1825q59 0 101 -40t42 -97t-41 -98q-41 -40 -101 -40t-102 40t-42 98t42 97q42 40 101 40z" />
    <glyph glyph-name="Yacute" unicode="&#xdd;" horiz-adv-x="1396" 
d="M821 469h-4l-82 -469h-248l82 471l-395 922h272l277 -654l510 654h307zM942 1546h-215l207 305h262z" />
    <glyph glyph-name="Thorn" unicode="&#xde;" horiz-adv-x="1327" 
d="M662 432q162 0 266 90t104 228q0 98 -75 156t-201 59h-271l-94 -533h271zM807 1192q219 0 346 -111t127 -295q0 -254 -194 -416t-490 -163h-244l-37 -207h-243l245 1393h244l-35 -201h281z" />
    <glyph glyph-name="germandbls" unicode="&#xdf;" horiz-adv-x="1335" 
d="M1198 111q0 -221 -169 -371t-427 -150q-180 0 -336 58l37 215q154 -63 321 -63t254 81q87 83 87 179q1 96 -57 144t-154 48h-232l19 117l372 383h-495l-133 -752h-236l197 1116q35 188 170 305t323 117l-39 -231q-84 -1 -143 -53t-76 -138l-26 -147h823l-25 -148
l-368 -368q147 -23 230 -114t83 -228z" />
    <glyph glyph-name="agrave" unicode="&#xe0;" horiz-adv-x="1251" 
d="M563 182q168 0 285 133l59 338q-70 133 -222 133q-151 0 -255 -105t-104 -231t66 -198q66 -70 171 -70zM86 408q0 236 178 410t408 173q172 0 278 -90l13 68h237l-172 -969h-235l12 68q-141 -90 -317 -90t-289 118q-113 119 -113 312zM645 1100l-201 305h263l153 -305
h-215z" />
    <glyph glyph-name="aacute" unicode="&#xe1;" horiz-adv-x="1251" 
d="M563 182q168 0 285 133l59 338q-70 133 -222 133q-151 0 -255 -105t-104 -231t66 -198q66 -70 171 -70zM86 408q0 236 178 410t408 173q172 0 278 -90l13 68h237l-172 -969h-235l12 68q-141 -90 -317 -90t-289 118q-113 119 -113 312zM858 1100h-215l207 305h262z" />
    <glyph glyph-name="acircumflex" unicode="&#xe2;" horiz-adv-x="1251" 
d="M563 182q168 0 285 133l59 338q-70 133 -222 133q-151 0 -255 -105t-104 -231t66 -198q66 -70 171 -70zM86 408q0 236 178 410t408 173q172 0 278 -90l13 68h237l-172 -969h-235l12 68q-141 -90 -317 -90t-289 118q-113 119 -113 312zM629 1081h-230l301 312h226
l190 -312h-211l-110 181z" />
    <glyph glyph-name="atilde" unicode="&#xe3;" horiz-adv-x="1251" 
d="M563 182q168 0 285 133l59 338q-70 133 -222 133q-151 0 -255 -105t-104 -231t66 -198q66 -70 171 -70zM86 408q0 236 178 410t408 173q172 0 278 -90l13 68h237l-172 -969h-235l12 68q-141 -90 -317 -90t-289 118q-113 119 -113 312zM569 1165h-161q-2 82 31 138
q57 93 196 93q57 -1 108 -26l66 -33q63 -27 97 -9t34 65h162q2 -81 -31 -137t-84 -78q-110 -46 -221 10l-66 33q-59 29 -95 10t-36 -66z" />
    <glyph glyph-name="adieresis" unicode="&#xe4;" horiz-adv-x="1251" 
d="M563 182q168 0 285 133l59 338q-70 133 -222 133q-151 0 -255 -105t-104 -231t66 -198q66 -70 171 -70zM86 408q0 236 178 410t408 173q172 0 278 -90l13 68h237l-172 -969h-235l12 68q-141 -90 -317 -90t-289 118q-113 119 -113 312zM938 1110q-59 0 -100 40t-41 97
t41 97t100 40t101 -40t42 -96q0 -58 -42 -98t-101 -40zM530 1110q-59 0 -101 40t-42 97t42 97t101 40t102 -39q42 -39 42 -97t-42 -98t-102 -40z" />
    <glyph glyph-name="aring" unicode="&#xe5;" horiz-adv-x="1251" 
d="M563 182q168 0 285 133l59 338q-70 133 -222 133q-151 0 -255 -105t-104 -231t66 -198q66 -70 171 -70zM86 408q0 236 178 410t408 173q172 0 278 -90l13 68h237l-172 -969h-235l12 68q-141 -90 -317 -90t-289 118q-113 119 -113 312zM734 1384q-42 0 -68 -26t-27 -68
q0 -42 27 -68q26 -26 68 -26t69 27t27 67t-27 68q-27 26 -69 26zM735 1075q-101 -1 -165 59t-64 156t63 156t165 59q102 0 166 -59q64 -60 64 -156t-63 -156q-64 -60 -166 -59z" />
    <glyph glyph-name="ae" unicode="&#xe6;" horiz-adv-x="1849" 
d="M446 174q160 0 326 115q-10 55 -10 102h-340q-66 0 -106 -28.5t-40 -75.5t42 -80t128 -33zM1329.5 795q-107.5 0 -187 -63.5t-116.5 -164.5h512q10 111 -45.5 169.5t-163 58.5zM1359 991q214 0 328.5 -142.5t62.5 -398.5q-5 -24 -10 -40.5t-5 -18.5h-738
q8 -94 69.5 -152.5t186.5 -58.5t187 88h260q-63 -133 -196.5 -212t-305.5 -79q-242 0 -360 166q-229 -164 -437 -163q-166 0 -261 71.5t-95 194.5q0 156 114.5 238.5t309.5 82.5h315q43 227 -168 228q-80 0 -140 -37t-81 -103h-237q41 168 182 255t313 87q229 0 326 -149
q166 143 380 143z" />
    <glyph glyph-name="ccedilla" unicode="&#xe7;" horiz-adv-x="1167" 
d="M362 -113h236l-176 -319h-205zM636.5 776q-106.5 0 -198.5 -84t-114.5 -211t39 -209t186.5 -82q90 0 161.5 47.5t104.5 124.5h242q-55 -172 -208 -278.5t-337 -106.5q-229 0 -347 140.5t-78 361.5t213 366.5t374.5 145.5t316.5 -107.5t109 -277.5h-242q-4 78 -59.5 124
t-162 46z" />
    <glyph glyph-name="egrave" unicode="&#xe8;" horiz-adv-x="1165" 
d="M650.5 795q-108.5 0 -188 -62.5t-116.5 -165.5h512q12 111 -43.5 169.5t-164 58.5zM680 991q213 0 327.5 -142.5t62.5 -398.5q-5 -24 -10 -40.5t-5 -18.5h-738q8 -94 71 -152.5t169 -58.5q141 0 203 88h260q-63 -133 -196.5 -212t-305.5 -79q-225 0 -345 146.5t-83 361.5
t207 360.5t383 145.5zM602 1100l-201 305h263l153 -305h-215z" />
    <glyph glyph-name="eacute" unicode="&#xe9;" horiz-adv-x="1165" 
d="M650.5 795q-108.5 0 -188 -62.5t-116.5 -165.5h512q12 111 -43.5 169.5t-164 58.5zM680 991q213 0 327.5 -142.5t62.5 -398.5q-5 -24 -10 -40.5t-5 -18.5h-738q8 -94 71 -152.5t169 -58.5q141 0 203 88h260q-63 -133 -196.5 -212t-305.5 -79q-225 0 -345 146.5t-83 361.5
t207 360.5t383 145.5zM817 1100h-215l207 305h262z" />
    <glyph glyph-name="ecircumflex" unicode="&#xea;" horiz-adv-x="1165" 
d="M650.5 795q-108.5 0 -188 -62.5t-116.5 -165.5h512q12 111 -43.5 169.5t-164 58.5zM680 991q213 0 327.5 -142.5t62.5 -398.5q-5 -24 -10 -40.5t-5 -18.5h-738q8 -94 71 -152.5t169 -58.5q141 0 203 88h260q-63 -133 -196.5 -212t-305.5 -79q-225 0 -345 146.5t-83 361.5
t207 360.5t383 145.5zM588 1081h-230l301 312h226l190 -312h-211l-110 181z" />
    <glyph glyph-name="edieresis" unicode="&#xeb;" horiz-adv-x="1165" 
d="M650.5 795q-108.5 0 -188 -62.5t-116.5 -165.5h512q12 111 -43.5 169.5t-164 58.5zM680 991q213 0 327.5 -142.5t62.5 -398.5q-5 -24 -10 -40.5t-5 -18.5h-738q8 -94 71 -152.5t169 -58.5q141 0 203 88h260q-63 -133 -196.5 -212t-305.5 -79q-225 0 -345 146.5t-83 361.5
t207 360.5t383 145.5zM897 1110q-59 0 -100 40t-41 97.5t41 97t100 39.5t101 -39.5t42 -97t-42 -97.5t-101 -40zM489.5 1110q-59.5 0 -101.5 40t-42 97.5t42 97t101.5 39.5t101.5 -39.5t42 -97t-42 -97.5t-101.5 -40z" />
    <glyph glyph-name="igrave" unicode="&#xec;" horiz-adv-x="514" 
d="M461 969l-172 -969h-236l170 969h238zM473 1100h-215l-201 305h262z" />
    <glyph glyph-name="iacute" unicode="&#xed;" horiz-adv-x="514" 
d="M461 969l-172 -969h-236l170 969h238zM725 1405l-254 -305h-215l207 305h262z" />
    <glyph glyph-name="icircumflex" unicode="&#xee;" horiz-adv-x="514" 
d="M461 969l-172 -969h-236l170 969h238zM408 1262l-166 -181h-230l301 312h226l190 -312h-211z" />
    <glyph glyph-name="idieresis" unicode="&#xef;" horiz-adv-x="514" 
d="M461 969l-172 -969h-236l170 969h238zM551 1384q59 0 101 -40t42 -96q0 -58 -42 -98t-101 -40t-100 40t-41 97t41 97t100 40zM143 1384q59 0 102 -39q42 -39 42 -97t-42 -98q-41 -40 -101 -40t-102 40t-42 97t42 97t101 40z" />
    <glyph glyph-name="eth" unicode="&#xf0;" horiz-adv-x="1212" 
d="M324 448q0 -126 62 -194q62 -70 185 -70t223 104t99 234q0 254 -234 254q-139 0 -237 -101t-98 -227zM1139 637q-1 -297 -183 -482t-438 -186q-194 0 -314 122t-120 312q0 246 178 417t418 171q111 0 194 -47q-53 115 -145 201l-340 -115l-33 156l222 71q-68 43 -209 105
l258 102q123 -59 194 -118l211 71l33 -155l-119 -43q92 -109 142 -264t51 -318z" />
    <glyph glyph-name="ntilde" unicode="&#xf1;" horiz-adv-x="1218" 
d="M774 999q178 0 272.5 -127t57.5 -337l-94 -535h-236l90 520q23 127 -27.5 195.5t-160.5 68.5q-139 0 -277 -141l-114 -643h-236l170 969h238l-15 -80q154 110 332 110zM528 1165h-161q0 82 33.5 137.5t85.5 75.5q116 44 216 -8l66 -33q63 -27 97 -9t34 65h162
q2 -82 -31 -137.5t-83 -77.5q-110 -47 -222 10l-66 33q-59 29 -95 10t-36 -66z" />
    <glyph glyph-name="ograve" unicode="&#xf2;" horiz-adv-x="1214" 
d="M553 184q139 0 239 102t99 244q1 106 -63 176t-169 70q-141 0 -239 -101t-98 -243q0 -106 62 -177t169 -71zM698 991q193 0 313 -121t119 -309q0 -246 -182 -419t-432 -173q-192 0 -312 122t-120 312q0 246 181 417t433 171zM825 1100h-215l-200 305h262z" />
    <glyph glyph-name="oacute" unicode="&#xf3;" horiz-adv-x="1214" 
d="M553 184q139 0 239 102t99 244q1 106 -63 176t-169 70q-141 0 -239 -101t-98 -243q0 -106 62 -177t169 -71zM698 991q193 0 313 -121t119 -309q0 -246 -182 -419t-432 -173q-192 0 -312 122t-120 312q0 246 181 417t433 171zM1077 1405l-254 -305h-215l207 305h262z" />
    <glyph glyph-name="ocircumflex" unicode="&#xf4;" horiz-adv-x="1214" 
d="M553 184q139 0 239 102t99 244q1 106 -63 176t-169 70q-141 0 -239 -101t-98 -243q0 -106 62 -177t169 -71zM698 991q193 0 313 -121t119 -309q0 -246 -182 -419t-432 -173q-192 0 -312 122t-120 312q0 246 181 417t433 171zM760 1262l-166 -181h-229l301 312h225
l190 -312h-211z" />
    <glyph glyph-name="otilde" unicode="&#xf5;" horiz-adv-x="1214" 
d="M553 184q139 0 239 102t99 244q1 106 -63 176t-169 70q-141 0 -239 -101t-98 -243q0 -106 62 -177t169 -71zM698 991q193 0 313 -121t119 -309q0 -246 -182 -419t-432 -173q-192 0 -312 122t-120 312q0 246 181 417t433 171zM905 1393h162q2 -81 -31 -137t-84 -78
q-110 -46 -221 10l-65 33q-60 29 -96 11t-35 -67h-162q-2 82 31 138q57 93 196 93q57 -1 109 -26l65 -33q66 -27 98 -9t33 65z" />
    <glyph glyph-name="odieresis" unicode="&#xf6;" horiz-adv-x="1214" 
d="M553 184q139 0 239 102t99 244q1 106 -63 176t-169 70q-141 0 -239 -101t-98 -243q0 -106 62 -177t169 -71zM698 991q193 0 313 -121t119 -309q0 -246 -182 -419t-432 -173q-192 0 -312 122t-120 312q0 246 181 417t433 171zM942 1384q59 0 101 -40t42 -96q0 -58 -42 -98
t-101 -40t-100 40t-41 97t41 97t100 40zM535 1384q59 0 100 -40t41 -96q0 -58 -41 -98t-100 -40t-102 40q-42 40 -42 97t42 98q43 39 102 39z" />
    <glyph glyph-name="divide" unicode="&#xf7;" horiz-adv-x="1402" 
d="M668 158q-59 0 -101 39q-41 39 -41 96t41 96t101 39t100 -39q41 -39 41 -96t-41 -96t-100 -39zM264 784h977l-41 -217h-975zM809 934q-59 0 -100 39t-41 96t41 96t100 39t100 -39t41 -96t-41 -96t-100 -39z" />
    <glyph glyph-name="oslash" unicode="&#xf8;" horiz-adv-x="1214" 
d="M891 530q0 51 -14 93l-426 -418q51 -20 102 -21q139 0 239 102t99 244zM322 432q0 -39 10 -80l416 408q-43 16 -89 16q-141 0 -239 -102t-98 -242zM516 -31q-137 0 -240 64l-100 -99l-135 132l104 102q-61 98 -61 235q0 246 181 417t433 171q127 0 228 -55l96 94
l135 -131l-94 -92q68 -109 67 -246q0 -246 -182 -419t-432 -173z" />
    <glyph glyph-name="ugrave" unicode="&#xf9;" horiz-adv-x="1232" 
d="M444 -31q-178 0 -272 127t-57 338l94 535h235l-90 -520q-22 -125 28 -195t173 -70t264 142l113 643h237l-172 -969h-235l14 80q-154 -111 -332 -111zM614 1100l-202 305h262l153 -305h-213z" />
    <glyph glyph-name="uacute" unicode="&#xfa;" horiz-adv-x="1236" 
d="M444 -31q-178 0 -272 127t-57 338l94 535h235l-90 -520q-22 -125 28 -195t173 -70t264 142l113 643h237l-172 -969h-235l14 80q-154 -111 -332 -111zM823 1100h-215l207 305h262z" />
    <glyph glyph-name="ucircumflex" unicode="&#xfb;" horiz-adv-x="1232" 
d="M444 -31q-178 0 -272 127t-57 338l94 535h235l-90 -520q-22 -125 28 -195t173 -70t264 142l113 643h237l-172 -969h-235l14 80q-154 -111 -332 -111zM588 1081h-230l299 312h228l188 -312h-209l-112 179z" />
    <glyph glyph-name="udieresis" unicode="&#xfc;" horiz-adv-x="1232" 
d="M444 -31q-178 0 -272 127t-57 338l94 535h235l-90 -520q-22 -125 28 -195t173 -70t264 142l113 643h237l-172 -969h-235l14 80q-154 -111 -332 -111zM907 1110q-59 0 -100 40t-41 97t41 97t100 40t102 -39q42 -39 42 -97q-1 -58 -43 -98t-101 -40zM500 1110
q-59 0 -102 40q-42 40 -42 97t42 97t102 40t100 -40q41 -40 41 -96q0 -58 -41 -98t-100 -40z" />
    <glyph glyph-name="yacute" unicode="&#xfd;" horiz-adv-x="1275" 
d="M1303 971l-891 -1454h-265l285 467l-299 987h252l217 -713l436 713h265zM842 1100h-215l207 305h262z" />
    <glyph glyph-name="thorn" unicode="&#xfe;" horiz-adv-x="1247" 
d="M582 182q137 0 240 106q104 106 104 228q0 123 -66 197t-174 73q-168 0 -285 -137l-59 -330q70 -137 240 -137zM761 991q175 0 290 -124t114 -306q0 -235 -178 -409t-407 -175q-168 0 -281 93l-98 -555h-236l332 1878h235l-86 -492q140 90 315 90z" />
    <glyph glyph-name="ydieresis" unicode="&#xff;" horiz-adv-x="1275" 
d="M1303 971l-891 -1454h-265l285 467l-299 987h252l217 -713l436 713h265zM922 1110q-59 0 -101 40q-41 40 -41 97t41 97t101 40t101 -40q42 -40 42 -96q0 -58 -42 -98t-101 -40zM514 1110q-59 0 -101 40t-42 97t42 97t101 40t101 -40t42 -96q0 -58 -42 -98t-101 -40z" />
    <glyph glyph-name="Amacron" unicode="&#x100;" horiz-adv-x="1536" 
d="M1012 537l-135 548l-330 -548h465zM1067 309h-655l-187 -309h-270l858 1401h229l361 -1401h-260zM1243 1554h-571l33 172h571z" />
    <glyph glyph-name="amacron" unicode="&#x101;" horiz-adv-x="1251" 
d="M563 182q168 0 285 133l59 338q-70 133 -222 133q-151 0 -255 -105t-104 -231t66 -198q66 -70 171 -70zM86 408q0 236 178 410t408 173q172 0 278 -90l13 68h237l-172 -969h-235l12 68q-141 -90 -317 -90t-289 118q-113 119 -113 312zM1057 1139h-572l33 172h572z" />
    <glyph glyph-name="Abreve" unicode="&#x102;" horiz-adv-x="1536" 
d="M1012 537l-135 548l-330 -548h465zM1067 309h-655l-187 -309h-270l858 1401h229l361 -1401h-260zM950 1550q-141 0 -215 82t-47 234h172q-25 -158 111 -158q59 0 108 38t64 120h180q-27 -152 -129 -234t-244 -82z" />
    <glyph glyph-name="abreve" unicode="&#x103;" horiz-adv-x="1251" 
d="M563 182q168 0 285 133l59 338q-70 133 -222 133q-151 0 -255 -105t-104 -231t66 -198q66 -70 171 -70zM86 408q0 236 178 410t408 173q172 0 278 -90l13 68h237l-172 -969h-235l12 68q-141 -90 -317 -90t-289 118q-113 119 -113 312zM754 1069q-141 0 -214 82t-48 233
h174q-29 -158 110 -157q57 0 108 39q50 39 62 118h180q-25 -152 -128 -234t-244 -81z" />
    <glyph glyph-name="Aogonek" unicode="&#x104;" horiz-adv-x="1536" 
d="M1012 537l-135 548l-330 -548h465zM1327 -164q29 0 84 10l23 -174q-53 -23 -138 -22q-131 0 -211 63q-79 63 -79 171t122 175l-61 250h-655l-187 -309h-270l858 1401h229l361 -1401h-98q-102 -27 -103 -92q0 -72 125 -72z" />
    <glyph glyph-name="aogonek" unicode="&#x105;" horiz-adv-x="1251" 
d="M563 182q168 0 285 133l59 338q-70 133 -222 133q-151 0 -255 -105t-104 -231t66 -198q66 -70 171 -70zM1012 -172q29 0 84 10l22 -174q-53 -23 -137 -22q-131 0 -211 63t-80 169t111 171l4 23q-141 -90 -317 -90t-289 118q-113 119 -113 312q0 236 178 410t408 173
q172 0 278 -90l13 68h237l-172 -969q-141 -24 -141 -98t125 -74z" />
    <glyph glyph-name="Cacute" unicode="&#x106;" horiz-adv-x="1628" 
d="M788 207q143 0 279.5 92t200.5 242h254q-94 -260 -304 -415t-473 -155q-303 0 -478 206t-120 518t303 519t554 207q260 0 414.5 -154.5t158.5 -414.5h-254q-10 158 -105.5 246t-256.5 88q-209 0 -368 -138.5t-197 -353.5t73.5 -351t318.5 -136zM1130 1546h-215l207 305
h262z" />
    <glyph glyph-name="cacute" unicode="&#x107;" horiz-adv-x="1167" 
d="M636.5 776q-106.5 0 -198.5 -84t-114.5 -211t39 -209t186.5 -82q90 0 161.5 47.5t104.5 124.5h242q-55 -172 -208 -278.5t-337 -106.5q-229 0 -347 140.5t-78 361.5t213 366.5t374.5 145.5t316.5 -107.5t109 -277.5h-242q-4 78 -59.5 124t-162 46zM815 1100h-215l207 305
h262z" />
    <glyph glyph-name="Cdotaccent" unicode="&#x10a;" horiz-adv-x="1628" 
d="M788 207q143 0 279.5 92t200.5 242h254q-94 -260 -304 -415t-473 -155q-303 0 -478 206t-120 518t303 519t554 207q260 0 414.5 -154.5t158.5 -414.5h-254q-10 158 -105.5 246t-256.5 88q-209 0 -368 -138.5t-197 -353.5t73.5 -351t318.5 -136zM1005 1544
q-62 0 -106.5 41t-44.5 102.5t44 102.5t106.5 41t105.5 -41t43 -102.5t-43 -102.5t-105 -41z" />
    <glyph glyph-name="cdotaccent" unicode="&#x10b;" horiz-adv-x="1167" 
d="M636.5 776q-106.5 0 -198.5 -84t-114.5 -211t39 -209t186.5 -82q90 0 161.5 47.5t104.5 124.5h242q-55 -172 -208 -278.5t-337 -106.5q-229 0 -347 140.5t-78 361.5t213 366.5t374.5 145.5t316.5 -107.5t109 -277.5h-242q-4 78 -59.5 124t-162 46zM691 1104
q-62 0 -106 41t-44 102.5t44 102.5t106 41t105.5 -41t43.5 -102.5t-43.5 -102.5t-105.5 -41z" />
    <glyph glyph-name="Ccaron" unicode="&#x10c;" horiz-adv-x="1628" 
d="M788 207q143 0 279.5 92t200.5 242h254q-94 -260 -304 -415t-473 -155q-303 0 -478 206t-120 518t303 519t554 207q260 0 414.5 -154.5t158.5 -414.5h-254q-10 158 -105.5 246t-256.5 88q-209 0 -368 -138.5t-197 -353.5t73.5 -351t318.5 -136zM936 1530l-191 311h207
l115 -178l170 178h223l-299 -311h-225z" />
    <glyph glyph-name="ccaron" unicode="&#x10d;" horiz-adv-x="1167" 
d="M674.5 991q201.5 0 316.5 -107.5t109 -277.5h-242q-4 78 -59.5 124t-162 46t-198.5 -84t-114.5 -211t39 -209t186.5 -82q90 0 161.5 47.5t104.5 124.5h242q-55 -172 -208 -278.5t-337 -106.5q-229 0 -347 140.5t-78 361.5t213 366.5t374.5 145.5zM598 1081l-190 312h206
l115 -179l170 179h223l-299 -312h-225z" />
    <glyph glyph-name="Dcaron" unicode="&#x10e;" horiz-adv-x="1536" 
d="M633 227q233 0 408 160t176 383q0 170 -117 283t-301 112h-277l-164 -938h275zM840 1393q282 0 456 -165t174 -423q0 -337 -258 -571t-618 -234h-522l245 1393h523zM756 1530l-191 311h207l115 -178l170 178h223l-299 -311h-225z" />
    <glyph glyph-name="dcaron" unicode="&#x10f;" horiz-adv-x="1253" 
d="M563 182q168 0 283 135l61 334q-74 135 -225 135t-254.5 -105.5t-103.5 -227.5t66.5 -196.5t172.5 -74.5zM1636 1454l-145 -407h-178l84 407h239zM84 410q0 233 178 407t408 174q172 0 280 -90l99 553h235l-258 -1454h-235l12 68q-139 -90 -314 -90.5t-290 123.5
t-115 309z" />
    <glyph glyph-name="Dcroat" unicode="&#x110;" horiz-adv-x="1536" 
d="M633 227q233 0 408 160t176 383q0 170 -117 283t-301 112h-277l-61 -352h264l-41 -227h-264l-62 -359h275zM840 1393q282 0 456 -165t174 -423q0 -337 -258 -571t-618 -234h-522l102 586h-145l39 227h147l102 580h523z" />
    <glyph glyph-name="dcroat" unicode="&#x111;" horiz-adv-x="1253" 
d="M563 182q168 0 283 135l61 334q-74 135 -225 135t-254.5 -105.5t-103.5 -227.5t66.5 -196.5t172.5 -74.5zM84 410q0 233 178 407t408 174q172 0 280 -90l41 229h-307l35 195h307l23 129h235l-22 -129h104l-35 -195h-104l-201 -1130h-235l12 68q-139 -90 -314 -90.5
t-290 123.5t-115 309z" />
    <glyph glyph-name="Emacron" unicode="&#x112;" horiz-adv-x="1269" 
d="M500 1165l-64 -364h680l-39 -228h-682l-59 -346h762l-39 -227h-1010l246 1393h1008l-39 -228h-764zM1100 1554h-572l33 172h572z" />
    <glyph glyph-name="emacron" unicode="&#x113;" horiz-adv-x="1165" 
d="M650.5 795q-108.5 0 -188 -62.5t-116.5 -165.5h512q12 111 -43.5 169.5t-164 58.5zM680 991q213 0 327.5 -142.5t62.5 -398.5q-5 -24 -10 -40.5t-5 -18.5h-738q8 -94 71 -152.5t169 -58.5q141 0 203 88h260q-63 -133 -196.5 -212t-305.5 -79q-225 0 -345 146.5t-83 361.5
t207 360.5t383 145.5zM1014 1139h-572l33 172h572z" />
    <glyph glyph-name="Edotaccent" unicode="&#x116;" horiz-adv-x="1263" 
d="M500 1165l-64 -364h680l-39 -228h-682l-59 -346h762l-39 -227h-1010l246 1393h1008l-39 -228h-764zM837 1544q-62 0 -106.5 41t-44.5 102.5t44 102.5t106.5 41t105.5 -41t43 -102.5t-43 -102.5t-105 -41z" />
    <glyph glyph-name="edotaccent" unicode="&#x117;" horiz-adv-x="1167" 
d="M650.5 795q-108.5 0 -188 -62.5t-116.5 -165.5h512q12 111 -43.5 169.5t-164 58.5zM680 991q213 0 327.5 -142.5t62.5 -398.5q-5 -24 -10 -40.5t-5 -18.5h-738q8 -94 71 -152.5t169 -58.5q141 0 203 88h260q-63 -133 -196.5 -212t-305.5 -79q-225 0 -345 146.5t-83 361.5
t207 360.5t383 145.5zM734 1102q-62 0 -106 42t-44 102t44 102.5t106 42.5t105.5 -42t43.5 -102.5t-43.5 -102.5t-105.5 -42z" />
    <glyph glyph-name="Eogonek" unicode="&#x118;" horiz-adv-x="1269" 
d="M1034 -172q29 0 84 10l23 -174q-53 -23 -137 -22q-131 0 -211 63.5t-80 167.5q0 70 53 127h-717l246 1393h1008l-39 -228h-764l-64 -364h680l-39 -228h-682l-59 -346h762l-39 -227h-8q-141 -25 -142 -100q0 -72 125 -72z" />
    <glyph glyph-name="eogonek" unicode="&#x119;" horiz-adv-x="1165" 
d="M648.5 795q-108.5 0 -188 -62.5t-116.5 -165.5h512q12 111 -43.5 169.5t-164 58.5zM679 991q213 0 323 -136q138 -171 56 -445q-5 -16 -5 -19h-736q8 -94 70 -152.5t168 -58.5q145 0 203 88h262q-39 -84 -111 -149q-61 -59 -78.5 -89t-17.5 -69q0 -90 123 -90q35 0 84 12
l24 -174q-49 -23 -159.5 -22.5t-190.5 64t-80 167.5q0 31 11 68q-47 -8 -107 -9q-225 0 -346 146.5t-84 361.5t207 360.5t384 145.5z" />
    <glyph glyph-name="Ecaron" unicode="&#x11a;" horiz-adv-x="1269" 
d="M500 1165l-64 -364h680l-39 -228h-682l-59 -346h762l-39 -227h-1010l246 1393h1008l-39 -228h-764zM725 1530l-190 311h206l115 -178l170 178h223l-299 -311h-225z" />
    <glyph glyph-name="ecaron" unicode="&#x11b;" horiz-adv-x="1165" 
d="M650.5 795q-108.5 0 -188 -62.5t-116.5 -165.5h512q12 111 -43.5 169.5t-164 58.5zM680 991q213 0 327.5 -142.5t62.5 -398.5q-5 -24 -10 -40.5t-5 -18.5h-738q8 -94 71 -152.5t169 -58.5q141 0 203 88h260q-63 -133 -196.5 -212t-305.5 -79q-225 0 -345 146.5t-83 361.5
t207 360.5t383 145.5zM600 1081l-190 312h206l115 -179l170 179h223l-299 -312h-225z" />
    <glyph glyph-name="Gbreve" unicode="&#x11e;" horiz-adv-x="1675" 
d="M744.5 -29q-316.5 0 -486.5 207t-121 500q57 324 307 533.5t560 209.5q238 0 401.5 -131t179.5 -377h-244q-43 283 -368 283q-213 0 -379 -144.5t-207 -373.5h2q-33 -195 73.5 -332t315.5 -137q166 0 293 89t193 239h-445l39 227h715l-135 -764h-193l23 217
q-207 -246 -523.5 -246zM1015.5 1550q-141.5 0 -215 82t-46.5 234h172q-25 -158 110 -158q59 0 108.5 38t63.5 120h181q-27 -152 -129.5 -234t-244 -82z" />
    <glyph glyph-name="gbreve" unicode="&#x11f;" horiz-adv-x="1253" 
d="M569 236q168 0 287 135l51 293q-68 139 -239 139q-138 0 -238 -97t-100 -231q0 -95 65 -167t174 -72zM458 -483q-212 1 -331 113t-104 288h239q-4 -84 56 -135t172 -51t196 72t105 196l20 121q-139 -90 -315 -90t-291 121t-115 292q0 230 174 396t406 166q174 0 282 -91
l11 54h235l-172 -969h2q-39 -223 -199 -353q-159 -130 -371 -130zM745 1069q-141 0 -215 82t-47 233h172q-25 -158 111 -157q59 0 108 38t64 119h180q-28 -152 -130 -234t-243 -81z" />
    <glyph glyph-name="Gdotaccent" unicode="&#x120;" horiz-adv-x="1675" 
d="M744.5 -29q-316.5 0 -486.5 207t-121 500q57 324 307 533.5t560 209.5q238 0 401.5 -131t179.5 -377h-244q-43 283 -368 283q-213 0 -379 -144.5t-207 -373.5h2q-33 -195 73.5 -332t315.5 -137q166 0 293 89t193 239h-445l39 227h715l-135 -764h-193l23 217
q-207 -246 -523.5 -246zM1031 1544q-62 0 -106 41t-44 102.5t44 102.5t106 41t105.5 -41t43.5 -102.5t-43.5 -102.5t-105.5 -41z" />
    <glyph glyph-name="gdotaccent" unicode="&#x121;" horiz-adv-x="1253" 
d="M569 236q168 0 287 135l51 293q-68 139 -239 139q-138 0 -238 -97t-100 -231q0 -95 65 -167t174 -72zM458 -483q-212 1 -331 113t-104 288h239q-4 -84 56 -135t172 -51t196 72t105 196l20 121q-139 -90 -315 -90t-291 121t-115 292q0 230 174 396t406 166q174 0 282 -91
l11 54h235l-172 -969h2q-39 -223 -199 -353q-159 -130 -371 -130zM584 1247q0 61 44 103t106 41q62 0 106 -41q44 -40 43 -102q1 -62 -43 -103t-106 -41t-106 41t-44 102z" />
    <glyph glyph-name="Gcommaaccent" unicode="&#x122;" horiz-adv-x="1675" 
d="M732 -102q56 0 97 -38t41 -84t-24.5 -84t-149.5 -200h-133l117 164q-84 31 -84 113q0 53 40 91t96 38zM744.5 -29q-316.5 0 -486.5 207t-121 500q57 324 307 533.5t560 209.5q238 0 401.5 -131t179.5 -377h-244q-43 283 -368 283q-213 0 -379 -144.5t-207 -373.5h2
q-33 -195 73.5 -332t315.5 -137q166 0 293 89t193 239h-445l39 227h715l-135 -764h-193l23 217q-207 -246 -523.5 -246z" />
    <glyph glyph-name="gcommaaccent" unicode="&#x123;" horiz-adv-x="1261" 
d="M569 236q168 0 287 135l51 293q-68 139 -239 139q-138 0 -238 -97t-100 -231q0 -95 65 -167t174 -72zM458 -483q-212 1 -331 113t-104 288h239q-4 -84 56 -135t172 -51t196 72t105 196l20 121q-139 -90 -315 -90t-291 121t-115 292q0 230 174 396t406 166q174 0 282 -91
l11 54h235l-172 -969h2q-39 -223 -199 -353q-159 -130 -371 -130zM872 1249q0 -53 -40 -90t-96 -37t-97 37t-41 83t25 84t149 200h133l-117 -162q84 -31 84 -115z" />
    <glyph glyph-name="Hbar" unicode="&#x126;" horiz-adv-x="1497" 
d="M1184 991h-692l-33 -194h692zM1528 991h-98l-175 -991h-245l100 569h-692l-101 -569h-245l174 991h-101l37 203h101l34 199h246l-35 -199h693l34 199h246l-35 -199h99z" />
    <glyph glyph-name="hbar" unicode="&#x127;" horiz-adv-x="1218" 
d="M788 999q178 0 272 -127t58 -337l-94 -535h-236l91 520q23 127 -27 196t-162 68q-137 0 -276 -139l-113 -645h-235l208 1186h-127l29 168h127l19 100h235l-18 -100h247l-28 -168h-248l-53 -297q153 110 331 110z" />
    <glyph glyph-name="Imacron" unicode="&#x12a;" horiz-adv-x="559" 
d="M317 0h-245l245 1393h246zM791 1726l-33 -172h-572l33 172h572z" />
    <glyph glyph-name="imacron" unicode="&#x12b;" horiz-adv-x="514" 
d="M461 969l-172 -969h-236l170 969h238zM688 1311l-33 -172h-573l33 172h573z" />
    <glyph glyph-name="Iogonek" unicode="&#x12e;" horiz-adv-x="559" 
d="M299 -172q29 0 84 10l23 -174q-53 -23 -138 -22q-131 0 -211 63t-80 165t101 169l239 1354h246l-246 -1393h-2q-141 -24 -141 -98t125 -74z" />
    <glyph glyph-name="iogonek" unicode="&#x12f;" horiz-adv-x="577" 
d="M307 -172q29 0 84 10l23 -174q-53 -23 -138 -22q-130 0 -210 63t-80 167t112 175l162 922h238l-174 -969q-141 -25 -142 -100q0 -72 125 -72zM431 1464q61 0 105 -42t44 -102t-43 -101t-105 -41t-105 41q-42 41 -42 102t42 102t104 41z" />
    <glyph glyph-name="Idotaccent" unicode="&#x130;" horiz-adv-x="559" 
d="M317 0h-245l245 1393h246zM449 1550q-66 0 -111 44t-45 108t45 106q45 43 111 43q67 0 111 -43t44 -106q0 -64 -44 -108t-111 -44z" />
    <glyph glyph-name="dotlessi" unicode="&#x131;" horiz-adv-x="514" 
d="M459 969l-170 -969h-236l170 969h236z" />
    <glyph glyph-name="IJ" unicode="&#x132;" horiz-adv-x="1806" 
d="M1831 1393l-156 -875q-47 -268 -216 -408t-395 -140t-354 131q-128 132 -104 343h248q-10 -114 47 -180t182 -66t223 91q97 90 124 237l151 867h250zM317 0h-245l245 1393h246z" />
    <glyph glyph-name="ij" unicode="&#x133;" horiz-adv-x="1110" 
d="M1065 969l-160 -912q-39 -225 -149 -331t-346 -111l16 207q117 12 167 54t71 151l165 942h236zM498 969l-172 -969h-236l170 969h238zM1010 1178q-61 0 -104 41q-42 41 -42 102t42 102t104 41t105 -42q42 -42 42 -102t-43 -101t-104 -41zM431 1464q61 0 105 -42t44 -102
t-44 -101t-105 -41q-62 0 -104 41t-42 102t42 102t104 41z" />
    <glyph glyph-name="Kcommaaccent" unicode="&#x136;" horiz-adv-x="1466" 
d="M638 -102q56 0 97 -38t41 -84t-24.5 -84t-149.5 -200h-133l117 164q-84 31 -84 113q0 53 40 91t96 38zM856 774l483 -774h-307l-377 590l-280 -260l-58 -330h-245l245 1393h246l-121 -688l752 688h330z" />
    <glyph glyph-name="kcommaaccent" unicode="&#x137;" horiz-adv-x="1177" 
d="M470 -102q56 0 97 -38t41 -84t-24.5 -84t-149.5 -200h-133l117 164q-84 31 -84 113q0 53 40 91t96 38zM711 565l344 -565h-305l-230 397l-209 -182l-39 -215h-235l258 1454h235l-163 -926l505 441h302z" />
    <glyph glyph-name="Lacute" unicode="&#x139;" horiz-adv-x="1222" 
d="M1090 221l-41 -221h-977l245 1393h246l-207 -1172h734zM573 1546h-215l207 305h262z" />
    <glyph glyph-name="lacute" unicode="&#x13a;" horiz-adv-x="516" 
d="M547 1454l-258 -1454h-236l258 1454h236zM819 1890l-254 -305h-215l207 305h262z" />
    <glyph glyph-name="Lcommaaccent" unicode="&#x13b;" horiz-adv-x="1222" 
d="M550 -102q56 0 97 -38t41 -84t-24.5 -84t-149.5 -200h-133l117 164q-84 31 -84 113q0 53 40 91t96 38zM1090 221l-41 -221h-977l245 1393h246l-207 -1172h734z" />
    <glyph glyph-name="lcommaaccent" unicode="&#x13c;" horiz-adv-x="516" 
d="M-2 -231q0 53 40 91t96 38t97 -38t41 -84t-24.5 -84t-149.5 -200h-133l117 164q-84 31 -84 113zM547 1454l-258 -1454h-236l258 1454h236z" />
    <glyph glyph-name="Lcaron" unicode="&#x13d;" horiz-adv-x="1222" 
d="M862 985h-178l84 408h240zM1090 221l-41 -221h-977l245 1393h246l-207 -1172h734z" />
    <glyph glyph-name="lcaron" unicode="&#x13e;" horiz-adv-x="516" 
d="M899 1454l-145 -407h-179l84 407h240zM547 1454l-258 -1454h-236l258 1454h236z" />
    <glyph glyph-name="Ldot" unicode="&#x13f;" horiz-adv-x="1222" 
d="M800 557q-62 0 -105.5 41t-43.5 102.5t43 103.5t105.5 42t106.5 -42t44 -103.5t-44 -102.5t-106 -41zM1090 221l-41 -221h-977l245 1393h246l-207 -1172h734z" />
    <glyph glyph-name="ldot" unicode="&#x140;" horiz-adv-x="815" 
d="M626 530q-62 0 -106.5 41t-44.5 102.5t44 102.5t106.5 41t105.5 -41t43 -102.5t-43 -102.5t-105 -41zM547 1454l-258 -1454h-236l258 1454h236z" />
    <glyph glyph-name="Lslash" unicode="&#x141;" horiz-adv-x="1222" 
d="M1090 221l-41 -221h-977l88 496l-137 -54l36 205l136 53l122 693h246l-104 -590l356 137l-35 -207l-358 -137l-66 -375h734z" />
    <glyph glyph-name="lslash" unicode="&#x142;" horiz-adv-x="516" 
d="M557 748l-145 -60l-123 -688h-236l105 588l-144 -58l43 242l144 57l110 625h236l-92 -524l143 57z" />
    <glyph glyph-name="Nacute" unicode="&#x143;" horiz-adv-x="1544" 
d="M1548 1393l-245 -1393h-193l-627 948l-166 -948h-245l245 1393h154l657 -983l175 983h245zM1010 1546h-215l206 305h263z" />
    <glyph glyph-name="nacute" unicode="&#x144;" horiz-adv-x="1218" 
d="M774 999q178 0 272.5 -127t57.5 -337l-94 -535h-236l90 520q23 127 -27.5 195.5t-160.5 68.5q-139 0 -277 -141l-114 -643h-236l170 969h238l-15 -80q154 110 332 110zM821 1100h-215l207 305h262z" />
    <glyph glyph-name="Ncommaaccent" unicode="&#x145;" horiz-adv-x="1544" 
d="M681 -102q56 0 97 -38t41 -84t-24.5 -84t-149.5 -200h-133l117 164q-84 31 -84 113q0 53 40 91t96 38zM1548 1393l-245 -1393h-193l-627 948l-166 -948h-245l245 1393h154l657 -983l175 983h245z" />
    <glyph glyph-name="ncommaaccent" unicode="&#x146;" horiz-adv-x="1218" 
d="M495 -102q56 0 97 -38t41 -84t-24.5 -84t-149.5 -200h-133l116 164q-84 31 -84 113q0 53 40.5 91t96.5 38zM774 999q178 0 272.5 -127t57.5 -337l-94 -535h-236l90 520q23 127 -27.5 195.5t-160.5 68.5q-139 0 -277 -141l-114 -643h-236l170 969h238l-15 -80
q154 110 332 110z" />
    <glyph glyph-name="Ncaron" unicode="&#x147;" horiz-adv-x="1544" 
d="M1548 1393l-245 -1393h-193l-627 948l-166 -948h-245l245 1393h154l657 -983l175 983h245zM815 1530l-190 311h206l115 -178l170 178h223l-299 -311h-225z" />
    <glyph glyph-name="ncaron" unicode="&#x148;" horiz-adv-x="1218" 
d="M774 999q178 0 272.5 -127t57.5 -337l-94 -535h-236l90 520q23 127 -27.5 195.5t-160.5 68.5q-139 0 -277 -141l-114 -643h-236l170 969h238l-15 -80q154 110 332 110zM604 1081l-190 312h207l114 -179l170 179h223l-299 -312h-225z" />
    <glyph glyph-name="Omacron" unicode="&#x14c;" horiz-adv-x="1677" 
d="M778 205q225 0 404 171q178 171 178 406q0 174 -104 290t-287 116q-231 0 -405 -171t-173 -403q-1 -174 103 -292t284 -117zM997 1421q269 0 443 -177t174 -441q0 -219 -123 -413t-322 -306t-413 -113q-270 0 -444 177q-173 177 -173 442q0 218 123 412q124 194 322 306
t413 113zM1372 1726l-33 -172h-571l33 172h571z" />
    <glyph glyph-name="omacron" unicode="&#x14d;" horiz-adv-x="1214" 
d="M553 184q139 0 239 102t99 244q1 106 -63 176t-169 70q-141 0 -239 -101t-98 -243q0 -106 62 -177t169 -71zM698 991q193 0 313 -121t119 -309q0 -246 -182 -419t-432 -173q-192 0 -312 122t-120 312q0 246 181 417t433 171zM1055 1311l-33 -172h-571l32 172h572z" />
    <glyph glyph-name="Ohungarumlaut" unicode="&#x150;" horiz-adv-x="1677" 
d="M778 205q225 0 404 171q178 171 178 406q0 174 -104 290t-287 116q-231 0 -405 -171t-173 -403q-1 -174 103 -292t284 -117zM997 1421q269 0 443 -177t174 -441q0 -219 -123 -413t-322 -306t-413 -113q-270 0 -444 177q-173 177 -173 442q0 218 123 412q124 194 322 306
t413 113zM1427 1851l-165 -305h-197l119 305h243zM1128 1851l-165 -305h-197l119 305h243z" />
    <glyph glyph-name="ohungarumlaut" unicode="&#x151;" horiz-adv-x="1214" 
d="M553 184q139 0 239 102t99 244q1 106 -63 176t-169 70q-141 0 -239 -101t-98 -243q0 -106 62 -177t169 -71zM698 991q193 0 313 -121t119 -309q0 -246 -182 -419t-432 -173q-192 0 -312 122t-120 312q0 246 181 417t433 171zM1106 1405l-166 -305h-195l117 305h244z
M807 1405l-166 -305h-197l119 305h244z" />
    <glyph glyph-name="OE" unicode="&#x152;" horiz-adv-x="2095" 
d="M1001 1163q-264 0 -438 -154.5t-174 -383.5q0 -176 120 -286t327 -110h79l164 934h-78zM797 0q-297 0 -477.5 167t-180.5 427q0 336 264.5 567.5t638.5 231.5h1088l-39 -228h-766l-63 -364h682l-39 -228h-684l-60 -346h764l-41 -227h-1087z" />
    <glyph glyph-name="oe" unicode="&#x153;" horiz-adv-x="1968" 
d="M553 184q139 0 238.5 102.5t99.5 243.5q0 106 -63.5 176t-168.5 70q-141 0 -239 -101.5t-98 -242.5q0 -106 62.5 -177t168.5 -71zM1451.5 795q-108.5 0 -188 -62.5t-116.5 -165.5h512q12 111 -43.5 169.5t-164 58.5zM1485 991q209 0 323.5 -142.5t62.5 -398.5
q-5 -24 -10.5 -40.5t-5.5 -18.5h-737q8 -94 70.5 -152.5t169.5 -58.5q141 0 203 88h260q-63 -133 -196.5 -212t-305.5 -79q-246 0 -365 173q-180 -180 -438 -181q-193 0 -312.5 122t-119.5 312q0 246 181 417t427 171t367 -180q180 180 426 180z" />
    <glyph glyph-name="Racute" unicode="&#x154;" horiz-adv-x="1409" 
d="M756 686q145 0 249.5 75t104.5 183t-76 164.5t-194 56.5h-318l-84 -479h318zM1354 996q0 -181 -112 -314t-292 -190l314 -492h-281l-293 459h-291l-82 -459h-245l245 1393h537q225 0 362.5 -108t137.5 -289zM881 1546h-215l206 305h263z" />
    <glyph glyph-name="racute" unicode="&#x155;" horiz-adv-x="784" 
d="M457 969l-23 -125q162 143 379 143l-41 -223q-225 -8 -381 -164l-106 -600h-236l170 969h238zM641 1100h-215l207 305h262z" />
    <glyph glyph-name="Rcommaaccent" unicode="&#x156;" horiz-adv-x="1409" 
d="M591 -102q56 0 97 -38t41 -84t-24.5 -84t-149.5 -200h-133l117 164q-84 31 -84 113q0 53 40 91t96 38zM756 686q145 0 249.5 75t104.5 183t-76 164.5t-194 56.5h-318l-84 -479h318zM1354 996q0 -181 -112 -314t-292 -190l314 -492h-281l-293 459h-291l-82 -459h-245
l245 1393h537q225 0 362.5 -108t137.5 -289z" />
    <glyph glyph-name="rcommaaccent" unicode="&#x157;" horiz-adv-x="784" 
d="M130 -102q56 0 97 -38t41 -84t-24.5 -84t-149.5 -200h-133l117 164q-84 31 -84 113q0 53 40 91t96 38zM457 969l-23 -125q162 143 379 143l-41 -223q-225 -8 -381 -164l-106 -600h-236l170 969h238z" />
    <glyph glyph-name="Rcaron" unicode="&#x158;" horiz-adv-x="1409" 
d="M756 686q145 0 249.5 75t104.5 183t-76 164.5t-194 56.5h-318l-84 -479h318zM1354 996q0 -181 -112 -314t-292 -190l314 -492h-281l-293 459h-291l-82 -459h-245l245 1393h537q225 0 362.5 -108t137.5 -289zM686 1530l-190 311h206l115 -178l170 178h223l-299 -311h-225z
" />
    <glyph glyph-name="rcaron" unicode="&#x159;" horiz-adv-x="784" 
d="M457 969l-23 -125q162 143 379 143l-41 -223q-225 -8 -381 -164l-106 -600h-236l170 969h238zM424 1081l-191 312h207l115 -179l170 179h223l-299 -312h-225z" />
    <glyph glyph-name="Sacute" unicode="&#x15a;" horiz-adv-x="1368" 
d="M967 399q0 119 -176 150l-224 45q-344 66 -329 367q6 150 96 257q172 205 506 205q204 0 346 -94q74 -49 112.5 -138t28.5 -210h-244q4 109 -60.5 170t-203.5 61t-227 -62.5t-88 -164.5q0 -121 196 -162l170 -35q356 -74 357 -321q0 -219 -175 -357.5t-439.5 -138.5
t-402.5 130t-118 354h244q-8 -267 321 -267q141 0 225.5 57.5t84.5 153.5zM1194 1851l-254 -305h-215l207 305h262z" />
    <glyph glyph-name="sacute" unicode="&#x15b;" horiz-adv-x="1044" 
d="M694 281q0 72 -100 90l-205 35q-242 45 -242 237q0 160 131.5 256t335.5 96q144 0 256 -61q60 -33 91.5 -99.5t23.5 -160.5l-219 -2q6 70 -45 105.5t-140 35.5t-140.5 -34t-51.5 -83q0 -76 117 -98l176 -29q246 -47 246 -235q0 -170 -138.5 -267.5t-335 -97.5t-307 86.5
t-94.5 272.5l219 -2q-4 -164 207 -164q96 0 155.5 31.5t59.5 87.5zM993 1405l-254 -305h-215l207 305h262z" />
    <glyph glyph-name="Scedilla" unicode="&#x15e;" horiz-adv-x="1368" 
d="M494 -432h-205l145 319h236zM967 399q0 119 -176 150l-224 45q-344 66 -329 367q6 150 96 257q172 205 506 205q204 0 346 -94q74 -49 112.5 -138t28.5 -210h-244q4 109 -60.5 170t-203.5 61t-227 -62.5t-88 -164.5q0 -121 196 -162l170 -35q356 -74 357 -321
q0 -219 -175 -357.5t-439.5 -138.5t-402.5 130t-118 354h244q-8 -267 321 -267q141 0 225.5 57.5t84.5 153.5z" />
    <glyph glyph-name="scedilla" unicode="&#x15f;" horiz-adv-x="1044" 
d="M350 -432h-205l146 319h235zM694 281q0 72 -100 90l-205 35q-242 45 -242 237q0 160 131.5 256t335.5 96q144 0 256 -61q60 -33 91.5 -99.5t23.5 -160.5l-219 -2q6 70 -45 105.5t-140 35.5t-140.5 -34t-51.5 -83q0 -76 117 -98l176 -29q246 -47 246 -235
q0 -170 -138.5 -267.5t-335 -97.5t-307 86.5t-94.5 272.5l219 -2q-4 -164 207 -164q96 0 155.5 31.5t59.5 87.5z" />
    <glyph glyph-name="Scaron" unicode="&#x160;" horiz-adv-x="1368" 
d="M967 399q0 119 -176 150l-224 45q-344 66 -329 367q6 150 96 257q172 205 506 205q204 0 346 -94q74 -49 112.5 -138t28.5 -210h-244q4 109 -60.5 170t-203.5 61t-227 -62.5t-88 -164.5q0 -121 196 -162l170 -35q356 -74 357 -321q0 -219 -175 -357.5t-439.5 -138.5
t-402.5 130t-118 354h244q-8 -267 321 -267q141 0 225.5 57.5t84.5 153.5zM1270 1841l-299 -311h-226l-190 311h207l115 -178l170 178h223z" />
    <glyph glyph-name="scaron" unicode="&#x161;" horiz-adv-x="1044" 
d="M694 281q0 72 -100 90l-205 35q-242 45 -242 237q0 160 131.5 256t335.5 96q144 0 256 -61q60 -33 91.5 -99.5t23.5 -160.5l-219 -2q6 70 -45 105.5t-140 35.5t-140.5 -34t-51.5 -83q0 -76 117 -98l176 -29q246 -47 246 -235q0 -170 -138.5 -267.5t-335 -97.5t-307 86.5
t-94.5 272.5l219 -2q-4 -164 207 -164q96 0 155.5 31.5t59.5 87.5zM1047 1393l-299 -312h-226l-190 312h207l114 -179l170 179h224z" />
    <glyph glyph-name="Tcedilla" unicode="&#x162;" horiz-adv-x="1327" 
d="M430 -113h236l-177 -319h-204zM1389 1165h-486l-205 -1165h-245l204 1165h-483l39 228h1214z" />
    <glyph glyph-name="tcedilla" unicode="&#x163;" horiz-adv-x="913" 
d="M315 -113h236l-176 -319h-205zM594 188q86 0 180 27l-4 -205q-141 -41 -233 -41q-170 0 -259.5 115t-58.5 289l70 397h-219l34 199h220l63 354h236l-64 -354h359l-33 -199h-361l-69 -397q-16 -86 18.5 -135.5t120.5 -49.5z" />
    <glyph glyph-name="Tcaron" unicode="&#x164;" horiz-adv-x="1327" 
d="M1389 1165h-486l-205 -1165h-245l204 1165h-483l39 228h1214zM721 1530l-191 311h207l115 -178l170 178h223l-299 -311h-225z" />
    <glyph glyph-name="tcaron" unicode="&#x165;" horiz-adv-x="913" 
d="M594 188q86 0 180 27l-4 -205q-141 -41 -233 -41q-170 0 -259.5 115t-58.5 289l70 397h-219l34 199h220l63 354h236l-64 -354h359l-33 -199h-361l-69 -397q-16 -86 18.5 -135.5t120.5 -49.5zM854 1051h-178l84 407h239z" />
    <glyph glyph-name="Umacron" unicode="&#x16a;" horiz-adv-x="1505" 
d="M678 -31q-288 1 -428 185t-90 464l137 775h246l-137 -775q-33 -190 44 -305q78 -115 248 -115t293 118q123 116 156 302l137 775h246l-137 -775q-57 -317 -243 -483q-184 -166 -472 -166zM1237 1726l-33 -172h-571l33 172h571z" />
    <glyph glyph-name="umacron" unicode="&#x16b;" horiz-adv-x="1236" 
d="M444 -31q-178 0 -272 127t-57 338l94 535h235l-90 -520q-22 -125 28 -195t173 -70t264 142l113 643h237l-172 -969h-235l14 80q-154 -111 -332 -111zM1022 1139h-571l32 172h572z" />
    <glyph glyph-name="Uring" unicode="&#x16e;" horiz-adv-x="1505" 
d="M678 -31q-288 1 -428 185t-90 464l137 775h246l-137 -775q-33 -190 44 -305q78 -115 248 -115t293 118q123 116 156 302l137 775h246l-137 -775q-57 -317 -243 -483q-184 -166 -472 -166zM937 1683q42 0 69 27t26 68q0 42 -26 68t-69 26q-42 0 -69 -27q-26 -27 -26 -67
t26 -68q26 -27 69 -27zM938 1993q102 1 166 -59t63 -156q0 -96 -63 -156q-64 -60 -166 -59q-102 0 -166 59q-63 60 -63 156q-1 96 63 156t166 59z" />
    <glyph glyph-name="uring" unicode="&#x16f;" horiz-adv-x="1236" 
d="M444 -31q-178 0 -272 127t-57 338l94 535h235l-90 -520q-22 -125 28 -195t173 -70t264 142l113 643h237l-172 -969h-235l14 80q-154 -111 -332 -111zM795 1290q0 40 -27 68q-27 26 -69 26q-43 0 -69 -26t-26 -68t27 -68t69 -26t68 27q27 27 27 67zM700 1075
q-102 -1 -165 59t-64 156t63 156t166 59q102 0 166 -59q64 -60 64 -156t-64 -156t-166 -59z" />
    <glyph glyph-name="Uhungarumlaut" unicode="&#x170;" horiz-adv-x="1505" 
d="M678 -31q-288 1 -428 185t-90 464l137 775h246l-137 -775q-33 -190 44 -305q78 -115 248 -115t293 118q123 116 156 302l137 775h246l-137 -775q-57 -317 -243 -483q-184 -166 -472 -166zM1296 1853l-166 -305h-196l119 305h243zM997 1853l-166 -305h-196l119 305h243z
" />
    <glyph glyph-name="uhungarumlaut" unicode="&#x171;" horiz-adv-x="1232" 
d="M444 -31q-178 0 -272 127t-57 338l94 535h235l-90 -520q-22 -125 28 -195t173 -70t264 142l113 643h237l-172 -969h-235l14 80q-154 -111 -332 -111zM739 1100l117 305h244l-166 -305h-195zM635 1100h-197l119 305h244z" />
    <glyph glyph-name="Uogonek" unicode="&#x172;" horiz-adv-x="1505" 
d="M874 -146q0 -86 117 -85q35 0 84 12l23 -199q-66 -16 -137 -16q-131 0 -208 63t-77 157t80 187q-61 -4 -94 -4q-272 1 -412 185t-90 464l137 775h246l-137 -775q-33 -190 44 -305q78 -115 248 -115t293 118q123 116 156 302l137 775h246l-137 -775q-74 -418 -367 -569
q-152 -109 -152 -195z" />
    <glyph glyph-name="uogonek" unicode="&#x173;" horiz-adv-x="1236" 
d="M981 -172q29 0 84 10l22 -174q-53 -23 -137 -22q-131 0 -211 63t-80 169t111 171l6 35q-154 -111 -332 -111t-272 127t-57 338l94 535h235l-90 -520q-22 -125 28 -195t173 -70t264 142l113 643h237l-172 -969q-141 -24 -141 -98t125 -74z" />
    <glyph glyph-name="Wcircumflex" unicode="&#x174;" horiz-adv-x="2205" 
d="M2294 1393l-711 -1401h-242l-157 938l-504 -938h-242l-215 1401h260l142 -983l530 983h207l166 -1002l497 1002h269zM1169 1548h-229l301 312h225l191 -312h-211l-111 181z" />
    <glyph glyph-name="wcircumflex" unicode="&#x175;" horiz-adv-x="1622" 
d="M1667 969l-508 -969h-231l-99 588l-303 -588h-207l-192 969h256l106 -592l308 592h198l103 -594l313 594h256zM797 1081h-230l301 312h226l190 -312h-211l-110 181z" />
    <glyph glyph-name="Ycircumflex" unicode="&#x176;" horiz-adv-x="1396" 
d="M821 469h-4l-82 -469h-248l82 471l-395 922h272l277 -654l510 654h307zM717 1548h-230l301 312h226l190 -312h-211l-110 181z" />
    <glyph glyph-name="ycircumflex" unicode="&#x177;" horiz-adv-x="1275" 
d="M1303 971l-891 -1454h-265l285 467l-299 987h252l217 -713l436 713h265zM612 1081h-229l299 312h227l189 -312h-209l-111 179z" />
    <glyph glyph-name="Ydieresis" unicode="&#x178;" horiz-adv-x="1396" 
d="M821 469h-4l-82 -469h-248l82 471l-395 922h272l277 -654l510 654h307zM1059 1550q-59 0 -101 40q-40 40 -40 98t40 97q40 40 100 40t102 -40t42 -97q0 -58 -42 -98t-101 -40zM651 1550q-59 0 -101 40t-42 98t42 97q42 40 101 40t101 -40t43 -97q0 -57 -42 -98
q-43 -40 -102 -40z" />
    <glyph glyph-name="Zacute" unicode="&#x179;" horiz-adv-x="1337" 
d="M1364 1276l-920 -1053h744l-39 -223h-1145l21 117l948 1052h-733l39 224h1105zM954 1546h-215l207 305h262z" />
    <glyph glyph-name="zacute" unicode="&#x17a;" horiz-adv-x="1017" 
d="M1008 842l-633 -645h520l-35 -197h-870l20 111h-2l645 661h-514l35 197h854zM725 1100h-215l207 305h262z" />
    <glyph glyph-name="Zdotaccent" unicode="&#x17b;" horiz-adv-x="1337" 
d="M1364 1276l-920 -1053h744l-39 -223h-1145l21 117l948 1052h-733l39 224h1105zM828 1544q-62 0 -106 41t-44 103t44 102q44 41 106 41t106 -41t43 -102q0 -61 -43 -103q-44 -41 -106 -41z" />
    <glyph glyph-name="zdotaccent" unicode="&#x17c;" horiz-adv-x="1017" 
d="M1008 842l-633 -645h520l-35 -197h-870l20 111h-2l645 661h-514l35 197h854zM451 1247q0 61 44 103t106 41q61 0 105 -41q44 -40 44 -102t-44 -103t-105 -41q-62 0 -106 41t-44 102z" />
    <glyph glyph-name="Zcaron" unicode="&#x17d;" horiz-adv-x="1337" 
d="M1364 1276l-920 -1053h744l-39 -223h-1145l21 117l948 1052h-733l39 224h1105zM760 1530l-191 311h207l115 -178l170 178h223l-299 -311h-225z" />
    <glyph glyph-name="zcaron" unicode="&#x17e;" horiz-adv-x="1017" 
d="M174 969h854l-20 -127l-633 -645h520l-35 -197h-870l20 111h-2l645 661h-514zM508 1081l-191 312h207l115 -179l170 179h223l-299 -312h-225z" />
    <glyph glyph-name="florin" unicode="&#x192;" horiz-adv-x="1148" 
d="M1065 1184q-176 0 -238 -197l-67 -219h344l-35 -201h-371l-114 -370q-60 -193 -182 -305t-293 -111q-111 0 -220 31l70 206q88 -18 141 -18q176 0 238 197l115 370h-265l35 201h293l68 219q59 193 180 305t293 111q111 0 221 -31l-70 -207q-88 19 -143 19z" />
    <glyph glyph-name="Acaron" unicode="&#x1cd;" horiz-adv-x="1536" 
d="M1012 537l-135 548l-330 -548h465zM1067 309h-655l-187 -309h-270l858 1401h229l361 -1401h-260zM840 1532l-191 311h207l115 -178l170 178h223l-299 -311h-225z" />
    <glyph glyph-name="acaron" unicode="&#x1ce;" horiz-adv-x="1251" 
d="M563 182q168 0 285 133l59 338q-70 133 -222 133q-151 0 -255 -105t-104 -231t66 -198q66 -70 171 -70zM86 408q0 236 178 410t408 173q172 0 278 -90l13 68h237l-172 -969h-235l12 68q-141 -90 -317 -90t-289 118q-113 119 -113 312zM641 1081l-190 312h206l115 -179
l170 179h223l-299 -312h-225z" />
    <glyph glyph-name="Scommaaccent" unicode="&#x218;" horiz-adv-x="1368" 
d="M428 -231q0 53 41 91t97 38t96 -38t40 -84t-24.5 -86t-149.5 -198h-131l117 164q-86 31 -86 113zM967 399q0 119 -176 150l-224 45q-344 66 -329 367q6 150 96 257q172 205 506 205q204 0 346 -94q74 -49 112.5 -138t28.5 -210h-244q4 109 -60.5 170t-203.5 61
t-227 -62.5t-88 -164.5q0 -121 196 -162l170 -35q356 -74 357 -321q0 -219 -175 -357.5t-439.5 -138.5t-402.5 130t-118 354h244q-8 -267 321 -267q141 0 225.5 57.5t84.5 153.5z" />
    <glyph glyph-name="scommaaccent" unicode="&#x219;" horiz-adv-x="1044" 
d="M260 -231q0 53 40 91t96 38t97.5 -38t41.5 -84t-25 -84t-150 -200h-133l117 164q-84 31 -84 113zM694 281q0 72 -100 90l-205 35q-242 45 -242 237q0 160 131.5 256t335.5 96q144 0 256 -61q60 -33 91.5 -99.5t23.5 -160.5l-219 -2q6 70 -45 105.5t-140 35.5t-140.5 -34
t-51.5 -83q0 -76 117 -98l176 -29q246 -47 246 -235q0 -170 -138.5 -267.5t-335 -97.5t-307 86.5t-94.5 272.5l219 -2q-4 -164 207 -164q96 0 155.5 31.5t59.5 87.5z" />
    <glyph glyph-name="uni021A" unicode="&#x21a;" horiz-adv-x="1327" 
d="M546 -102q56 0 96 -38t40 -84t-24.5 -86t-149.5 -198h-131l117 164q-86 31 -86 113q0 53 41 91t97 38zM1389 1165h-486l-205 -1165h-245l204 1165h-483l39 228h1214z" />
    <glyph glyph-name="uni021B" unicode="&#x21b;" horiz-adv-x="913" 
d="M421 -102q56 0 97 -38t41 -84t-24.5 -84t-149.5 -200h-133l117 164q-84 31 -84 113q0 53 40 91t96 38zM594 188q86 0 180 27l-4 -205q-141 -41 -233 -41q-170 0 -259.5 115t-58.5 289l70 397h-219l34 199h220l63 354h236l-64 -354h359l-33 -199h-361l-69 -397
q-16 -86 18.5 -135.5t120.5 -49.5z" />
    <glyph glyph-name="circumflex" unicode="&#x2c6;" 
d="M692 1305l-166 -181h-229l301 312h225l191 -312h-211z" />
    <glyph glyph-name="caron" unicode="&#x2c7;" 
d="M1081 1436l-299 -312h-225l-190 312h206l115 -179l170 179h223z" />
    <glyph glyph-name="breve" unicode="&#x2d8;" 
d="M640 1104q-142 0 -216 82t-47 233h172q-25 -158 110 -157q59 0 109 37q49 38 63 120h181q-27 -151 -129 -233q-101 -82 -243 -82z" />
    <glyph glyph-name="dotaccent" unicode="&#x2d9;" 
d="M624 1133q-62 0 -107 41q-44 41 -44 102t44 102q45 41 107 41t105 -41t43 -102t-43 -102t-105 -41z" />
    <glyph glyph-name="ring" unicode="&#x2da;" 
d="M563 1331q1 -41 27 -67t68 -27q42 0 69 27q27 28 27 68t-27 67t-69 27t-68 -28q-26 -26 -27 -67zM659 1546q101 0 165 -59t64 -155t-62 -156q-64 -60 -166 -60t-166 60q-63 60 -64 155q0 95 64 155t165 60z" />
    <glyph glyph-name="ogonek" unicode="&#x2db;" 
d="M739 -166q29 0 84 10l23 -174q-53 -23 -137 -22q-131 0 -211 63t-80 161t86 163q86 66 231 80l21 -109q-141 -23 -142 -100q0 -72 125 -72z" />
    <glyph glyph-name="tilde" unicode="&#x2dc;" 
d="M852 1432h162q2 -82 -31 -138t-84 -76q-110 -46 -221 9l-66 33q-59 28 -95 10t-36 -66h-162q-2 82 32 137q58 94 196 94q57 -1 108 -26l66 -33q67 -27 99 -9t32 65z" />
    <glyph glyph-name="hungarumlaut" unicode="&#x2dd;" 
d="M1018 1446l-166 -305h-197l119 305h244zM719 1446l-166 -305h-197l119 305h244z" />
    <glyph glyph-name="uni0326" unicode="&#x326;" horiz-adv-x="0" 
d="M469 -231q0 53 40 91t96 38t97 -38t41 -84t-24.5 -84t-149.5 -200h-133l117 164q-84 31 -84 113z" />
    <glyph glyph-name="Wgrave" unicode="&#x1e80;" horiz-adv-x="2205" 
d="M2294 1393l-711 -1401h-242l-157 938l-504 -938h-242l-215 1401h260l142 -983l530 983h207l166 -1002l497 1002h269zM1176 1546l-201 305h262l154 -305h-215z" />
    <glyph glyph-name="wgrave" unicode="&#x1e81;" horiz-adv-x="1622" 
d="M1667 969l-508 -969h-231l-99 588l-303 -588h-207l-192 969h256l106 -592l308 592h198l103 -594l313 594h256zM813 1100l-201 305h262l154 -305h-215z" />
    <glyph glyph-name="Wacute" unicode="&#x1e82;" horiz-adv-x="2205" 
d="M2294 1393l-711 -1401h-242l-157 938l-504 -938h-242l-215 1401h260l142 -983l530 983h207l166 -1002l497 1002h269zM1395 1546h-215l206 305h263z" />
    <glyph glyph-name="wacute" unicode="&#x1e83;" horiz-adv-x="1622" 
d="M1667 969l-508 -969h-231l-99 588l-303 -588h-207l-192 969h256l106 -592l308 592h198l103 -594l313 594h256zM1026 1100h-215l207 305h262z" />
    <glyph glyph-name="Wdieresis" unicode="&#x1e84;" horiz-adv-x="2205" 
d="M2294 1393l-711 -1401h-242l-157 938l-504 -938h-242l-215 1401h260l142 -983l530 983h207l166 -1002l497 1002h269zM1511 1550q-59 0 -100 40t-41 98t41 97q41 40 100 40t101 -40t43 -97q0 -57 -42 -98q-43 -40 -102 -40zM1104 1550q-59 0 -102 40q-42 40 -42 98t42 97
q42 40 102 40t101 -40q42 -40 42 -97q0 -58 -42 -98t-101 -40z" />
    <glyph glyph-name="wdieresis" unicode="&#x1e85;" horiz-adv-x="1622" 
d="M1667 969l-508 -969h-231l-99 588l-303 -588h-207l-192 969h256l106 -592l308 592h198l103 -594l313 594h256zM1106 1110q-59 0 -100 40t-41 97t41 97t100 40t101 -40t42 -96q0 -58 -42 -98t-101 -40zM698 1110q-59 0 -101 40t-42 97t42 97t101 40t102 -39q42 -39 42 -97
t-42 -98t-102 -40z" />
    <glyph glyph-name="Ygrave" unicode="&#x1ef2;" horiz-adv-x="1396" 
d="M821 469h-4l-82 -469h-248l82 471l-395 922h272l277 -654l510 654h307zM723 1546l-201 305h262l154 -305h-215z" />
    <glyph glyph-name="ygrave" unicode="&#x1ef3;" horiz-adv-x="1275" 
d="M1303 971l-891 -1454h-265l285 467l-299 987h252l217 -713l436 713h265zM621 1100l-201 305h262l154 -305h-215z" />
    <glyph glyph-name="endash" unicode="&#x2013;" horiz-adv-x="1445" 
d="M1260 657l-41 -235h-1018l41 235h1018z" />
    <glyph glyph-name="emdash" unicode="&#x2014;" horiz-adv-x="2131" 
d="M1946 657l-41 -235h-1704l41 235h1704z" />
    <glyph glyph-name="quoteleft" unicode="&#x2018;" horiz-adv-x="428" 
d="M459 1049q0 -57 -42 -99q-43 -42 -103 -41q-60 0 -102 40t-42 106t84 174l119 162h141l-143 -224q88 -37 88 -118z" />
    <glyph glyph-name="quoteright" unicode="&#x2019;" horiz-adv-x="434" 
d="M219 1272q0 57 42 97t102 40q61 0 103 -40q42 -41 42 -105t-84 -174l-117 -162h-143l143 225q-88 33 -88 119z" />
    <glyph glyph-name="quotesinglbase" unicode="&#x201a;" horiz-adv-x="434" 
d="M12 106q0 58 42 98t102 40t103 -40q42 -40 42 -105t-84 -173l-119 -162h-141l143 224q-88 37 -88 118z" />
    <glyph glyph-name="quotedblleft" unicode="&#x201c;" horiz-adv-x="808" 
d="M827 1049q0 -57 -42 -99t-101 -41q-59 0 -102 41t-43 106t84 173l118 162h142l-144 -224q88 -37 88 -118zM453 1049q0 -57 -42 -99q-41 -42 -101 -41q-60 0 -103 41t-43 104t84 175l119 162h141l-141 -224q86 -35 86 -118z" />
    <glyph glyph-name="quotedblright" unicode="&#x201d;" horiz-adv-x="808" 
d="M592 1272q0 57 42 97t102 40t102 -40q42 -41 43 -105q0 -64 -84 -174l-117 -162h-143l143 225q-88 33 -88 119zM217 1272q0 57 42 97t102 40q61 0 103 -40q42 -41 42 -105t-84 -174l-117 -162h-143l143 225q-88 33 -88 119z" />
    <glyph glyph-name="quotedblbase" unicode="&#x201e;" horiz-adv-x="815" 
d="M391 106q0 58 42 98q43 40 103 40t102 -40t42 -105t-84 -173l-117 -162h-143l143 224q-88 37 -88 118zM12 106q0 58 42 98t102 40t103 -40q42 -40 42 -105t-84 -173l-119 -162h-141l143 224q-88 37 -88 118z" />
    <glyph glyph-name="dagger" unicode="&#x2020;" horiz-adv-x="833" 
d="M586 1075l-78 -442h-158l80 442h-244l31 158h242l41 242h157l-41 -242h242l-29 -158h-243z" />
    <glyph glyph-name="daggerdbl" unicode="&#x2021;" horiz-adv-x="833" 
d="M588 997h241l-26 -157h-242l-37 -207h-157l36 207h-241l26 157h242l25 123h-244l29 158h241l33 197h158l-33 -197h242l-27 -158h-244z" />
    <glyph glyph-name="bullet" unicode="&#x2022;" horiz-adv-x="677" 
d="M360 342q-110 0 -190 80t-80 186t81 186t189 80t190 -80q81 -80 81 -186t-81 -186t-190 -80z" />
    <glyph glyph-name="ellipsis" unicode="&#x2026;" horiz-adv-x="1347" 
d="M1069 -35q-61 0 -103 40t-42 100q0 61 42 101t103 40t105 -40t43 -100q1 -60 -43 -101q-44 -40 -105 -40zM614 -35q-61 0 -103 40t-42 100q0 61 42 101t103 40q60 0 104 -40t44 -100t-44 -101q-44 -40 -104 -40zM150 -35q-61 0 -104 40q-42 40 -42 100q0 61 42 101
t104 40t104 -40q43 -40 43 -100t-43 -101q-43 -40 -104 -40z" />
    <glyph glyph-name="perthousand" unicode="&#x2030;" horiz-adv-x="3209" 
d="M2871 390q0 98 -52 152t-147 54q-94 0 -176 -76t-82 -175t54 -152q53 -53 147 -53t175 75q81 76 81 175zM1699 596q-95 0 -176 -76t-81 -175t53 -152t147 -53t176 75q80 76 80 175q0 98 -52 152t-147 54zM2714 766q152 0 246 -92t94 -242q0 -199 -142 -331t-340 -132
q-150 0 -244 92t-94 244q0 197 142 329t338 132zM1739 766q152 0 246 -92t94 -242q-1 -199 -143 -331t-339 -132q-149 0 -243 92t-94 244q0 197 142 329t337 132zM840 1050q0 100 -52 151q-52 52 -148 52q-96 1 -176 -75t-81 -176q0 -100 53 -152q53 -53 148 -53t176 76
q80 77 80 177zM735 0h-166l947 1393h165zM682 1423q152 0 246 -92t94 -241q0 -199 -142 -331t-339 -132q-152 0 -245 93t-93 243q0 199 142 329t337 131z" />
    <glyph glyph-name="guilsinglleft" unicode="&#x2039;" horiz-adv-x="548" 
d="M535 829l-254 -323l141 -303h-227l-144 313l254 313h230z" />
    <glyph glyph-name="guilsinglright" unicode="&#x203a;" horiz-adv-x="548" 
d="M25 203l254 323l-142 303h228l143 -313l-254 -313h-229z" />
    <glyph glyph-name="fraction" unicode="&#x2044;" horiz-adv-x="989" 
d="M104 0h-165l946 1393h166z" />
    <glyph glyph-name="zerosuperior" unicode="&#x2070;" horiz-adv-x="917" 
d="M504 737q122 -1 192 97t70 208q0 224 -168 226q-120 0 -192 -98t-72 -208q0 -226 170 -225zM627 1432q155 0 239 -96t84 -253q0 -213 -132 -361t-345 -149q-153 -1 -237 97t-84 252q0 214 133 362t342 148z" />
    <glyph glyph-name="foursuperior" unicode="&#x2074;" horiz-adv-x="847" 
d="M829 756h-110l-29 -158h-174l29 158h-441l19 112l340 551h182l-301 -508h227l41 230h174l-41 -230h111z" />
    <glyph glyph-name="fivesuperior" unicode="&#x2075;" horiz-adv-x="800" 
d="M518 1133q127 -1 193 -61t65 -163q0 -139 -105 -234t-251 -95t-218 66q-73 66 -71 179h178q14 -90 129 -90q70 0 119 42q49 43 49 95q0 108 -119 107h-266l78 440h537l-29 -162h-371l-22 -124h104z" />
    <glyph glyph-name="sixsuperior" unicode="&#x2076;" horiz-adv-x="788" 
d="M440 725q66 0 119 47q53 46 53 108t-35 96q-36 34 -95 34t-120 -41q-63 -68 -63 -121t37 -88q38 -35 104 -35zM791 918q0 -138 -111 -238t-256 -100t-223 72t-78 179q0 63 28 117t97 135l276 336h209l-209 -254q123 -1 195 -71t72 -176z" />
    <glyph glyph-name="sevensuperior" unicode="&#x2077;" horiz-adv-x="686" 
d="M813 1419l-18 -108l-469 -713h-201l432 653h-377l29 168h604z" />
    <glyph glyph-name="eightsuperior" unicode="&#x2078;" horiz-adv-x="837" 
d="M614 847q0 103 -124 101q-62 0 -107 -36t-45 -86q0 -103 126 -103q62 0 106 37t44 87zM664 1192q0 46 -31 72t-84 26t-95 -35t-42 -83t30 -74t82 -25q53 0 97 36q43 36 43 83zM811 850q0 -115 -105 -196t-259 -81q-154 1 -232 61t-78 157q0 160 166 237q-68 49 -67 135
q0 117 99 193t233 76t204 -56q72 -56 72 -149q0 -135 -125 -205q92 -57 92 -172z" />
    <glyph glyph-name="ninesuperior" unicode="&#x2079;" horiz-adv-x="788" 
d="M534 1290q-66 0 -120 -47t-54 -109t36 -95q36 -34 98 -34t114 39l2 3q64 69 64 121t-37 87t-103 35zM182 1098q0 138 110 238t256 100t224 -73t78 -179q0 -62 -28 -116t-97 -136l-276 -336h-209l209 254q-123 2 -195 72t-72 176z" />
    <glyph glyph-name="zeroinferior" unicode="&#x2080;" horiz-adv-x="917" 
d="M338 -223q122 0 192 97q70 98 70 208q0 226 -168 225q-120 0 -192 -97q-72 -98 -72 -208q0 -226 170 -225zM461 471q155 0 239 -96t84 -252q0 -213 -132 -361t-345 -149q-153 0 -237 97t-84 251q0 213 133 361t342 149z" />
    <glyph glyph-name="oneinferior" unicode="&#x2081;" horiz-adv-x="681" 
d="M528 -221l-24 -148h-606l26 148h221l86 487l-223 -63l27 153l305 97h94l-119 -674h213z" />
    <glyph glyph-name="twoinferior" unicode="&#x2082;" horiz-adv-x="749" 
d="M362 471q132 0 198 -60q66 -59 67 -139q0 -80 -40 -144t-155 -171l-194 -178h317l-27 -148h-600l17 93l350 313q88 76 118 114q29 39 29 79t-24 63q-25 23 -70 22q-123 0 -149 -118h-176q25 125 117 199q90 74 222 75z" />
    <glyph glyph-name="threeinferior" unicode="&#x2083;" horiz-adv-x="776" 
d="M586 -114q0 -106 -93 -190q-93 -83 -235 -83t-222 68q-79 68 -79 182h176q14 -96 127 -96q68 1 111 33t43 81q0 86 -138 86l25 144l-25 -144h-65l25 144h65q63 0 105 32q41 33 40 84q0 84 -101 84t-128 -96h-176q29 115 119 183t210 67q120 0 183 -58t63 -153
q1 -137 -112 -211q82 -51 82 -157z" />
    <glyph glyph-name="fourinferior" unicode="&#x2084;" horiz-adv-x="847" 
d="M666 -211h-111l-29 -158h-174l29 158h-440l18 113l340 551h182l-301 -508h228l41 229h174l-41 -229h110z" />
    <glyph glyph-name="fiveinferior" unicode="&#x2085;" horiz-adv-x="800" 
d="M354 166q127 0 193 -60t65 -163q0 -139 -105 -235t-251 -95t-218 67q-73 66 -71 179h178q14 -90 129 -90q70 0 119 42t49 94t-30 80q-31 28 -88 27h-267l78 441h537l-29 -162h-371l-22 -125h104z" />
    <glyph glyph-name="sixinferior" unicode="&#x2086;" horiz-adv-x="788" 
d="M274 -242q66 0 119 47t53 109t-35 95q-37 34 -105 34t-109 -41q-63 -68 -63 -121t36 -88q38 -35 104 -35zM625 -49q0 -139 -111 -239t-256 -99q-145 0 -223 73t-78 179q0 63 28 117t97 135l276 336h209l-209 -254q123 -2 195 -72t72 -176z" />
    <glyph glyph-name="seveninferior" unicode="&#x2087;" horiz-adv-x="686" 
d="M647 453l-18 -109l-469 -713h-201l432 654h-377l29 168h604z" />
    <glyph glyph-name="eightinferior" unicode="&#x2088;" horiz-adv-x="837" 
d="M170 -134q0 -104 126 -104q62 0 106 37t44 87q0 102 -118 102q-68 0 -113 -36t-45 -86zM496 232q0 48 -31 72q-31 26 -84 26t-95 -35t-42 -83t30 -74t82 -26q53 0 97 36q43 36 43 84zM643 -110q0 -114 -105 -196q-105 -81 -259 -81t-232 60t-78 157q0 160 166 238
q-68 49 -67 135q0 117 99 193t233 75q134 0 204 -56q72 -56 72 -149q0 -135 -125 -205q92 -57 92 -171z" />
    <glyph glyph-name="nineinferior" unicode="&#x2089;" horiz-adv-x="788" 
d="M368 328q-66 0 -120 -47q-53 -47 -53 -109q-1 -62 35 -95q36 -34 98 -34t114 39q65 65 65 120q1 56 -36 91t-103 35zM16 135q0 139 110 239t256 99q146 0 224 -73t78 -179q0 -63 -28 -117t-97 -135l-276 -336h-209l209 254q-123 2 -195 72t-72 176z" />
    <glyph glyph-name="Euro" unicode="&#x20ac;" horiz-adv-x="1710" 
d="M870 207q139 0 277 92q137 92 199 242h253q-94 -258 -304 -414t-458 -156q-249 0 -411 127t-203 340h-170l29 168h133q4 61 10 90l11 49h-130l29 168h160q109 227 325 367t468 141q252 -1 408 -155q155 -154 159 -414h-254q-9 160 -105 247t-253 87t-283 -73t-203 -200
h612l-71 -168h-615q-18 -74 -18 -139h575l-71 -168h-475q41 -109 139 -170t237 -61z" />
    <glyph glyph-name="uni2116" unicode="&#x2116;" horiz-adv-x="2779" 
d="M1567 209h979l-37 -209h-979zM2212 1163q-142 0 -240 -101t-98 -243q0 -106 63 -177t186 -71q123 1 223 103t99 244q0 104 -64 175q-65 70 -169 70zM2068 356q-192 0 -312 122t-120 313q0 247 182 417t433 170q193 0 313 -121t119 -309q-1 -246 -183 -419t-432 -173z
M1548 1393l-245 -1393h-193l-627 948l-166 -948h-245l245 1393h154l657 -983l175 983h245z" />
    <glyph glyph-name="uni2117" unicode="&#x2117;" horiz-adv-x="1720" 
d="M813 913v-200h133q57 -1 90 27t33 73t-33 73t-90 27h-133zM670 1049h278q121 0 195 -65t74 -171q0 -105 -75 -167t-200 -62h-129v-199h-143v664zM900 1268q-236 0 -408 -166t-172 -406t172 -406t408 -165q236 0 409 166q172 165 172 405t-172 406t-409 166zM901 1423
q307 0 526 -209t219 -518t-218 -518q-220 -209 -527 -209t-526 209t-219 518t219 518t526 209z" />
    <glyph glyph-name="trademark" unicode="&#x2122;" horiz-adv-x="1421" 
d="M1481 1391l-105 -598h-135l57 323l-206 -252h-72l-121 256l-55 -327h-133l104 598h96l174 -351l295 351h101zM526 1262l-82 -469h-133l82 469h-203l23 129h539l-23 -129h-203z" />
    <glyph glyph-name="oneeighth" unicode="&#x215b;" horiz-adv-x="1939" 
d="M1337 234q-1 -104 123 -103q62 0 107 37t45 86t-32 76q-32 26 -94 26t-105 -36q-44 -36 -44 -86zM1409 580q0 -100 114 -99q54 0 97 36t43 83q0 46 -31 72t-84 26t-96 -34q-43 -36 -43 -84zM1810 258q0 -115 -105 -196q-105 -80 -260 -80t-233 60t-77 157q0 160 165 235
q-68 51 -67 137q0 117 99 193q98 76 232 76t206 -56t73 -149q0 -135 -125 -205q92 -57 92 -172zM1552 1393l-946 -1393h-166l946 1393h166zM63 571l27 148h221l86 487l-223 -63l27 153l305 97h94l-119 -674h213l-24 -148h-607z" />
    <glyph glyph-name="threeeighths" unicode="&#x215c;" horiz-adv-x="1890" 
d="M1563 255q1 103 -123 101q-62 0 -107 -36t-45 -86q0 -104 126 -103q62 0 105 37q44 37 44 87zM1614 600q0 46 -31 72t-84 26t-95 -34t-42 -84q0 -48 30 -74t82 -25q52 0 97 36q43 36 43 83zM1761 258q0 -115 -105 -196q-105 -80 -259 -80t-233 60t-79 157q0 160 166 235
q-68 51 -67 137q0 115 100 192t232 77t206 -56q72 -56 72 -149q0 -135 -125 -205q92 -57 92 -172zM1522 1393l-947 -1393h-165l946 1393h166zM752 834q0 -106 -94 -190q-94 -83 -235 -83q-142 0 -221 68t-79 182h176q14 -96 127 -96q68 0 111 33t43 81q0 86 -138 86l25 144
l-25 -144h-65l24 144h66q63 0 104 33t41 84q0 84 -101 84t-128 -97h-176q29 115 119 183t210 68t183 -59q63 -58 63 -153q0 -137 -112 -211q82 -51 82 -157z" />
    <glyph glyph-name="fiveeighths" unicode="&#x215d;" horiz-adv-x="1902" 
d="M1575 255q1 103 -123 101q-62 0 -106 -36t-46 -86q0 -50 32 -76t94 -27q62 0 105 37q44 37 44 87zM1626 600q0 46 -30 72t-84 26q-53 0 -96 -34q-42 -36 -42 -84t30 -74t83 -25q53 0 96 36t43 83zM1098 199q0 160 166 235q-68 51 -68 137q0 115 100 192t232 77t206 -56
q73 -56 72 -149q0 -135 -125 -205q93 -57 93 -172t-106 -196q-106 -80 -258 -80q-154 0 -233 60t-79 157zM1518 1393l-947 -1393h-168l947 1393h168zM776 883q0 -139 -105 -235t-251 -95q-146 0 -218 67q-73 67 -71 179h178q14 -90 129 -90q70 0 119 42t49 94t-31 80t-88 27
h-266l78 441h537l-29 -162h-371l-22 -125h104q127 0 193 -60q65 -61 65 -163z" />
    <glyph glyph-name="seveneighths" unicode="&#x215e;" horiz-adv-x="1693" 
d="M1370 255q0 103 -124 101q-62 0 -106 -36t-44 -86q0 -104 124 -103q62 0 106 37t44 87zM1307 698q-53 0 -96 -34q-42 -36 -42 -84t30 -74t83 -25q53 0 96 36t43 83t-30 73q-31 25 -84 25zM1569 258q1 -115 -105 -196q-106 -80 -260 -80t-232 60q-79 60 -79 157
q0 160 166 235q-68 51 -68 137q1 115 101 192t232 77t205 -56t73 -149q0 -135 -125 -205q92 -57 92 -172zM1315 1393l-946 -1393h-166l946 1393h166zM141 571l432 654h-376l28 168h604l-18 -109l-469 -713h-201z" />
    <glyph glyph-name="arrowleft" unicode="&#x2190;" horiz-adv-x="1568" 
d="M1487 813v-225h-1002l447 -438l-156 -156l-706 704l706 707l156 -158l-445 -434h1000z" />
    <glyph glyph-name="arrowup" unicode="&#x2191;" horiz-adv-x="1595" 
d="M911 0h-225v1001l-436 -446l-158 156l707 706l704 -706l-155 -156l-437 444v-999z" />
    <glyph glyph-name="arrowright" unicode="&#x2192;" horiz-adv-x="1568" 
d="M82 813h999l-444 434l156 158l706 -707l-706 -704l-156 156l446 438h-1001v225z" />
    <glyph glyph-name="arrowdown" unicode="&#x2193;" horiz-adv-x="1595" 
d="M911 1393v-1000l437 445l155 -156l-704 -707l-707 707l158 156l436 -447v1002h225z" />
    <glyph glyph-name="arrowupleft" unicode="&#x2196;" horiz-adv-x="1634" 
d="M406 393h-222v1000h1000v-222h-621l1014 -1013l-160 -158l-1011 1012v-619z" />
    <glyph glyph-name="arrowupright" unicode="&#x2197;" horiz-adv-x="1646" 
d="M463 1171v222h999v-1000h-223l2 619l-1012 -1012l-159 158l1013 1013h-620z" />
    <glyph glyph-name="arrowdownright" unicode="&#x2198;" horiz-adv-x="1634" 
d="M1229 999h221v-999h-999v221h620l-1012 1014l158 158l1012 -1012v618z" />
    <glyph glyph-name="arrowdownleft" unicode="&#x2199;" horiz-adv-x="1628" 
d="M1184 221v-221h-1000v999h222v-618l1011 1012l160 -158l-1014 -1014h621z" />
    <glyph glyph-name="minus" unicode="&#x2212;" horiz-adv-x="1402" 
d="M264 784h977l-41 -217h-975z" />
    <glyph glyph-name="R.ss02" horiz-adv-x="1429" 
d="M745 686q160 0 261.5 75t101.5 184t-73.5 164.5t-203.5 55.5h-309l-84 -479h307zM1354 997q0 -217 -150.5 -362.5t-392.5 -169.5l459 -465h-312l-456 459h-105l-80 -459h-243l243 1393h562q221 0 348 -108t127 -288z" />
    <glyph glyph-name="Racute.ss02" horiz-adv-x="1429" 
d="M748 686q158 0 260 76t102 184t-74.5 163.5t-204.5 55.5h-307l-84 -479h308zM1354 997q0 -217 -150.5 -362.5t-392.5 -171.5l459 -463h-312l-456 459h-103l-80 -459h-245l243 1393h562q221 0 348 -108t127 -288zM901 1546h-215l207 305h262z" />
    <glyph glyph-name="Rcaron.ss02" horiz-adv-x="1429" 
d="M748 686q158 0 260 76t102 184t-74.5 163.5t-204.5 55.5h-307l-84 -479h308zM1354 997q0 -217 -150.5 -362.5t-392.5 -171.5l459 -463h-312l-456 459h-103l-80 -459h-245l243 1393h562q221 0 348 -108t127 -288zM707 1530l-191 311h207l115 -178l170 178h223l-299 -311
h-225z" />
    <glyph glyph-name="Rcommaaccent.ss02" horiz-adv-x="1429" 
d="M597 -102q56 0 97 -38t41 -84t-24.5 -84t-149.5 -200h-133l117 164q-84 31 -84 113q0 53 40 91t96 38zM748 686q158 0 260 76t102 184t-74.5 163.5t-204.5 55.5h-307l-84 -479h308zM1354 997q0 -217 -150.5 -362.5t-392.5 -171.5l459 -463h-312l-456 459h-103l-80 -459
h-245l243 1393h562q221 0 348 -108t127 -288z" />
    <glyph glyph-name="Q.ss03" horiz-adv-x="1677" 
d="M1475 -219l-31 -234q-342 49 -672 150l23 180zM778 205q225 0 404 171q178 171 178 406q0 174 -104 290t-287 116q-231 0 -405 -171t-173 -403q-1 -174 103 -292t284 -117zM997 1421q269 0 443 -177t174 -441q0 -219 -123 -413t-322 -306t-413 -113q-270 0 -444 177
q-173 177 -173 442q0 218 123 412q124 194 322 306t413 113z" />
    <glyph glyph-name="i.loclTRK" horiz-adv-x="577" 
d="M498 969l-172 -969h-236l170 969h238zM431 1464q61 0 105 -42t44 -102t-44 -101t-105 -41q-62 0 -104 41t-42 102t42 102t104 41z" />
    <glyph glyph-name="germandbls.case" horiz-adv-x="2699" 
d="M2300 399q0 119 -176 150l-223 45q-344 66 -330 367q12 221 188 341.5t397 120.5t363 -94q74 -49 113 -138t28 -210h-243q4 109 -60.5 170t-204 61t-227.5 -62.5t-88 -164.5q0 -121 197 -162l170 -35q178 -37 268 -113.5t90 -207.5q0 -219 -175 -357.5t-440.5 -138.5
t-403.5 130t-116 354h244q-8 -267 322 -267q141 0 224 57.5t83 153.5zM967 399q0 119 -176 150l-224 45q-344 66 -329 367q6 150 96 257q172 205 506 205q204 0 346 -94q74 -49 112.5 -138t28.5 -210h-244q4 109 -60.5 170t-203.5 61t-227 -62.5t-88 -164.5q0 -121 196 -162
l170 -35q356 -74 357 -321q0 -219 -175 -357.5t-439.5 -138.5t-402.5 130t-118 354h244q-8 -267 321 -267q141 0 225.5 57.5t84.5 153.5z" />
    <glyph glyph-name="l.ss01" horiz-adv-x="761" 
d="M371 -31q-160 0 -229.5 87t-41.5 251l203 1147h238l-201 -1128q-25 -137 106 -138q70 0 162 25l-4 -203q-147 -41 -233 -41z" />
    <glyph glyph-name="lacute.ss01" horiz-adv-x="761" 
d="M373 -31q-160 0 -230.5 87t-42.5 251l205 1147h236l-201 -1128q-23 -137 106 -138q74 0 162 25l-4 -203q-145 -41 -231 -41zM809 1890l-254 -305h-215l207 305h262z" />
    <glyph glyph-name="lcaron.ss01" horiz-adv-x="761" 
d="M930 1454l-146 -407h-178l84 407h240zM373 -31q-160 0 -230.5 87t-42.5 251l205 1147h236l-201 -1128q-23 -137 106 -138q74 0 162 25l-4 -203q-145 -41 -231 -41z" />
    <glyph glyph-name="lcommaaccent.ss01" horiz-adv-x="761" 
d="M182 -231q0 53 40 91t96 38t97.5 -38t41.5 -84t-24.5 -84t-149.5 -200h-133l116 164q-84 31 -84 113zM373 -31q-160 0 -230.5 87t-42.5 251l205 1147h236l-201 -1128q-23 -137 106 -138q74 0 162 25l-4 -203q-145 -41 -231 -41z" />
    <glyph glyph-name="ldot.ss01" horiz-adv-x="833" 
d="M626 530q-62 0 -106.5 41t-44.5 102.5t44 102.5t106.5 41t105.5 -41t43 -102.5t-43 -102.5t-105 -41zM373 -31q-160 0 -230.5 87t-42.5 251l205 1147h236l-201 -1128q-23 -137 106 -138q74 0 162 25l-4 -203q-145 -41 -231 -41z" />
    <glyph glyph-name="lslash.ss01" horiz-adv-x="761" 
d="M373 -31q-160 0 -230.5 87t-42.5 251l50 271l-117 -48l43 242l117 45l112 637h236l-95 -534l170 67l-41 -239l-172 -70l-63 -352q-23 -137 106 -138q74 0 162 25l-4 -203q-145 -41 -231 -41z" />
    <glyph glyph-name="y.ss04" horiz-adv-x="1236" 
d="M442 -483q-212 -1 -330 111t-104 290h240q-4 -84 56 -135t171 -51t193 70t102 192l25 139q-149 -111 -329 -111t-275 128q-95 127 -58 337l86 482h236l-82 -467q-23 -127 27 -196q50 -68 174 -68t264 139l104 592h236l-170 -975q-39 -219 -197 -348t-369 -129z" />
    <glyph glyph-name="yacute.ss04" horiz-adv-x="1236" 
d="M444 -483q-212 -1 -330 111t-104 290h240q-4 -84 55 -135t171 -51t193 70t103 192h-2l25 139q-154 -111 -316 -110q-195 0 -289 127t-55 337l84 482h236l-82 -467q-23 -127 28 -196q51 -68 176 -68t261 139l104 592h236l-172 -975h2q-37 -219 -195 -348t-369 -129z
M809 1100h-215l207 305h262z" />
    <glyph glyph-name="ycircumflex.ss04" horiz-adv-x="1236" 
d="M444 -483q-212 -1 -330 111t-104 290h240q-4 -84 55 -135t171 -51t193 70t103 192h-2l25 139q-154 -111 -316 -110q-195 0 -289 127t-55 337l84 482h236l-82 -467q-23 -127 28 -196q51 -68 176 -68t261 139l104 592h236l-172 -975h2q-37 -219 -195 -348t-369 -129z
M580 1081h-230l301 312h226l190 -312h-211l-111 181z" />
    <glyph glyph-name="ydieresis.ss04" horiz-adv-x="1236" 
d="M444 -483q-212 -1 -330 111t-104 290h240q-4 -84 55 -135t171 -51t193 70t103 192h-2l25 139q-154 -111 -316 -110q-195 0 -289 127t-55 337l84 482h236l-82 -467q-23 -127 28 -196q51 -68 176 -68t261 139l104 592h236l-172 -975h2q-37 -219 -195 -348t-369 -129z
M889 1110q-59 0 -101 40q-41 40 -40 97q0 57 40 98q40 39 100 39t102 -40t42 -96q0 -58 -42 -98t-101 -40zM481 1110q-59 0 -101 40t-42 97t42 97t101 40t102 -39q42 -39 42 -97q-1 -58 -43 -98t-101 -40z" />
    <glyph glyph-name="ygrave.ss04" horiz-adv-x="1236" 
d="M444 -483q-212 -1 -330 111t-104 290h240q-4 -84 55 -135t171 -51t193 70t103 192h-2l25 139q-154 -111 -316 -110q-195 0 -289 127t-55 337l84 482h236l-82 -467q-23 -127 28 -196q51 -68 176 -68t261 139l104 592h236l-172 -975h2q-37 -219 -195 -348t-369 -129z
M596 1100l-201 305h262l154 -305h-215z" />
    <glyph glyph-name="a.ss06" horiz-adv-x="1110" 
d="M446 174q143 0 283 86l25 135h-332q-66 -1 -106 -31t-40 -77t42 -80t128 -33zM666 997q184 -1 284 -115t66 -311l-101 -571h-231l8 51q-139 -71 -298 -71t-254 72t-95 194q0 156 116 240t308 85h315q39 223 -168 224q-82 0 -142 -37t-81 -103h-235q41 168 182 255
q142 87 326 87z" />
    <glyph glyph-name="aacute.ss06" horiz-adv-x="1110" 
d="M446 174q143 0 283 86l25 135h-332q-66 -1 -106 -31t-40 -77t42 -80t128 -33zM666 997q186 -1 286 -115t66 -311l-100 -571h-234l8 51q-139 -71 -298 -71t-254 72t-95 194q0 156 116 240t308 85h315q43 223 -168 224q-80 0 -140 -37t-81 -103h-237q41 168 182 255
q140 87 326 87zM764 1100h-215l207 305h262z" />
    <glyph glyph-name="abreve.ss06" horiz-adv-x="1110" 
d="M446 174q143 0 283 86l25 135h-332q-66 -1 -106 -31t-40 -77t42 -80t128 -33zM666 997q186 -1 286 -115t66 -311l-100 -571h-234l8 51q-139 -71 -298 -71t-254 72t-95 194q0 156 116 240t308 85h315q43 223 -168 224q-80 0 -140 -37t-81 -103h-237q41 168 182 255
q140 87 326 87zM651 1069q-141 0 -215 82t-47 233h172q-25 -158 111 -157q59 0 108 38t64 119h180q-28 -152 -130 -234t-243 -81z" />
    <glyph glyph-name="acaron.ss06" horiz-adv-x="1110" 
d="M446 174q143 0 283 86l25 135h-332q-66 -1 -106 -31t-40 -77t42 -80t128 -33zM666 997q186 -1 286 -115t66 -311l-100 -571h-234l8 51q-139 -71 -298 -71t-254 72t-95 194q0 156 116 240t308 85h315q43 223 -168 224q-80 0 -140 -37t-81 -103h-237q41 168 182 255
q140 87 326 87zM547 1081l-191 312h207l115 -179l170 179h223l-299 -312h-225z" />
    <glyph glyph-name="acircumflex.ss06" horiz-adv-x="1110" 
d="M446 174q143 0 283 86l25 135h-332q-66 -1 -106 -31t-40 -77t42 -80t128 -33zM666 997q186 -1 286 -115t66 -311l-100 -571h-234l8 51q-139 -71 -298 -71t-254 72t-95 194q0 156 116 240t308 85h315q43 223 -168 224q-80 0 -140 -37t-81 -103h-237q41 168 182 255
q140 87 326 87zM530 1081h-229l299 312h227l189 -312h-209l-113 179z" />
    <glyph glyph-name="adieresis.ss06" horiz-adv-x="1110" 
d="M446 174q143 0 283 86l25 135h-332q-66 -1 -106 -31t-40 -77t42 -80t128 -33zM666 997q186 -1 286 -115t66 -311l-100 -571h-234l8 51q-139 -71 -298 -71t-254 72t-95 194q0 156 116 240t308 85h315q43 223 -168 224q-80 0 -140 -37t-81 -103h-237q41 168 182 255
q140 87 326 87zM844 1110q-59 0 -101 40q-41 40 -41 97t41 97t101 40t101 -40q42 -40 42 -96q0 -58 -42 -98t-101 -40zM436 1110q-59 0 -101 40t-42 97t42 97t101 40t102 -39q42 -39 42 -97t-42 -98t-102 -40z" />
    <glyph glyph-name="agrave.ss06" horiz-adv-x="1110" 
d="M446 174q143 0 283 86l25 135h-332q-66 -1 -106 -31t-40 -77t42 -80t128 -33zM666 997q186 -1 286 -115t66 -311l-100 -571h-234l8 51q-139 -71 -298 -71t-254 72t-95 194q0 156 116 240t308 85h315q43 223 -168 224q-80 0 -140 -37t-81 -103h-237q41 168 182 255
q140 87 326 87zM551 1100l-201 305h262l154 -305h-215z" />
    <glyph glyph-name="amacron.ss06" horiz-adv-x="1110" 
d="M446 174q143 0 283 86l25 135h-332q-66 -1 -106 -31t-40 -77t42 -80t128 -33zM666 997q186 -1 286 -115t66 -311l-100 -571h-234l8 51q-139 -71 -298 -71t-254 72t-95 194q0 156 116 240t308 85h315q43 223 -168 224q-80 0 -140 -37t-81 -103h-237q41 168 182 255
q140 87 326 87zM956 1139h-571l33 172h571z" />
    <glyph glyph-name="aogonek.ss06" horiz-adv-x="1110" 
d="M446 174q143 0 283 86l25 135h-332q-66 -1 -106 -31t-40 -77t42 -80t128 -33zM770 -98q0 -74 125 -74q29 0 84 10l22 -174q-53 -23 -137 -22q-131 0 -211 63t-80 170t119 176q-139 -71 -298 -71t-254 72t-95 194q0 156 116 240t308 85h315q43 223 -168 224
q-80 0 -140 -37t-81 -103h-237q41 168 182 255q140 87 326 87q186 -1 286 -115t66 -311l-100 -571h-7q-141 -24 -141 -98z" />
    <glyph glyph-name="aring.ss06" horiz-adv-x="1110" 
d="M446 174q143 0 283 86l25 135h-332q-66 -1 -106 -31t-40 -77t42 -80t128 -33zM666 997q186 -1 286 -115t66 -311l-100 -571h-234l8 51q-139 -71 -298 -71t-254 72t-95 194q0 156 116 240t308 85h315q43 223 -168 224q-80 0 -140 -37t-81 -103h-237q41 168 182 255
q140 87 326 87zM690 1384q-44 0 -70 -26t-26 -68t27 -68t69 -26t70 27q26 27 26 67t-26 68q-27 26 -70 26zM690 1075q-102 -1 -166 59t-63 156q0 96 63 156q64 60 166 59q102 0 166 -59q64 -60 64 -156t-64 -156t-166 -59z" />
    <glyph glyph-name="atilde.ss06" horiz-adv-x="1110" 
d="M446 174q143 0 283 86l25 135h-332q-66 -1 -106 -31t-40 -77t42 -80t128 -33zM666 997q186 -1 286 -115t66 -311l-100 -571h-234l8 51q-139 -71 -298 -71t-254 72t-95 194q0 156 116 240t308 85h315q43 223 -168 224q-80 0 -140 -37t-81 -103h-237q41 168 182 255
q140 87 326 87zM504 1165h-162q0 81 34 137q57 94 193 94q57 -1 109 -26l65 -33q63 -27 97 -9t34 65h162q2 -82 -30 -138q-60 -100 -193 -96q-59 2 -113 29l-65 33q-59 29 -95 10t-36 -66z" />
    <glyph glyph-name="zero.osf" horiz-adv-x="1337" 
d="M618 193q166 -1 288 121t122 304q0 134 -79 218t-201 84q-168 0 -291 -122t-123 -304q0 -135 78 -218t206 -83zM776 1137q220 0 356 -132t136 -350q0 -297 -196 -488t-482 -192q-220 -1 -358 133t-138 349q0 295 198 487t484 193z" />
    <glyph glyph-name="one.osf" horiz-adv-x="1056" 
d="M971 201l-35 -201h-956l36 201h365l119 663l-367 -110l35 209l483 163h140l-164 -925h344z" />
    <glyph glyph-name="two.osf" horiz-adv-x="1144" 
d="M831 758q0 70 -47 114q-48 44 -150 46q-102 0 -178 -62t-102 -172h-237q41 201 188 323q147 121 353 121t314 -99t107 -253q1 -88 -29 -158t-116 -142t-137 -104q-51 -34 -139 -85t-105 -62l-43 -24h487l-34 -201h-930l20 127l336 217q263 160 339 234q76 75 90 112
q13 37 13 68z" />
    <glyph glyph-name="three.osf" horiz-adv-x="1148" 
d="M1004 158q0 -213 -148 -343t-376 -130q-228 1 -354 111t-120 290h238q14 -193 231 -192q127 0 211 68t84 158q0 91 -64 139q-65 48 -178 48l17 90l18 109l-35 -199h-108l35 199h108q117 0 193 68t76 162q0 92 -50 138q-49 46 -135 46q-201 0 -258 -191h-237
q45 182 186 292q142 109 332 109t292 -97t103 -253q0 -245 -211 -366q150 -86 150 -256z" />
    <glyph glyph-name="four.osf" horiz-adv-x="1308" 
d="M1151 0h-195l-49 -283h-235l49 283h-721l27 152l567 958h250l-525 -901h439l73 416h236l-74 -416h193z" />
    <glyph glyph-name="five.osf" horiz-adv-x="1208" 
d="M651 606q188 0 300 -104t112 -271q0 -225 -171 -384q-172 -159 -406 -159t-350 112q-116 110 -111 300h239q20 -203 246 -202q133 0 225 87t92 193t-64 163q-65 56 -179 56h-400l127 715h852l-41 -219h-624l-52 -287h205z" />
    <glyph glyph-name="six.osf" horiz-adv-x="1263" 
d="M593 166q128 0 231 98q104 98 104 215t-69 186t-187 69t-211 -66q-76 -76 -106 -134q-30 -59 -29 -126q0 -100 70 -171t197 -71zM717 948q207 0 331 -116t123 -295q0 -238 -179 -403t-449 -165q-207 0 -331 119t-124 301q0 109 44 197t149 217l489 590h287l-367 -445h27z
" />
    <glyph glyph-name="seven.osf" horiz-adv-x="1032" 
d="M1112 1106l-25 -148l-800 -1245h-273l752 1164h-660l39 229h967z" />
    <glyph glyph-name="eight.osf" horiz-adv-x="1282" 
d="M588 172q120 0 215 78q94 78 94 174t-67 152q-66 56 -186 57q-120 0 -212 -75t-92 -173t64 -156q64 -57 184 -57zM752 1231q-108 0 -193 -72q-84 -72 -84 -164q1 -92 59 -143t166 -51q108 -1 192 71q83 72 83 162t-57 144q-58 53 -166 53zM1165 439q0 -200 -174 -335
t-450 -135q-221 -1 -347 99t-126 250t78 256q79 105 219 163q-129 88 -129 242q0 190 161 317q162 127 400 127q190 0 306 -94t116 -244q-1 -241 -232 -354q178 -92 178 -292z" />
    <glyph glyph-name="nine.osf" horiz-adv-x="1263" 
d="M967 716q0 84 -70 155q-69 71 -197 71t-232 -98t-103 -215t69 -186t183 -69t217 68q80 86 106 138t27 136zM750 1139q206 0 330 -119t124 -301q0 -109 -44 -197t-148 -217l-490 -590h-286l366 445h-27q-207 0 -331 116t-123 295q0 238 179 403q180 165 450 165z" />
    <glyph glyph-name="zero.tf" horiz-adv-x="1292" 
d="M574 190q142 0 251 96q204 180 217 545q4 168 -60 270q-66 101 -210 101t-252 -96q-205 -181 -216 -546q-4 -166 62 -268t208 -102zM57 532q0 250 89 450q90 200 262 320t402 121t354 -155t124 -406t-89 -450t-260 -321q-171 -122 -401 -122t-355 157q-126 157 -126 406z
" />
    <glyph glyph-name="one.tf" horiz-adv-x="1292" 
d="M1157 201l-37 -201h-1054l36 201h402l166 929l-369 -110l37 209l481 164h139l-210 -1192h409z" />
    <glyph glyph-name="two.tf" horiz-adv-x="1292" 
d="M758 1212q-102 0 -180 -62q-76 -62 -105 -169h-237q43 201 191 322q149 121 355 121t314 -103q108 -102 108 -254q0 -66 -17 -119t-73 -124t-106 -122q-49 -51 -170 -167l-346 -334h581l-37 -201h-934l23 127l520 510q239 222 274 287t35 128q0 62 -47 111t-149 49z" />
    <glyph glyph-name="three.tf" horiz-adv-x="1292" 
d="M575 -29q-207 0 -333 111t-119 291h237q14 -193 234 -193q127 0 210 68t83 159t-65 139t-175 48h-108l32 199h109q118 1 194 69t76 160t-50 138t-136 46q-201 0 -258 -190h-238q48 184 188 293t332 109t292 -98q101 -97 102 -253q0 -246 -211 -367q150 -84 149 -256
q0 -213 -146 -343t-399 -130z" />
    <glyph glyph-name="four.tf" horiz-adv-x="1292" 
d="M1178 283h-193l-51 -283h-236l50 283h-721l26 151l570 959h247l-524 -901h438l74 415h238l-74 -415h192z" />
    <glyph glyph-name="five.tf" horiz-adv-x="1292" 
d="M739 887q188 -1 300 -105t112 -270q0 -225 -170 -384q-171 -159 -405 -159t-350 111t-111 301h237q25 -203 246 -203q133 0 226 87q94 87 94 193t-66 164q-66 56 -178 56h-400l125 715h852l-39 -219h-626l-49 -287h202z" />
    <glyph glyph-name="six.tf" horiz-adv-x="1292" 
d="M602 166q129 0 233 98q103 98 103 230q0 100 -69 170t-187 70t-211 -66q-76 -76 -106 -134q-30 -59 -29 -126q0 -102 68 -172t198 -70zM727 948q207 0 331 -116t124 -295q0 -238 -180 -403t-449 -165q-207 0 -331 119t-124 301q0 109 44 198t149 216l489 590h287
l-367 -445h27z" />
    <glyph glyph-name="seven.tf" horiz-adv-x="1292" 
d="M1303 1393l-27 -148l-801 -1245h-270l749 1163h-659l39 230h969z" />
    <glyph glyph-name="eight.tf" horiz-adv-x="1292" 
d="M612 172q120 0 212 78q94 78 94 174t-67 152t-187 57q-120 0 -210 -75q-92 -75 -92 -173q0 -97 65 -155t185 -58zM772 1231q-108 0 -192 -72q-82 -72 -82 -164t57 -143t166 -51q109 -1 193 71t83 162q0 90 -58 144q-59 53 -167 53zM1186 439q0 -200 -174 -335t-451 -135
q-221 1 -347 101t-126 250t79 254q79 105 220 163q-129 88 -129 242q0 190 162 317t399 127q190 0 306 -94t116 -244q0 -239 -231 -354q176 -92 176 -292z" />
    <glyph glyph-name="nine.tf" horiz-adv-x="1222" 
d="M724 1227q-128 -1 -231 -99t-103 -214t68 -186q68 -69 186 -69t212 66q76 76 106 134t29 126q0 100 -69 171q-70 71 -198 71zM774 1423q207 -1 331 -119t124 -300q0 -109 -44 -197t-149 -217l-489 -590h-287l367 444h-27q-207 0 -331 116t-124 296q-1 238 179 402
t450 165z" />
    <glyph glyph-name="zero.zero" horiz-adv-x="1470" 
d="M680 190q217 0 346 188t129 453q0 51 -10 107l-680 -651q80 -97 215 -97zM858 1202q-219 0 -348 -186t-129 -453q0 -41 2 -61l661 633q-73 67 -186 67zM897 1423q244 1 376 -161t132 -413t-94 -447q-93 -196 -271 -314t-412 -119q-234 0 -365 162q-132 162 -132 432
q0 358 214 609t552 251z" />
    <glyph glyph-name="zero.osf.zero" horiz-adv-x="1339" 
d="M621 193q165 -1 287 121t122 304q0 41 -10 87l-588 -445q78 -67 189 -67zM750 920q-168 0 -291 -122t-123 -304q0 -23 4 -64l575 438q-69 52 -165 52zM778 1137q220 0 356 -132t136 -350q0 -297 -196 -488t-482 -192q-220 -1 -358 133t-138 349q0 295 198 487t484 193z
" />
    <glyph glyph-name="zero.dnom" horiz-adv-x="917" 
d="M399 145q121 -1 192 97t71 208q0 224 -168 226q-121 0 -193 -97t-72 -208q0 -226 170 -226zM522 840q156 0 240 -96t84 -252q0 -214 -132 -362t-345 -148q-154 0 -238 97t-84 251q0 214 133 362t342 148z" />
    <glyph glyph-name="one.dnom" horiz-adv-x="681" 
d="M590 147l-25 -147h-606l27 147h221l86 488l-223 -64l26 154l305 96h95l-119 -674h213z" />
    <glyph glyph-name="two.dnom" horiz-adv-x="749" 
d="M504 598q0 41 -25 64t-69 22q-123 0 -150 -119h-176q25 125 117 200t223 75t198 -60q66 -60 66 -140t-40 -144t-154 -170l-195 -179h317l-26 -147h-600l16 92l350 314q88 76 118 114t30 78z" />
    <glyph glyph-name="three.dnom" horiz-adv-x="776" 
d="M647 254q0 -108 -93 -190q-94 -82 -236 -82t-221 68t-79 181h177q14 -96 127 -96q68 0 110 33t43 82q0 86 -137 86l6 35l-6 -35h-66l25 143h65q63 0 105 33q41 33 41 84q0 84 -101 84t-128 -96h-177q29 114 119 182t210 68t183 -58t64 -153q0 -137 -113 -211
q82 -51 82 -158z" />
    <glyph glyph-name="four.dnom" horiz-adv-x="847" 
d="M725 158h-111l-28 -158h-174l28 158h-440l18 112l340 551h183l-301 -508h227l41 230h174l-41 -230h111z" />
    <glyph glyph-name="five.dnom" horiz-adv-x="800" 
d="M414 535q126 -1 192 -61t66 -163q0 -139 -106 -234t-250 -95q-146 0 -219 66t-70 179h178q14 -90 129 -90q70 0 119 42q49 43 49 95q0 108 -119 107h-266l78 440h536l-29 -162h-370l-23 -124h105z" />
    <glyph glyph-name="six.dnom" horiz-adv-x="788" 
d="M336 127q66 0 119 47q53 46 53 108t-36 96t-98 34t-114 -39q-65 -65 -65 -121t37 -90q38 -35 104 -35zM686 319q0 -139 -111 -238t-256 -99t-223 72t-78 179q0 63 28 117t97 135l277 336h209l-209 -254q122 -1 194 -71t72 -177z" />
    <glyph glyph-name="seven.dnom" horiz-adv-x="686" 
d="M709 821l-19 -108l-469 -713h-201l433 653h-377l28 168h605z" />
    <glyph glyph-name="eight.dnom" horiz-adv-x="837" 
d="M508 255q0 103 -126 101q-62 0 -106 -36q-45 -36 -45 -86q-1 -104 125 -103q62 0 107 37t45 87zM557 600q-1 46 -31 72t-83 26t-96 -34q-42 -36 -42 -84t30 -74t83 -25q53 0 96 36t43 83zM31 199q0 160 166 237q-68 49 -68 135q0 117 99 193q98 76 232 76t206 -56
t71 -149q0 -135 -125 -205q92 -57 92 -172t-104 -196q-106 -80 -260 -80t-231 60q-78 60 -78 157z" />
    <glyph glyph-name="nine.dnom" horiz-adv-x="788" 
d="M569 571q0 55 -37 91q-38 36 -104 34q-66 0 -119 -47t-53 -108t36 -95t98 -34t114 39q65 65 65 120zM78 504q0 138 110 238t256 100t224 -73t77 -179q1 -62 -27 -116t-97 -136l-277 -336h-209l209 254q-122 2 -194 72t-72 176z" />
    <glyph glyph-name="zero.numr" horiz-adv-x="917" 
d="M504 717q122 0 192 97q70 98 70 208q0 226 -168 225q-120 0 -192 -97q-72 -98 -72 -208q0 -226 170 -225zM627 1411q155 0 239 -96t84 -252q0 -213 -132 -361t-345 -149q-153 0 -237 97t-84 251q0 213 133 361t342 149z" />
    <glyph glyph-name="one.numr" horiz-adv-x="681" 
d="M694 719l-24 -148h-607l27 148h221l86 487l-223 -63l27 153l305 97h94l-119 -674h213z" />
    <glyph glyph-name="two.numr" horiz-adv-x="749" 
d="M528 1411q132 0 198 -60q66 -59 67 -139q0 -80 -40 -144t-155 -171l-195 -178h318l-27 -148h-600l17 93l350 313q88 76 118 114q29 39 29 79t-24 63q-25 23 -70 22q-123 0 -149 -118h-177q25 125 117 199q91 74 223 75z" />
    <glyph glyph-name="three.numr" horiz-adv-x="776" 
d="M752 834q0 -106 -94 -190q-94 -83 -235 -83q-142 0 -221 68t-79 182h176q14 -96 127 -96q68 0 111 33t43 81q0 86 -138 86l25 144l-25 -144h-65l24 144h66q63 0 104 33t41 84q0 84 -101 84t-128 -97h-176q29 115 119 183t210 68t183 -59q63 -58 63 -153q1 -137 -112 -211
q82 -51 82 -157z" />
    <glyph glyph-name="four.numr" horiz-adv-x="847" 
d="M829 729h-110l-29 -158h-174l29 158h-441l19 113l340 551h182l-301 -508h227l41 229h174l-41 -229h111z" />
    <glyph glyph-name="five.numr" horiz-adv-x="800" 
d="M518 1106q127 0 193 -60t65 -163q0 -139 -105 -235t-251 -95q-146 0 -218 67q-73 67 -71 179h178q14 -90 129 -90q70 0 119 42t49 94t-31 80t-88 27h-266l78 441h537l-29 -162h-371l-22 -125h104z" />
    <glyph glyph-name="six.numr" horiz-adv-x="788" 
d="M440 698q66 0 119 47t53 109t-35 95q-36 34 -95 34t-120 -41q-63 -68 -63 -121t37 -88q38 -35 104 -35zM791 891q0 -139 -111 -239t-256 -99q-145 0 -223 73t-78 179q0 63 28 117t97 135l276 336h209l-209 -254q123 -2 195 -72t72 -176z" />
    <glyph glyph-name="seven.numr" horiz-adv-x="686" 
d="M813 1393l-18 -109l-469 -713h-201l432 654h-377l29 168h604z" />
    <glyph glyph-name="eight.numr" horiz-adv-x="837" 
d="M336 814q0 -103 126 -103q62 0 106 37t44 87q0 101 -118 101q-68 0 -113 -36t-45 -86zM547 1278q-53 0 -95 -35t-42 -83t30 -74t82 -26q53 0 96 37q44 36 44 83q0 46 -31 72t-84 26zM809 838q1 -115 -105 -196t-260 -81q-154 1 -231 61q-78 60 -78 156q0 160 166 238
q-68 49 -68 135q-1 117 99 193t234 75q134 0 204 -56q72 -56 72 -149q0 -134 -125 -204q92 -57 92 -172z" />
    <glyph glyph-name="nine.numr" horiz-adv-x="788" 
d="M534 1276q-66 0 -120 -47t-54 -109t36 -95q36 -34 98 -34t114 39q65 65 65 120q1 56 -36 91t-103 35zM182 1083q0 139 110 239t256 99t224 -73t78 -179q0 -63 -28 -116t-97 -135l-276 -336h-209l209 254q-123 2 -195 72t-72 175z" />
    <glyph glyph-name="backslash.case" horiz-adv-x="763" 
d="M33 1495h243l455 -1591h-244z" />
    <glyph glyph-name="bullet.case" horiz-adv-x="677" 
d="M369 414q-109 0 -189 80t-80 186t80 186t189 80t189 -80t81 -186q-1 -106 -81 -186t-189 -80z" />
    <glyph glyph-name="exclamdown.case" horiz-adv-x="575" 
d="M252 963h209l-150 -963h-248zM415 1411q60 0 103 -41t43 -100q0 -58 -43 -100t-103 -42t-104 41q-43 41 -43 101t43 100q44 41 104 41z" />
    <glyph glyph-name="periodcentered.case" horiz-adv-x="428" 
d="M249 539q-60 0 -104 41q-43 41 -43 100t43 100t103 41t104 -41q43 -41 43 -100t-43 -100t-103 -41z" />
    <glyph glyph-name="questiondown.case" horiz-adv-x="1093" 
d="M488 -25q-189 -1 -301 103q-111 104 -111 285t134 307t347 143l37 156h184l-37 -318h-133q-123 0 -212 -77t-89 -180t54 -155q53 -53 145 -53t166 52t100 137h240q-49 -182 -192 -291t-332 -109zM744 1128q-60 0 -103 41t-43 101t43 100q43 41 103 41t104 -41t43 -100
q0 -59 -43 -101q-44 -41 -104 -41z" />
    <glyph glyph-name="slash.case" horiz-adv-x="763" 
d="M-68 -96l734 1591h245l-735 -1591h-244z" />
    <glyph glyph-name="braceleft.case" horiz-adv-x="724" 
d="M586 1149l-37 -205q-18 -106 -57 -158t-136 -81q86 -29 106 -82t3 -158l-35 -205q-12 -66 29 -106t121 -39l-41 -232q-183 1 -279 105t-67 272l36 199q15 89 -17 115t-134 26l37 209q100 0 142 26t58 115l33 199q31 170 163 273t316 104l-39 -232q-80 0 -135 -41
t-67 -104z" />
    <glyph glyph-name="braceright.case" horiz-adv-x="722" 
d="M217 260l35 205q18 103 58 157t136 83q-86 29 -108 81t-2 158l37 205q10 65 -31 105t-121 40l41 232q186 0 282 -104t64 -273l-35 -199q-16 -90 17 -116t133 -25l-35 -209q-102 0 -143 -26t-58 -115l-34 -199q-31 -170 -162 -273t-318 -104l41 232q80 0 136 41
q55 41 67 104z" />
    <glyph glyph-name="bracketleft.case" horiz-adv-x="782" 
d="M332 133h297l-41 -227h-533l281 1589h532l-41 -227h-295z" />
    <glyph glyph-name="bracketright.case" horiz-adv-x="780" 
d="M526 1268h-297l41 227h533l-281 -1589h-532l39 227h297z" />
    <glyph glyph-name="parenleft.case" horiz-adv-x="755" 
d="M692 1507l125 -172q-197 -170 -288 -302t-128 -320q-37 -189 9 -331t182 -310l-180 -154q-174 182 -239 378t-21 434t170 414q126 177 370 363z" />
    <glyph glyph-name="parenright.case" horiz-adv-x="755" 
d="M244 1354l180 153q174 -182 238 -378q64 -195 21 -433q-42 -238 -169 -414t-371 -364l-127 172q197 170 289 302t128 320t-9 332q-45 142 -180 310z" />
    <glyph glyph-name="emdash.case" horiz-adv-x="2131" 
d="M1970 799l-41 -238h-1704l41 238h1704z" />
    <glyph glyph-name="endash.case" horiz-adv-x="1445" 
d="M1284 799l-41 -238h-1018l41 238h1018z" />
    <glyph glyph-name="hyphen.case" horiz-adv-x="1130" 
d="M969 797l-41 -238h-705l41 238h705z" />
    <glyph glyph-name="guillemotleft.case" horiz-adv-x="923" 
d="M938 995l-254 -321l143 -303h-229l-143 311l254 313h229zM563 995l-254 -321l144 -303h-230l-141 311l252 313h229z" />
    <glyph glyph-name="guillemotright.case" horiz-adv-x="923" 
d="M428 371l254 321l-141 303h227l143 -313l-254 -311h-229zM55 371l252 321l-141 303h229l142 -313l-254 -311h-228z" />
    <glyph glyph-name="guilsinglleft.case" horiz-adv-x="548" 
d="M563 995l-254 -321l144 -303h-230l-141 311l252 313h229z" />
    <glyph glyph-name="guilsinglright.case" horiz-adv-x="548" 
d="M37 371l254 321l-144 303h230l143 -313l-254 -311h-229z" />
    <glyph glyph-name="florin.tf" horiz-adv-x="1292" 
d="M1182 1184q-176 0 -238 -197l-67 -219h344l-35 -201h-371l-115 -370q-61 -193 -182 -305t-293 -111q-111 0 -219 31l70 206q88 -18 141 -18q176 0 238 197l114 370h-264l35 201h293l67 219q58 193 180 305t294 111q113 0 219 -31l-68 -207q-88 19 -143 19z" />
    <glyph glyph-name="cent.tf" horiz-adv-x="1292" 
d="M674 776q-106 0 -199 -84q-92 -84 -115 -211q-24 -127 38 -209t188 -82q90 0 162 48t104 124h242q-47 -150 -171 -250t-282 -126l-39 -215h-213l39 219q-172 35 -254 168t-49 320q33 188 166 324t313 175l43 250h215l-45 -244q150 -25 237 -127t83 -250h-242
q-4 78 -59 124q-56 46 -162 46z" />
    <glyph glyph-name="dollar.tf" horiz-adv-x="1292" 
d="M940 399q0 119 -176 150l-223 45q-344 66 -330 367q8 188 139 304t328 148l41 232h213l-39 -226q187 -17 305 -123t102 -315h-243q4 109 -61 170q-66 61 -204 61t-226 -62t-89 -165q0 -121 197 -162l170 -35q356 -74 356 -321q0 -207 -158 -342t-405 -152l-39 -219h-213
l41 232q-186 35 -283 158q-96 124 -77 311h243q-8 -267 322 -267q141 0 225 58t84 153z" />
    <glyph glyph-name="Euro.tf" horiz-adv-x="1292" 
d="M678 190q156 0 235 97h291q-88 -150 -234 -234t-346 -84t-330 127t-159 342h-125l31 168h90q2 66 16 139h-81l28 168h99q88 231 273 371t431 139q193 0 313 -95t150 -259h-275q-47 133 -229 133q-138 0 -242 -78t-163 -211h561l-72 -168h-543q-14 -74 -16 -139h502
l-74 -168h-414q27 -116 97 -182t186 -66z" />
    <glyph glyph-name="sterling.tf" horiz-adv-x="1292" 
d="M832 1214q-110 0 -198 -76q-87 -76 -110 -204l-28 -162h419l-34 -207h-422l-64 -358h742l-37 -207h-1106l37 207h129l63 358h-129l37 207h127l29 162q41 219 202 354q163 135 379 135q216 -1 330 -115t105 -304h-240q-5 98 -63 154t-168 56z" />
    <glyph glyph-name="yen.tf" horiz-adv-x="1292" 
d="M852 596h295l-29 -172h-362l-19 -105h363l-31 -172h-362l-27 -147h-248l27 147h-365l31 172h364l19 105h-365l31 172h299l-270 797h272l211 -658l442 658h273z" />
    <glyph glyph-name="arrowdown.ss05" horiz-adv-x="1433" 
d="M1247 819l-528 -530l-533 534l146 144l385 -387l385 385z" />
    <glyph glyph-name="arrowleft.ss05" horiz-adv-x="1433" 
d="M1102 291l-385 385l-385 -387l-146 143l533 535l528 -531z" />
    <glyph glyph-name="arrowright.ss05" horiz-adv-x="1167" 
d="M506 690l387 -385l-145 -145l-531 528l535 533l143 -146z" />
    <glyph glyph-name="arrowup.ss05" horiz-adv-x="1161" 
d="M946 688l-532 -528l-144 145l385 383l-389 387l146 146z" />
    <glyph glyph-name="at.case" horiz-adv-x="2009" 
d="M965 391q143 0 245 129q2 45 13 92l22 131q-61 125 -196 125q-104 0 -192 -77q-87 -77 -87 -183t56 -162q57 -55 139 -55zM1188 1503q332 -1 536 -201t205 -518q1 -246 -109 -414t-323 -167q-213 0 -268 135q-141 -135 -330 -135q-154 0 -250 102t-96 256q0 201 148 346
t348 146q147 0 237 -84l10 61h211l-84 -465q-29 -186 97 -186q119 0 177 105t58 270q0 256 -166 420t-430 163q-221 1 -420 -107t-321 -294t-121 -401q0 -257 171 -429t430 -172t478 154l70 -145q-266 -174 -583 -174q-317 1 -531 209t-213 530q0 272 150 503
q151 230 397 361t522 131z" />
    <glyph glyph-name="bar.case" horiz-adv-x="534" 
d="M555 1495l-281 -1591h-219l281 1591h219z" />
    <glyph glyph-name="brokenbar.case" horiz-adv-x="534" 
d="M274 -96h-219l123 690h219zM434 803h-219l121 692h219z" />
    <glyph glyph-name="registered.ss07" horiz-adv-x="1720" 
d="M778 713h133q57 -1 90 27t33 73t-33 73t-90 27h-133v-200zM1182 813q0 -150 -135 -205l159 -223h-180l-135 199h-113v-199h-141v664h276q121 0 195 -65t74 -171zM303 696q0 -240 171 -406t408 -165q238 0 410 167q172 166 172 404t-173 405t-409 167t-408 -166
q-171 -166 -171 -406zM883 1423q307 0 526 -209t219 -518t-219 -518t-526 -209t-527 209q-219 209 -219 518t219 518q220 209 527 209z" />
    <glyph glyph-name="caron.alt" 
d="M780 1393l-145 -408h-178l84 408h239z" />
    <glyph glyph-name="acute.case" 
d="M983 1782l-254 -305h-215l207 305h262z" />
    <glyph glyph-name="breve.case" 
d="M640 1481q-142 0 -216 82t-47 233h172q-25 -158 110 -158q59 0 109 39q49 39 63 119h181q-27 -152 -129 -234q-101 -82 -243 -81z" />
    <glyph glyph-name="caron.case" 
d="M1081 1774l-299 -314h-225l-190 314h206l115 -181l170 181h223z" />
    <glyph glyph-name="circumflex.case" 
d="M692 1640l-166 -180h-229l301 314h225l191 -314h-211z" />
    <glyph glyph-name="dieresis.case" 
d="M868 1790q60 0 102 -40t42 -97t-42 -97t-102 -40t-100 40q-41 40 -41 96q0 58 41 98t100 40zM461 1790q59 0 101 -40t42 -97t-42 -97t-101 -40t-102 39q-42 39 -42 97t42 98q43 40 102 40z" />
    <glyph glyph-name="dotaccent.case" 
d="M772 1654q0 -60 -43 -102t-105 -43q-62 0 -107 42q-44 43 -44 103t44 102q45 42 107 42t105 -42t43 -102z" />
    <glyph glyph-name="grave.case" 
d="M807 1477h-215l-201 305h262z" />
    <glyph glyph-name="hungarumlaut.case" 
d="M1018 1782l-166 -305h-197l119 305h244zM719 1782l-166 -305h-197l119 305h244z" />
    <glyph glyph-name="macron.case" 
d="M965 1690l-33 -172h-572l33 172h572z" />
    <glyph glyph-name="ring.case" 
d="M563 1709q1 -43 27 -69t68 -26t69 26t27 69q0 42 -27 68q-27 25 -69 25t-68 -26t-27 -67zM659 1925q101 0 165 -59q64 -60 64 -156t-62 -156q-64 -60 -166 -61q-102 0 -166 60q-64 61 -64 157t64 156t165 59z" />
    <glyph glyph-name="tilde.case" 
d="M852 1769h162q2 -109 -54 -171t-133 -62q-76 0 -149 29l-66 30q-59 29 -95 11t-36 -66h-162q-2 82 32 137q60 97 196 95q57 -2 108 -27l66 -33q67 -28 99 -10t32 67z" />
    </font>
</defs>
</svg>
